%TF.GenerationSoftware,KiCad,Pcbnew,9.0.4*%
%TF.CreationDate,2025-10-05T15:55:27+02:00*%
%TF.ProjectId,Chessboard,43686573-7362-46f6-9172-642e6b696361,rev?*%
%TF.SameCoordinates,Original*%
%TF.FileFunction,Soldermask,Top*%
%TF.FilePolarity,Negative*%
%FSLAX46Y46*%
G04 Gerber Fmt 4.6, Leading zero omitted, Abs format (unit mm)*
G04 Created by KiCad (PCBNEW 9.0.4) date 2025-10-05 15:55:27*
%MOMM*%
%LPD*%
G01*
G04 APERTURE LIST*
G04 Aperture macros list*
%AMRoundRect*
0 Rectangle with rounded corners*
0 $1 Rounding radius*
0 $2 $3 $4 $5 $6 $7 $8 $9 X,Y pos of 4 corners*
0 Add a 4 corners polygon primitive as box body*
4,1,4,$2,$3,$4,$5,$6,$7,$8,$9,$2,$3,0*
0 Add four circle primitives for the rounded corners*
1,1,$1+$1,$2,$3*
1,1,$1+$1,$4,$5*
1,1,$1+$1,$6,$7*
1,1,$1+$1,$8,$9*
0 Add four rect primitives between the rounded corners*
20,1,$1+$1,$2,$3,$4,$5,0*
20,1,$1+$1,$4,$5,$6,$7,0*
20,1,$1+$1,$6,$7,$8,$9,0*
20,1,$1+$1,$8,$9,$2,$3,0*%
G04 Aperture macros list end*
%ADD10C,3.200000*%
%ADD11R,1.500000X1.050000*%
%ADD12O,1.500000X1.050000*%
%ADD13C,1.600000*%
%ADD14RoundRect,0.250000X0.725000X-0.600000X0.725000X0.600000X-0.725000X0.600000X-0.725000X-0.600000X0*%
%ADD15O,1.950000X1.700000*%
%ADD16RoundRect,0.250001X0.949999X-0.949999X0.949999X0.949999X-0.949999X0.949999X-0.949999X-0.949999X0*%
%ADD17C,2.400000*%
%ADD18RoundRect,0.250000X-0.725000X0.600000X-0.725000X-0.600000X0.725000X-0.600000X0.725000X0.600000X0*%
%ADD19O,2.400000X1.600000*%
%ADD20R,2.400000X1.600000*%
%ADD21R,1.700000X1.700000*%
%ADD22C,1.700000*%
%ADD23R,1.600000X1.600000*%
%ADD24O,1.600000X1.600000*%
%ADD25C,1.800000*%
G04 APERTURE END LIST*
D10*
%TO.C,*%
X113000000Y-42500000D03*
%TD*%
%TO.C,*%
X177000000Y-42500000D03*
%TD*%
%TO.C,*%
X113000000Y-118500000D03*
%TD*%
%TO.C,REF\u002A\u002A*%
X177000000Y-118500000D03*
%TD*%
D11*
%TO.C,Q3*%
X141580000Y-59230000D03*
D12*
X141580000Y-60500000D03*
X141580000Y-61770000D03*
%TD*%
D11*
%TO.C,Q2*%
X147080000Y-62730000D03*
D12*
X147080000Y-64000000D03*
X147080000Y-65270000D03*
%TD*%
D13*
%TO.C,R1*%
X135580000Y-67500000D03*
X125420000Y-67500000D03*
%TD*%
%TO.C,R4*%
X135580000Y-57000000D03*
X125420000Y-57000000D03*
%TD*%
D14*
%TO.C,J3*%
X171644801Y-87084198D03*
D15*
X171644801Y-84584198D03*
X171644801Y-82084198D03*
X171644801Y-79584198D03*
X171644801Y-77084198D03*
%TD*%
D13*
%TO.C,R6*%
X135580000Y-50000000D03*
X125420000Y-50000000D03*
%TD*%
D11*
%TO.C,Q5*%
X141580000Y-52230000D03*
D12*
X141580000Y-53500000D03*
X141580000Y-54770000D03*
%TD*%
D11*
%TO.C,Q6*%
X147080000Y-49230000D03*
D12*
X147080000Y-50500000D03*
X147080000Y-51770000D03*
%TD*%
D16*
%TO.C,C3*%
X120000000Y-77500000D03*
D17*
X120000000Y-72500000D03*
%TD*%
D18*
%TO.C,J1*%
X172525000Y-50500000D03*
D15*
X172525000Y-53000000D03*
X172525000Y-55500000D03*
%TD*%
D14*
%TO.C,J4*%
X155975000Y-51250000D03*
D15*
X155975000Y-48750000D03*
X155975000Y-46250000D03*
X155975000Y-43750000D03*
%TD*%
D14*
%TO.C,J2*%
X163975000Y-51250000D03*
D15*
X163975000Y-48750000D03*
X163975000Y-46250000D03*
X163975000Y-43750000D03*
%TD*%
D14*
%TO.C,J5*%
X171644801Y-69584198D03*
D15*
X171644801Y-67084198D03*
X171644801Y-64584198D03*
X171644801Y-62084198D03*
%TD*%
D19*
%TO.C,U5*%
X113824801Y-101840000D03*
X113824801Y-104380000D03*
X113824801Y-106920000D03*
D20*
X113824801Y-109460000D03*
D19*
X113824801Y-112000000D03*
X113824801Y-114540000D03*
X123984801Y-114540000D03*
X123984801Y-112000000D03*
D20*
X123984801Y-109460000D03*
D19*
X123984801Y-106920000D03*
X123984801Y-104380000D03*
X123984801Y-101840000D03*
%TD*%
D11*
%TO.C,Q7*%
X141580000Y-45230000D03*
D12*
X141580000Y-46500000D03*
X141580000Y-47770000D03*
%TD*%
D19*
%TO.C,U4*%
X166580000Y-73820000D03*
X166580000Y-71280000D03*
X166580000Y-68740000D03*
D20*
X166580000Y-66200000D03*
D19*
X166580000Y-63660000D03*
X166580000Y-61120000D03*
X156420000Y-61120000D03*
X156420000Y-63660000D03*
D20*
X156420000Y-66200000D03*
D19*
X156420000Y-68740000D03*
X156420000Y-71280000D03*
X156420000Y-73820000D03*
%TD*%
D13*
%TO.C,R5*%
X135580000Y-53500000D03*
X125420000Y-53500000D03*
%TD*%
D19*
%TO.C,U1*%
X166580000Y-88820000D03*
X166580000Y-86280000D03*
X166580000Y-83740000D03*
D20*
X166580000Y-81200000D03*
D19*
X166580000Y-78660000D03*
X166580000Y-76120000D03*
X156420000Y-76120000D03*
X156420000Y-78660000D03*
D20*
X156420000Y-81200000D03*
D19*
X156420000Y-83740000D03*
X156420000Y-86280000D03*
X156420000Y-88820000D03*
%TD*%
D21*
%TO.C,SW1*%
X170960000Y-44500000D03*
D22*
X173500000Y-44500000D03*
%TD*%
D11*
%TO.C,Q1*%
X141580000Y-66230000D03*
D12*
X141580000Y-67500000D03*
X141580000Y-68770000D03*
%TD*%
D13*
%TO.C,R3*%
X135580000Y-60500000D03*
X125420000Y-60500000D03*
%TD*%
D11*
%TO.C,Q8*%
X147080000Y-42230000D03*
D12*
X147080000Y-43500000D03*
X147080000Y-44770000D03*
%TD*%
D23*
%TO.C,A2*%
X129744801Y-75784198D03*
D24*
X129744801Y-78324198D03*
X129744801Y-80864198D03*
X129744801Y-83404198D03*
X129744801Y-85944198D03*
X129744801Y-88484198D03*
X129744801Y-91024198D03*
X129744801Y-93564198D03*
X129744801Y-96104198D03*
X129744801Y-98644198D03*
X129744801Y-101184198D03*
X129744801Y-103724198D03*
X129744801Y-106264198D03*
X129744801Y-108804198D03*
X129744801Y-111344198D03*
X144984801Y-111344198D03*
X144984801Y-108804198D03*
X144984801Y-106264198D03*
X144984801Y-103724198D03*
X144984801Y-101184198D03*
X144984801Y-98644198D03*
X144984801Y-96104198D03*
X144984801Y-93564198D03*
X144984801Y-91024198D03*
X144984801Y-88484198D03*
X144984801Y-85944198D03*
X144984801Y-83404198D03*
X144984801Y-80864198D03*
X144984801Y-78324198D03*
X144984801Y-75784198D03*
%TD*%
D25*
%TO.C,U2*%
X173930000Y-109780000D03*
X173930000Y-107240000D03*
X173930000Y-104700000D03*
X173930000Y-102160000D03*
X173930000Y-99620000D03*
X173930000Y-97080000D03*
X173930000Y-94540000D03*
X173930000Y-92000000D03*
X151070000Y-92000000D03*
X151070000Y-94540000D03*
X151070000Y-97080000D03*
X151070000Y-99620000D03*
X151070000Y-102160000D03*
X151070000Y-104700000D03*
X151070000Y-107240000D03*
X151070000Y-109780000D03*
%TD*%
D19*
%TO.C,U3*%
X113824801Y-86140000D03*
X113824801Y-88680000D03*
X113824801Y-91220000D03*
D20*
X113824801Y-93760000D03*
D19*
X113824801Y-96300000D03*
X113824801Y-98840000D03*
X123984801Y-98840000D03*
X123984801Y-96300000D03*
D20*
X123984801Y-93760000D03*
D19*
X123984801Y-91220000D03*
X123984801Y-88680000D03*
X123984801Y-86140000D03*
%TD*%
D13*
%TO.C,R8*%
X135580000Y-43000000D03*
X125420000Y-43000000D03*
%TD*%
%TO.C,R7*%
X135580000Y-46500000D03*
X125420000Y-46500000D03*
%TD*%
D11*
%TO.C,Q4*%
X147080000Y-55730000D03*
D12*
X147080000Y-57000000D03*
X147080000Y-58270000D03*
%TD*%
D13*
%TO.C,R2*%
X135580000Y-64000000D03*
X125420000Y-64000000D03*
%TD*%
M02*
