%TF.GenerationSoftware,KiCad,Pcbnew,9.0.4*%
%TF.CreationDate,2025-10-05T15:55:27+02:00*%
%TF.ProjectId,Chessboard,43686573-7362-46f6-9172-642e6b696361,rev?*%
%TF.SameCoordinates,Original*%
%TF.FileFunction,Legend,Top*%
%TF.FilePolarity,Positive*%
%FSLAX46Y46*%
G04 Gerber Fmt 4.6, Leading zero omitted, Abs format (unit mm)*
G04 Created by KiCad (PCBNEW 9.0.4) date 2025-10-05 15:55:27*
%MOMM*%
%LPD*%
G01*
G04 APERTURE LIST*
%ADD10C,0.100000*%
%ADD11C,0.150000*%
%ADD12C,0.120000*%
G04 APERTURE END LIST*
D10*
X112500000Y-49000000D02*
X120500000Y-49000000D01*
X120500000Y-63000000D01*
X112500000Y-63000000D01*
X112500000Y-49000000D01*
X116872419Y-61696115D02*
X115872419Y-61696115D01*
X115872419Y-61696115D02*
X116586704Y-61362782D01*
X116586704Y-61362782D02*
X115872419Y-61029449D01*
X115872419Y-61029449D02*
X116872419Y-61029449D01*
X116872419Y-60124687D02*
X116348609Y-60124687D01*
X116348609Y-60124687D02*
X116253371Y-60172306D01*
X116253371Y-60172306D02*
X116205752Y-60267544D01*
X116205752Y-60267544D02*
X116205752Y-60458020D01*
X116205752Y-60458020D02*
X116253371Y-60553258D01*
X116824800Y-60124687D02*
X116872419Y-60219925D01*
X116872419Y-60219925D02*
X116872419Y-60458020D01*
X116872419Y-60458020D02*
X116824800Y-60553258D01*
X116824800Y-60553258D02*
X116729561Y-60600877D01*
X116729561Y-60600877D02*
X116634323Y-60600877D01*
X116634323Y-60600877D02*
X116539085Y-60553258D01*
X116539085Y-60553258D02*
X116491466Y-60458020D01*
X116491466Y-60458020D02*
X116491466Y-60219925D01*
X116491466Y-60219925D02*
X116443847Y-60124687D01*
X116872419Y-59648496D02*
X116205752Y-59648496D01*
X115872419Y-59648496D02*
X115920038Y-59696115D01*
X115920038Y-59696115D02*
X115967657Y-59648496D01*
X115967657Y-59648496D02*
X115920038Y-59600877D01*
X115920038Y-59600877D02*
X115872419Y-59648496D01*
X115872419Y-59648496D02*
X115967657Y-59648496D01*
X116205752Y-59172306D02*
X116872419Y-59172306D01*
X116300990Y-59172306D02*
X116253371Y-59124687D01*
X116253371Y-59124687D02*
X116205752Y-59029449D01*
X116205752Y-59029449D02*
X116205752Y-58886592D01*
X116205752Y-58886592D02*
X116253371Y-58791354D01*
X116253371Y-58791354D02*
X116348609Y-58743735D01*
X116348609Y-58743735D02*
X116872419Y-58743735D01*
X116872419Y-58267544D02*
X115872419Y-58267544D01*
X116253371Y-58267544D02*
X116205752Y-58172306D01*
X116205752Y-58172306D02*
X116205752Y-57981830D01*
X116205752Y-57981830D02*
X116253371Y-57886592D01*
X116253371Y-57886592D02*
X116300990Y-57838973D01*
X116300990Y-57838973D02*
X116396228Y-57791354D01*
X116396228Y-57791354D02*
X116681942Y-57791354D01*
X116681942Y-57791354D02*
X116777180Y-57838973D01*
X116777180Y-57838973D02*
X116824800Y-57886592D01*
X116824800Y-57886592D02*
X116872419Y-57981830D01*
X116872419Y-57981830D02*
X116872419Y-58172306D01*
X116872419Y-58172306D02*
X116824800Y-58267544D01*
X116872419Y-57219925D02*
X116824800Y-57315163D01*
X116824800Y-57315163D02*
X116777180Y-57362782D01*
X116777180Y-57362782D02*
X116681942Y-57410401D01*
X116681942Y-57410401D02*
X116396228Y-57410401D01*
X116396228Y-57410401D02*
X116300990Y-57362782D01*
X116300990Y-57362782D02*
X116253371Y-57315163D01*
X116253371Y-57315163D02*
X116205752Y-57219925D01*
X116205752Y-57219925D02*
X116205752Y-57077068D01*
X116205752Y-57077068D02*
X116253371Y-56981830D01*
X116253371Y-56981830D02*
X116300990Y-56934211D01*
X116300990Y-56934211D02*
X116396228Y-56886592D01*
X116396228Y-56886592D02*
X116681942Y-56886592D01*
X116681942Y-56886592D02*
X116777180Y-56934211D01*
X116777180Y-56934211D02*
X116824800Y-56981830D01*
X116824800Y-56981830D02*
X116872419Y-57077068D01*
X116872419Y-57077068D02*
X116872419Y-57219925D01*
X116872419Y-56029449D02*
X116348609Y-56029449D01*
X116348609Y-56029449D02*
X116253371Y-56077068D01*
X116253371Y-56077068D02*
X116205752Y-56172306D01*
X116205752Y-56172306D02*
X116205752Y-56362782D01*
X116205752Y-56362782D02*
X116253371Y-56458020D01*
X116824800Y-56029449D02*
X116872419Y-56124687D01*
X116872419Y-56124687D02*
X116872419Y-56362782D01*
X116872419Y-56362782D02*
X116824800Y-56458020D01*
X116824800Y-56458020D02*
X116729561Y-56505639D01*
X116729561Y-56505639D02*
X116634323Y-56505639D01*
X116634323Y-56505639D02*
X116539085Y-56458020D01*
X116539085Y-56458020D02*
X116491466Y-56362782D01*
X116491466Y-56362782D02*
X116491466Y-56124687D01*
X116491466Y-56124687D02*
X116443847Y-56029449D01*
X116872419Y-55553258D02*
X116205752Y-55553258D01*
X116396228Y-55553258D02*
X116300990Y-55505639D01*
X116300990Y-55505639D02*
X116253371Y-55458020D01*
X116253371Y-55458020D02*
X116205752Y-55362782D01*
X116205752Y-55362782D02*
X116205752Y-55267544D01*
X116872419Y-54505639D02*
X115872419Y-54505639D01*
X116824800Y-54505639D02*
X116872419Y-54600877D01*
X116872419Y-54600877D02*
X116872419Y-54791353D01*
X116872419Y-54791353D02*
X116824800Y-54886591D01*
X116824800Y-54886591D02*
X116777180Y-54934210D01*
X116777180Y-54934210D02*
X116681942Y-54981829D01*
X116681942Y-54981829D02*
X116396228Y-54981829D01*
X116396228Y-54981829D02*
X116300990Y-54934210D01*
X116300990Y-54934210D02*
X116253371Y-54886591D01*
X116253371Y-54886591D02*
X116205752Y-54791353D01*
X116205752Y-54791353D02*
X116205752Y-54600877D01*
X116205752Y-54600877D02*
X116253371Y-54505639D01*
X116205752Y-53362781D02*
X116872419Y-53124686D01*
X116872419Y-53124686D02*
X116205752Y-52886591D01*
X116872419Y-51981829D02*
X116872419Y-52553257D01*
X116872419Y-52267543D02*
X115872419Y-52267543D01*
X115872419Y-52267543D02*
X116015276Y-52362781D01*
X116015276Y-52362781D02*
X116110514Y-52458019D01*
X116110514Y-52458019D02*
X116158133Y-52553257D01*
X116777180Y-51553257D02*
X116824800Y-51505638D01*
X116824800Y-51505638D02*
X116872419Y-51553257D01*
X116872419Y-51553257D02*
X116824800Y-51600876D01*
X116824800Y-51600876D02*
X116777180Y-51553257D01*
X116777180Y-51553257D02*
X116872419Y-51553257D01*
X115872419Y-50886591D02*
X115872419Y-50791353D01*
X115872419Y-50791353D02*
X115920038Y-50696115D01*
X115920038Y-50696115D02*
X115967657Y-50648496D01*
X115967657Y-50648496D02*
X116062895Y-50600877D01*
X116062895Y-50600877D02*
X116253371Y-50553258D01*
X116253371Y-50553258D02*
X116491466Y-50553258D01*
X116491466Y-50553258D02*
X116681942Y-50600877D01*
X116681942Y-50600877D02*
X116777180Y-50648496D01*
X116777180Y-50648496D02*
X116824800Y-50696115D01*
X116824800Y-50696115D02*
X116872419Y-50791353D01*
X116872419Y-50791353D02*
X116872419Y-50886591D01*
X116872419Y-50886591D02*
X116824800Y-50981829D01*
X116824800Y-50981829D02*
X116777180Y-51029448D01*
X116777180Y-51029448D02*
X116681942Y-51077067D01*
X116681942Y-51077067D02*
X116491466Y-51124686D01*
X116491466Y-51124686D02*
X116253371Y-51124686D01*
X116253371Y-51124686D02*
X116062895Y-51077067D01*
X116062895Y-51077067D02*
X115967657Y-51029448D01*
X115967657Y-51029448D02*
X115920038Y-50981829D01*
X115920038Y-50981829D02*
X115872419Y-50886591D01*
X118872419Y-61696115D02*
X117872419Y-61696115D01*
X117872419Y-61696115D02*
X118586704Y-61362782D01*
X118586704Y-61362782D02*
X117872419Y-61029449D01*
X117872419Y-61029449D02*
X118872419Y-61029449D01*
X118872419Y-60124687D02*
X118348609Y-60124687D01*
X118348609Y-60124687D02*
X118253371Y-60172306D01*
X118253371Y-60172306D02*
X118205752Y-60267544D01*
X118205752Y-60267544D02*
X118205752Y-60458020D01*
X118205752Y-60458020D02*
X118253371Y-60553258D01*
X118824800Y-60124687D02*
X118872419Y-60219925D01*
X118872419Y-60219925D02*
X118872419Y-60458020D01*
X118872419Y-60458020D02*
X118824800Y-60553258D01*
X118824800Y-60553258D02*
X118729561Y-60600877D01*
X118729561Y-60600877D02*
X118634323Y-60600877D01*
X118634323Y-60600877D02*
X118539085Y-60553258D01*
X118539085Y-60553258D02*
X118491466Y-60458020D01*
X118491466Y-60458020D02*
X118491466Y-60219925D01*
X118491466Y-60219925D02*
X118443847Y-60124687D01*
X118205752Y-59791353D02*
X118205752Y-59410401D01*
X117872419Y-59648496D02*
X118729561Y-59648496D01*
X118729561Y-59648496D02*
X118824800Y-59600877D01*
X118824800Y-59600877D02*
X118872419Y-59505639D01*
X118872419Y-59505639D02*
X118872419Y-59410401D01*
X118872419Y-59077067D02*
X117872419Y-59077067D01*
X118872419Y-58648496D02*
X118348609Y-58648496D01*
X118348609Y-58648496D02*
X118253371Y-58696115D01*
X118253371Y-58696115D02*
X118205752Y-58791353D01*
X118205752Y-58791353D02*
X118205752Y-58934210D01*
X118205752Y-58934210D02*
X118253371Y-59029448D01*
X118253371Y-59029448D02*
X118300990Y-59077067D01*
X118872419Y-58172305D02*
X118205752Y-58172305D01*
X117872419Y-58172305D02*
X117920038Y-58219924D01*
X117920038Y-58219924D02*
X117967657Y-58172305D01*
X117967657Y-58172305D02*
X117920038Y-58124686D01*
X117920038Y-58124686D02*
X117872419Y-58172305D01*
X117872419Y-58172305D02*
X117967657Y-58172305D01*
X118872419Y-57267544D02*
X118348609Y-57267544D01*
X118348609Y-57267544D02*
X118253371Y-57315163D01*
X118253371Y-57315163D02*
X118205752Y-57410401D01*
X118205752Y-57410401D02*
X118205752Y-57600877D01*
X118205752Y-57600877D02*
X118253371Y-57696115D01*
X118824800Y-57267544D02*
X118872419Y-57362782D01*
X118872419Y-57362782D02*
X118872419Y-57600877D01*
X118872419Y-57600877D02*
X118824800Y-57696115D01*
X118824800Y-57696115D02*
X118729561Y-57743734D01*
X118729561Y-57743734D02*
X118634323Y-57743734D01*
X118634323Y-57743734D02*
X118539085Y-57696115D01*
X118539085Y-57696115D02*
X118491466Y-57600877D01*
X118491466Y-57600877D02*
X118491466Y-57362782D01*
X118491466Y-57362782D02*
X118443847Y-57267544D01*
X118824800Y-56838972D02*
X118872419Y-56743734D01*
X118872419Y-56743734D02*
X118872419Y-56553258D01*
X118872419Y-56553258D02*
X118824800Y-56458020D01*
X118824800Y-56458020D02*
X118729561Y-56410401D01*
X118729561Y-56410401D02*
X118681942Y-56410401D01*
X118681942Y-56410401D02*
X118586704Y-56458020D01*
X118586704Y-56458020D02*
X118539085Y-56553258D01*
X118539085Y-56553258D02*
X118539085Y-56696115D01*
X118539085Y-56696115D02*
X118491466Y-56791353D01*
X118491466Y-56791353D02*
X118396228Y-56838972D01*
X118396228Y-56838972D02*
X118348609Y-56838972D01*
X118348609Y-56838972D02*
X118253371Y-56791353D01*
X118253371Y-56791353D02*
X118205752Y-56696115D01*
X118205752Y-56696115D02*
X118205752Y-56553258D01*
X118205752Y-56553258D02*
X118253371Y-56458020D01*
X118872419Y-55219924D02*
X117872419Y-55219924D01*
X118348609Y-55219924D02*
X118348609Y-54648496D01*
X118872419Y-54648496D02*
X117872419Y-54648496D01*
X118777180Y-54172305D02*
X118824800Y-54124686D01*
X118824800Y-54124686D02*
X118872419Y-54172305D01*
X118872419Y-54172305D02*
X118824800Y-54219924D01*
X118824800Y-54219924D02*
X118777180Y-54172305D01*
X118777180Y-54172305D02*
X118872419Y-54172305D01*
X114777180Y-61124687D02*
X114824800Y-61172306D01*
X114824800Y-61172306D02*
X114872419Y-61315163D01*
X114872419Y-61315163D02*
X114872419Y-61410401D01*
X114872419Y-61410401D02*
X114824800Y-61553258D01*
X114824800Y-61553258D02*
X114729561Y-61648496D01*
X114729561Y-61648496D02*
X114634323Y-61696115D01*
X114634323Y-61696115D02*
X114443847Y-61743734D01*
X114443847Y-61743734D02*
X114300990Y-61743734D01*
X114300990Y-61743734D02*
X114110514Y-61696115D01*
X114110514Y-61696115D02*
X114015276Y-61648496D01*
X114015276Y-61648496D02*
X113920038Y-61553258D01*
X113920038Y-61553258D02*
X113872419Y-61410401D01*
X113872419Y-61410401D02*
X113872419Y-61315163D01*
X113872419Y-61315163D02*
X113920038Y-61172306D01*
X113920038Y-61172306D02*
X113967657Y-61124687D01*
X114872419Y-60696115D02*
X113872419Y-60696115D01*
X114872419Y-60267544D02*
X114348609Y-60267544D01*
X114348609Y-60267544D02*
X114253371Y-60315163D01*
X114253371Y-60315163D02*
X114205752Y-60410401D01*
X114205752Y-60410401D02*
X114205752Y-60553258D01*
X114205752Y-60553258D02*
X114253371Y-60648496D01*
X114253371Y-60648496D02*
X114300990Y-60696115D01*
X114824800Y-59410401D02*
X114872419Y-59505639D01*
X114872419Y-59505639D02*
X114872419Y-59696115D01*
X114872419Y-59696115D02*
X114824800Y-59791353D01*
X114824800Y-59791353D02*
X114729561Y-59838972D01*
X114729561Y-59838972D02*
X114348609Y-59838972D01*
X114348609Y-59838972D02*
X114253371Y-59791353D01*
X114253371Y-59791353D02*
X114205752Y-59696115D01*
X114205752Y-59696115D02*
X114205752Y-59505639D01*
X114205752Y-59505639D02*
X114253371Y-59410401D01*
X114253371Y-59410401D02*
X114348609Y-59362782D01*
X114348609Y-59362782D02*
X114443847Y-59362782D01*
X114443847Y-59362782D02*
X114539085Y-59838972D01*
X114824800Y-58981829D02*
X114872419Y-58886591D01*
X114872419Y-58886591D02*
X114872419Y-58696115D01*
X114872419Y-58696115D02*
X114824800Y-58600877D01*
X114824800Y-58600877D02*
X114729561Y-58553258D01*
X114729561Y-58553258D02*
X114681942Y-58553258D01*
X114681942Y-58553258D02*
X114586704Y-58600877D01*
X114586704Y-58600877D02*
X114539085Y-58696115D01*
X114539085Y-58696115D02*
X114539085Y-58838972D01*
X114539085Y-58838972D02*
X114491466Y-58934210D01*
X114491466Y-58934210D02*
X114396228Y-58981829D01*
X114396228Y-58981829D02*
X114348609Y-58981829D01*
X114348609Y-58981829D02*
X114253371Y-58934210D01*
X114253371Y-58934210D02*
X114205752Y-58838972D01*
X114205752Y-58838972D02*
X114205752Y-58696115D01*
X114205752Y-58696115D02*
X114253371Y-58600877D01*
X114824800Y-58172305D02*
X114872419Y-58077067D01*
X114872419Y-58077067D02*
X114872419Y-57886591D01*
X114872419Y-57886591D02*
X114824800Y-57791353D01*
X114824800Y-57791353D02*
X114729561Y-57743734D01*
X114729561Y-57743734D02*
X114681942Y-57743734D01*
X114681942Y-57743734D02*
X114586704Y-57791353D01*
X114586704Y-57791353D02*
X114539085Y-57886591D01*
X114539085Y-57886591D02*
X114539085Y-58029448D01*
X114539085Y-58029448D02*
X114491466Y-58124686D01*
X114491466Y-58124686D02*
X114396228Y-58172305D01*
X114396228Y-58172305D02*
X114348609Y-58172305D01*
X114348609Y-58172305D02*
X114253371Y-58124686D01*
X114253371Y-58124686D02*
X114205752Y-58029448D01*
X114205752Y-58029448D02*
X114205752Y-57886591D01*
X114205752Y-57886591D02*
X114253371Y-57791353D01*
X114872419Y-57315162D02*
X113872419Y-57315162D01*
X114253371Y-57315162D02*
X114205752Y-57219924D01*
X114205752Y-57219924D02*
X114205752Y-57029448D01*
X114205752Y-57029448D02*
X114253371Y-56934210D01*
X114253371Y-56934210D02*
X114300990Y-56886591D01*
X114300990Y-56886591D02*
X114396228Y-56838972D01*
X114396228Y-56838972D02*
X114681942Y-56838972D01*
X114681942Y-56838972D02*
X114777180Y-56886591D01*
X114777180Y-56886591D02*
X114824800Y-56934210D01*
X114824800Y-56934210D02*
X114872419Y-57029448D01*
X114872419Y-57029448D02*
X114872419Y-57219924D01*
X114872419Y-57219924D02*
X114824800Y-57315162D01*
X114872419Y-56267543D02*
X114824800Y-56362781D01*
X114824800Y-56362781D02*
X114777180Y-56410400D01*
X114777180Y-56410400D02*
X114681942Y-56458019D01*
X114681942Y-56458019D02*
X114396228Y-56458019D01*
X114396228Y-56458019D02*
X114300990Y-56410400D01*
X114300990Y-56410400D02*
X114253371Y-56362781D01*
X114253371Y-56362781D02*
X114205752Y-56267543D01*
X114205752Y-56267543D02*
X114205752Y-56124686D01*
X114205752Y-56124686D02*
X114253371Y-56029448D01*
X114253371Y-56029448D02*
X114300990Y-55981829D01*
X114300990Y-55981829D02*
X114396228Y-55934210D01*
X114396228Y-55934210D02*
X114681942Y-55934210D01*
X114681942Y-55934210D02*
X114777180Y-55981829D01*
X114777180Y-55981829D02*
X114824800Y-56029448D01*
X114824800Y-56029448D02*
X114872419Y-56124686D01*
X114872419Y-56124686D02*
X114872419Y-56267543D01*
X114872419Y-55077067D02*
X114348609Y-55077067D01*
X114348609Y-55077067D02*
X114253371Y-55124686D01*
X114253371Y-55124686D02*
X114205752Y-55219924D01*
X114205752Y-55219924D02*
X114205752Y-55410400D01*
X114205752Y-55410400D02*
X114253371Y-55505638D01*
X114824800Y-55077067D02*
X114872419Y-55172305D01*
X114872419Y-55172305D02*
X114872419Y-55410400D01*
X114872419Y-55410400D02*
X114824800Y-55505638D01*
X114824800Y-55505638D02*
X114729561Y-55553257D01*
X114729561Y-55553257D02*
X114634323Y-55553257D01*
X114634323Y-55553257D02*
X114539085Y-55505638D01*
X114539085Y-55505638D02*
X114491466Y-55410400D01*
X114491466Y-55410400D02*
X114491466Y-55172305D01*
X114491466Y-55172305D02*
X114443847Y-55077067D01*
X114872419Y-54600876D02*
X114205752Y-54600876D01*
X114396228Y-54600876D02*
X114300990Y-54553257D01*
X114300990Y-54553257D02*
X114253371Y-54505638D01*
X114253371Y-54505638D02*
X114205752Y-54410400D01*
X114205752Y-54410400D02*
X114205752Y-54315162D01*
X114872419Y-53553257D02*
X113872419Y-53553257D01*
X114824800Y-53553257D02*
X114872419Y-53648495D01*
X114872419Y-53648495D02*
X114872419Y-53838971D01*
X114872419Y-53838971D02*
X114824800Y-53934209D01*
X114824800Y-53934209D02*
X114777180Y-53981828D01*
X114777180Y-53981828D02*
X114681942Y-54029447D01*
X114681942Y-54029447D02*
X114396228Y-54029447D01*
X114396228Y-54029447D02*
X114300990Y-53981828D01*
X114300990Y-53981828D02*
X114253371Y-53934209D01*
X114253371Y-53934209D02*
X114205752Y-53838971D01*
X114205752Y-53838971D02*
X114205752Y-53648495D01*
X114205752Y-53648495D02*
X114253371Y-53553257D01*
D11*
X145690057Y-60595238D02*
X145642438Y-60690476D01*
X145642438Y-60690476D02*
X145547200Y-60785714D01*
X145547200Y-60785714D02*
X145404342Y-60928571D01*
X145404342Y-60928571D02*
X145356723Y-61023809D01*
X145356723Y-61023809D02*
X145356723Y-61119047D01*
X145594819Y-61071428D02*
X145547200Y-61166666D01*
X145547200Y-61166666D02*
X145451961Y-61261904D01*
X145451961Y-61261904D02*
X145261485Y-61309523D01*
X145261485Y-61309523D02*
X144928152Y-61309523D01*
X144928152Y-61309523D02*
X144737676Y-61261904D01*
X144737676Y-61261904D02*
X144642438Y-61166666D01*
X144642438Y-61166666D02*
X144594819Y-61071428D01*
X144594819Y-61071428D02*
X144594819Y-60880952D01*
X144594819Y-60880952D02*
X144642438Y-60785714D01*
X144642438Y-60785714D02*
X144737676Y-60690476D01*
X144737676Y-60690476D02*
X144928152Y-60642857D01*
X144928152Y-60642857D02*
X145261485Y-60642857D01*
X145261485Y-60642857D02*
X145451961Y-60690476D01*
X145451961Y-60690476D02*
X145547200Y-60785714D01*
X145547200Y-60785714D02*
X145594819Y-60880952D01*
X145594819Y-60880952D02*
X145594819Y-61071428D01*
X144594819Y-60309523D02*
X144594819Y-59690476D01*
X144594819Y-59690476D02*
X144975771Y-60023809D01*
X144975771Y-60023809D02*
X144975771Y-59880952D01*
X144975771Y-59880952D02*
X145023390Y-59785714D01*
X145023390Y-59785714D02*
X145071009Y-59738095D01*
X145071009Y-59738095D02*
X145166247Y-59690476D01*
X145166247Y-59690476D02*
X145404342Y-59690476D01*
X145404342Y-59690476D02*
X145499580Y-59738095D01*
X145499580Y-59738095D02*
X145547200Y-59785714D01*
X145547200Y-59785714D02*
X145594819Y-59880952D01*
X145594819Y-59880952D02*
X145594819Y-60166666D01*
X145594819Y-60166666D02*
X145547200Y-60261904D01*
X145547200Y-60261904D02*
X145499580Y-60309523D01*
X151190057Y-64095238D02*
X151142438Y-64190476D01*
X151142438Y-64190476D02*
X151047200Y-64285714D01*
X151047200Y-64285714D02*
X150904342Y-64428571D01*
X150904342Y-64428571D02*
X150856723Y-64523809D01*
X150856723Y-64523809D02*
X150856723Y-64619047D01*
X151094819Y-64571428D02*
X151047200Y-64666666D01*
X151047200Y-64666666D02*
X150951961Y-64761904D01*
X150951961Y-64761904D02*
X150761485Y-64809523D01*
X150761485Y-64809523D02*
X150428152Y-64809523D01*
X150428152Y-64809523D02*
X150237676Y-64761904D01*
X150237676Y-64761904D02*
X150142438Y-64666666D01*
X150142438Y-64666666D02*
X150094819Y-64571428D01*
X150094819Y-64571428D02*
X150094819Y-64380952D01*
X150094819Y-64380952D02*
X150142438Y-64285714D01*
X150142438Y-64285714D02*
X150237676Y-64190476D01*
X150237676Y-64190476D02*
X150428152Y-64142857D01*
X150428152Y-64142857D02*
X150761485Y-64142857D01*
X150761485Y-64142857D02*
X150951961Y-64190476D01*
X150951961Y-64190476D02*
X151047200Y-64285714D01*
X151047200Y-64285714D02*
X151094819Y-64380952D01*
X151094819Y-64380952D02*
X151094819Y-64571428D01*
X150190057Y-63761904D02*
X150142438Y-63714285D01*
X150142438Y-63714285D02*
X150094819Y-63619047D01*
X150094819Y-63619047D02*
X150094819Y-63380952D01*
X150094819Y-63380952D02*
X150142438Y-63285714D01*
X150142438Y-63285714D02*
X150190057Y-63238095D01*
X150190057Y-63238095D02*
X150285295Y-63190476D01*
X150285295Y-63190476D02*
X150380533Y-63190476D01*
X150380533Y-63190476D02*
X150523390Y-63238095D01*
X150523390Y-63238095D02*
X151094819Y-63809523D01*
X151094819Y-63809523D02*
X151094819Y-63190476D01*
X130333333Y-68184819D02*
X130000000Y-67708628D01*
X129761905Y-68184819D02*
X129761905Y-67184819D01*
X129761905Y-67184819D02*
X130142857Y-67184819D01*
X130142857Y-67184819D02*
X130238095Y-67232438D01*
X130238095Y-67232438D02*
X130285714Y-67280057D01*
X130285714Y-67280057D02*
X130333333Y-67375295D01*
X130333333Y-67375295D02*
X130333333Y-67518152D01*
X130333333Y-67518152D02*
X130285714Y-67613390D01*
X130285714Y-67613390D02*
X130238095Y-67661009D01*
X130238095Y-67661009D02*
X130142857Y-67708628D01*
X130142857Y-67708628D02*
X129761905Y-67708628D01*
X131285714Y-68184819D02*
X130714286Y-68184819D01*
X131000000Y-68184819D02*
X131000000Y-67184819D01*
X131000000Y-67184819D02*
X130904762Y-67327676D01*
X130904762Y-67327676D02*
X130809524Y-67422914D01*
X130809524Y-67422914D02*
X130714286Y-67470533D01*
X130333333Y-57684819D02*
X130000000Y-57208628D01*
X129761905Y-57684819D02*
X129761905Y-56684819D01*
X129761905Y-56684819D02*
X130142857Y-56684819D01*
X130142857Y-56684819D02*
X130238095Y-56732438D01*
X130238095Y-56732438D02*
X130285714Y-56780057D01*
X130285714Y-56780057D02*
X130333333Y-56875295D01*
X130333333Y-56875295D02*
X130333333Y-57018152D01*
X130333333Y-57018152D02*
X130285714Y-57113390D01*
X130285714Y-57113390D02*
X130238095Y-57161009D01*
X130238095Y-57161009D02*
X130142857Y-57208628D01*
X130142857Y-57208628D02*
X129761905Y-57208628D01*
X131190476Y-57018152D02*
X131190476Y-57684819D01*
X130952381Y-56637200D02*
X130714286Y-57351485D01*
X130714286Y-57351485D02*
X131333333Y-57351485D01*
X167549620Y-82417531D02*
X168263905Y-82417531D01*
X168263905Y-82417531D02*
X168406762Y-82465150D01*
X168406762Y-82465150D02*
X168502001Y-82560388D01*
X168502001Y-82560388D02*
X168549620Y-82703245D01*
X168549620Y-82703245D02*
X168549620Y-82798483D01*
X167549620Y-82036578D02*
X167549620Y-81417531D01*
X167549620Y-81417531D02*
X167930572Y-81750864D01*
X167930572Y-81750864D02*
X167930572Y-81608007D01*
X167930572Y-81608007D02*
X167978191Y-81512769D01*
X167978191Y-81512769D02*
X168025810Y-81465150D01*
X168025810Y-81465150D02*
X168121048Y-81417531D01*
X168121048Y-81417531D02*
X168359143Y-81417531D01*
X168359143Y-81417531D02*
X168454381Y-81465150D01*
X168454381Y-81465150D02*
X168502001Y-81512769D01*
X168502001Y-81512769D02*
X168549620Y-81608007D01*
X168549620Y-81608007D02*
X168549620Y-81893721D01*
X168549620Y-81893721D02*
X168502001Y-81988959D01*
X168502001Y-81988959D02*
X168454381Y-82036578D01*
X130333333Y-50684819D02*
X130000000Y-50208628D01*
X129761905Y-50684819D02*
X129761905Y-49684819D01*
X129761905Y-49684819D02*
X130142857Y-49684819D01*
X130142857Y-49684819D02*
X130238095Y-49732438D01*
X130238095Y-49732438D02*
X130285714Y-49780057D01*
X130285714Y-49780057D02*
X130333333Y-49875295D01*
X130333333Y-49875295D02*
X130333333Y-50018152D01*
X130333333Y-50018152D02*
X130285714Y-50113390D01*
X130285714Y-50113390D02*
X130238095Y-50161009D01*
X130238095Y-50161009D02*
X130142857Y-50208628D01*
X130142857Y-50208628D02*
X129761905Y-50208628D01*
X131190476Y-49684819D02*
X131000000Y-49684819D01*
X131000000Y-49684819D02*
X130904762Y-49732438D01*
X130904762Y-49732438D02*
X130857143Y-49780057D01*
X130857143Y-49780057D02*
X130761905Y-49922914D01*
X130761905Y-49922914D02*
X130714286Y-50113390D01*
X130714286Y-50113390D02*
X130714286Y-50494342D01*
X130714286Y-50494342D02*
X130761905Y-50589580D01*
X130761905Y-50589580D02*
X130809524Y-50637200D01*
X130809524Y-50637200D02*
X130904762Y-50684819D01*
X130904762Y-50684819D02*
X131095238Y-50684819D01*
X131095238Y-50684819D02*
X131190476Y-50637200D01*
X131190476Y-50637200D02*
X131238095Y-50589580D01*
X131238095Y-50589580D02*
X131285714Y-50494342D01*
X131285714Y-50494342D02*
X131285714Y-50256247D01*
X131285714Y-50256247D02*
X131238095Y-50161009D01*
X131238095Y-50161009D02*
X131190476Y-50113390D01*
X131190476Y-50113390D02*
X131095238Y-50065771D01*
X131095238Y-50065771D02*
X130904762Y-50065771D01*
X130904762Y-50065771D02*
X130809524Y-50113390D01*
X130809524Y-50113390D02*
X130761905Y-50161009D01*
X130761905Y-50161009D02*
X130714286Y-50256247D01*
X145690057Y-53595238D02*
X145642438Y-53690476D01*
X145642438Y-53690476D02*
X145547200Y-53785714D01*
X145547200Y-53785714D02*
X145404342Y-53928571D01*
X145404342Y-53928571D02*
X145356723Y-54023809D01*
X145356723Y-54023809D02*
X145356723Y-54119047D01*
X145594819Y-54071428D02*
X145547200Y-54166666D01*
X145547200Y-54166666D02*
X145451961Y-54261904D01*
X145451961Y-54261904D02*
X145261485Y-54309523D01*
X145261485Y-54309523D02*
X144928152Y-54309523D01*
X144928152Y-54309523D02*
X144737676Y-54261904D01*
X144737676Y-54261904D02*
X144642438Y-54166666D01*
X144642438Y-54166666D02*
X144594819Y-54071428D01*
X144594819Y-54071428D02*
X144594819Y-53880952D01*
X144594819Y-53880952D02*
X144642438Y-53785714D01*
X144642438Y-53785714D02*
X144737676Y-53690476D01*
X144737676Y-53690476D02*
X144928152Y-53642857D01*
X144928152Y-53642857D02*
X145261485Y-53642857D01*
X145261485Y-53642857D02*
X145451961Y-53690476D01*
X145451961Y-53690476D02*
X145547200Y-53785714D01*
X145547200Y-53785714D02*
X145594819Y-53880952D01*
X145594819Y-53880952D02*
X145594819Y-54071428D01*
X144594819Y-52738095D02*
X144594819Y-53214285D01*
X144594819Y-53214285D02*
X145071009Y-53261904D01*
X145071009Y-53261904D02*
X145023390Y-53214285D01*
X145023390Y-53214285D02*
X144975771Y-53119047D01*
X144975771Y-53119047D02*
X144975771Y-52880952D01*
X144975771Y-52880952D02*
X145023390Y-52785714D01*
X145023390Y-52785714D02*
X145071009Y-52738095D01*
X145071009Y-52738095D02*
X145166247Y-52690476D01*
X145166247Y-52690476D02*
X145404342Y-52690476D01*
X145404342Y-52690476D02*
X145499580Y-52738095D01*
X145499580Y-52738095D02*
X145547200Y-52785714D01*
X145547200Y-52785714D02*
X145594819Y-52880952D01*
X145594819Y-52880952D02*
X145594819Y-53119047D01*
X145594819Y-53119047D02*
X145547200Y-53214285D01*
X145547200Y-53214285D02*
X145499580Y-53261904D01*
X151190057Y-50595238D02*
X151142438Y-50690476D01*
X151142438Y-50690476D02*
X151047200Y-50785714D01*
X151047200Y-50785714D02*
X150904342Y-50928571D01*
X150904342Y-50928571D02*
X150856723Y-51023809D01*
X150856723Y-51023809D02*
X150856723Y-51119047D01*
X151094819Y-51071428D02*
X151047200Y-51166666D01*
X151047200Y-51166666D02*
X150951961Y-51261904D01*
X150951961Y-51261904D02*
X150761485Y-51309523D01*
X150761485Y-51309523D02*
X150428152Y-51309523D01*
X150428152Y-51309523D02*
X150237676Y-51261904D01*
X150237676Y-51261904D02*
X150142438Y-51166666D01*
X150142438Y-51166666D02*
X150094819Y-51071428D01*
X150094819Y-51071428D02*
X150094819Y-50880952D01*
X150094819Y-50880952D02*
X150142438Y-50785714D01*
X150142438Y-50785714D02*
X150237676Y-50690476D01*
X150237676Y-50690476D02*
X150428152Y-50642857D01*
X150428152Y-50642857D02*
X150761485Y-50642857D01*
X150761485Y-50642857D02*
X150951961Y-50690476D01*
X150951961Y-50690476D02*
X151047200Y-50785714D01*
X151047200Y-50785714D02*
X151094819Y-50880952D01*
X151094819Y-50880952D02*
X151094819Y-51071428D01*
X150094819Y-49785714D02*
X150094819Y-49976190D01*
X150094819Y-49976190D02*
X150142438Y-50071428D01*
X150142438Y-50071428D02*
X150190057Y-50119047D01*
X150190057Y-50119047D02*
X150332914Y-50214285D01*
X150332914Y-50214285D02*
X150523390Y-50261904D01*
X150523390Y-50261904D02*
X150904342Y-50261904D01*
X150904342Y-50261904D02*
X150999580Y-50214285D01*
X150999580Y-50214285D02*
X151047200Y-50166666D01*
X151047200Y-50166666D02*
X151094819Y-50071428D01*
X151094819Y-50071428D02*
X151094819Y-49880952D01*
X151094819Y-49880952D02*
X151047200Y-49785714D01*
X151047200Y-49785714D02*
X150999580Y-49738095D01*
X150999580Y-49738095D02*
X150904342Y-49690476D01*
X150904342Y-49690476D02*
X150666247Y-49690476D01*
X150666247Y-49690476D02*
X150571009Y-49738095D01*
X150571009Y-49738095D02*
X150523390Y-49785714D01*
X150523390Y-49785714D02*
X150475771Y-49880952D01*
X150475771Y-49880952D02*
X150475771Y-50071428D01*
X150475771Y-50071428D02*
X150523390Y-50166666D01*
X150523390Y-50166666D02*
X150571009Y-50214285D01*
X150571009Y-50214285D02*
X150666247Y-50261904D01*
X175529819Y-53333333D02*
X176244104Y-53333333D01*
X176244104Y-53333333D02*
X176386961Y-53380952D01*
X176386961Y-53380952D02*
X176482200Y-53476190D01*
X176482200Y-53476190D02*
X176529819Y-53619047D01*
X176529819Y-53619047D02*
X176529819Y-53714285D01*
X176529819Y-52333333D02*
X176529819Y-52904761D01*
X176529819Y-52619047D02*
X175529819Y-52619047D01*
X175529819Y-52619047D02*
X175672676Y-52714285D01*
X175672676Y-52714285D02*
X175767914Y-52809523D01*
X175767914Y-52809523D02*
X175815533Y-52904761D01*
X151879819Y-47833333D02*
X152594104Y-47833333D01*
X152594104Y-47833333D02*
X152736961Y-47880952D01*
X152736961Y-47880952D02*
X152832200Y-47976190D01*
X152832200Y-47976190D02*
X152879819Y-48119047D01*
X152879819Y-48119047D02*
X152879819Y-48214285D01*
X152213152Y-46928571D02*
X152879819Y-46928571D01*
X151832200Y-47166666D02*
X152546485Y-47404761D01*
X152546485Y-47404761D02*
X152546485Y-46785714D01*
X159879819Y-47833333D02*
X160594104Y-47833333D01*
X160594104Y-47833333D02*
X160736961Y-47880952D01*
X160736961Y-47880952D02*
X160832200Y-47976190D01*
X160832200Y-47976190D02*
X160879819Y-48119047D01*
X160879819Y-48119047D02*
X160879819Y-48214285D01*
X159975057Y-47404761D02*
X159927438Y-47357142D01*
X159927438Y-47357142D02*
X159879819Y-47261904D01*
X159879819Y-47261904D02*
X159879819Y-47023809D01*
X159879819Y-47023809D02*
X159927438Y-46928571D01*
X159927438Y-46928571D02*
X159975057Y-46880952D01*
X159975057Y-46880952D02*
X160070295Y-46833333D01*
X160070295Y-46833333D02*
X160165533Y-46833333D01*
X160165533Y-46833333D02*
X160308390Y-46880952D01*
X160308390Y-46880952D02*
X160879819Y-47452380D01*
X160879819Y-47452380D02*
X160879819Y-46833333D01*
X167549620Y-66167531D02*
X168263905Y-66167531D01*
X168263905Y-66167531D02*
X168406762Y-66215150D01*
X168406762Y-66215150D02*
X168502001Y-66310388D01*
X168502001Y-66310388D02*
X168549620Y-66453245D01*
X168549620Y-66453245D02*
X168549620Y-66548483D01*
X167549620Y-65215150D02*
X167549620Y-65691340D01*
X167549620Y-65691340D02*
X168025810Y-65738959D01*
X168025810Y-65738959D02*
X167978191Y-65691340D01*
X167978191Y-65691340D02*
X167930572Y-65596102D01*
X167930572Y-65596102D02*
X167930572Y-65358007D01*
X167930572Y-65358007D02*
X167978191Y-65262769D01*
X167978191Y-65262769D02*
X168025810Y-65215150D01*
X168025810Y-65215150D02*
X168121048Y-65167531D01*
X168121048Y-65167531D02*
X168359143Y-65167531D01*
X168359143Y-65167531D02*
X168454381Y-65215150D01*
X168454381Y-65215150D02*
X168502001Y-65262769D01*
X168502001Y-65262769D02*
X168549620Y-65358007D01*
X168549620Y-65358007D02*
X168549620Y-65596102D01*
X168549620Y-65596102D02*
X168502001Y-65691340D01*
X168502001Y-65691340D02*
X168454381Y-65738959D01*
X118142896Y-109414819D02*
X118142896Y-110224342D01*
X118142896Y-110224342D02*
X118190515Y-110319580D01*
X118190515Y-110319580D02*
X118238134Y-110367200D01*
X118238134Y-110367200D02*
X118333372Y-110414819D01*
X118333372Y-110414819D02*
X118523848Y-110414819D01*
X118523848Y-110414819D02*
X118619086Y-110367200D01*
X118619086Y-110367200D02*
X118666705Y-110319580D01*
X118666705Y-110319580D02*
X118714324Y-110224342D01*
X118714324Y-110224342D02*
X118714324Y-109414819D01*
X119666705Y-109414819D02*
X119190515Y-109414819D01*
X119190515Y-109414819D02*
X119142896Y-109891009D01*
X119142896Y-109891009D02*
X119190515Y-109843390D01*
X119190515Y-109843390D02*
X119285753Y-109795771D01*
X119285753Y-109795771D02*
X119523848Y-109795771D01*
X119523848Y-109795771D02*
X119619086Y-109843390D01*
X119619086Y-109843390D02*
X119666705Y-109891009D01*
X119666705Y-109891009D02*
X119714324Y-109986247D01*
X119714324Y-109986247D02*
X119714324Y-110224342D01*
X119714324Y-110224342D02*
X119666705Y-110319580D01*
X119666705Y-110319580D02*
X119619086Y-110367200D01*
X119619086Y-110367200D02*
X119523848Y-110414819D01*
X119523848Y-110414819D02*
X119285753Y-110414819D01*
X119285753Y-110414819D02*
X119190515Y-110367200D01*
X119190515Y-110367200D02*
X119142896Y-110319580D01*
X145690057Y-46595238D02*
X145642438Y-46690476D01*
X145642438Y-46690476D02*
X145547200Y-46785714D01*
X145547200Y-46785714D02*
X145404342Y-46928571D01*
X145404342Y-46928571D02*
X145356723Y-47023809D01*
X145356723Y-47023809D02*
X145356723Y-47119047D01*
X145594819Y-47071428D02*
X145547200Y-47166666D01*
X145547200Y-47166666D02*
X145451961Y-47261904D01*
X145451961Y-47261904D02*
X145261485Y-47309523D01*
X145261485Y-47309523D02*
X144928152Y-47309523D01*
X144928152Y-47309523D02*
X144737676Y-47261904D01*
X144737676Y-47261904D02*
X144642438Y-47166666D01*
X144642438Y-47166666D02*
X144594819Y-47071428D01*
X144594819Y-47071428D02*
X144594819Y-46880952D01*
X144594819Y-46880952D02*
X144642438Y-46785714D01*
X144642438Y-46785714D02*
X144737676Y-46690476D01*
X144737676Y-46690476D02*
X144928152Y-46642857D01*
X144928152Y-46642857D02*
X145261485Y-46642857D01*
X145261485Y-46642857D02*
X145451961Y-46690476D01*
X145451961Y-46690476D02*
X145547200Y-46785714D01*
X145547200Y-46785714D02*
X145594819Y-46880952D01*
X145594819Y-46880952D02*
X145594819Y-47071428D01*
X144594819Y-46309523D02*
X144594819Y-45642857D01*
X144594819Y-45642857D02*
X145594819Y-46071428D01*
X160738095Y-65154819D02*
X160738095Y-65964342D01*
X160738095Y-65964342D02*
X160785714Y-66059580D01*
X160785714Y-66059580D02*
X160833333Y-66107200D01*
X160833333Y-66107200D02*
X160928571Y-66154819D01*
X160928571Y-66154819D02*
X161119047Y-66154819D01*
X161119047Y-66154819D02*
X161214285Y-66107200D01*
X161214285Y-66107200D02*
X161261904Y-66059580D01*
X161261904Y-66059580D02*
X161309523Y-65964342D01*
X161309523Y-65964342D02*
X161309523Y-65154819D01*
X162214285Y-65488152D02*
X162214285Y-66154819D01*
X161976190Y-65107200D02*
X161738095Y-65821485D01*
X161738095Y-65821485D02*
X162357142Y-65821485D01*
X130333333Y-54184819D02*
X130000000Y-53708628D01*
X129761905Y-54184819D02*
X129761905Y-53184819D01*
X129761905Y-53184819D02*
X130142857Y-53184819D01*
X130142857Y-53184819D02*
X130238095Y-53232438D01*
X130238095Y-53232438D02*
X130285714Y-53280057D01*
X130285714Y-53280057D02*
X130333333Y-53375295D01*
X130333333Y-53375295D02*
X130333333Y-53518152D01*
X130333333Y-53518152D02*
X130285714Y-53613390D01*
X130285714Y-53613390D02*
X130238095Y-53661009D01*
X130238095Y-53661009D02*
X130142857Y-53708628D01*
X130142857Y-53708628D02*
X129761905Y-53708628D01*
X131238095Y-53184819D02*
X130761905Y-53184819D01*
X130761905Y-53184819D02*
X130714286Y-53661009D01*
X130714286Y-53661009D02*
X130761905Y-53613390D01*
X130761905Y-53613390D02*
X130857143Y-53565771D01*
X130857143Y-53565771D02*
X131095238Y-53565771D01*
X131095238Y-53565771D02*
X131190476Y-53613390D01*
X131190476Y-53613390D02*
X131238095Y-53661009D01*
X131238095Y-53661009D02*
X131285714Y-53756247D01*
X131285714Y-53756247D02*
X131285714Y-53994342D01*
X131285714Y-53994342D02*
X131238095Y-54089580D01*
X131238095Y-54089580D02*
X131190476Y-54137200D01*
X131190476Y-54137200D02*
X131095238Y-54184819D01*
X131095238Y-54184819D02*
X130857143Y-54184819D01*
X130857143Y-54184819D02*
X130761905Y-54137200D01*
X130761905Y-54137200D02*
X130714286Y-54089580D01*
X160738095Y-80154819D02*
X160738095Y-80964342D01*
X160738095Y-80964342D02*
X160785714Y-81059580D01*
X160785714Y-81059580D02*
X160833333Y-81107200D01*
X160833333Y-81107200D02*
X160928571Y-81154819D01*
X160928571Y-81154819D02*
X161119047Y-81154819D01*
X161119047Y-81154819D02*
X161214285Y-81107200D01*
X161214285Y-81107200D02*
X161261904Y-81059580D01*
X161261904Y-81059580D02*
X161309523Y-80964342D01*
X161309523Y-80964342D02*
X161309523Y-80154819D01*
X162309523Y-81154819D02*
X161738095Y-81154819D01*
X162023809Y-81154819D02*
X162023809Y-80154819D01*
X162023809Y-80154819D02*
X161928571Y-80297676D01*
X161928571Y-80297676D02*
X161833333Y-80392914D01*
X161833333Y-80392914D02*
X161738095Y-80440533D01*
X168987200Y-45833332D02*
X169034819Y-45690475D01*
X169034819Y-45690475D02*
X169034819Y-45452380D01*
X169034819Y-45452380D02*
X168987200Y-45357142D01*
X168987200Y-45357142D02*
X168939580Y-45309523D01*
X168939580Y-45309523D02*
X168844342Y-45261904D01*
X168844342Y-45261904D02*
X168749104Y-45261904D01*
X168749104Y-45261904D02*
X168653866Y-45309523D01*
X168653866Y-45309523D02*
X168606247Y-45357142D01*
X168606247Y-45357142D02*
X168558628Y-45452380D01*
X168558628Y-45452380D02*
X168511009Y-45642856D01*
X168511009Y-45642856D02*
X168463390Y-45738094D01*
X168463390Y-45738094D02*
X168415771Y-45785713D01*
X168415771Y-45785713D02*
X168320533Y-45833332D01*
X168320533Y-45833332D02*
X168225295Y-45833332D01*
X168225295Y-45833332D02*
X168130057Y-45785713D01*
X168130057Y-45785713D02*
X168082438Y-45738094D01*
X168082438Y-45738094D02*
X168034819Y-45642856D01*
X168034819Y-45642856D02*
X168034819Y-45404761D01*
X168034819Y-45404761D02*
X168082438Y-45261904D01*
X168034819Y-44928570D02*
X169034819Y-44690475D01*
X169034819Y-44690475D02*
X168320533Y-44499999D01*
X168320533Y-44499999D02*
X169034819Y-44309523D01*
X169034819Y-44309523D02*
X168034819Y-44071428D01*
X169034819Y-43166666D02*
X169034819Y-43738094D01*
X169034819Y-43452380D02*
X168034819Y-43452380D01*
X168034819Y-43452380D02*
X168177676Y-43547618D01*
X168177676Y-43547618D02*
X168272914Y-43642856D01*
X168272914Y-43642856D02*
X168320533Y-43738094D01*
X145690057Y-67595238D02*
X145642438Y-67690476D01*
X145642438Y-67690476D02*
X145547200Y-67785714D01*
X145547200Y-67785714D02*
X145404342Y-67928571D01*
X145404342Y-67928571D02*
X145356723Y-68023809D01*
X145356723Y-68023809D02*
X145356723Y-68119047D01*
X145594819Y-68071428D02*
X145547200Y-68166666D01*
X145547200Y-68166666D02*
X145451961Y-68261904D01*
X145451961Y-68261904D02*
X145261485Y-68309523D01*
X145261485Y-68309523D02*
X144928152Y-68309523D01*
X144928152Y-68309523D02*
X144737676Y-68261904D01*
X144737676Y-68261904D02*
X144642438Y-68166666D01*
X144642438Y-68166666D02*
X144594819Y-68071428D01*
X144594819Y-68071428D02*
X144594819Y-67880952D01*
X144594819Y-67880952D02*
X144642438Y-67785714D01*
X144642438Y-67785714D02*
X144737676Y-67690476D01*
X144737676Y-67690476D02*
X144928152Y-67642857D01*
X144928152Y-67642857D02*
X145261485Y-67642857D01*
X145261485Y-67642857D02*
X145451961Y-67690476D01*
X145451961Y-67690476D02*
X145547200Y-67785714D01*
X145547200Y-67785714D02*
X145594819Y-67880952D01*
X145594819Y-67880952D02*
X145594819Y-68071428D01*
X145594819Y-66690476D02*
X145594819Y-67261904D01*
X145594819Y-66976190D02*
X144594819Y-66976190D01*
X144594819Y-66976190D02*
X144737676Y-67071428D01*
X144737676Y-67071428D02*
X144832914Y-67166666D01*
X144832914Y-67166666D02*
X144880533Y-67261904D01*
X130333333Y-61184819D02*
X130000000Y-60708628D01*
X129761905Y-61184819D02*
X129761905Y-60184819D01*
X129761905Y-60184819D02*
X130142857Y-60184819D01*
X130142857Y-60184819D02*
X130238095Y-60232438D01*
X130238095Y-60232438D02*
X130285714Y-60280057D01*
X130285714Y-60280057D02*
X130333333Y-60375295D01*
X130333333Y-60375295D02*
X130333333Y-60518152D01*
X130333333Y-60518152D02*
X130285714Y-60613390D01*
X130285714Y-60613390D02*
X130238095Y-60661009D01*
X130238095Y-60661009D02*
X130142857Y-60708628D01*
X130142857Y-60708628D02*
X129761905Y-60708628D01*
X130666667Y-60184819D02*
X131285714Y-60184819D01*
X131285714Y-60184819D02*
X130952381Y-60565771D01*
X130952381Y-60565771D02*
X131095238Y-60565771D01*
X131095238Y-60565771D02*
X131190476Y-60613390D01*
X131190476Y-60613390D02*
X131238095Y-60661009D01*
X131238095Y-60661009D02*
X131285714Y-60756247D01*
X131285714Y-60756247D02*
X131285714Y-60994342D01*
X131285714Y-60994342D02*
X131238095Y-61089580D01*
X131238095Y-61089580D02*
X131190476Y-61137200D01*
X131190476Y-61137200D02*
X131095238Y-61184819D01*
X131095238Y-61184819D02*
X130809524Y-61184819D01*
X130809524Y-61184819D02*
X130714286Y-61137200D01*
X130714286Y-61137200D02*
X130666667Y-61089580D01*
X151190057Y-43595238D02*
X151142438Y-43690476D01*
X151142438Y-43690476D02*
X151047200Y-43785714D01*
X151047200Y-43785714D02*
X150904342Y-43928571D01*
X150904342Y-43928571D02*
X150856723Y-44023809D01*
X150856723Y-44023809D02*
X150856723Y-44119047D01*
X151094819Y-44071428D02*
X151047200Y-44166666D01*
X151047200Y-44166666D02*
X150951961Y-44261904D01*
X150951961Y-44261904D02*
X150761485Y-44309523D01*
X150761485Y-44309523D02*
X150428152Y-44309523D01*
X150428152Y-44309523D02*
X150237676Y-44261904D01*
X150237676Y-44261904D02*
X150142438Y-44166666D01*
X150142438Y-44166666D02*
X150094819Y-44071428D01*
X150094819Y-44071428D02*
X150094819Y-43880952D01*
X150094819Y-43880952D02*
X150142438Y-43785714D01*
X150142438Y-43785714D02*
X150237676Y-43690476D01*
X150237676Y-43690476D02*
X150428152Y-43642857D01*
X150428152Y-43642857D02*
X150761485Y-43642857D01*
X150761485Y-43642857D02*
X150951961Y-43690476D01*
X150951961Y-43690476D02*
X151047200Y-43785714D01*
X151047200Y-43785714D02*
X151094819Y-43880952D01*
X151094819Y-43880952D02*
X151094819Y-44071428D01*
X150523390Y-43071428D02*
X150475771Y-43166666D01*
X150475771Y-43166666D02*
X150428152Y-43214285D01*
X150428152Y-43214285D02*
X150332914Y-43261904D01*
X150332914Y-43261904D02*
X150285295Y-43261904D01*
X150285295Y-43261904D02*
X150190057Y-43214285D01*
X150190057Y-43214285D02*
X150142438Y-43166666D01*
X150142438Y-43166666D02*
X150094819Y-43071428D01*
X150094819Y-43071428D02*
X150094819Y-42880952D01*
X150094819Y-42880952D02*
X150142438Y-42785714D01*
X150142438Y-42785714D02*
X150190057Y-42738095D01*
X150190057Y-42738095D02*
X150285295Y-42690476D01*
X150285295Y-42690476D02*
X150332914Y-42690476D01*
X150332914Y-42690476D02*
X150428152Y-42738095D01*
X150428152Y-42738095D02*
X150475771Y-42785714D01*
X150475771Y-42785714D02*
X150523390Y-42880952D01*
X150523390Y-42880952D02*
X150523390Y-43071428D01*
X150523390Y-43071428D02*
X150571009Y-43166666D01*
X150571009Y-43166666D02*
X150618628Y-43214285D01*
X150618628Y-43214285D02*
X150713866Y-43261904D01*
X150713866Y-43261904D02*
X150904342Y-43261904D01*
X150904342Y-43261904D02*
X150999580Y-43214285D01*
X150999580Y-43214285D02*
X151047200Y-43166666D01*
X151047200Y-43166666D02*
X151094819Y-43071428D01*
X151094819Y-43071428D02*
X151094819Y-42880952D01*
X151094819Y-42880952D02*
X151047200Y-42785714D01*
X151047200Y-42785714D02*
X150999580Y-42738095D01*
X150999580Y-42738095D02*
X150904342Y-42690476D01*
X150904342Y-42690476D02*
X150713866Y-42690476D01*
X150713866Y-42690476D02*
X150618628Y-42738095D01*
X150618628Y-42738095D02*
X150571009Y-42785714D01*
X150571009Y-42785714D02*
X150523390Y-42880952D01*
X136650515Y-70873302D02*
X137126705Y-70873302D01*
X136555277Y-71159017D02*
X136888610Y-70159017D01*
X136888610Y-70159017D02*
X137221943Y-71159017D01*
X137507658Y-70254255D02*
X137555277Y-70206636D01*
X137555277Y-70206636D02*
X137650515Y-70159017D01*
X137650515Y-70159017D02*
X137888610Y-70159017D01*
X137888610Y-70159017D02*
X137983848Y-70206636D01*
X137983848Y-70206636D02*
X138031467Y-70254255D01*
X138031467Y-70254255D02*
X138079086Y-70349493D01*
X138079086Y-70349493D02*
X138079086Y-70444731D01*
X138079086Y-70444731D02*
X138031467Y-70587588D01*
X138031467Y-70587588D02*
X137460039Y-71159017D01*
X137460039Y-71159017D02*
X138079086Y-71159017D01*
X136102896Y-110799017D02*
X136102896Y-111608540D01*
X136102896Y-111608540D02*
X136150515Y-111703778D01*
X136150515Y-111703778D02*
X136198134Y-111751398D01*
X136198134Y-111751398D02*
X136293372Y-111799017D01*
X136293372Y-111799017D02*
X136483848Y-111799017D01*
X136483848Y-111799017D02*
X136579086Y-111751398D01*
X136579086Y-111751398D02*
X136626705Y-111703778D01*
X136626705Y-111703778D02*
X136674324Y-111608540D01*
X136674324Y-111608540D02*
X136674324Y-110799017D01*
X137102896Y-111751398D02*
X137245753Y-111799017D01*
X137245753Y-111799017D02*
X137483848Y-111799017D01*
X137483848Y-111799017D02*
X137579086Y-111751398D01*
X137579086Y-111751398D02*
X137626705Y-111703778D01*
X137626705Y-111703778D02*
X137674324Y-111608540D01*
X137674324Y-111608540D02*
X137674324Y-111513302D01*
X137674324Y-111513302D02*
X137626705Y-111418064D01*
X137626705Y-111418064D02*
X137579086Y-111370445D01*
X137579086Y-111370445D02*
X137483848Y-111322826D01*
X137483848Y-111322826D02*
X137293372Y-111275207D01*
X137293372Y-111275207D02*
X137198134Y-111227588D01*
X137198134Y-111227588D02*
X137150515Y-111179969D01*
X137150515Y-111179969D02*
X137102896Y-111084731D01*
X137102896Y-111084731D02*
X137102896Y-110989493D01*
X137102896Y-110989493D02*
X137150515Y-110894255D01*
X137150515Y-110894255D02*
X137198134Y-110846636D01*
X137198134Y-110846636D02*
X137293372Y-110799017D01*
X137293372Y-110799017D02*
X137531467Y-110799017D01*
X137531467Y-110799017D02*
X137674324Y-110846636D01*
X138436229Y-111275207D02*
X138579086Y-111322826D01*
X138579086Y-111322826D02*
X138626705Y-111370445D01*
X138626705Y-111370445D02*
X138674324Y-111465683D01*
X138674324Y-111465683D02*
X138674324Y-111608540D01*
X138674324Y-111608540D02*
X138626705Y-111703778D01*
X138626705Y-111703778D02*
X138579086Y-111751398D01*
X138579086Y-111751398D02*
X138483848Y-111799017D01*
X138483848Y-111799017D02*
X138102896Y-111799017D01*
X138102896Y-111799017D02*
X138102896Y-110799017D01*
X138102896Y-110799017D02*
X138436229Y-110799017D01*
X138436229Y-110799017D02*
X138531467Y-110846636D01*
X138531467Y-110846636D02*
X138579086Y-110894255D01*
X138579086Y-110894255D02*
X138626705Y-110989493D01*
X138626705Y-110989493D02*
X138626705Y-111084731D01*
X138626705Y-111084731D02*
X138579086Y-111179969D01*
X138579086Y-111179969D02*
X138531467Y-111227588D01*
X138531467Y-111227588D02*
X138436229Y-111275207D01*
X138436229Y-111275207D02*
X138102896Y-111275207D01*
X162238095Y-101454819D02*
X162238095Y-102264342D01*
X162238095Y-102264342D02*
X162285714Y-102359580D01*
X162285714Y-102359580D02*
X162333333Y-102407200D01*
X162333333Y-102407200D02*
X162428571Y-102454819D01*
X162428571Y-102454819D02*
X162619047Y-102454819D01*
X162619047Y-102454819D02*
X162714285Y-102407200D01*
X162714285Y-102407200D02*
X162761904Y-102359580D01*
X162761904Y-102359580D02*
X162809523Y-102264342D01*
X162809523Y-102264342D02*
X162809523Y-101454819D01*
X163238095Y-101550057D02*
X163285714Y-101502438D01*
X163285714Y-101502438D02*
X163380952Y-101454819D01*
X163380952Y-101454819D02*
X163619047Y-101454819D01*
X163619047Y-101454819D02*
X163714285Y-101502438D01*
X163714285Y-101502438D02*
X163761904Y-101550057D01*
X163761904Y-101550057D02*
X163809523Y-101645295D01*
X163809523Y-101645295D02*
X163809523Y-101740533D01*
X163809523Y-101740533D02*
X163761904Y-101883390D01*
X163761904Y-101883390D02*
X163190476Y-102454819D01*
X163190476Y-102454819D02*
X163809523Y-102454819D01*
X118142896Y-93714819D02*
X118142896Y-94524342D01*
X118142896Y-94524342D02*
X118190515Y-94619580D01*
X118190515Y-94619580D02*
X118238134Y-94667200D01*
X118238134Y-94667200D02*
X118333372Y-94714819D01*
X118333372Y-94714819D02*
X118523848Y-94714819D01*
X118523848Y-94714819D02*
X118619086Y-94667200D01*
X118619086Y-94667200D02*
X118666705Y-94619580D01*
X118666705Y-94619580D02*
X118714324Y-94524342D01*
X118714324Y-94524342D02*
X118714324Y-93714819D01*
X119095277Y-93714819D02*
X119714324Y-93714819D01*
X119714324Y-93714819D02*
X119380991Y-94095771D01*
X119380991Y-94095771D02*
X119523848Y-94095771D01*
X119523848Y-94095771D02*
X119619086Y-94143390D01*
X119619086Y-94143390D02*
X119666705Y-94191009D01*
X119666705Y-94191009D02*
X119714324Y-94286247D01*
X119714324Y-94286247D02*
X119714324Y-94524342D01*
X119714324Y-94524342D02*
X119666705Y-94619580D01*
X119666705Y-94619580D02*
X119619086Y-94667200D01*
X119619086Y-94667200D02*
X119523848Y-94714819D01*
X119523848Y-94714819D02*
X119238134Y-94714819D01*
X119238134Y-94714819D02*
X119142896Y-94667200D01*
X119142896Y-94667200D02*
X119095277Y-94619580D01*
X130333333Y-43684819D02*
X130000000Y-43208628D01*
X129761905Y-43684819D02*
X129761905Y-42684819D01*
X129761905Y-42684819D02*
X130142857Y-42684819D01*
X130142857Y-42684819D02*
X130238095Y-42732438D01*
X130238095Y-42732438D02*
X130285714Y-42780057D01*
X130285714Y-42780057D02*
X130333333Y-42875295D01*
X130333333Y-42875295D02*
X130333333Y-43018152D01*
X130333333Y-43018152D02*
X130285714Y-43113390D01*
X130285714Y-43113390D02*
X130238095Y-43161009D01*
X130238095Y-43161009D02*
X130142857Y-43208628D01*
X130142857Y-43208628D02*
X129761905Y-43208628D01*
X130904762Y-43113390D02*
X130809524Y-43065771D01*
X130809524Y-43065771D02*
X130761905Y-43018152D01*
X130761905Y-43018152D02*
X130714286Y-42922914D01*
X130714286Y-42922914D02*
X130714286Y-42875295D01*
X130714286Y-42875295D02*
X130761905Y-42780057D01*
X130761905Y-42780057D02*
X130809524Y-42732438D01*
X130809524Y-42732438D02*
X130904762Y-42684819D01*
X130904762Y-42684819D02*
X131095238Y-42684819D01*
X131095238Y-42684819D02*
X131190476Y-42732438D01*
X131190476Y-42732438D02*
X131238095Y-42780057D01*
X131238095Y-42780057D02*
X131285714Y-42875295D01*
X131285714Y-42875295D02*
X131285714Y-42922914D01*
X131285714Y-42922914D02*
X131238095Y-43018152D01*
X131238095Y-43018152D02*
X131190476Y-43065771D01*
X131190476Y-43065771D02*
X131095238Y-43113390D01*
X131095238Y-43113390D02*
X130904762Y-43113390D01*
X130904762Y-43113390D02*
X130809524Y-43161009D01*
X130809524Y-43161009D02*
X130761905Y-43208628D01*
X130761905Y-43208628D02*
X130714286Y-43303866D01*
X130714286Y-43303866D02*
X130714286Y-43494342D01*
X130714286Y-43494342D02*
X130761905Y-43589580D01*
X130761905Y-43589580D02*
X130809524Y-43637200D01*
X130809524Y-43637200D02*
X130904762Y-43684819D01*
X130904762Y-43684819D02*
X131095238Y-43684819D01*
X131095238Y-43684819D02*
X131190476Y-43637200D01*
X131190476Y-43637200D02*
X131238095Y-43589580D01*
X131238095Y-43589580D02*
X131285714Y-43494342D01*
X131285714Y-43494342D02*
X131285714Y-43303866D01*
X131285714Y-43303866D02*
X131238095Y-43208628D01*
X131238095Y-43208628D02*
X131190476Y-43161009D01*
X131190476Y-43161009D02*
X131095238Y-43113390D01*
X130333333Y-47184819D02*
X130000000Y-46708628D01*
X129761905Y-47184819D02*
X129761905Y-46184819D01*
X129761905Y-46184819D02*
X130142857Y-46184819D01*
X130142857Y-46184819D02*
X130238095Y-46232438D01*
X130238095Y-46232438D02*
X130285714Y-46280057D01*
X130285714Y-46280057D02*
X130333333Y-46375295D01*
X130333333Y-46375295D02*
X130333333Y-46518152D01*
X130333333Y-46518152D02*
X130285714Y-46613390D01*
X130285714Y-46613390D02*
X130238095Y-46661009D01*
X130238095Y-46661009D02*
X130142857Y-46708628D01*
X130142857Y-46708628D02*
X129761905Y-46708628D01*
X130666667Y-46184819D02*
X131333333Y-46184819D01*
X131333333Y-46184819D02*
X130904762Y-47184819D01*
X151190057Y-57095238D02*
X151142438Y-57190476D01*
X151142438Y-57190476D02*
X151047200Y-57285714D01*
X151047200Y-57285714D02*
X150904342Y-57428571D01*
X150904342Y-57428571D02*
X150856723Y-57523809D01*
X150856723Y-57523809D02*
X150856723Y-57619047D01*
X151094819Y-57571428D02*
X151047200Y-57666666D01*
X151047200Y-57666666D02*
X150951961Y-57761904D01*
X150951961Y-57761904D02*
X150761485Y-57809523D01*
X150761485Y-57809523D02*
X150428152Y-57809523D01*
X150428152Y-57809523D02*
X150237676Y-57761904D01*
X150237676Y-57761904D02*
X150142438Y-57666666D01*
X150142438Y-57666666D02*
X150094819Y-57571428D01*
X150094819Y-57571428D02*
X150094819Y-57380952D01*
X150094819Y-57380952D02*
X150142438Y-57285714D01*
X150142438Y-57285714D02*
X150237676Y-57190476D01*
X150237676Y-57190476D02*
X150428152Y-57142857D01*
X150428152Y-57142857D02*
X150761485Y-57142857D01*
X150761485Y-57142857D02*
X150951961Y-57190476D01*
X150951961Y-57190476D02*
X151047200Y-57285714D01*
X151047200Y-57285714D02*
X151094819Y-57380952D01*
X151094819Y-57380952D02*
X151094819Y-57571428D01*
X150428152Y-56285714D02*
X151094819Y-56285714D01*
X150047200Y-56523809D02*
X150761485Y-56761904D01*
X150761485Y-56761904D02*
X150761485Y-56142857D01*
X130333333Y-64684819D02*
X130000000Y-64208628D01*
X129761905Y-64684819D02*
X129761905Y-63684819D01*
X129761905Y-63684819D02*
X130142857Y-63684819D01*
X130142857Y-63684819D02*
X130238095Y-63732438D01*
X130238095Y-63732438D02*
X130285714Y-63780057D01*
X130285714Y-63780057D02*
X130333333Y-63875295D01*
X130333333Y-63875295D02*
X130333333Y-64018152D01*
X130333333Y-64018152D02*
X130285714Y-64113390D01*
X130285714Y-64113390D02*
X130238095Y-64161009D01*
X130238095Y-64161009D02*
X130142857Y-64208628D01*
X130142857Y-64208628D02*
X129761905Y-64208628D01*
X130714286Y-63780057D02*
X130761905Y-63732438D01*
X130761905Y-63732438D02*
X130857143Y-63684819D01*
X130857143Y-63684819D02*
X131095238Y-63684819D01*
X131095238Y-63684819D02*
X131190476Y-63732438D01*
X131190476Y-63732438D02*
X131238095Y-63780057D01*
X131238095Y-63780057D02*
X131285714Y-63875295D01*
X131285714Y-63875295D02*
X131285714Y-63970533D01*
X131285714Y-63970533D02*
X131238095Y-64113390D01*
X131238095Y-64113390D02*
X130666667Y-64684819D01*
X130666667Y-64684819D02*
X131285714Y-64684819D01*
D12*
%TO.C,Q3*%
X139730000Y-58700000D02*
X139730000Y-62300000D01*
X139741522Y-58661522D02*
G75*
G02*
X144180001Y-60500000I1838478J-1838478D01*
G01*
X144180000Y-60500000D02*
G75*
G02*
X139741522Y-62338478I-2600000J0D01*
G01*
%TO.C,Q2*%
X145230000Y-62200000D02*
X145230000Y-65800000D01*
X145241522Y-62161522D02*
G75*
G02*
X149680001Y-64000000I1838478J-1838478D01*
G01*
X149680000Y-64000000D02*
G75*
G02*
X145241522Y-65838478I-2600000J0D01*
G01*
%TO.C,R1*%
X126460000Y-67500000D02*
X127230000Y-67500000D01*
X134540000Y-67500000D02*
X133770000Y-67500000D01*
X133770000Y-68870000D02*
X127230000Y-68870000D01*
X127230000Y-66130000D01*
X133770000Y-66130000D01*
X133770000Y-68870000D01*
%TO.C,R4*%
X126460000Y-57000000D02*
X127230000Y-57000000D01*
X134540000Y-57000000D02*
X133770000Y-57000000D01*
X133770000Y-58370000D02*
X127230000Y-58370000D01*
X127230000Y-55630000D01*
X133770000Y-55630000D01*
X133770000Y-58370000D01*
%TO.C,J3*%
X168894801Y-88684198D02*
X168894801Y-89934198D01*
X168894801Y-89934198D02*
X170144801Y-89934198D01*
X169184801Y-74524198D02*
X169184801Y-89644198D01*
X169184801Y-89644198D02*
X175154801Y-89644198D01*
X169194801Y-74534198D02*
X169194801Y-76334198D01*
X169194801Y-76334198D02*
X169944801Y-76334198D01*
X169194801Y-77834198D02*
X169194801Y-86334198D01*
X169194801Y-86334198D02*
X169944801Y-86334198D01*
X169194801Y-87834198D02*
X169194801Y-89634198D01*
X169194801Y-89634198D02*
X169944801Y-89634198D01*
X169944801Y-74534198D02*
X169194801Y-74534198D01*
X169944801Y-76334198D02*
X169944801Y-74534198D01*
X169944801Y-77834198D02*
X169194801Y-77834198D01*
X169944801Y-86334198D02*
X169944801Y-77834198D01*
X169944801Y-87834198D02*
X169194801Y-87834198D01*
X169944801Y-89634198D02*
X169944801Y-87834198D01*
X171444801Y-74534198D02*
X171444801Y-75284198D01*
X171444801Y-75284198D02*
X174394801Y-75284198D01*
X171444801Y-88884198D02*
X174394801Y-88884198D01*
X171444801Y-89634198D02*
X171444801Y-88884198D01*
X174394801Y-75284198D02*
X174394801Y-82084198D01*
X174394801Y-88884198D02*
X174394801Y-82084198D01*
X175154801Y-74524198D02*
X169184801Y-74524198D01*
X175154801Y-89644198D02*
X175154801Y-74524198D01*
%TO.C,R6*%
X126460000Y-50000000D02*
X127230000Y-50000000D01*
X134540000Y-50000000D02*
X133770000Y-50000000D01*
X133770000Y-51370000D02*
X127230000Y-51370000D01*
X127230000Y-48630000D01*
X133770000Y-48630000D01*
X133770000Y-51370000D01*
%TO.C,Q5*%
X139730000Y-51700000D02*
X139730000Y-55300000D01*
X139741522Y-51661522D02*
G75*
G02*
X144180001Y-53500000I1838478J-1838478D01*
G01*
X144180000Y-53500000D02*
G75*
G02*
X139741522Y-55338478I-2600000J0D01*
G01*
%TO.C,Q6*%
X145230000Y-48700000D02*
X145230000Y-52300000D01*
X145241522Y-48661522D02*
G75*
G02*
X149680001Y-50500000I1838478J-1838478D01*
G01*
X149680000Y-50500000D02*
G75*
G02*
X145241522Y-52338478I-2600000J0D01*
G01*
%TO.C,C3*%
X112920000Y-74920000D02*
X127080000Y-74920000D01*
X112920000Y-74960000D02*
X127080000Y-74960000D01*
X112920000Y-75000000D02*
X127080000Y-75000000D01*
X112921000Y-74880000D02*
X127079000Y-74880000D01*
X112922000Y-74840000D02*
X127078000Y-74840000D01*
X112923000Y-74800000D02*
X127077000Y-74800000D01*
X112924000Y-74760000D02*
X127076000Y-74760000D01*
X112926000Y-74720000D02*
X127074000Y-74720000D01*
X112927000Y-74680000D02*
X127073000Y-74680000D01*
X112929000Y-74640000D02*
X127071000Y-74640000D01*
X112931000Y-74600000D02*
X127069000Y-74600000D01*
X112934000Y-74560000D02*
X127066000Y-74560000D01*
X112936000Y-74520000D02*
X127064000Y-74520000D01*
X112939000Y-74480000D02*
X127061000Y-74480000D01*
X112942000Y-74440000D02*
X127058000Y-74440000D01*
X112945000Y-74400000D02*
X127055000Y-74400000D01*
X112949000Y-74360000D02*
X127051000Y-74360000D01*
X112953000Y-74320000D02*
X127047000Y-74320000D01*
X112956000Y-74280000D02*
X127044000Y-74280000D01*
X112961000Y-74240000D02*
X127039000Y-74240000D01*
X112965000Y-74200000D02*
X127035000Y-74200000D01*
X112970000Y-74160000D02*
X127030000Y-74160000D01*
X112975000Y-74120000D02*
X127025000Y-74120000D01*
X112980000Y-74080000D02*
X127020000Y-74080000D01*
X112985000Y-74040000D02*
X127015000Y-74040000D01*
X112991000Y-74000000D02*
X127009000Y-74000000D01*
X112996000Y-73960000D02*
X127004000Y-73960000D01*
X113002000Y-73920000D02*
X118560000Y-73920000D01*
X113009000Y-73880000D02*
X118560000Y-73880000D01*
X113015000Y-73840000D02*
X118560000Y-73840000D01*
X113022000Y-73800000D02*
X118560000Y-73800000D01*
X113029000Y-73760000D02*
X118560000Y-73760000D01*
X113036000Y-73720000D02*
X118560000Y-73720000D01*
X113043000Y-73680000D02*
X118560000Y-73680000D01*
X113051000Y-73640000D02*
X118560000Y-73640000D01*
X113059000Y-73600000D02*
X118560000Y-73600000D01*
X113067000Y-73560000D02*
X118560000Y-73560000D01*
X113076000Y-73520000D02*
X118560000Y-73520000D01*
X113084000Y-73480000D02*
X118560000Y-73480000D01*
X113093000Y-73440000D02*
X118560000Y-73440000D01*
X113102000Y-73400000D02*
X118560000Y-73400000D01*
X113111000Y-73360000D02*
X118560000Y-73360000D01*
X113121000Y-73320000D02*
X118560000Y-73320000D01*
X113131000Y-73280000D02*
X118560000Y-73280000D01*
X113141000Y-73240000D02*
X118560000Y-73240000D01*
X113151000Y-73200000D02*
X118560000Y-73200000D01*
X113162000Y-73160000D02*
X118560000Y-73160000D01*
X113173000Y-73120000D02*
X118560000Y-73120000D01*
X113184000Y-73080000D02*
X118560000Y-73080000D01*
X113195000Y-73040000D02*
X118560000Y-73040000D01*
X113207000Y-73000000D02*
X118560000Y-73000000D01*
X113219000Y-72960000D02*
X118560000Y-72960000D01*
X113231000Y-72920000D02*
X118560000Y-72920000D01*
X113243000Y-72880000D02*
X118560000Y-72880000D01*
X113256000Y-72840000D02*
X118560000Y-72840000D01*
X113268000Y-72800000D02*
X118560000Y-72800000D01*
X113282000Y-72760000D02*
X118560000Y-72760000D01*
X113295000Y-72720000D02*
X118560000Y-72720000D01*
X113309000Y-72680000D02*
X118560000Y-72680000D01*
X113323000Y-72640000D02*
X118560000Y-72640000D01*
X113337000Y-72600000D02*
X118560000Y-72600000D01*
X113351000Y-72560000D02*
X118560000Y-72560000D01*
X113366000Y-72520000D02*
X118560000Y-72520000D01*
X113381000Y-72480000D02*
X118560000Y-72480000D01*
X113396000Y-72440000D02*
X118560000Y-72440000D01*
X113412000Y-72400000D02*
X118560000Y-72400000D01*
X113428000Y-72360000D02*
X118560000Y-72360000D01*
X113444000Y-72320000D02*
X118560000Y-72320000D01*
X113460000Y-72280000D02*
X118560000Y-72280000D01*
X113477000Y-72240000D02*
X118560000Y-72240000D01*
X113494000Y-72200000D02*
X118560000Y-72200000D01*
X113511000Y-72160000D02*
X118560000Y-72160000D01*
X113528000Y-72120000D02*
X118560000Y-72120000D01*
X113546000Y-72080000D02*
X118560000Y-72080000D01*
X113564000Y-72040000D02*
X118560000Y-72040000D01*
X113583000Y-72000000D02*
X118560000Y-72000000D01*
X113602000Y-71960000D02*
X118560000Y-71960000D01*
X113621000Y-71920000D02*
X118560000Y-71920000D01*
X113640000Y-71880000D02*
X118560000Y-71880000D01*
X113660000Y-71840000D02*
X118560000Y-71840000D01*
X113680000Y-71800000D02*
X118560000Y-71800000D01*
X113700000Y-71760000D02*
X118560000Y-71760000D01*
X113721000Y-71720000D02*
X118560000Y-71720000D01*
X113741000Y-71680000D02*
X118560000Y-71680000D01*
X113763000Y-71640000D02*
X118560000Y-71640000D01*
X113784000Y-71600000D02*
X118560000Y-71600000D01*
X113806000Y-71560000D02*
X118560000Y-71560000D01*
X113828000Y-71520000D02*
X118560000Y-71520000D01*
X113851000Y-71480000D02*
X118560000Y-71480000D01*
X113874000Y-71440000D02*
X118560000Y-71440000D01*
X113897000Y-71400000D02*
X118560000Y-71400000D01*
X113921000Y-71360000D02*
X118560000Y-71360000D01*
X113945000Y-71320000D02*
X118560000Y-71320000D01*
X113969000Y-71280000D02*
X118560000Y-71280000D01*
X113994000Y-71240000D02*
X118560000Y-71240000D01*
X114019000Y-71200000D02*
X118560000Y-71200000D01*
X114044000Y-71160000D02*
X118560000Y-71160000D01*
X114070000Y-71120000D02*
X118560000Y-71120000D01*
X114096000Y-71080000D02*
X118560000Y-71080000D01*
X114123000Y-71040000D02*
X125877000Y-71040000D01*
X114150000Y-71000000D02*
X125850000Y-71000000D01*
X114177000Y-70960000D02*
X125823000Y-70960000D01*
X114205000Y-70920000D02*
X125795000Y-70920000D01*
X114233000Y-70880000D02*
X125767000Y-70880000D01*
X114262000Y-70840000D02*
X125738000Y-70840000D01*
X114291000Y-70800000D02*
X125709000Y-70800000D01*
X114320000Y-70760000D02*
X125680000Y-70760000D01*
X114350000Y-70720000D02*
X125650000Y-70720000D01*
X114380000Y-70680000D02*
X125620000Y-70680000D01*
X114411000Y-70640000D02*
X125589000Y-70640000D01*
X114442000Y-70600000D02*
X125558000Y-70600000D01*
X114474000Y-70560000D02*
X125526000Y-70560000D01*
X114506000Y-70520000D02*
X125494000Y-70520000D01*
X114539000Y-70480000D02*
X125461000Y-70480000D01*
X114572000Y-70440000D02*
X125428000Y-70440000D01*
X114605000Y-70400000D02*
X125395000Y-70400000D01*
X114640000Y-70360000D02*
X125360000Y-70360000D01*
X114674000Y-70320000D02*
X125326000Y-70320000D01*
X114709000Y-70280000D02*
X125291000Y-70280000D01*
X114745000Y-70240000D02*
X125255000Y-70240000D01*
X114781000Y-70200000D02*
X125219000Y-70200000D01*
X114818000Y-70160000D02*
X125182000Y-70160000D01*
X114855000Y-70120000D02*
X125145000Y-70120000D01*
X114893000Y-70080000D02*
X125107000Y-70080000D01*
X114932000Y-70040000D02*
X125068000Y-70040000D01*
X114971000Y-70000000D02*
X125029000Y-70000000D01*
X115011000Y-69960000D02*
X124989000Y-69960000D01*
X115051000Y-69920000D02*
X124949000Y-69920000D01*
X115092000Y-69880000D02*
X124908000Y-69880000D01*
X115134000Y-69840000D02*
X124866000Y-69840000D01*
X115176000Y-69800000D02*
X124824000Y-69800000D01*
X115220000Y-69760000D02*
X124780000Y-69760000D01*
X115263000Y-69720000D02*
X124737000Y-69720000D01*
X115305000Y-81919543D02*
X116705000Y-81919543D01*
X115308000Y-69680000D02*
X124692000Y-69680000D01*
X115353000Y-69640000D02*
X124647000Y-69640000D01*
X115399000Y-69600000D02*
X124601000Y-69600000D01*
X115446000Y-69560000D02*
X124554000Y-69560000D01*
X115494000Y-69520000D02*
X124506000Y-69520000D01*
X115543000Y-69480000D02*
X124457000Y-69480000D01*
X115592000Y-69440000D02*
X124408000Y-69440000D01*
X115643000Y-69400000D02*
X124357000Y-69400000D01*
X115694000Y-69360000D02*
X124306000Y-69360000D01*
X115747000Y-69320000D02*
X124253000Y-69320000D01*
X115800000Y-69280000D02*
X124200000Y-69280000D01*
X115855000Y-69240000D02*
X124145000Y-69240000D01*
X115910000Y-69200000D02*
X124090000Y-69200000D01*
X115967000Y-69160000D02*
X124033000Y-69160000D01*
X116005000Y-82619543D02*
X116005000Y-81219543D01*
X116025000Y-69120000D02*
X123975000Y-69120000D01*
X116084000Y-69080000D02*
X123916000Y-69080000D01*
X116145000Y-69040000D02*
X123855000Y-69040000D01*
X116207000Y-69000000D02*
X123793000Y-69000000D01*
X116270000Y-68960000D02*
X123730000Y-68960000D01*
X116335000Y-68920000D02*
X123665000Y-68920000D01*
X116401000Y-68880000D02*
X123599000Y-68880000D01*
X116469000Y-68840000D02*
X123531000Y-68840000D01*
X116539000Y-68800000D02*
X123461000Y-68800000D01*
X116611000Y-68760000D02*
X123389000Y-68760000D01*
X116685000Y-68720000D02*
X123315000Y-68720000D01*
X116761000Y-68680000D02*
X123239000Y-68680000D01*
X116839000Y-68640000D02*
X123161000Y-68640000D01*
X116920000Y-68600000D02*
X123080000Y-68600000D01*
X117003000Y-68560000D02*
X122997000Y-68560000D01*
X117090000Y-68520000D02*
X122910000Y-68520000D01*
X117179000Y-68480000D02*
X122821000Y-68480000D01*
X117272000Y-68440000D02*
X122728000Y-68440000D01*
X117369000Y-68400000D02*
X122631000Y-68400000D01*
X117470000Y-68360000D02*
X122530000Y-68360000D01*
X117576000Y-68320000D02*
X122424000Y-68320000D01*
X117687000Y-68280000D02*
X122313000Y-68280000D01*
X117805000Y-68240000D02*
X122195000Y-68240000D01*
X117929000Y-68200000D02*
X122071000Y-68200000D01*
X118063000Y-68160000D02*
X121937000Y-68160000D01*
X118207000Y-68120000D02*
X121793000Y-68120000D01*
X118364000Y-68080000D02*
X121636000Y-68080000D01*
X118539000Y-68040000D02*
X121461000Y-68040000D01*
X118738000Y-68000000D02*
X121262000Y-68000000D01*
X118976000Y-67960000D02*
X121024000Y-67960000D01*
X119286000Y-67920000D02*
X120714000Y-67920000D01*
X121440000Y-71080000D02*
X125904000Y-71080000D01*
X121440000Y-71120000D02*
X125930000Y-71120000D01*
X121440000Y-71160000D02*
X125956000Y-71160000D01*
X121440000Y-71200000D02*
X125981000Y-71200000D01*
X121440000Y-71240000D02*
X126006000Y-71240000D01*
X121440000Y-71280000D02*
X126031000Y-71280000D01*
X121440000Y-71320000D02*
X126055000Y-71320000D01*
X121440000Y-71360000D02*
X126079000Y-71360000D01*
X121440000Y-71400000D02*
X126103000Y-71400000D01*
X121440000Y-71440000D02*
X126126000Y-71440000D01*
X121440000Y-71480000D02*
X126149000Y-71480000D01*
X121440000Y-71520000D02*
X126172000Y-71520000D01*
X121440000Y-71560000D02*
X126194000Y-71560000D01*
X121440000Y-71600000D02*
X126216000Y-71600000D01*
X121440000Y-71640000D02*
X126237000Y-71640000D01*
X121440000Y-71680000D02*
X126259000Y-71680000D01*
X121440000Y-71720000D02*
X126279000Y-71720000D01*
X121440000Y-71760000D02*
X126300000Y-71760000D01*
X121440000Y-71800000D02*
X126320000Y-71800000D01*
X121440000Y-71840000D02*
X126340000Y-71840000D01*
X121440000Y-71880000D02*
X126360000Y-71880000D01*
X121440000Y-71920000D02*
X126379000Y-71920000D01*
X121440000Y-71960000D02*
X126398000Y-71960000D01*
X121440000Y-72000000D02*
X126417000Y-72000000D01*
X121440000Y-72040000D02*
X126436000Y-72040000D01*
X121440000Y-72080000D02*
X126454000Y-72080000D01*
X121440000Y-72120000D02*
X126472000Y-72120000D01*
X121440000Y-72160000D02*
X126489000Y-72160000D01*
X121440000Y-72200000D02*
X126506000Y-72200000D01*
X121440000Y-72240000D02*
X126523000Y-72240000D01*
X121440000Y-72280000D02*
X126540000Y-72280000D01*
X121440000Y-72320000D02*
X126556000Y-72320000D01*
X121440000Y-72360000D02*
X126572000Y-72360000D01*
X121440000Y-72400000D02*
X126588000Y-72400000D01*
X121440000Y-72440000D02*
X126604000Y-72440000D01*
X121440000Y-72480000D02*
X126619000Y-72480000D01*
X121440000Y-72520000D02*
X126634000Y-72520000D01*
X121440000Y-72560000D02*
X126649000Y-72560000D01*
X121440000Y-72600000D02*
X126663000Y-72600000D01*
X121440000Y-72640000D02*
X126677000Y-72640000D01*
X121440000Y-72680000D02*
X126691000Y-72680000D01*
X121440000Y-72720000D02*
X126705000Y-72720000D01*
X121440000Y-72760000D02*
X126718000Y-72760000D01*
X121440000Y-72800000D02*
X126732000Y-72800000D01*
X121440000Y-72840000D02*
X126744000Y-72840000D01*
X121440000Y-72880000D02*
X126757000Y-72880000D01*
X121440000Y-72920000D02*
X126769000Y-72920000D01*
X121440000Y-72960000D02*
X126781000Y-72960000D01*
X121440000Y-73000000D02*
X126793000Y-73000000D01*
X121440000Y-73040000D02*
X126805000Y-73040000D01*
X121440000Y-73080000D02*
X126816000Y-73080000D01*
X121440000Y-73120000D02*
X126827000Y-73120000D01*
X121440000Y-73160000D02*
X126838000Y-73160000D01*
X121440000Y-73200000D02*
X126849000Y-73200000D01*
X121440000Y-73240000D02*
X126859000Y-73240000D01*
X121440000Y-73280000D02*
X126869000Y-73280000D01*
X121440000Y-73320000D02*
X126879000Y-73320000D01*
X121440000Y-73360000D02*
X126889000Y-73360000D01*
X121440000Y-73400000D02*
X126898000Y-73400000D01*
X121440000Y-73440000D02*
X126907000Y-73440000D01*
X121440000Y-73480000D02*
X126916000Y-73480000D01*
X121440000Y-73520000D02*
X126924000Y-73520000D01*
X121440000Y-73560000D02*
X126933000Y-73560000D01*
X121440000Y-73600000D02*
X126941000Y-73600000D01*
X121440000Y-73640000D02*
X126949000Y-73640000D01*
X121440000Y-73680000D02*
X126957000Y-73680000D01*
X121440000Y-73720000D02*
X126964000Y-73720000D01*
X121440000Y-73760000D02*
X126971000Y-73760000D01*
X121440000Y-73800000D02*
X126978000Y-73800000D01*
X121440000Y-73840000D02*
X126985000Y-73840000D01*
X121440000Y-73880000D02*
X126991000Y-73880000D01*
X121440000Y-73920000D02*
X126998000Y-73920000D01*
X127120000Y-75000000D02*
G75*
G02*
X112880000Y-75000000I-7120000J0D01*
G01*
X112880000Y-75000000D02*
G75*
G02*
X127120000Y-75000000I7120000J0D01*
G01*
%TO.C,J1*%
X169015000Y-47940000D02*
X169015000Y-58060000D01*
X169015000Y-58060000D02*
X174985000Y-58060000D01*
X169775000Y-48700000D02*
X169775000Y-53000000D01*
X169775000Y-57300000D02*
X169775000Y-53000000D01*
X172725000Y-47950000D02*
X172725000Y-48700000D01*
X172725000Y-48700000D02*
X169775000Y-48700000D01*
X172725000Y-57300000D02*
X169775000Y-57300000D01*
X172725000Y-58050000D02*
X172725000Y-57300000D01*
X174225000Y-47950000D02*
X174225000Y-49750000D01*
X174225000Y-49750000D02*
X174975000Y-49750000D01*
X174225000Y-51250000D02*
X174225000Y-54750000D01*
X174225000Y-54750000D02*
X174975000Y-54750000D01*
X174225000Y-56250000D02*
X174225000Y-58050000D01*
X174225000Y-58050000D02*
X174975000Y-58050000D01*
X174975000Y-47950000D02*
X174225000Y-47950000D01*
X174975000Y-49750000D02*
X174975000Y-47950000D01*
X174975000Y-51250000D02*
X174225000Y-51250000D01*
X174975000Y-54750000D02*
X174975000Y-51250000D01*
X174975000Y-56250000D02*
X174225000Y-56250000D01*
X174975000Y-58050000D02*
X174975000Y-56250000D01*
X174985000Y-47940000D02*
X169015000Y-47940000D01*
X174985000Y-58060000D02*
X174985000Y-47940000D01*
X175275000Y-47650000D02*
X174025000Y-47650000D01*
X175275000Y-48900000D02*
X175275000Y-47650000D01*
%TO.C,J4*%
X153225000Y-52850000D02*
X153225000Y-54100000D01*
X153225000Y-54100000D02*
X154475000Y-54100000D01*
X153515000Y-41190000D02*
X153515000Y-53810000D01*
X153515000Y-53810000D02*
X159485000Y-53810000D01*
X153525000Y-41200000D02*
X153525000Y-43000000D01*
X153525000Y-43000000D02*
X154275000Y-43000000D01*
X153525000Y-44500000D02*
X153525000Y-50500000D01*
X153525000Y-50500000D02*
X154275000Y-50500000D01*
X153525000Y-52000000D02*
X153525000Y-53800000D01*
X153525000Y-53800000D02*
X154275000Y-53800000D01*
X154275000Y-41200000D02*
X153525000Y-41200000D01*
X154275000Y-43000000D02*
X154275000Y-41200000D01*
X154275000Y-44500000D02*
X153525000Y-44500000D01*
X154275000Y-50500000D02*
X154275000Y-44500000D01*
X154275000Y-52000000D02*
X153525000Y-52000000D01*
X154275000Y-53800000D02*
X154275000Y-52000000D01*
X155775000Y-41200000D02*
X155775000Y-41950000D01*
X155775000Y-41950000D02*
X158725000Y-41950000D01*
X155775000Y-53050000D02*
X158725000Y-53050000D01*
X155775000Y-53800000D02*
X155775000Y-53050000D01*
X158725000Y-41950000D02*
X158725000Y-47500000D01*
X158725000Y-53050000D02*
X158725000Y-47500000D01*
X159485000Y-41190000D02*
X153515000Y-41190000D01*
X159485000Y-53810000D02*
X159485000Y-41190000D01*
%TO.C,J2*%
X161225000Y-52850000D02*
X161225000Y-54100000D01*
X161225000Y-54100000D02*
X162475000Y-54100000D01*
X161515000Y-41190000D02*
X161515000Y-53810000D01*
X161515000Y-53810000D02*
X167485000Y-53810000D01*
X161525000Y-41200000D02*
X161525000Y-43000000D01*
X161525000Y-43000000D02*
X162275000Y-43000000D01*
X161525000Y-44500000D02*
X161525000Y-50500000D01*
X161525000Y-50500000D02*
X162275000Y-50500000D01*
X161525000Y-52000000D02*
X161525000Y-53800000D01*
X161525000Y-53800000D02*
X162275000Y-53800000D01*
X162275000Y-41200000D02*
X161525000Y-41200000D01*
X162275000Y-43000000D02*
X162275000Y-41200000D01*
X162275000Y-44500000D02*
X161525000Y-44500000D01*
X162275000Y-50500000D02*
X162275000Y-44500000D01*
X162275000Y-52000000D02*
X161525000Y-52000000D01*
X162275000Y-53800000D02*
X162275000Y-52000000D01*
X163775000Y-41200000D02*
X163775000Y-41950000D01*
X163775000Y-41950000D02*
X166725000Y-41950000D01*
X163775000Y-53050000D02*
X166725000Y-53050000D01*
X163775000Y-53800000D02*
X163775000Y-53050000D01*
X166725000Y-41950000D02*
X166725000Y-47500000D01*
X166725000Y-53050000D02*
X166725000Y-47500000D01*
X167485000Y-41190000D02*
X161515000Y-41190000D01*
X167485000Y-53810000D02*
X167485000Y-41190000D01*
%TO.C,J5*%
X168894801Y-71184198D02*
X168894801Y-72434198D01*
X168894801Y-72434198D02*
X170144801Y-72434198D01*
X169184801Y-59524198D02*
X169184801Y-72144198D01*
X169184801Y-72144198D02*
X175154801Y-72144198D01*
X169194801Y-59534198D02*
X169194801Y-61334198D01*
X169194801Y-61334198D02*
X169944801Y-61334198D01*
X169194801Y-62834198D02*
X169194801Y-68834198D01*
X169194801Y-68834198D02*
X169944801Y-68834198D01*
X169194801Y-70334198D02*
X169194801Y-72134198D01*
X169194801Y-72134198D02*
X169944801Y-72134198D01*
X169944801Y-59534198D02*
X169194801Y-59534198D01*
X169944801Y-61334198D02*
X169944801Y-59534198D01*
X169944801Y-62834198D02*
X169194801Y-62834198D01*
X169944801Y-68834198D02*
X169944801Y-62834198D01*
X169944801Y-70334198D02*
X169194801Y-70334198D01*
X169944801Y-72134198D02*
X169944801Y-70334198D01*
X171444801Y-59534198D02*
X171444801Y-60284198D01*
X171444801Y-60284198D02*
X174394801Y-60284198D01*
X171444801Y-71384198D02*
X174394801Y-71384198D01*
X171444801Y-72134198D02*
X171444801Y-71384198D01*
X174394801Y-60284198D02*
X174394801Y-65834198D01*
X174394801Y-71384198D02*
X174394801Y-65834198D01*
X175154801Y-59524198D02*
X169184801Y-59524198D01*
X175154801Y-72144198D02*
X175154801Y-59524198D01*
D11*
%TO.C,U5*%
X112604801Y-100960000D02*
X112604801Y-115360000D01*
X112604801Y-115360000D02*
X125204801Y-115360000D01*
X125204801Y-100960000D02*
X112604801Y-100960000D01*
X125204801Y-115360000D02*
X125204801Y-100960000D01*
D12*
%TO.C,Q7*%
X139730000Y-44700000D02*
X139730000Y-48300000D01*
X139741522Y-44661522D02*
G75*
G02*
X144180001Y-46500000I1838478J-1838478D01*
G01*
X144180000Y-46500000D02*
G75*
G02*
X139741522Y-48338478I-2600000J0D01*
G01*
D11*
%TO.C,U4*%
X155200000Y-60300000D02*
X155200000Y-74700000D01*
X155200000Y-74700000D02*
X167800000Y-74700000D01*
X167800000Y-60300000D02*
X155200000Y-60300000D01*
X167800000Y-74700000D02*
X167800000Y-60300000D01*
D12*
%TO.C,R5*%
X126460000Y-53500000D02*
X127230000Y-53500000D01*
X134540000Y-53500000D02*
X133770000Y-53500000D01*
X133770000Y-54870000D02*
X127230000Y-54870000D01*
X127230000Y-52130000D01*
X133770000Y-52130000D01*
X133770000Y-54870000D01*
D11*
%TO.C,U1*%
X155200000Y-75300000D02*
X155200000Y-89700000D01*
X155200000Y-89700000D02*
X167800000Y-89700000D01*
X167800000Y-75300000D02*
X155200000Y-75300000D01*
X167800000Y-89700000D02*
X167800000Y-75300000D01*
D12*
%TO.C,SW1*%
X169580000Y-45880000D02*
X169580000Y-44500000D01*
X170960000Y-45880000D02*
X169580000Y-45880000D01*
X172230000Y-43120000D02*
X174880000Y-43120000D01*
X172230000Y-45880000D02*
X172230000Y-43120000D01*
X172230000Y-45880000D02*
X174880000Y-45880000D01*
X174880000Y-45880000D02*
X174880000Y-43120000D01*
%TO.C,Q1*%
X139730000Y-65700000D02*
X139730000Y-69300000D01*
X139741522Y-65661522D02*
G75*
G02*
X144180001Y-67500000I1838478J-1838478D01*
G01*
X144180000Y-67500000D02*
G75*
G02*
X139741522Y-69338478I-2600000J0D01*
G01*
%TO.C,R3*%
X126460000Y-60500000D02*
X127230000Y-60500000D01*
X134540000Y-60500000D02*
X133770000Y-60500000D01*
X133770000Y-61870000D02*
X127230000Y-61870000D01*
X127230000Y-59130000D01*
X133770000Y-59130000D01*
X133770000Y-61870000D01*
%TO.C,Q8*%
X145230000Y-41700000D02*
X145230000Y-45300000D01*
X145241522Y-41661522D02*
G75*
G02*
X149680001Y-43500000I1838478J-1838478D01*
G01*
X149680000Y-43500000D02*
G75*
G02*
X145241522Y-45338478I-2600000J0D01*
G01*
%TO.C,A2*%
X128344801Y-71844198D02*
X128344801Y-74514198D01*
X128344801Y-77054198D02*
X128344801Y-115284198D01*
X128344801Y-115284198D02*
X133424801Y-115284198D01*
X131014801Y-74514198D02*
X128344801Y-74514198D01*
X131014801Y-77054198D02*
X128344801Y-77054198D01*
X131014801Y-77054198D02*
X131014801Y-74514198D01*
X131014801Y-77054198D02*
X131014801Y-112614198D01*
X131014801Y-112614198D02*
X128344801Y-112614198D01*
X133424801Y-107404198D02*
X141304801Y-107404198D01*
X133424801Y-117824198D02*
X133424801Y-107404198D01*
X141304801Y-107404198D02*
X141304801Y-117824198D01*
X141304801Y-117824198D02*
X133424801Y-117824198D01*
X143714801Y-74514198D02*
X143714801Y-112614198D01*
X143714801Y-74514198D02*
X146384801Y-74514198D01*
X143714801Y-112614198D02*
X146384801Y-112614198D01*
X146384801Y-71844198D02*
X128344801Y-71844198D01*
X146384801Y-115284198D02*
X141304801Y-115284198D01*
X146384801Y-115284198D02*
X146384801Y-71844198D01*
D10*
%TO.C,U2*%
X159320350Y-112051451D02*
X166459931Y-112051451D01*
X159320350Y-117865188D02*
X159320350Y-112051451D01*
X166459931Y-112051451D02*
X166459931Y-117865188D01*
X166459931Y-117865188D02*
X159320350Y-117865188D01*
X149500000Y-90500000D02*
X175500000Y-90500000D01*
X175500000Y-117000000D01*
X149500000Y-117000000D01*
X149500000Y-90500000D01*
D11*
%TO.C,U3*%
X112604801Y-85260000D02*
X112604801Y-99660000D01*
X112604801Y-99660000D02*
X125204801Y-99660000D01*
X125204801Y-85260000D02*
X112604801Y-85260000D01*
X125204801Y-99660000D02*
X125204801Y-85260000D01*
D12*
%TO.C,R8*%
X126460000Y-43000000D02*
X127230000Y-43000000D01*
X134540000Y-43000000D02*
X133770000Y-43000000D01*
X133770000Y-44370000D02*
X127230000Y-44370000D01*
X127230000Y-41630000D01*
X133770000Y-41630000D01*
X133770000Y-44370000D01*
%TO.C,R7*%
X126460000Y-46500000D02*
X127230000Y-46500000D01*
X134540000Y-46500000D02*
X133770000Y-46500000D01*
X133770000Y-47870000D02*
X127230000Y-47870000D01*
X127230000Y-45130000D01*
X133770000Y-45130000D01*
X133770000Y-47870000D01*
%TO.C,Q4*%
X145230000Y-55200000D02*
X145230000Y-58800000D01*
X145241522Y-55161522D02*
G75*
G02*
X149680001Y-57000000I1838478J-1838478D01*
G01*
X149680000Y-57000000D02*
G75*
G02*
X145241522Y-58838478I-2600000J0D01*
G01*
%TO.C,R2*%
X126460000Y-64000000D02*
X127230000Y-64000000D01*
X134540000Y-64000000D02*
X133770000Y-64000000D01*
X133770000Y-65370000D02*
X127230000Y-65370000D01*
X127230000Y-62630000D01*
X133770000Y-62630000D01*
X133770000Y-65370000D01*
%TD*%
M02*
