M48
; DRILL file {KiCad 9.0.4} date 2025-10-05T15:55:46+0200
; FORMAT={-:-/ absolute / metric / decimal}
; #@! TF.CreationDate,2025-10-05T15:55:46+02:00
; #@! TF.GenerationSoftware,Kicad,Pcbnew,9.0.4
; #@! TF.FileFunction,Plated,1,2,PTH
FMAT,2
METRIC
; #@! TA.AperFunction,Plated,PTH,ComponentDrill
T1C0.750
; #@! TA.AperFunction,Plated,PTH,ComponentDrill
T2C0.762
; #@! TA.AperFunction,Plated,PTH,ComponentDrill
T3C0.800
; #@! TA.AperFunction,Plated,PTH,ComponentDrill
T4C0.950
; #@! TA.AperFunction,Plated,PTH,ComponentDrill
T5C1.000
; #@! TA.AperFunction,Plated,PTH,ComponentDrill
T6C1.016
; #@! TA.AperFunction,Plated,PTH,ComponentDrill
T7C1.200
%
G90
G05
T1
X141.58Y-45.23
X141.58Y-46.5
X141.58Y-47.77
X141.58Y-52.23
X141.58Y-53.5
X141.58Y-54.77
X141.58Y-59.23
X141.58Y-60.5
X141.58Y-61.77
X141.58Y-66.23
X141.58Y-67.5
X141.58Y-68.77
X147.08Y-42.23
X147.08Y-43.5
X147.08Y-44.77
X147.08Y-49.23
X147.08Y-50.5
X147.08Y-51.77
X147.08Y-55.73
X147.08Y-57.0
X147.08Y-58.27
X147.08Y-62.73
X147.08Y-64.0
X147.08Y-65.27
T2
X113.825Y-86.14
X113.825Y-88.68
X113.825Y-91.22
X113.825Y-93.76
X113.825Y-96.3
X113.825Y-98.84
X113.825Y-101.84
X113.825Y-104.38
X113.825Y-106.92
X113.825Y-109.46
X113.825Y-112.0
X113.825Y-114.54
X123.985Y-86.14
X123.985Y-88.68
X123.985Y-91.22
X123.985Y-93.76
X123.985Y-96.3
X123.985Y-98.84
X123.985Y-101.84
X123.985Y-104.38
X123.985Y-106.92
X123.985Y-109.46
X123.985Y-112.0
X123.985Y-114.54
X156.42Y-61.12
X156.42Y-63.66
X156.42Y-66.2
X156.42Y-68.74
X156.42Y-71.28
X156.42Y-73.82
X156.42Y-76.12
X156.42Y-78.66
X156.42Y-81.2
X156.42Y-83.74
X156.42Y-86.28
X156.42Y-88.82
X166.58Y-61.12
X166.58Y-63.66
X166.58Y-66.2
X166.58Y-68.74
X166.58Y-71.28
X166.58Y-73.82
X166.58Y-76.12
X166.58Y-78.66
X166.58Y-81.2
X166.58Y-83.74
X166.58Y-86.28
X166.58Y-88.82
T3
X125.42Y-43.0
X125.42Y-46.5
X125.42Y-50.0
X125.42Y-53.5
X125.42Y-57.0
X125.42Y-60.5
X125.42Y-64.0
X125.42Y-67.5
X135.58Y-43.0
X135.58Y-46.5
X135.58Y-50.0
X135.58Y-53.5
X135.58Y-57.0
X135.58Y-60.5
X135.58Y-64.0
X135.58Y-67.5
T4
X155.975Y-43.75
X155.975Y-46.25
X155.975Y-48.75
X155.975Y-51.25
X163.975Y-43.75
X163.975Y-46.25
X163.975Y-48.75
X163.975Y-51.25
X171.645Y-62.084
X171.645Y-64.584
X171.645Y-67.084
X171.645Y-69.584
X171.645Y-77.084
X171.645Y-79.584
X171.645Y-82.084
X171.645Y-84.584
X171.645Y-87.084
X172.525Y-50.5
X172.525Y-53.0
X172.525Y-55.5
T5
X129.745Y-75.784
X129.745Y-78.324
X129.745Y-80.864
X129.745Y-83.404
X129.745Y-85.944
X129.745Y-88.484
X129.745Y-91.024
X129.745Y-93.564
X129.745Y-96.104
X129.745Y-98.644
X129.745Y-101.184
X129.745Y-103.724
X129.745Y-106.264
X129.745Y-108.804
X129.745Y-111.344
X144.985Y-75.784
X144.985Y-78.324
X144.985Y-80.864
X144.985Y-83.404
X144.985Y-85.944
X144.985Y-88.484
X144.985Y-91.024
X144.985Y-93.564
X144.985Y-96.104
X144.985Y-98.644
X144.985Y-101.184
X144.985Y-103.724
X144.985Y-106.264
X144.985Y-108.804
X144.985Y-111.344
X170.96Y-44.5
X173.5Y-44.5
T6
X151.07Y-92.0
X151.07Y-94.54
X151.07Y-97.08
X151.07Y-99.62
X151.07Y-102.16
X151.07Y-104.7
X151.07Y-107.24
X151.07Y-109.78
X173.93Y-92.0
X173.93Y-94.54
X173.93Y-97.08
X173.93Y-99.62
X173.93Y-102.16
X173.93Y-104.7
X173.93Y-107.24
X173.93Y-109.78
T7
X120.0Y-72.5
X120.0Y-77.5
M30
