%TF.GenerationSoftware,KiCad,Pcbnew,9.0.4*%
%TF.CreationDate,2025-10-04T12:13:03+02:00*%
%TF.ProjectId,Chessboard,43686573-7362-46f6-9172-642e6b696361,rev?*%
%TF.SameCoordinates,Original*%
%TF.FileFunction,Copper,L1,Top*%
%TF.FilePolarity,Positive*%
%FSLAX46Y46*%
G04 Gerber Fmt 4.6, Leading zero omitted, Abs format (unit mm)*
G04 Created by KiCad (PCBNEW 9.0.4) date 2025-10-04 12:13:03*
%MOMM*%
%LPD*%
G01*
G04 APERTURE LIST*
G04 Aperture macros list*
%AMRoundRect*
0 Rectangle with rounded corners*
0 $1 Rounding radius*
0 $2 $3 $4 $5 $6 $7 $8 $9 X,Y pos of 4 corners*
0 Add a 4 corners polygon primitive as box body*
4,1,4,$2,$3,$4,$5,$6,$7,$8,$9,$2,$3,0*
0 Add four circle primitives for the rounded corners*
1,1,$1+$1,$2,$3*
1,1,$1+$1,$4,$5*
1,1,$1+$1,$6,$7*
1,1,$1+$1,$8,$9*
0 Add four rect primitives between the rounded corners*
20,1,$1+$1,$2,$3,$4,$5,0*
20,1,$1+$1,$4,$5,$6,$7,0*
20,1,$1+$1,$6,$7,$8,$9,0*
20,1,$1+$1,$8,$9,$2,$3,0*%
G04 Aperture macros list end*
%TA.AperFunction,ComponentPad*%
%ADD10O,2.400000X1.600000*%
%TD*%
%TA.AperFunction,ComponentPad*%
%ADD11R,2.400000X1.600000*%
%TD*%
%TA.AperFunction,ComponentPad*%
%ADD12O,1.600000X1.600000*%
%TD*%
%TA.AperFunction,ComponentPad*%
%ADD13R,1.600000X1.600000*%
%TD*%
%TA.AperFunction,ComponentPad*%
%ADD14C,1.600000*%
%TD*%
%TA.AperFunction,ComponentPad*%
%ADD15O,1.500000X1.050000*%
%TD*%
%TA.AperFunction,ComponentPad*%
%ADD16R,1.500000X1.050000*%
%TD*%
%TA.AperFunction,ComponentPad*%
%ADD17RoundRect,0.250000X0.725000X-0.600000X0.725000X0.600000X-0.725000X0.600000X-0.725000X-0.600000X0*%
%TD*%
%TA.AperFunction,ComponentPad*%
%ADD18O,1.950000X1.700000*%
%TD*%
%TA.AperFunction,ComponentPad*%
%ADD19RoundRect,0.250001X-0.949999X-0.949999X0.949999X-0.949999X0.949999X0.949999X-0.949999X0.949999X0*%
%TD*%
%TA.AperFunction,ComponentPad*%
%ADD20C,2.400000*%
%TD*%
%TA.AperFunction,ComponentPad*%
%ADD21RoundRect,0.250000X-0.725000X0.600000X-0.725000X-0.600000X0.725000X-0.600000X0.725000X0.600000X0*%
%TD*%
%TA.AperFunction,ComponentPad*%
%ADD22R,1.700000X1.700000*%
%TD*%
%TA.AperFunction,ComponentPad*%
%ADD23C,1.700000*%
%TD*%
%TA.AperFunction,ComponentPad*%
%ADD24C,1.800000*%
%TD*%
%TA.AperFunction,Conductor*%
%ADD25C,0.500000*%
%TD*%
G04 APERTURE END LIST*
D10*
%TO.P,U4,12,LV1*%
%TO.N,Net-(A2-SDA{slash}A4)*%
X181920000Y-98120000D03*
%TO.P,U4,11,LV2*%
%TO.N,Net-(A2-SCL{slash}A5)*%
X181920000Y-95580000D03*
%TO.P,U4,10,LV*%
%TO.N,+3V3*%
X181920000Y-93040000D03*
D11*
%TO.P,U4,9,GND*%
%TO.N,GND*%
X181920000Y-90500000D03*
D10*
%TO.P,U4,8,LV3*%
%TO.N,Net-(A2-A6)*%
X181920000Y-87960000D03*
%TO.P,U4,7,LV4*%
%TO.N,Net-(A2-A7)*%
X181920000Y-85420000D03*
%TO.P,U4,6,HV4*%
%TO.N,/Sensor/D8*%
X192080000Y-85420000D03*
%TO.P,U4,5,HV3*%
%TO.N,/Sensor/D7*%
X192080000Y-87960000D03*
D11*
%TO.P,U4,4,GND*%
%TO.N,GND*%
X192080000Y-90500000D03*
D10*
%TO.P,U4,3,HV*%
%TO.N,+5V*%
X192080000Y-93040000D03*
%TO.P,U4,2,HV2*%
%TO.N,/Sensor/D6*%
X192080000Y-95580000D03*
%TO.P,U4,1,HV1*%
%TO.N,/Sensor/D5*%
X192080000Y-98120000D03*
%TD*%
D12*
%TO.P,A2,30,VIN*%
%TO.N,+5V*%
X171000000Y-99560000D03*
%TO.P,A2,29,GND*%
%TO.N,GND*%
X171000000Y-102100000D03*
%TO.P,A2,28,B1*%
%TO.N,unconnected-(A2-B1-Pad28)*%
X171000000Y-104640000D03*
%TO.P,A2,27,VUSB/5V*%
%TO.N,unconnected-(A2-VUSB{slash}5V-Pad27)*%
X171000000Y-107180000D03*
%TO.P,A2,26,A7*%
%TO.N,Net-(A2-A7)*%
X171000000Y-109720000D03*
%TO.P,A2,25,A6*%
%TO.N,Net-(A2-A6)*%
X171000000Y-112260000D03*
%TO.P,A2,24,SCL/A5*%
%TO.N,Net-(A2-SCL{slash}A5)*%
X171000000Y-114800000D03*
%TO.P,A2,23,SDA/A4*%
%TO.N,Net-(A2-SDA{slash}A4)*%
X171000000Y-117340000D03*
%TO.P,A2,22,A3*%
%TO.N,Net-(A2-A3)*%
X171000000Y-119880000D03*
%TO.P,A2,21,A2*%
%TO.N,Net-(A2-A2)*%
X171000000Y-122420000D03*
%TO.P,A2,20,A1*%
%TO.N,Net-(A2-A1)*%
X171000000Y-124960000D03*
%TO.P,A2,19,A0*%
%TO.N,Net-(A2-A0)*%
X171000000Y-127500000D03*
%TO.P,A2,18,B0*%
%TO.N,unconnected-(A2-B0-Pad18)*%
X171000000Y-130040000D03*
%TO.P,A2,17,3V3*%
%TO.N,+3V3*%
X171000000Y-132580000D03*
%TO.P,A2,16,D13/SCK*%
%TO.N,unconnected-(A2-D13{slash}SCK-Pad16)*%
X171000000Y-135120000D03*
%TO.P,A2,15,D12/CIPO*%
%TO.N,unconnected-(A2-D12{slash}CIPO-Pad15)*%
X155760000Y-135120000D03*
%TO.P,A2,14,D11/COPI*%
%TO.N,unconnected-(A2-D11{slash}COPI-Pad14)*%
X155760000Y-132580000D03*
%TO.P,A2,13,D10/CS*%
%TO.N,Net-(A2-D10{slash}CS)*%
X155760000Y-130040000D03*
%TO.P,A2,12,D9*%
%TO.N,Net-(A2-D9)*%
X155760000Y-127500000D03*
%TO.P,A2,11,D8*%
%TO.N,Net-(A2-D8)*%
X155760000Y-124960000D03*
%TO.P,A2,10,D7*%
%TO.N,Net-(A2-D7)*%
X155760000Y-122420000D03*
%TO.P,A2,9,D6*%
%TO.N,Net-(A2-D6)*%
X155760000Y-119880000D03*
%TO.P,A2,8,D5*%
%TO.N,Net-(A2-D5)*%
X155760000Y-117340000D03*
%TO.P,A2,7,D4*%
%TO.N,Net-(A2-D4)*%
X155760000Y-114800000D03*
%TO.P,A2,6,D3*%
%TO.N,Net-(A2-D3)*%
X155760000Y-112260000D03*
%TO.P,A2,5,D2*%
%TO.N,/LED_ROW_1_2/LED_Data*%
X155760000Y-109720000D03*
%TO.P,A2,4,GND*%
%TO.N,GND*%
X155760000Y-107180000D03*
%TO.P,A2,3,~{RESET}*%
%TO.N,unconnected-(A2-~{RESET}-Pad3)*%
X155760000Y-104640000D03*
%TO.P,A2,2,D0/RX*%
%TO.N,unconnected-(A2-D0{slash}RX-Pad2)*%
X155760000Y-102100000D03*
D13*
%TO.P,A2,1,D1/TX*%
%TO.N,unconnected-(A2-D1{slash}TX-Pad1)*%
X155760000Y-99560000D03*
%TD*%
D10*
%TO.P,U1,1,HV1*%
%TO.N,/Sensor/D1*%
X192160000Y-113820000D03*
%TO.P,U1,2,HV2*%
%TO.N,/Sensor/D2*%
X192160000Y-111280000D03*
%TO.P,U1,3,HV*%
%TO.N,+5V*%
X192160000Y-108740000D03*
D11*
%TO.P,U1,4,GND*%
%TO.N,GND*%
X192160000Y-106200000D03*
D10*
%TO.P,U1,5,HV3*%
%TO.N,/Sensor/D3*%
X192160000Y-103660000D03*
%TO.P,U1,6,HV4*%
%TO.N,/Sensor/D4*%
X192160000Y-101120000D03*
%TO.P,U1,7,LV4*%
%TO.N,Net-(A2-A3)*%
X182000000Y-101120000D03*
%TO.P,U1,8,LV3*%
%TO.N,Net-(A2-A2)*%
X182000000Y-103660000D03*
D11*
%TO.P,U1,9,GND*%
%TO.N,GND*%
X182000000Y-106200000D03*
D10*
%TO.P,U1,10,LV*%
%TO.N,+3V3*%
X182000000Y-108740000D03*
%TO.P,U1,11,LV2*%
%TO.N,Net-(A2-A1)*%
X182000000Y-111280000D03*
%TO.P,U1,12,LV1*%
%TO.N,Net-(A2-A0)*%
X182000000Y-113820000D03*
%TD*%
D14*
%TO.P,R5,1*%
%TO.N,Net-(Q5-B)*%
X157000000Y-75770000D03*
%TO.P,R5,2*%
%TO.N,Net-(U5-HV1)*%
X146840000Y-75770000D03*
%TD*%
D15*
%TO.P,Q1,3,B*%
%TO.N,Net-(Q1-B)*%
X163000000Y-91040000D03*
%TO.P,Q1,2,C*%
%TO.N,/Sensor/VS1*%
X163000000Y-89770000D03*
D16*
%TO.P,Q1,1,E*%
%TO.N,+5V*%
X163000000Y-88500000D03*
%TD*%
%TO.P,Q8,1,E*%
%TO.N,+5V*%
X168500000Y-64500000D03*
D15*
%TO.P,Q8,2,C*%
%TO.N,/Sensor/VS8*%
X168500000Y-65770000D03*
%TO.P,Q8,3,B*%
%TO.N,Net-(Q8-B)*%
X168500000Y-67040000D03*
%TD*%
D14*
%TO.P,R3,2*%
%TO.N,Net-(U3-HV3)*%
X146840000Y-82770000D03*
%TO.P,R3,1*%
%TO.N,Net-(Q3-B)*%
X157000000Y-82770000D03*
%TD*%
%TO.P,R8,1*%
%TO.N,Net-(Q8-B)*%
X157000000Y-65270000D03*
%TO.P,R8,2*%
%TO.N,Net-(U5-HV4)*%
X146840000Y-65270000D03*
%TD*%
D16*
%TO.P,Q7,1,E*%
%TO.N,+5V*%
X163000000Y-67500000D03*
D15*
%TO.P,Q7,2,C*%
%TO.N,/Sensor/VS7*%
X163000000Y-68770000D03*
%TO.P,Q7,3,B*%
%TO.N,Net-(Q7-B)*%
X163000000Y-70040000D03*
%TD*%
%TO.P,Q2,3,B*%
%TO.N,Net-(Q2-B)*%
X168500000Y-87540000D03*
%TO.P,Q2,2,C*%
%TO.N,/Sensor/VS2*%
X168500000Y-86270000D03*
D16*
%TO.P,Q2,1,E*%
%TO.N,+5V*%
X168500000Y-85000000D03*
%TD*%
D14*
%TO.P,R1,1*%
%TO.N,Net-(Q1-B)*%
X157000000Y-89770000D03*
%TO.P,R1,2*%
%TO.N,Net-(U3-HV1)*%
X146840000Y-89770000D03*
%TD*%
%TO.P,R4,2*%
%TO.N,Net-(U3-HV4)*%
X146840000Y-79270000D03*
%TO.P,R4,1*%
%TO.N,Net-(Q4-B)*%
X157000000Y-79270000D03*
%TD*%
%TO.P,R6,1*%
%TO.N,Net-(Q6-B)*%
X157000000Y-72270000D03*
%TO.P,R6,2*%
%TO.N,Net-(U5-HV2)*%
X146840000Y-72270000D03*
%TD*%
D16*
%TO.P,Q5,1,E*%
%TO.N,+5V*%
X163000000Y-74500000D03*
D15*
%TO.P,Q5,2,C*%
%TO.N,/Sensor/VS5*%
X163000000Y-75770000D03*
%TO.P,Q5,3,B*%
%TO.N,Net-(Q5-B)*%
X163000000Y-77040000D03*
%TD*%
D16*
%TO.P,Q6,1,E*%
%TO.N,+5V*%
X168500000Y-71500000D03*
D15*
%TO.P,Q6,2,C*%
%TO.N,/Sensor/VS6*%
X168500000Y-72770000D03*
%TO.P,Q6,3,B*%
%TO.N,Net-(Q6-B)*%
X168500000Y-74040000D03*
%TD*%
%TO.P,Q3,3,B*%
%TO.N,Net-(Q3-B)*%
X163000000Y-84040000D03*
%TO.P,Q3,2,C*%
%TO.N,/Sensor/VS3*%
X163000000Y-82770000D03*
D16*
%TO.P,Q3,1,E*%
%TO.N,+5V*%
X163000000Y-81500000D03*
%TD*%
D14*
%TO.P,R7,1*%
%TO.N,Net-(Q7-B)*%
X157000000Y-68770000D03*
%TO.P,R7,2*%
%TO.N,Net-(U5-HV3)*%
X146840000Y-68770000D03*
%TD*%
D15*
%TO.P,Q4,3,B*%
%TO.N,Net-(Q4-B)*%
X168500000Y-80540000D03*
%TO.P,Q4,2,C*%
%TO.N,/Sensor/VS4*%
X168500000Y-79270000D03*
D16*
%TO.P,Q4,1,E*%
%TO.N,+5V*%
X168500000Y-78000000D03*
%TD*%
D14*
%TO.P,R2,1*%
%TO.N,Net-(Q2-B)*%
X157000000Y-86270000D03*
%TO.P,R2,2*%
%TO.N,Net-(U3-HV2)*%
X146840000Y-86270000D03*
%TD*%
D17*
%TO.P,J3,1,Pin_1*%
%TO.N,GND*%
X197660000Y-110860000D03*
D18*
%TO.P,J3,2,Pin_2*%
%TO.N,/Sensor/D1*%
X197660000Y-108360000D03*
%TO.P,J3,3,Pin_3*%
%TO.N,/Sensor/D2*%
X197660000Y-105860000D03*
%TO.P,J3,4,Pin_4*%
%TO.N,/Sensor/D3*%
X197660000Y-103360000D03*
%TO.P,J3,5,Pin_5*%
%TO.N,/Sensor/D4*%
X197660000Y-100860000D03*
%TD*%
D19*
%TO.P,C3,1*%
%TO.N,+5V*%
X142500000Y-98500000D03*
D20*
%TO.P,C3,2*%
%TO.N,GND*%
X147500000Y-98500000D03*
%TD*%
D21*
%TO.P,J1,1,Pin_1*%
%TO.N,+5V*%
X196000000Y-74000000D03*
D18*
%TO.P,J1,2,Pin_2*%
%TO.N,/LED_ROW_1_2/LED_Data*%
X196000000Y-76500000D03*
%TO.P,J1,3,Pin_3*%
%TO.N,GND*%
X196000000Y-79000000D03*
%TD*%
D17*
%TO.P,J4,1,Pin_1*%
%TO.N,/Sensor/VS5*%
X178000000Y-77500000D03*
D18*
%TO.P,J4,2,Pin_2*%
%TO.N,/Sensor/VS6*%
X178000000Y-75000000D03*
%TO.P,J4,3,Pin_3*%
%TO.N,/Sensor/VS7*%
X178000000Y-72500000D03*
%TO.P,J4,4,Pin_4*%
%TO.N,/Sensor/VS8*%
X178000000Y-70000000D03*
%TD*%
D17*
%TO.P,J2,1,Pin_1*%
%TO.N,/Sensor/VS1*%
X186500000Y-77500000D03*
D18*
%TO.P,J2,2,Pin_2*%
%TO.N,/Sensor/VS2*%
X186500000Y-75000000D03*
%TO.P,J2,3,Pin_3*%
%TO.N,/Sensor/VS3*%
X186500000Y-72500000D03*
%TO.P,J2,4,Pin_4*%
%TO.N,/Sensor/VS4*%
X186500000Y-70000000D03*
%TD*%
D17*
%TO.P,J5,1,Pin_1*%
%TO.N,/Sensor/D5*%
X197660000Y-93360000D03*
D18*
%TO.P,J5,2,Pin_2*%
%TO.N,/Sensor/D6*%
X197660000Y-90860000D03*
%TO.P,J5,3,Pin_3*%
%TO.N,/Sensor/D7*%
X197660000Y-88360000D03*
%TO.P,J5,4,Pin_4*%
%TO.N,/Sensor/D8*%
X197660000Y-85860000D03*
%TD*%
D10*
%TO.P,U5,1,HV1*%
%TO.N,Net-(U5-HV1)*%
X139840000Y-123040000D03*
%TO.P,U5,2,HV2*%
%TO.N,Net-(U5-HV2)*%
X139840000Y-125580000D03*
%TO.P,U5,3,HV*%
%TO.N,+5V*%
X139840000Y-128120000D03*
D11*
%TO.P,U5,4,GND*%
%TO.N,GND*%
X139840000Y-130660000D03*
D10*
%TO.P,U5,5,HV3*%
%TO.N,Net-(U5-HV3)*%
X139840000Y-133200000D03*
%TO.P,U5,6,HV4*%
%TO.N,Net-(U5-HV4)*%
X139840000Y-135740000D03*
%TO.P,U5,7,LV4*%
%TO.N,Net-(A2-D10{slash}CS)*%
X150000000Y-135740000D03*
%TO.P,U5,8,LV3*%
%TO.N,Net-(A2-D9)*%
X150000000Y-133200000D03*
D11*
%TO.P,U5,9,GND*%
%TO.N,GND*%
X150000000Y-130660000D03*
D10*
%TO.P,U5,10,LV*%
%TO.N,+3V3*%
X150000000Y-128120000D03*
%TO.P,U5,11,LV2*%
%TO.N,Net-(A2-D8)*%
X150000000Y-125580000D03*
%TO.P,U5,12,LV1*%
%TO.N,Net-(A2-D7)*%
X150000000Y-123040000D03*
%TD*%
D22*
%TO.P,SW1,1,A*%
%TO.N,+5V*%
X181500000Y-63500000D03*
D23*
%TO.P,SW1,2,B*%
%TO.N,Net-(SW1-B)*%
X184040000Y-63500000D03*
%TD*%
D24*
%TO.P,U2,16,3.3V*%
%TO.N,unconnected-(U2-3.3V-Pad16)*%
X180070000Y-134780000D03*
%TO.P,U2,15,D8*%
%TO.N,unconnected-(U2-D8-Pad15)*%
X180070000Y-132240000D03*
%TO.P,U2,14,D7*%
%TO.N,unconnected-(U2-D7-Pad14)*%
X180070000Y-129700000D03*
%TO.P,U2,13,D6*%
%TO.N,unconnected-(U2-D6-Pad13)*%
X180070000Y-127160000D03*
%TO.P,U2,12,D5*%
%TO.N,unconnected-(U2-D5-Pad12)*%
X180070000Y-124620000D03*
%TO.P,U2,11,D0*%
%TO.N,unconnected-(U2-D0-Pad11)*%
X180070000Y-122080000D03*
%TO.P,U2,10,A0*%
%TO.N,unconnected-(U2-A0-Pad10)*%
X180070000Y-119540000D03*
%TO.P,U2,9,Rst*%
%TO.N,unconnected-(U2-Rst-Pad9)*%
X180070000Y-117000000D03*
%TO.P,U2,8,Tx*%
%TO.N,unconnected-(U2-Tx-Pad8)*%
X202930000Y-117000000D03*
%TO.P,U2,7,Rx*%
%TO.N,unconnected-(U2-Rx-Pad7)*%
X202930000Y-119540000D03*
%TO.P,U2,6,D1*%
%TO.N,unconnected-(U2-D1-Pad6)*%
X202930000Y-122080000D03*
%TO.P,U2,5,D2*%
%TO.N,unconnected-(U2-D2-Pad5)*%
X202930000Y-124620000D03*
%TO.P,U2,4,D3*%
%TO.N,unconnected-(U2-D3-Pad4)*%
X202930000Y-127160000D03*
%TO.P,U2,3,D4*%
%TO.N,unconnected-(U2-D4-Pad3)*%
X202930000Y-129700000D03*
%TO.P,U2,2,GND*%
%TO.N,GND*%
X202930000Y-132240000D03*
%TO.P,U2,1,5V*%
%TO.N,Net-(SW1-B)*%
X202930000Y-134780000D03*
%TD*%
D10*
%TO.P,U3,1,HV1*%
%TO.N,Net-(U3-HV1)*%
X139840000Y-107340000D03*
%TO.P,U3,2,HV2*%
%TO.N,Net-(U3-HV2)*%
X139840000Y-109880000D03*
%TO.P,U3,3,HV*%
%TO.N,+5V*%
X139840000Y-112420000D03*
D11*
%TO.P,U3,4,GND*%
%TO.N,GND*%
X139840000Y-114960000D03*
D10*
%TO.P,U3,5,HV3*%
%TO.N,Net-(U3-HV3)*%
X139840000Y-117500000D03*
%TO.P,U3,6,HV4*%
%TO.N,Net-(U3-HV4)*%
X139840000Y-120040000D03*
%TO.P,U3,7,LV4*%
%TO.N,Net-(A2-D6)*%
X150000000Y-120040000D03*
%TO.P,U3,8,LV3*%
%TO.N,Net-(A2-D5)*%
X150000000Y-117500000D03*
D11*
%TO.P,U3,9,GND*%
%TO.N,GND*%
X150000000Y-114960000D03*
D10*
%TO.P,U3,10,LV*%
%TO.N,+3V3*%
X150000000Y-112420000D03*
%TO.P,U3,11,LV2*%
%TO.N,Net-(A2-D4)*%
X150000000Y-109880000D03*
%TO.P,U3,12,LV1*%
%TO.N,Net-(A2-D3)*%
X150000000Y-107340000D03*
%TD*%
D25*
%TO.N,GND*%
X148349000Y-116611000D02*
X150000000Y-114960000D01*
X148349000Y-129009000D02*
X148349000Y-116611000D01*
X150000000Y-130660000D02*
X148349000Y-129009000D01*
X150000000Y-130660000D02*
X139840000Y-130660000D01*
X139840000Y-114960000D02*
X150000000Y-114960000D01*
X151651000Y-113309000D02*
X150000000Y-114960000D01*
X151651000Y-111289000D02*
X151651000Y-113309000D01*
X155760000Y-107180000D02*
X151651000Y-111289000D01*
X165320000Y-107180000D02*
X155760000Y-107180000D01*
X170400000Y-102100000D02*
X165320000Y-107180000D01*
X171000000Y-102100000D02*
X170400000Y-102100000D01*
X177200000Y-102100000D02*
X171000000Y-102100000D01*
X181300000Y-106200000D02*
X177200000Y-102100000D01*
X182000000Y-106200000D02*
X181300000Y-106200000D01*
X183651000Y-104549000D02*
X182000000Y-106200000D01*
X183651000Y-92231000D02*
X183651000Y-104549000D01*
X181920000Y-90500000D02*
X183651000Y-92231000D01*
X192080000Y-90500000D02*
X181920000Y-90500000D01*
X182000000Y-106200000D02*
X192160000Y-106200000D01*
X196820000Y-110860000D02*
X192160000Y-106200000D01*
X197660000Y-110860000D02*
X196820000Y-110860000D01*
%TD*%
M02*
