%TF.GenerationSoftware,KiCad,Pcbnew,9.0.4*%
%TF.CreationDate,2025-10-04T12:13:03+02:00*%
%TF.ProjectId,Chessboard,43686573-7362-46f6-9172-642e6b696361,rev?*%
%TF.SameCoordinates,Original*%
%TF.FileFunction,Soldermask,Top*%
%TF.FilePolarity,Negative*%
%FSLAX46Y46*%
G04 Gerber Fmt 4.6, Leading zero omitted, Abs format (unit mm)*
G04 Created by KiCad (PCBNEW 9.0.4) date 2025-10-04 12:13:03*
%MOMM*%
%LPD*%
G01*
G04 APERTURE LIST*
G04 Aperture macros list*
%AMRoundRect*
0 Rectangle with rounded corners*
0 $1 Rounding radius*
0 $2 $3 $4 $5 $6 $7 $8 $9 X,Y pos of 4 corners*
0 Add a 4 corners polygon primitive as box body*
4,1,4,$2,$3,$4,$5,$6,$7,$8,$9,$2,$3,0*
0 Add four circle primitives for the rounded corners*
1,1,$1+$1,$2,$3*
1,1,$1+$1,$4,$5*
1,1,$1+$1,$6,$7*
1,1,$1+$1,$8,$9*
0 Add four rect primitives between the rounded corners*
20,1,$1+$1,$2,$3,$4,$5,0*
20,1,$1+$1,$4,$5,$6,$7,0*
20,1,$1+$1,$6,$7,$8,$9,0*
20,1,$1+$1,$8,$9,$2,$3,0*%
G04 Aperture macros list end*
%ADD10O,2.400000X1.600000*%
%ADD11R,2.400000X1.600000*%
%ADD12O,1.600000X1.600000*%
%ADD13R,1.600000X1.600000*%
%ADD14C,1.600000*%
%ADD15O,1.500000X1.050000*%
%ADD16R,1.500000X1.050000*%
%ADD17RoundRect,0.250000X0.725000X-0.600000X0.725000X0.600000X-0.725000X0.600000X-0.725000X-0.600000X0*%
%ADD18O,1.950000X1.700000*%
%ADD19RoundRect,0.250001X-0.949999X-0.949999X0.949999X-0.949999X0.949999X0.949999X-0.949999X0.949999X0*%
%ADD20C,2.400000*%
%ADD21RoundRect,0.250000X-0.725000X0.600000X-0.725000X-0.600000X0.725000X-0.600000X0.725000X0.600000X0*%
%ADD22R,1.700000X1.700000*%
%ADD23C,1.700000*%
%ADD24C,1.800000*%
G04 APERTURE END LIST*
D10*
%TO.C,U4*%
X181920000Y-98120000D03*
X181920000Y-95580000D03*
X181920000Y-93040000D03*
D11*
X181920000Y-90500000D03*
D10*
X181920000Y-87960000D03*
X181920000Y-85420000D03*
X192080000Y-85420000D03*
X192080000Y-87960000D03*
D11*
X192080000Y-90500000D03*
D10*
X192080000Y-93040000D03*
X192080000Y-95580000D03*
X192080000Y-98120000D03*
%TD*%
D12*
%TO.C,A2*%
X171000000Y-99560000D03*
X171000000Y-102100000D03*
X171000000Y-104640000D03*
X171000000Y-107180000D03*
X171000000Y-109720000D03*
X171000000Y-112260000D03*
X171000000Y-114800000D03*
X171000000Y-117340000D03*
X171000000Y-119880000D03*
X171000000Y-122420000D03*
X171000000Y-124960000D03*
X171000000Y-127500000D03*
X171000000Y-130040000D03*
X171000000Y-132580000D03*
X171000000Y-135120000D03*
X155760000Y-135120000D03*
X155760000Y-132580000D03*
X155760000Y-130040000D03*
X155760000Y-127500000D03*
X155760000Y-124960000D03*
X155760000Y-122420000D03*
X155760000Y-119880000D03*
X155760000Y-117340000D03*
X155760000Y-114800000D03*
X155760000Y-112260000D03*
X155760000Y-109720000D03*
X155760000Y-107180000D03*
X155760000Y-104640000D03*
X155760000Y-102100000D03*
D13*
X155760000Y-99560000D03*
%TD*%
D10*
%TO.C,U1*%
X192160000Y-113820000D03*
X192160000Y-111280000D03*
X192160000Y-108740000D03*
D11*
X192160000Y-106200000D03*
D10*
X192160000Y-103660000D03*
X192160000Y-101120000D03*
X182000000Y-101120000D03*
X182000000Y-103660000D03*
D11*
X182000000Y-106200000D03*
D10*
X182000000Y-108740000D03*
X182000000Y-111280000D03*
X182000000Y-113820000D03*
%TD*%
D14*
%TO.C,R5*%
X157000000Y-75770000D03*
X146840000Y-75770000D03*
%TD*%
D15*
%TO.C,Q1*%
X163000000Y-91040000D03*
X163000000Y-89770000D03*
D16*
X163000000Y-88500000D03*
%TD*%
%TO.C,Q8*%
X168500000Y-64500000D03*
D15*
X168500000Y-65770000D03*
X168500000Y-67040000D03*
%TD*%
D14*
%TO.C,R3*%
X146840000Y-82770000D03*
X157000000Y-82770000D03*
%TD*%
%TO.C,R8*%
X157000000Y-65270000D03*
X146840000Y-65270000D03*
%TD*%
D16*
%TO.C,Q7*%
X163000000Y-67500000D03*
D15*
X163000000Y-68770000D03*
X163000000Y-70040000D03*
%TD*%
%TO.C,Q2*%
X168500000Y-87540000D03*
X168500000Y-86270000D03*
D16*
X168500000Y-85000000D03*
%TD*%
D14*
%TO.C,R1*%
X157000000Y-89770000D03*
X146840000Y-89770000D03*
%TD*%
%TO.C,R4*%
X146840000Y-79270000D03*
X157000000Y-79270000D03*
%TD*%
%TO.C,R6*%
X157000000Y-72270000D03*
X146840000Y-72270000D03*
%TD*%
D16*
%TO.C,Q5*%
X163000000Y-74500000D03*
D15*
X163000000Y-75770000D03*
X163000000Y-77040000D03*
%TD*%
D16*
%TO.C,Q6*%
X168500000Y-71500000D03*
D15*
X168500000Y-72770000D03*
X168500000Y-74040000D03*
%TD*%
%TO.C,Q3*%
X163000000Y-84040000D03*
X163000000Y-82770000D03*
D16*
X163000000Y-81500000D03*
%TD*%
D14*
%TO.C,R7*%
X157000000Y-68770000D03*
X146840000Y-68770000D03*
%TD*%
D15*
%TO.C,Q4*%
X168500000Y-80540000D03*
X168500000Y-79270000D03*
D16*
X168500000Y-78000000D03*
%TD*%
D14*
%TO.C,R2*%
X157000000Y-86270000D03*
X146840000Y-86270000D03*
%TD*%
D17*
%TO.C,J3*%
X197660000Y-110860000D03*
D18*
X197660000Y-108360000D03*
X197660000Y-105860000D03*
X197660000Y-103360000D03*
X197660000Y-100860000D03*
%TD*%
D19*
%TO.C,C3*%
X142500000Y-98500000D03*
D20*
X147500000Y-98500000D03*
%TD*%
D21*
%TO.C,J1*%
X196000000Y-74000000D03*
D18*
X196000000Y-76500000D03*
X196000000Y-79000000D03*
%TD*%
D17*
%TO.C,J4*%
X178000000Y-77500000D03*
D18*
X178000000Y-75000000D03*
X178000000Y-72500000D03*
X178000000Y-70000000D03*
%TD*%
D17*
%TO.C,J2*%
X186500000Y-77500000D03*
D18*
X186500000Y-75000000D03*
X186500000Y-72500000D03*
X186500000Y-70000000D03*
%TD*%
D17*
%TO.C,J5*%
X197660000Y-93360000D03*
D18*
X197660000Y-90860000D03*
X197660000Y-88360000D03*
X197660000Y-85860000D03*
%TD*%
D10*
%TO.C,U5*%
X139840000Y-123040000D03*
X139840000Y-125580000D03*
X139840000Y-128120000D03*
D11*
X139840000Y-130660000D03*
D10*
X139840000Y-133200000D03*
X139840000Y-135740000D03*
X150000000Y-135740000D03*
X150000000Y-133200000D03*
D11*
X150000000Y-130660000D03*
D10*
X150000000Y-128120000D03*
X150000000Y-125580000D03*
X150000000Y-123040000D03*
%TD*%
D22*
%TO.C,SW1*%
X181500000Y-63500000D03*
D23*
X184040000Y-63500000D03*
%TD*%
D24*
%TO.C,U2*%
X180070000Y-134780000D03*
X180070000Y-132240000D03*
X180070000Y-129700000D03*
X180070000Y-127160000D03*
X180070000Y-124620000D03*
X180070000Y-122080000D03*
X180070000Y-119540000D03*
X180070000Y-117000000D03*
X202930000Y-117000000D03*
X202930000Y-119540000D03*
X202930000Y-122080000D03*
X202930000Y-124620000D03*
X202930000Y-127160000D03*
X202930000Y-129700000D03*
X202930000Y-132240000D03*
X202930000Y-134780000D03*
%TD*%
D10*
%TO.C,U3*%
X139840000Y-107340000D03*
X139840000Y-109880000D03*
X139840000Y-112420000D03*
D11*
X139840000Y-114960000D03*
D10*
X139840000Y-117500000D03*
X139840000Y-120040000D03*
X150000000Y-120040000D03*
X150000000Y-117500000D03*
D11*
X150000000Y-114960000D03*
D10*
X150000000Y-112420000D03*
X150000000Y-109880000D03*
X150000000Y-107340000D03*
%TD*%
M02*
