%TF.GenerationSoftware,KiCad,Pcbnew,9.0.4*%
%TF.CreationDate,2025-10-05T15:55:27+02:00*%
%TF.ProjectId,Chessboard,43686573-7362-46f6-9172-642e6b696361,rev?*%
%TF.SameCoordinates,Original*%
%TF.FileFunction,Copper,L2,Bot*%
%TF.FilePolarity,Positive*%
%FSLAX46Y46*%
G04 Gerber Fmt 4.6, Leading zero omitted, Abs format (unit mm)*
G04 Created by KiCad (PCBNEW 9.0.4) date 2025-10-05 15:55:27*
%MOMM*%
%LPD*%
G01*
G04 APERTURE LIST*
G04 Aperture macros list*
%AMRoundRect*
0 Rectangle with rounded corners*
0 $1 Rounding radius*
0 $2 $3 $4 $5 $6 $7 $8 $9 X,Y pos of 4 corners*
0 Add a 4 corners polygon primitive as box body*
4,1,4,$2,$3,$4,$5,$6,$7,$8,$9,$2,$3,0*
0 Add four circle primitives for the rounded corners*
1,1,$1+$1,$2,$3*
1,1,$1+$1,$4,$5*
1,1,$1+$1,$6,$7*
1,1,$1+$1,$8,$9*
0 Add four rect primitives between the rounded corners*
20,1,$1+$1,$2,$3,$4,$5,0*
20,1,$1+$1,$4,$5,$6,$7,0*
20,1,$1+$1,$6,$7,$8,$9,0*
20,1,$1+$1,$8,$9,$2,$3,0*%
G04 Aperture macros list end*
%TA.AperFunction,ComponentPad*%
%ADD10R,1.500000X1.050000*%
%TD*%
%TA.AperFunction,ComponentPad*%
%ADD11O,1.500000X1.050000*%
%TD*%
%TA.AperFunction,ComponentPad*%
%ADD12C,1.600000*%
%TD*%
%TA.AperFunction,ComponentPad*%
%ADD13RoundRect,0.250000X0.725000X-0.600000X0.725000X0.600000X-0.725000X0.600000X-0.725000X-0.600000X0*%
%TD*%
%TA.AperFunction,ComponentPad*%
%ADD14O,1.950000X1.700000*%
%TD*%
%TA.AperFunction,ComponentPad*%
%ADD15RoundRect,0.250001X0.949999X-0.949999X0.949999X0.949999X-0.949999X0.949999X-0.949999X-0.949999X0*%
%TD*%
%TA.AperFunction,ComponentPad*%
%ADD16C,2.400000*%
%TD*%
%TA.AperFunction,ComponentPad*%
%ADD17RoundRect,0.250000X-0.725000X0.600000X-0.725000X-0.600000X0.725000X-0.600000X0.725000X0.600000X0*%
%TD*%
%TA.AperFunction,ComponentPad*%
%ADD18O,2.400000X1.600000*%
%TD*%
%TA.AperFunction,ComponentPad*%
%ADD19R,2.400000X1.600000*%
%TD*%
%TA.AperFunction,ComponentPad*%
%ADD20R,1.700000X1.700000*%
%TD*%
%TA.AperFunction,ComponentPad*%
%ADD21C,1.700000*%
%TD*%
%TA.AperFunction,ComponentPad*%
%ADD22R,1.600000X1.600000*%
%TD*%
%TA.AperFunction,ComponentPad*%
%ADD23O,1.600000X1.600000*%
%TD*%
%TA.AperFunction,ComponentPad*%
%ADD24C,1.800000*%
%TD*%
%TA.AperFunction,Conductor*%
%ADD25C,0.600000*%
%TD*%
G04 APERTURE END LIST*
D10*
%TO.P,Q3,1,E*%
%TO.N,+5V*%
X141580000Y-59230000D03*
D11*
%TO.P,Q3,2,C*%
%TO.N,/Sensor/VS3*%
X141580000Y-60500000D03*
%TO.P,Q3,3,B*%
%TO.N,Net-(Q3-B)*%
X141580000Y-61770000D03*
%TD*%
D10*
%TO.P,Q2,1,E*%
%TO.N,+5V*%
X147080000Y-62730000D03*
D11*
%TO.P,Q2,2,C*%
%TO.N,/Sensor/VS2*%
X147080000Y-64000000D03*
%TO.P,Q2,3,B*%
%TO.N,Net-(Q2-B)*%
X147080000Y-65270000D03*
%TD*%
D12*
%TO.P,R1,1*%
%TO.N,Net-(Q1-B)*%
X135580000Y-67500000D03*
%TO.P,R1,2*%
%TO.N,Net-(U3-HV1)*%
X125420000Y-67500000D03*
%TD*%
%TO.P,R4,1*%
%TO.N,Net-(Q4-B)*%
X135580000Y-57000000D03*
%TO.P,R4,2*%
%TO.N,Net-(U3-HV4)*%
X125420000Y-57000000D03*
%TD*%
D13*
%TO.P,J3,1,Pin_1*%
%TO.N,GND*%
X171644801Y-87084198D03*
D14*
%TO.P,J3,2,Pin_2*%
%TO.N,/Sensor/D1*%
X171644801Y-84584198D03*
%TO.P,J3,3,Pin_3*%
%TO.N,/Sensor/D2*%
X171644801Y-82084198D03*
%TO.P,J3,4,Pin_4*%
%TO.N,/Sensor/D3*%
X171644801Y-79584198D03*
%TO.P,J3,5,Pin_5*%
%TO.N,/Sensor/D4*%
X171644801Y-77084198D03*
%TD*%
D12*
%TO.P,R6,1*%
%TO.N,Net-(Q6-B)*%
X135580000Y-50000000D03*
%TO.P,R6,2*%
%TO.N,Net-(U5-HV2)*%
X125420000Y-50000000D03*
%TD*%
D10*
%TO.P,Q5,1,E*%
%TO.N,+5V*%
X141580000Y-52230000D03*
D11*
%TO.P,Q5,2,C*%
%TO.N,/Sensor/VS5*%
X141580000Y-53500000D03*
%TO.P,Q5,3,B*%
%TO.N,Net-(Q5-B)*%
X141580000Y-54770000D03*
%TD*%
D10*
%TO.P,Q6,1,E*%
%TO.N,+5V*%
X147080000Y-49230000D03*
D11*
%TO.P,Q6,2,C*%
%TO.N,/Sensor/VS6*%
X147080000Y-50500000D03*
%TO.P,Q6,3,B*%
%TO.N,Net-(Q6-B)*%
X147080000Y-51770000D03*
%TD*%
D15*
%TO.P,C3,1*%
%TO.N,+5V*%
X120000000Y-77500000D03*
D16*
%TO.P,C3,2*%
%TO.N,GND*%
X120000000Y-72500000D03*
%TD*%
D17*
%TO.P,J1,1,Pin_1*%
%TO.N,+5V*%
X172525000Y-50500000D03*
D14*
%TO.P,J1,2,Pin_2*%
%TO.N,/LED_ROW_1_2/LED_Data*%
X172525000Y-53000000D03*
%TO.P,J1,3,Pin_3*%
%TO.N,GND*%
X172525000Y-55500000D03*
%TD*%
D13*
%TO.P,J4,1,Pin_1*%
%TO.N,/Sensor/VS5*%
X155975000Y-51250000D03*
D14*
%TO.P,J4,2,Pin_2*%
%TO.N,/Sensor/VS6*%
X155975000Y-48750000D03*
%TO.P,J4,3,Pin_3*%
%TO.N,/Sensor/VS7*%
X155975000Y-46250000D03*
%TO.P,J4,4,Pin_4*%
%TO.N,/Sensor/VS8*%
X155975000Y-43750000D03*
%TD*%
D13*
%TO.P,J2,1,Pin_1*%
%TO.N,/Sensor/VS1*%
X163975000Y-51250000D03*
D14*
%TO.P,J2,2,Pin_2*%
%TO.N,/Sensor/VS2*%
X163975000Y-48750000D03*
%TO.P,J2,3,Pin_3*%
%TO.N,/Sensor/VS3*%
X163975000Y-46250000D03*
%TO.P,J2,4,Pin_4*%
%TO.N,/Sensor/VS4*%
X163975000Y-43750000D03*
%TD*%
D13*
%TO.P,J5,1,Pin_1*%
%TO.N,/Sensor/D5*%
X171644801Y-69584198D03*
D14*
%TO.P,J5,2,Pin_2*%
%TO.N,/Sensor/D6*%
X171644801Y-67084198D03*
%TO.P,J5,3,Pin_3*%
%TO.N,/Sensor/D7*%
X171644801Y-64584198D03*
%TO.P,J5,4,Pin_4*%
%TO.N,/Sensor/D8*%
X171644801Y-62084198D03*
%TD*%
D18*
%TO.P,U5,1,HV1*%
%TO.N,Net-(U5-HV1)*%
X113824801Y-101840000D03*
%TO.P,U5,2,HV2*%
%TO.N,Net-(U5-HV2)*%
X113824801Y-104380000D03*
%TO.P,U5,3,HV*%
%TO.N,+5V*%
X113824801Y-106920000D03*
D19*
%TO.P,U5,4,GND*%
%TO.N,GND*%
X113824801Y-109460000D03*
D18*
%TO.P,U5,5,HV3*%
%TO.N,Net-(U5-HV3)*%
X113824801Y-112000000D03*
%TO.P,U5,6,HV4*%
%TO.N,Net-(U5-HV4)*%
X113824801Y-114540000D03*
%TO.P,U5,7,LV4*%
%TO.N,Net-(A2-D10{slash}CS)*%
X123984801Y-114540000D03*
%TO.P,U5,8,LV3*%
%TO.N,Net-(A2-D9)*%
X123984801Y-112000000D03*
D19*
%TO.P,U5,9,GND*%
%TO.N,GND*%
X123984801Y-109460000D03*
D18*
%TO.P,U5,10,LV*%
%TO.N,+3V3*%
X123984801Y-106920000D03*
%TO.P,U5,11,LV2*%
%TO.N,Net-(A2-D8)*%
X123984801Y-104380000D03*
%TO.P,U5,12,LV1*%
%TO.N,Net-(A2-D7)*%
X123984801Y-101840000D03*
%TD*%
D10*
%TO.P,Q7,1,E*%
%TO.N,+5V*%
X141580000Y-45230000D03*
D11*
%TO.P,Q7,2,C*%
%TO.N,/Sensor/VS7*%
X141580000Y-46500000D03*
%TO.P,Q7,3,B*%
%TO.N,Net-(Q7-B)*%
X141580000Y-47770000D03*
%TD*%
D18*
%TO.P,U4,1,HV1*%
%TO.N,/Sensor/D5*%
X166580000Y-73820000D03*
%TO.P,U4,2,HV2*%
%TO.N,/Sensor/D6*%
X166580000Y-71280000D03*
%TO.P,U4,3,HV*%
%TO.N,+5V*%
X166580000Y-68740000D03*
D19*
%TO.P,U4,4,GND*%
%TO.N,GND*%
X166580000Y-66200000D03*
D18*
%TO.P,U4,5,HV3*%
%TO.N,/Sensor/D7*%
X166580000Y-63660000D03*
%TO.P,U4,6,HV4*%
%TO.N,/Sensor/D8*%
X166580000Y-61120000D03*
%TO.P,U4,7,LV4*%
%TO.N,Net-(A2-A7)*%
X156420000Y-61120000D03*
%TO.P,U4,8,LV3*%
%TO.N,Net-(A2-A6)*%
X156420000Y-63660000D03*
D19*
%TO.P,U4,9,GND*%
%TO.N,GND*%
X156420000Y-66200000D03*
D18*
%TO.P,U4,10,LV*%
%TO.N,+3V3*%
X156420000Y-68740000D03*
%TO.P,U4,11,LV2*%
%TO.N,Net-(A2-SCL{slash}A5)*%
X156420000Y-71280000D03*
%TO.P,U4,12,LV1*%
%TO.N,Net-(A2-SDA{slash}A4)*%
X156420000Y-73820000D03*
%TD*%
D12*
%TO.P,R5,1*%
%TO.N,Net-(Q5-B)*%
X135580000Y-53500000D03*
%TO.P,R5,2*%
%TO.N,Net-(U5-HV1)*%
X125420000Y-53500000D03*
%TD*%
D18*
%TO.P,U1,1,HV1*%
%TO.N,/Sensor/D1*%
X166580000Y-88820000D03*
%TO.P,U1,2,HV2*%
%TO.N,/Sensor/D2*%
X166580000Y-86280000D03*
%TO.P,U1,3,HV*%
%TO.N,+5V*%
X166580000Y-83740000D03*
D19*
%TO.P,U1,4,GND*%
%TO.N,GND*%
X166580000Y-81200000D03*
D18*
%TO.P,U1,5,HV3*%
%TO.N,/Sensor/D3*%
X166580000Y-78660000D03*
%TO.P,U1,6,HV4*%
%TO.N,/Sensor/D4*%
X166580000Y-76120000D03*
%TO.P,U1,7,LV4*%
%TO.N,Net-(A2-A3)*%
X156420000Y-76120000D03*
%TO.P,U1,8,LV3*%
%TO.N,Net-(A2-A2)*%
X156420000Y-78660000D03*
D19*
%TO.P,U1,9,GND*%
%TO.N,GND*%
X156420000Y-81200000D03*
D18*
%TO.P,U1,10,LV*%
%TO.N,+3V3*%
X156420000Y-83740000D03*
%TO.P,U1,11,LV2*%
%TO.N,Net-(A2-A1)*%
X156420000Y-86280000D03*
%TO.P,U1,12,LV1*%
%TO.N,Net-(A2-A0)*%
X156420000Y-88820000D03*
%TD*%
D20*
%TO.P,SW1,1,A*%
%TO.N,+5V*%
X170960000Y-44500000D03*
D21*
%TO.P,SW1,2,B*%
%TO.N,Net-(SW1-B)*%
X173500000Y-44500000D03*
%TD*%
D10*
%TO.P,Q1,1,E*%
%TO.N,+5V*%
X141580000Y-66230000D03*
D11*
%TO.P,Q1,2,C*%
%TO.N,/Sensor/VS1*%
X141580000Y-67500000D03*
%TO.P,Q1,3,B*%
%TO.N,Net-(Q1-B)*%
X141580000Y-68770000D03*
%TD*%
D12*
%TO.P,R3,1*%
%TO.N,Net-(Q3-B)*%
X135580000Y-60500000D03*
%TO.P,R3,2*%
%TO.N,Net-(U3-HV3)*%
X125420000Y-60500000D03*
%TD*%
D10*
%TO.P,Q8,1,E*%
%TO.N,+5V*%
X147080000Y-42230000D03*
D11*
%TO.P,Q8,2,C*%
%TO.N,/Sensor/VS8*%
X147080000Y-43500000D03*
%TO.P,Q8,3,B*%
%TO.N,Net-(Q8-B)*%
X147080000Y-44770000D03*
%TD*%
D22*
%TO.P,A2,1,D1/TX*%
%TO.N,unconnected-(A2-D1{slash}TX-Pad1)*%
X129744801Y-75784198D03*
D23*
%TO.P,A2,2,D0/RX*%
%TO.N,unconnected-(A2-D0{slash}RX-Pad2)*%
X129744801Y-78324198D03*
%TO.P,A2,3,~{RESET}*%
%TO.N,unconnected-(A2-~{RESET}-Pad3)*%
X129744801Y-80864198D03*
%TO.P,A2,4,GND*%
%TO.N,GND*%
X129744801Y-83404198D03*
%TO.P,A2,5,D2*%
%TO.N,/LED_ROW_1_2/LED_Data*%
X129744801Y-85944198D03*
%TO.P,A2,6,D3*%
%TO.N,Net-(A2-D3)*%
X129744801Y-88484198D03*
%TO.P,A2,7,D4*%
%TO.N,Net-(A2-D4)*%
X129744801Y-91024198D03*
%TO.P,A2,8,D5*%
%TO.N,Net-(A2-D5)*%
X129744801Y-93564198D03*
%TO.P,A2,9,D6*%
%TO.N,Net-(A2-D6)*%
X129744801Y-96104198D03*
%TO.P,A2,10,D7*%
%TO.N,Net-(A2-D7)*%
X129744801Y-98644198D03*
%TO.P,A2,11,D8*%
%TO.N,Net-(A2-D8)*%
X129744801Y-101184198D03*
%TO.P,A2,12,D9*%
%TO.N,Net-(A2-D9)*%
X129744801Y-103724198D03*
%TO.P,A2,13,D10/CS*%
%TO.N,Net-(A2-D10{slash}CS)*%
X129744801Y-106264198D03*
%TO.P,A2,14,D11/COPI*%
%TO.N,unconnected-(A2-D11{slash}COPI-Pad14)*%
X129744801Y-108804198D03*
%TO.P,A2,15,D12/CIPO*%
%TO.N,unconnected-(A2-D12{slash}CIPO-Pad15)*%
X129744801Y-111344198D03*
%TO.P,A2,16,D13/SCK*%
%TO.N,unconnected-(A2-D13{slash}SCK-Pad16)*%
X144984801Y-111344198D03*
%TO.P,A2,17,3V3*%
%TO.N,+3V3*%
X144984801Y-108804198D03*
%TO.P,A2,18,B0*%
%TO.N,unconnected-(A2-B0-Pad18)*%
X144984801Y-106264198D03*
%TO.P,A2,19,A0*%
%TO.N,Net-(A2-A0)*%
X144984801Y-103724198D03*
%TO.P,A2,20,A1*%
%TO.N,Net-(A2-A1)*%
X144984801Y-101184198D03*
%TO.P,A2,21,A2*%
%TO.N,Net-(A2-A2)*%
X144984801Y-98644198D03*
%TO.P,A2,22,A3*%
%TO.N,Net-(A2-A3)*%
X144984801Y-96104198D03*
%TO.P,A2,23,SDA/A4*%
%TO.N,Net-(A2-SDA{slash}A4)*%
X144984801Y-93564198D03*
%TO.P,A2,24,SCL/A5*%
%TO.N,Net-(A2-SCL{slash}A5)*%
X144984801Y-91024198D03*
%TO.P,A2,25,A6*%
%TO.N,Net-(A2-A6)*%
X144984801Y-88484198D03*
%TO.P,A2,26,A7*%
%TO.N,Net-(A2-A7)*%
X144984801Y-85944198D03*
%TO.P,A2,27,VUSB/5V*%
%TO.N,unconnected-(A2-VUSB{slash}5V-Pad27)*%
X144984801Y-83404198D03*
%TO.P,A2,28,B1*%
%TO.N,unconnected-(A2-B1-Pad28)*%
X144984801Y-80864198D03*
%TO.P,A2,29,GND*%
%TO.N,GND*%
X144984801Y-78324198D03*
%TO.P,A2,30,VIN*%
%TO.N,+5V*%
X144984801Y-75784198D03*
%TD*%
D24*
%TO.P,U2,1,5V*%
%TO.N,Net-(SW1-B)*%
X173930000Y-109780000D03*
%TO.P,U2,2,GND*%
%TO.N,GND*%
X173930000Y-107240000D03*
%TO.P,U2,3,D4*%
%TO.N,unconnected-(U2-D4-Pad3)*%
X173930000Y-104700000D03*
%TO.P,U2,4,D3*%
%TO.N,unconnected-(U2-D3-Pad4)*%
X173930000Y-102160000D03*
%TO.P,U2,5,D2*%
%TO.N,unconnected-(U2-D2-Pad5)*%
X173930000Y-99620000D03*
%TO.P,U2,6,D1*%
%TO.N,unconnected-(U2-D1-Pad6)*%
X173930000Y-97080000D03*
%TO.P,U2,7,Rx*%
%TO.N,unconnected-(U2-Rx-Pad7)*%
X173930000Y-94540000D03*
%TO.P,U2,8,Tx*%
%TO.N,unconnected-(U2-Tx-Pad8)*%
X173930000Y-92000000D03*
%TO.P,U2,9,Rst*%
%TO.N,unconnected-(U2-Rst-Pad9)*%
X151070000Y-92000000D03*
%TO.P,U2,10,A0*%
%TO.N,unconnected-(U2-A0-Pad10)*%
X151070000Y-94540000D03*
%TO.P,U2,11,D0*%
%TO.N,unconnected-(U2-D0-Pad11)*%
X151070000Y-97080000D03*
%TO.P,U2,12,D5*%
%TO.N,unconnected-(U2-D5-Pad12)*%
X151070000Y-99620000D03*
%TO.P,U2,13,D6*%
%TO.N,unconnected-(U2-D6-Pad13)*%
X151070000Y-102160000D03*
%TO.P,U2,14,D7*%
%TO.N,unconnected-(U2-D7-Pad14)*%
X151070000Y-104700000D03*
%TO.P,U2,15,D8*%
%TO.N,unconnected-(U2-D8-Pad15)*%
X151070000Y-107240000D03*
%TO.P,U2,16,3.3V*%
%TO.N,unconnected-(U2-3.3V-Pad16)*%
X151070000Y-109780000D03*
%TD*%
D18*
%TO.P,U3,1,HV1*%
%TO.N,Net-(U3-HV1)*%
X113824801Y-86140000D03*
%TO.P,U3,2,HV2*%
%TO.N,Net-(U3-HV2)*%
X113824801Y-88680000D03*
%TO.P,U3,3,HV*%
%TO.N,+5V*%
X113824801Y-91220000D03*
D19*
%TO.P,U3,4,GND*%
%TO.N,GND*%
X113824801Y-93760000D03*
D18*
%TO.P,U3,5,HV3*%
%TO.N,Net-(U3-HV3)*%
X113824801Y-96300000D03*
%TO.P,U3,6,HV4*%
%TO.N,Net-(U3-HV4)*%
X113824801Y-98840000D03*
%TO.P,U3,7,LV4*%
%TO.N,Net-(A2-D6)*%
X123984801Y-98840000D03*
%TO.P,U3,8,LV3*%
%TO.N,Net-(A2-D5)*%
X123984801Y-96300000D03*
D19*
%TO.P,U3,9,GND*%
%TO.N,GND*%
X123984801Y-93760000D03*
D18*
%TO.P,U3,10,LV*%
%TO.N,+3V3*%
X123984801Y-91220000D03*
%TO.P,U3,11,LV2*%
%TO.N,Net-(A2-D4)*%
X123984801Y-88680000D03*
%TO.P,U3,12,LV1*%
%TO.N,Net-(A2-D3)*%
X123984801Y-86140000D03*
%TD*%
D12*
%TO.P,R8,1*%
%TO.N,Net-(Q8-B)*%
X135580000Y-43000000D03*
%TO.P,R8,2*%
%TO.N,Net-(U5-HV4)*%
X125420000Y-43000000D03*
%TD*%
%TO.P,R7,1*%
%TO.N,Net-(Q7-B)*%
X135580000Y-46500000D03*
%TO.P,R7,2*%
%TO.N,Net-(U5-HV3)*%
X125420000Y-46500000D03*
%TD*%
D10*
%TO.P,Q4,1,E*%
%TO.N,+5V*%
X147080000Y-55730000D03*
D11*
%TO.P,Q4,2,C*%
%TO.N,/Sensor/VS4*%
X147080000Y-57000000D03*
%TO.P,Q4,3,B*%
%TO.N,Net-(Q4-B)*%
X147080000Y-58270000D03*
%TD*%
D12*
%TO.P,R2,1*%
%TO.N,Net-(Q2-B)*%
X135580000Y-64000000D03*
%TO.P,R2,2*%
%TO.N,Net-(U3-HV2)*%
X125420000Y-64000000D03*
%TD*%
D25*
%TO.N,+5V*%
X164779000Y-82939000D02*
X165580000Y-83740000D01*
X147080000Y-55730000D02*
X142437404Y-55730000D01*
X147080000Y-42230000D02*
X146449000Y-41599000D01*
X112023801Y-85476199D02*
X112023801Y-89419000D01*
X135462314Y-61901000D02*
X134999686Y-61901000D01*
X134179000Y-61080314D02*
X134179000Y-57580314D01*
X141580000Y-52230000D02*
X141449000Y-52099000D01*
X147080000Y-49230000D02*
X146850000Y-49000000D01*
X141449000Y-52099000D02*
X135697686Y-52099000D01*
X159755424Y-58005000D02*
X166000000Y-51760424D01*
X165580000Y-83740000D02*
X166580000Y-83740000D01*
X144984801Y-75784198D02*
X141882884Y-75784198D01*
X134179000Y-64872004D02*
X134179000Y-61080314D01*
X134179000Y-42419686D02*
X134179000Y-43580314D01*
X135500000Y-47901000D02*
X134999686Y-47901000D01*
X172525000Y-50500000D02*
X172525000Y-46065000D01*
X136599000Y-49000000D02*
X135500000Y-47901000D01*
X166000000Y-51760424D02*
X166000000Y-48500000D01*
X146449000Y-41599000D02*
X135500000Y-41599000D01*
X151022805Y-69746194D02*
X151022805Y-59967217D01*
X172525000Y-46065000D02*
X170960000Y-44500000D01*
X141580000Y-59230000D02*
X140751000Y-58401000D01*
X134179000Y-54080314D02*
X134179000Y-50580314D01*
X144984801Y-75784198D02*
X151022805Y-69746194D01*
X165580000Y-68740000D02*
X159755424Y-62915424D01*
X151022805Y-59967217D02*
X152985022Y-58005000D01*
X142437404Y-55730000D02*
X142167404Y-56000000D01*
X134403498Y-65096502D02*
X134179000Y-64872004D01*
X140751000Y-58401000D02*
X134999686Y-58401000D01*
X152985022Y-58005000D02*
X159755424Y-58005000D01*
X166580000Y-68740000D02*
X165580000Y-68740000D01*
X141580000Y-66230000D02*
X141449000Y-66099000D01*
X134999686Y-58401000D02*
X134179000Y-57580314D01*
X142167404Y-63000000D02*
X136561314Y-63000000D01*
X135706794Y-54901000D02*
X134999686Y-54901000D01*
X147080000Y-62730000D02*
X142437404Y-62730000D01*
X141449000Y-66099000D02*
X135405996Y-66099000D01*
X134179000Y-50580314D02*
X134179000Y-47080314D01*
X134179000Y-57580314D02*
X134179000Y-54080314D01*
X134999686Y-41599000D02*
X134179000Y-42419686D01*
X141449000Y-45099000D02*
X141580000Y-45230000D01*
X159755424Y-62915424D02*
X159755424Y-58005000D01*
X134179000Y-65321000D02*
X134403498Y-65096502D01*
X134999686Y-47901000D02*
X134179000Y-47080314D01*
X135697686Y-45099000D02*
X141449000Y-45099000D01*
X146850000Y-49000000D02*
X136599000Y-49000000D01*
X112023801Y-105119000D02*
X112023801Y-89419000D01*
X166580000Y-68740000D02*
X164779000Y-70541000D01*
X134999686Y-61901000D02*
X134179000Y-61080314D01*
X112023801Y-89419000D02*
X113824801Y-91220000D01*
X142437404Y-62730000D02*
X142167404Y-63000000D01*
X134179000Y-47080314D02*
X134179000Y-43580314D01*
X135405996Y-66099000D02*
X134403498Y-65096502D01*
X122937801Y-74562199D02*
X122937801Y-43500885D01*
X135697686Y-52099000D02*
X134179000Y-50580314D01*
X170000000Y-44500000D02*
X170960000Y-44500000D01*
X136805794Y-56000000D02*
X135706794Y-54901000D01*
X135500000Y-41599000D02*
X134999686Y-41599000D01*
X141882884Y-75784198D02*
X134179000Y-68080314D01*
X134179000Y-43580314D02*
X135697686Y-45099000D01*
X124839686Y-41599000D02*
X135500000Y-41599000D01*
X164779000Y-70541000D02*
X164779000Y-82939000D01*
X166000000Y-48500000D02*
X170000000Y-44500000D01*
X136561314Y-63000000D02*
X135462314Y-61901000D01*
X142167404Y-56000000D02*
X136805794Y-56000000D01*
X134999686Y-54901000D02*
X134179000Y-54080314D01*
X113824801Y-106920000D02*
X112023801Y-105119000D01*
X120000000Y-77500000D02*
X112023801Y-85476199D01*
X120000000Y-77500000D02*
X122937801Y-74562199D01*
X134179000Y-68080314D02*
X134179000Y-65321000D01*
X122937801Y-43500885D02*
X124839686Y-41599000D01*
%TO.N,Net-(Q1-B)*%
X135580000Y-67500000D02*
X136850000Y-68770000D01*
X136850000Y-68770000D02*
X141580000Y-68770000D01*
%TO.N,Net-(A2-D3)*%
X123984801Y-86140000D02*
X127400603Y-86140000D01*
X127400603Y-86140000D02*
X129744801Y-88484198D01*
%TO.N,Net-(A2-A0)*%
X144984801Y-103724198D02*
X143583801Y-105125198D01*
X144500000Y-113000000D02*
X150000000Y-113000000D01*
X156420000Y-106580000D02*
X156420000Y-88820000D01*
X143583801Y-105125198D02*
X143583801Y-112083801D01*
X143583801Y-112083801D02*
X144500000Y-113000000D01*
X150000000Y-113000000D02*
X156420000Y-106580000D01*
%TO.N,Net-(SW1-B)*%
X175431000Y-46431000D02*
X175431000Y-108279000D01*
X175431000Y-108279000D02*
X173930000Y-109780000D01*
X173500000Y-44500000D02*
X175431000Y-46431000D01*
%TO.N,Net-(A2-A1)*%
X158221000Y-88081000D02*
X156420000Y-86280000D01*
X144126794Y-113901000D02*
X149099000Y-113901000D01*
X150373207Y-113900999D02*
X158221000Y-106053206D01*
X142682802Y-103486197D02*
X142682802Y-112457008D01*
X142682802Y-112457008D02*
X144126794Y-113901000D01*
X158221000Y-106053206D02*
X158221000Y-88081000D01*
X144984801Y-101184198D02*
X142682802Y-103486197D01*
X149099000Y-113901000D02*
X150373207Y-113900999D01*
%TO.N,Net-(A2-D4)*%
X123984801Y-88680000D02*
X127400603Y-88680000D01*
X127400603Y-88680000D02*
X129744801Y-91024198D01*
%TO.N,/Sensor/D1*%
X166580000Y-88820000D02*
X170815802Y-84584198D01*
X170815802Y-84584198D02*
X171644801Y-84584198D01*
%TO.N,/Sensor/VS1*%
X150121805Y-64045599D02*
X150121805Y-59594011D01*
X150121805Y-59594011D02*
X152611816Y-57104000D01*
X141580000Y-67500000D02*
X146667404Y-67500000D01*
X152611816Y-57104000D02*
X156479045Y-57103997D01*
X146667404Y-67500000D02*
X150121805Y-64045599D01*
X156479045Y-57103997D02*
X162333042Y-51250000D01*
X162333042Y-51250000D02*
X163975000Y-51250000D01*
%TO.N,/Sensor/VS2*%
X162651000Y-48750000D02*
X163975000Y-48750000D01*
X159401000Y-52907836D02*
X159401000Y-52000000D01*
X156105838Y-56202998D02*
X159401000Y-52907836D01*
X159401000Y-52000000D02*
X162651000Y-48750000D01*
X149220805Y-59220805D02*
X152238610Y-56203000D01*
X149220805Y-63066195D02*
X149220805Y-59220805D01*
X147080000Y-64000000D02*
X148287000Y-64000000D01*
X152238610Y-56203000D02*
X156105838Y-56202998D01*
X148287000Y-64000000D02*
X149220805Y-63066195D01*
%TO.N,/Sensor/D2*%
X166580000Y-86280000D02*
X167448999Y-86280000D01*
X167448999Y-86280000D02*
X171644801Y-82084198D01*
%TO.N,/Sensor/VS4*%
X157551000Y-50174000D02*
X163975000Y-43750000D01*
X155359424Y-54401000D02*
X157551000Y-52209424D01*
X150886000Y-54401000D02*
X155359424Y-54401000D01*
X148287000Y-57000000D02*
X150886000Y-54401000D01*
X147080000Y-57000000D02*
X148287000Y-57000000D01*
X157551000Y-52209424D02*
X157551000Y-50174000D01*
%TO.N,/Sensor/VS3*%
X158500000Y-50500000D02*
X162750000Y-46250000D01*
X158500000Y-52534630D02*
X158500000Y-50500000D01*
X155732631Y-55301999D02*
X158500000Y-52534630D01*
X151865404Y-55302000D02*
X155732631Y-55301999D01*
X162750000Y-46250000D02*
X163975000Y-46250000D01*
X146667404Y-60500000D02*
X151865404Y-55302000D01*
X141580000Y-60500000D02*
X146667404Y-60500000D01*
%TO.N,/Sensor/VS8*%
X155725000Y-43500000D02*
X155975000Y-43750000D01*
X147080000Y-43500000D02*
X155725000Y-43500000D01*
%TO.N,/Sensor/VS7*%
X141580000Y-46500000D02*
X155725000Y-46500000D01*
X155725000Y-46500000D02*
X155975000Y-46250000D01*
%TO.N,/Sensor/VS6*%
X148000000Y-50500000D02*
X149750000Y-48750000D01*
X149750000Y-48750000D02*
X155975000Y-48750000D01*
X147080000Y-50500000D02*
X148000000Y-50500000D01*
%TO.N,/Sensor/VS5*%
X153725000Y-53500000D02*
X155975000Y-51250000D01*
X141580000Y-53500000D02*
X153725000Y-53500000D01*
%TO.N,/Sensor/D3*%
X170720603Y-78660000D02*
X171644801Y-79584198D01*
X166580000Y-78660000D02*
X170720603Y-78660000D01*
%TO.N,/Sensor/D4*%
X170680603Y-76120000D02*
X171644801Y-77084198D01*
X166580000Y-76120000D02*
X170680603Y-76120000D01*
%TO.N,/Sensor/D5*%
X167408999Y-73820000D02*
X171644801Y-69584198D01*
X166580000Y-73820000D02*
X167408999Y-73820000D01*
%TO.N,/Sensor/D6*%
X166580000Y-71280000D02*
X170775802Y-67084198D01*
X170775802Y-67084198D02*
X171644801Y-67084198D01*
%TO.N,/Sensor/D7*%
X166580000Y-63660000D02*
X170720603Y-63660000D01*
X170720603Y-63660000D02*
X171644801Y-64584198D01*
%TO.N,/Sensor/D8*%
X166580000Y-61120000D02*
X170680603Y-61120000D01*
X170680603Y-61120000D02*
X171644801Y-62084198D01*
%TO.N,Net-(Q2-B)*%
X145262596Y-64000000D02*
X146532596Y-65270000D01*
X135580000Y-64000000D02*
X145262596Y-64000000D01*
X146532596Y-65270000D02*
X147080000Y-65270000D01*
%TO.N,Net-(U3-HV2)*%
X113824801Y-88680000D02*
X113824801Y-88675199D01*
X124739801Y-77753588D02*
X118396000Y-84097389D01*
X127000000Y-69500000D02*
X124739801Y-71760199D01*
X127000000Y-69500000D02*
X127000000Y-65580000D01*
X115087595Y-88680000D02*
X113824801Y-88680000D01*
X127000000Y-65580000D02*
X125420000Y-64000000D01*
X118396001Y-85371594D02*
X115087595Y-88680000D01*
X124739801Y-71760199D02*
X124739801Y-77753588D01*
X118396000Y-84097389D02*
X118396001Y-85371594D01*
%TO.N,Net-(U3-HV1)*%
X123838801Y-71386993D02*
X123838801Y-77380382D01*
X125420000Y-67500000D02*
X125420000Y-69805794D01*
X123838801Y-77380382D02*
X115079184Y-86140000D01*
X125420000Y-69805794D02*
X123838801Y-71386993D01*
X115079184Y-86140000D02*
X113824801Y-86140000D01*
%TO.N,Net-(A2-D5)*%
X123984801Y-96300000D02*
X127008999Y-96300000D01*
X127008999Y-96300000D02*
X129744801Y-93564198D01*
%TO.N,Net-(A2-A2)*%
X157082000Y-78660000D02*
X156420000Y-78660000D01*
X141781802Y-101847197D02*
X141781803Y-112830215D01*
X159121999Y-80699999D02*
X157082000Y-78660000D01*
X141781803Y-112830215D02*
X143753588Y-114802000D01*
X150746412Y-114802000D02*
X159122000Y-106426412D01*
X143753588Y-114802000D02*
X150746412Y-114802000D01*
X144984801Y-98644198D02*
X141781802Y-101847197D01*
X159122000Y-106426412D02*
X159121999Y-80699999D01*
%TO.N,Net-(A2-D6)*%
X123984801Y-98840000D02*
X127008999Y-98840000D01*
X127008999Y-98840000D02*
X129744801Y-96104198D01*
%TO.N,Net-(A2-D7)*%
X123984801Y-101840000D02*
X126548999Y-101840000D01*
X126548999Y-101840000D02*
X129744801Y-98644198D01*
%TO.N,Net-(A2-SDA{slash}A4)*%
X139979803Y-113576627D02*
X143007175Y-116603999D01*
X144984801Y-93564198D02*
X139979803Y-98569196D01*
X151492824Y-116604000D02*
X160923999Y-107172825D01*
X160923999Y-77323999D02*
X157420000Y-73820000D01*
X143007175Y-116603999D02*
X151492824Y-116604000D01*
X160923999Y-107172825D02*
X160923999Y-77323999D01*
X139979803Y-98569196D02*
X139979803Y-113576627D01*
X157420000Y-73820000D02*
X156420000Y-73820000D01*
%TO.N,Net-(A2-A7)*%
X144984801Y-85944198D02*
X137276805Y-93652194D01*
X152693002Y-119306998D02*
X163626998Y-108373002D01*
X141887556Y-119306998D02*
X152693002Y-119306998D01*
X163626998Y-68326998D02*
X156420000Y-61120000D01*
X137276805Y-93652194D02*
X137276805Y-114696247D01*
X137276805Y-114696247D02*
X141887556Y-119306998D01*
X163626998Y-108373002D02*
X163626998Y-68326998D01*
%TO.N,Net-(A2-D10{slash}CS)*%
X128343801Y-107665198D02*
X129744801Y-106264198D01*
X128343801Y-110181000D02*
X128343801Y-107665198D01*
X123984801Y-114540000D02*
X128343801Y-110181000D01*
%TO.N,Net-(A2-D9)*%
X127442801Y-108942000D02*
X127442801Y-106026198D01*
X124384801Y-112000000D02*
X127442801Y-108942000D01*
X127442801Y-106026198D02*
X129744801Y-103724198D01*
X123984801Y-112000000D02*
X124384801Y-112000000D01*
%TO.N,Net-(A2-D8)*%
X123984801Y-104380000D02*
X126548999Y-104380000D01*
X126548999Y-104380000D02*
X129744801Y-101184198D01*
%TO.N,Net-(A2-A6)*%
X138177804Y-114323040D02*
X142260762Y-118405998D01*
X162725998Y-68965998D02*
X157420000Y-63660000D01*
X142260762Y-118405998D02*
X152239236Y-118406000D01*
X152239236Y-118406000D02*
X162725998Y-107919238D01*
X144984801Y-88484198D02*
X138177804Y-95291195D01*
X138177804Y-95291195D02*
X138177804Y-114323040D01*
X157420000Y-63660000D02*
X156420000Y-63660000D01*
X162725998Y-107919238D02*
X162725998Y-68965998D01*
%TO.N,Net-(A2-A3)*%
X143380381Y-115702999D02*
X140880803Y-113203421D01*
X160022999Y-106799619D02*
X151119618Y-115703000D01*
X151119618Y-115703000D02*
X143380381Y-115702999D01*
X140880803Y-113203421D02*
X140880803Y-100208196D01*
X156420000Y-76120000D02*
X156420000Y-76278687D01*
X160022999Y-79881686D02*
X160022999Y-106799619D01*
X140880803Y-100208196D02*
X144984801Y-96104198D01*
X156420000Y-76278687D02*
X160022999Y-79881686D01*
%TO.N,Net-(A2-SCL{slash}A5)*%
X156420000Y-71438687D02*
X161824998Y-76843685D01*
X139078803Y-113949833D02*
X139078803Y-96930196D01*
X142633968Y-117504998D02*
X139078803Y-113949833D01*
X161824998Y-107546032D02*
X151866030Y-117505000D01*
X161824998Y-76843685D02*
X161824998Y-107546032D01*
X151866030Y-117505000D02*
X142633968Y-117504998D01*
X139078803Y-96930196D02*
X144984801Y-91024198D01*
X156420000Y-71280000D02*
X156420000Y-71438687D01*
%TO.N,Net-(Q3-B)*%
X136850000Y-61770000D02*
X141580000Y-61770000D01*
X135580000Y-60500000D02*
X136850000Y-61770000D01*
%TO.N,Net-(Q4-B)*%
X145262596Y-57000000D02*
X146532596Y-58270000D01*
X135580000Y-57000000D02*
X145262596Y-57000000D01*
X146532596Y-58270000D02*
X147080000Y-58270000D01*
%TO.N,Net-(Q5-B)*%
X136850000Y-54770000D02*
X141580000Y-54770000D01*
X135580000Y-53500000D02*
X136850000Y-54770000D01*
%TO.N,Net-(Q6-B)*%
X146532596Y-51770000D02*
X147080000Y-51770000D01*
X144762596Y-50000000D02*
X146532596Y-51770000D01*
X135580000Y-50000000D02*
X144762596Y-50000000D01*
%TO.N,Net-(Q7-B)*%
X135580000Y-46500000D02*
X136850000Y-47770000D01*
X136850000Y-47770000D02*
X141580000Y-47770000D01*
%TO.N,Net-(Q8-B)*%
X135580000Y-43000000D02*
X144762596Y-43000000D01*
X144762596Y-43000000D02*
X146532596Y-44770000D01*
X146532596Y-44770000D02*
X147080000Y-44770000D01*
%TO.N,Net-(U3-HV3)*%
X125420000Y-60500000D02*
X127901000Y-62981000D01*
X127901000Y-62981000D02*
X127901000Y-69873206D01*
X114224801Y-96300000D02*
X116020901Y-94503900D01*
X125640801Y-72133405D02*
X125640801Y-78126794D01*
X127901000Y-69873206D02*
X125640801Y-72133405D01*
X125640801Y-78126794D02*
X119297000Y-84470595D01*
X113824801Y-96300000D02*
X114224801Y-96300000D01*
X116020901Y-89020900D02*
X119297001Y-85744799D01*
X116020901Y-94503900D02*
X116020901Y-89020900D01*
X119297001Y-85744799D02*
X119297000Y-84470595D01*
%TO.N,Net-(U3-HV4)*%
X128801999Y-70246413D02*
X126541801Y-72506611D01*
X128801999Y-60381999D02*
X128801999Y-70246413D01*
X126541801Y-78500000D02*
X120198000Y-84843801D01*
X126541801Y-72506611D02*
X126541801Y-78500000D01*
X120198000Y-84843801D02*
X120198000Y-86223901D01*
X125420000Y-57000000D02*
X128801999Y-60381999D01*
X120198000Y-86223901D02*
X116921901Y-89500000D01*
X116921900Y-95742901D02*
X113824801Y-98840000D01*
X116921901Y-89500000D02*
X116921900Y-95742901D01*
%TO.N,Net-(U5-HV2)*%
X113824801Y-104380000D02*
X114120000Y-104380000D01*
X116856607Y-98356606D02*
X116856607Y-101348194D01*
X130603998Y-70992826D02*
X128343801Y-73253023D01*
X122000000Y-85743488D02*
X122000000Y-86970313D01*
X118723900Y-96489313D02*
X116856607Y-98356606D01*
X118723901Y-90246411D02*
X118723900Y-96489313D01*
X128343801Y-79399687D02*
X122000000Y-85743488D01*
X130603998Y-58156206D02*
X130603998Y-70992826D01*
X122000000Y-86970313D02*
X118723901Y-90246411D01*
X128343801Y-73253023D02*
X128343801Y-79399687D01*
X116856607Y-101348194D02*
X113824801Y-104380000D01*
X130603999Y-55183999D02*
X130603998Y-58156206D01*
X125420000Y-50000000D02*
X130603999Y-55183999D01*
%TO.N,Net-(U5-HV1)*%
X129702999Y-57782999D02*
X125420000Y-53500000D01*
X113824801Y-101840000D02*
X115719504Y-99945297D01*
X121099000Y-85370282D02*
X127442801Y-79026481D01*
X117822900Y-96116107D02*
X117822901Y-89873206D01*
X127442801Y-79026481D02*
X127442801Y-72879817D01*
X115719504Y-98219503D02*
X117822900Y-96116107D01*
X121099000Y-86597107D02*
X121099000Y-85370282D01*
X129702999Y-70619619D02*
X129702999Y-57782999D01*
X115719504Y-99945297D02*
X115719504Y-98219503D01*
X127442801Y-72879817D02*
X129702999Y-70619619D01*
X117822901Y-89873206D02*
X121099000Y-86597107D01*
%TO.N,Net-(U5-HV4)*%
X132405997Y-113368209D02*
X132405996Y-49985996D01*
X128932206Y-116842000D02*
X132405997Y-113368209D01*
X113824801Y-114540000D02*
X116126801Y-116842000D01*
X116126801Y-116842000D02*
X128932206Y-116842000D01*
X132405996Y-49985996D02*
X125420000Y-43000000D01*
%TO.N,Net-(U5-HV3)*%
X117765801Y-115941000D02*
X113824801Y-112000000D01*
X125420000Y-46500000D02*
X131504997Y-52584997D01*
X128559000Y-115941000D02*
X117765801Y-115941000D01*
X131504997Y-52584997D02*
X131504997Y-112995003D01*
X131504997Y-112995003D02*
X128559000Y-115941000D01*
%TD*%
%TA.AperFunction,Conductor*%
%TO.N,GND*%
G36*
X112317057Y-40520462D02*
G01*
X112371595Y-40575000D01*
X112391557Y-40649500D01*
X112371595Y-40724000D01*
X112317057Y-40778538D01*
X112299577Y-40787158D01*
X112179783Y-40836778D01*
X111969712Y-40958063D01*
X111969711Y-40958064D01*
X111777262Y-41105735D01*
X111777260Y-41105736D01*
X111777256Y-41105740D01*
X111605740Y-41277256D01*
X111605736Y-41277260D01*
X111605735Y-41277262D01*
X111551875Y-41347454D01*
X111458063Y-41469712D01*
X111336778Y-41679783D01*
X111243947Y-41903896D01*
X111181160Y-42138218D01*
X111149500Y-42378706D01*
X111149500Y-42621293D01*
X111181160Y-42861781D01*
X111181161Y-42861787D01*
X111181162Y-42861789D01*
X111229498Y-43042181D01*
X111243947Y-43096103D01*
X111248338Y-43106704D01*
X111325278Y-43292454D01*
X111336778Y-43320216D01*
X111395568Y-43422043D01*
X111458064Y-43530289D01*
X111605735Y-43722738D01*
X111777262Y-43894265D01*
X111969711Y-44041936D01*
X112179788Y-44163224D01*
X112403900Y-44256054D01*
X112638211Y-44318838D01*
X112638217Y-44318838D01*
X112638218Y-44318839D01*
X112703600Y-44327446D01*
X112878712Y-44350500D01*
X113121288Y-44350500D01*
X113361789Y-44318838D01*
X113596100Y-44256054D01*
X113820212Y-44163224D01*
X114030289Y-44041936D01*
X114222738Y-43894265D01*
X114394265Y-43722738D01*
X114541936Y-43530289D01*
X114663224Y-43320212D01*
X114756054Y-43096100D01*
X114818838Y-42861789D01*
X114850500Y-42621288D01*
X114850500Y-42378712D01*
X114818838Y-42138211D01*
X114756054Y-41903900D01*
X114663224Y-41679788D01*
X114541936Y-41469711D01*
X114394265Y-41277262D01*
X114222738Y-41105735D01*
X114030289Y-40958064D01*
X113911711Y-40889603D01*
X113820216Y-40836778D01*
X113820214Y-40836777D01*
X113820212Y-40836776D01*
X113700422Y-40787157D01*
X113639233Y-40740205D01*
X113609718Y-40668948D01*
X113619785Y-40592480D01*
X113666738Y-40531290D01*
X113737995Y-40501775D01*
X113757443Y-40500500D01*
X124753524Y-40500500D01*
X124828024Y-40520462D01*
X124882562Y-40575000D01*
X124902524Y-40649500D01*
X124882562Y-40724000D01*
X124828024Y-40778538D01*
X124768129Y-40797782D01*
X124760848Y-40798499D01*
X124606191Y-40829261D01*
X124606189Y-40829262D01*
X124460511Y-40889603D01*
X124460507Y-40889606D01*
X124358053Y-40958064D01*
X124329393Y-40977214D01*
X122316015Y-42990592D01*
X122228405Y-43121708D01*
X122168064Y-43267386D01*
X122168063Y-43267390D01*
X122137301Y-43422042D01*
X122137301Y-74168903D01*
X122117339Y-74243403D01*
X122093660Y-74274262D01*
X120612063Y-75755859D01*
X120545268Y-75794423D01*
X120506704Y-75799500D01*
X118999992Y-75799500D01*
X118931466Y-75806500D01*
X118897201Y-75810001D01*
X118730663Y-75865187D01*
X118581344Y-75957289D01*
X118457289Y-76081344D01*
X118365187Y-76230663D01*
X118310001Y-76397201D01*
X118299500Y-76499996D01*
X118299500Y-78006704D01*
X118279538Y-78081204D01*
X118255859Y-78112063D01*
X111402015Y-84965906D01*
X111314405Y-85097022D01*
X111254064Y-85242700D01*
X111254063Y-85242704D01*
X111223301Y-85397356D01*
X111223301Y-105197842D01*
X111254063Y-105352494D01*
X111254064Y-105352498D01*
X111314405Y-105498176D01*
X111314406Y-105498178D01*
X111314407Y-105498179D01*
X111402012Y-105629289D01*
X111402015Y-105629292D01*
X112148621Y-106375898D01*
X112187185Y-106442693D01*
X112187185Y-106519821D01*
X112184970Y-106527299D01*
X112156324Y-106615463D01*
X112142599Y-106702115D01*
X112124301Y-106817648D01*
X112124301Y-107022352D01*
X112156324Y-107224534D01*
X112216337Y-107409236D01*
X112219579Y-107419212D01*
X112219583Y-107419224D01*
X112312515Y-107601612D01*
X112432829Y-107767212D01*
X112432836Y-107767220D01*
X112581722Y-107916106D01*
X112580206Y-107917621D01*
X112618217Y-107972908D01*
X112624281Y-108049797D01*
X112591088Y-108119417D01*
X112527532Y-108163113D01*
X112521402Y-108164917D01*
X112382716Y-108216645D01*
X112382706Y-108216650D01*
X112267613Y-108302809D01*
X112267610Y-108302812D01*
X112181451Y-108417905D01*
X112181446Y-108417915D01*
X112131202Y-108552622D01*
X112124802Y-108612157D01*
X112124801Y-108612177D01*
X112124801Y-109210000D01*
X113535985Y-109210000D01*
X113519925Y-109226060D01*
X113469765Y-109312939D01*
X113443801Y-109409840D01*
X113443801Y-109510160D01*
X113469765Y-109607061D01*
X113519925Y-109693940D01*
X113535985Y-109710000D01*
X112124801Y-109710000D01*
X112124801Y-110307822D01*
X112124802Y-110307842D01*
X112131202Y-110367377D01*
X112181446Y-110502084D01*
X112181451Y-110502094D01*
X112267610Y-110617187D01*
X112267613Y-110617190D01*
X112382706Y-110703349D01*
X112382716Y-110703354D01*
X112526158Y-110756856D01*
X112525203Y-110759416D01*
X112579935Y-110788870D01*
X112620478Y-110854483D01*
X112622783Y-110931576D01*
X112586233Y-110999494D01*
X112581669Y-111003841D01*
X112581722Y-111003894D01*
X112432836Y-111152779D01*
X112432829Y-111152787D01*
X112312515Y-111318387D01*
X112219583Y-111500775D01*
X112219579Y-111500787D01*
X112171512Y-111648723D01*
X112156324Y-111695466D01*
X112124301Y-111897648D01*
X112124301Y-112102352D01*
X112156324Y-112304534D01*
X112193137Y-112417834D01*
X112219579Y-112499212D01*
X112219583Y-112499224D01*
X112312515Y-112681612D01*
X112432829Y-112847212D01*
X112432836Y-112847220D01*
X112577580Y-112991964D01*
X112577588Y-112991971D01*
X112666931Y-113056881D01*
X112743191Y-113112287D01*
X112792164Y-113137240D01*
X112849481Y-113188849D01*
X112873315Y-113262203D01*
X112857279Y-113337645D01*
X112805670Y-113394962D01*
X112792164Y-113402760D01*
X112743189Y-113427714D01*
X112577588Y-113548028D01*
X112577580Y-113548035D01*
X112432836Y-113692779D01*
X112432829Y-113692787D01*
X112312515Y-113858387D01*
X112219583Y-114040775D01*
X112219579Y-114040787D01*
X112184971Y-114147301D01*
X112156324Y-114235466D01*
X112124301Y-114437648D01*
X112124301Y-114642352D01*
X112156324Y-114844534D01*
X112184010Y-114929744D01*
X112219579Y-115039212D01*
X112219583Y-115039224D01*
X112312515Y-115221612D01*
X112432829Y-115387212D01*
X112432836Y-115387220D01*
X112577580Y-115531964D01*
X112577588Y-115531971D01*
X112743188Y-115652285D01*
X112743191Y-115652287D01*
X112925582Y-115745220D01*
X113120267Y-115808477D01*
X113322449Y-115840500D01*
X113931505Y-115840500D01*
X114006005Y-115860462D01*
X114036864Y-115884141D01*
X115616512Y-117463789D01*
X115747622Y-117551394D01*
X115747624Y-117551395D01*
X115747626Y-117551396D01*
X115784842Y-117566811D01*
X115893304Y-117611738D01*
X116047959Y-117642500D01*
X129011048Y-117642500D01*
X129165703Y-117611737D01*
X129311385Y-117551394D01*
X129442495Y-117463789D01*
X133027785Y-113878499D01*
X133029482Y-113875958D01*
X133032806Y-113870986D01*
X133115390Y-113747390D01*
X133115391Y-113747387D01*
X133138011Y-113692779D01*
X133163718Y-113630715D01*
X133175734Y-113601707D01*
X133206497Y-113447052D01*
X133206497Y-113289367D01*
X133206497Y-113259732D01*
X133206496Y-113259726D01*
X133206496Y-68556908D01*
X133226458Y-68482408D01*
X133280996Y-68427870D01*
X133355496Y-68407908D01*
X133429996Y-68427870D01*
X133479384Y-68474127D01*
X133557211Y-68590603D01*
X141261095Y-76294487D01*
X141372595Y-76405987D01*
X141503705Y-76493592D01*
X141609823Y-76537547D01*
X141649387Y-76553935D01*
X141804041Y-76584698D01*
X141804042Y-76584698D01*
X143884398Y-76584698D01*
X143958898Y-76604660D01*
X143989757Y-76628339D01*
X144137580Y-76776162D01*
X144137588Y-76776169D01*
X144303188Y-76896483D01*
X144303191Y-76896485D01*
X144352714Y-76921718D01*
X144410031Y-76973327D01*
X144433865Y-77046680D01*
X144417829Y-77122123D01*
X144366220Y-77179440D01*
X144352715Y-77187237D01*
X144303449Y-77212339D01*
X144137911Y-77332610D01*
X143993213Y-77477308D01*
X143872944Y-77642843D01*
X143780047Y-77825165D01*
X143780042Y-77825177D01*
X143716811Y-78019780D01*
X143708192Y-78074198D01*
X144551789Y-78074198D01*
X144518876Y-78131205D01*
X144484801Y-78258372D01*
X144484801Y-78390024D01*
X144518876Y-78517191D01*
X144551789Y-78574198D01*
X143708192Y-78574198D01*
X143716811Y-78628615D01*
X143780042Y-78823218D01*
X143780047Y-78823230D01*
X143872944Y-79005552D01*
X143993213Y-79171087D01*
X144137911Y-79315785D01*
X144303448Y-79436056D01*
X144352713Y-79461157D01*
X144410030Y-79512765D01*
X144433865Y-79586118D01*
X144417829Y-79661561D01*
X144366221Y-79718878D01*
X144352716Y-79726676D01*
X144303189Y-79751912D01*
X144137588Y-79872226D01*
X144137580Y-79872233D01*
X143992836Y-80016977D01*
X143992829Y-80016985D01*
X143872515Y-80182585D01*
X143779583Y-80364973D01*
X143779581Y-80364979D01*
X143716324Y-80559664D01*
X143684301Y-80761846D01*
X143684301Y-80966550D01*
X143716324Y-81168732D01*
X143759300Y-81301000D01*
X143779579Y-81363410D01*
X143779583Y-81363422D01*
X143872515Y-81545810D01*
X143992829Y-81711410D01*
X143992836Y-81711418D01*
X144137580Y-81856162D01*
X144137588Y-81856169D01*
X144226931Y-81921079D01*
X144303191Y-81976485D01*
X144352164Y-82001438D01*
X144409481Y-82053047D01*
X144433315Y-82126401D01*
X144417279Y-82201843D01*
X144365670Y-82259160D01*
X144352164Y-82266958D01*
X144303189Y-82291912D01*
X144137588Y-82412226D01*
X144137580Y-82412233D01*
X143992836Y-82556977D01*
X143992829Y-82556985D01*
X143872515Y-82722585D01*
X143779583Y-82904973D01*
X143779579Y-82904985D01*
X143716324Y-83099663D01*
X143714005Y-83114307D01*
X143684301Y-83301846D01*
X143684301Y-83506550D01*
X143716324Y-83708732D01*
X143779520Y-83903230D01*
X143779579Y-83903410D01*
X143779583Y-83903422D01*
X143872515Y-84085810D01*
X143992829Y-84251410D01*
X143992836Y-84251418D01*
X144137580Y-84396162D01*
X144137588Y-84396169D01*
X144172608Y-84421612D01*
X144303191Y-84516485D01*
X144352164Y-84541438D01*
X144409481Y-84593047D01*
X144433315Y-84666401D01*
X144417279Y-84741843D01*
X144365670Y-84799160D01*
X144352164Y-84806958D01*
X144303189Y-84831912D01*
X144137588Y-84952226D01*
X144137580Y-84952233D01*
X143992836Y-85096977D01*
X143992829Y-85096985D01*
X143872515Y-85262585D01*
X143779583Y-85444973D01*
X143779579Y-85444985D01*
X143724565Y-85614302D01*
X143716324Y-85639664D01*
X143684301Y-85841846D01*
X143684301Y-85841850D01*
X143684301Y-86050901D01*
X143664339Y-86125401D01*
X143640660Y-86156260D01*
X136766516Y-93030405D01*
X136655019Y-93141901D01*
X136567409Y-93273017D01*
X136507068Y-93418695D01*
X136507067Y-93418699D01*
X136476305Y-93573351D01*
X136476305Y-114775089D01*
X136507067Y-114929741D01*
X136507068Y-114929745D01*
X136567409Y-115075423D01*
X136567410Y-115075425D01*
X136567411Y-115075426D01*
X136655016Y-115206536D01*
X141377267Y-119928787D01*
X141508377Y-120016392D01*
X141508379Y-120016393D01*
X141508381Y-120016394D01*
X141545597Y-120031809D01*
X141654059Y-120076736D01*
X141808714Y-120107498D01*
X152771844Y-120107498D01*
X152926499Y-120076735D01*
X153072181Y-120016392D01*
X153203291Y-119928787D01*
X164248786Y-108883292D01*
X164297587Y-108810256D01*
X164336392Y-108752181D01*
X164379060Y-108649168D01*
X164381304Y-108643750D01*
X164381307Y-108643745D01*
X164396733Y-108606505D01*
X164396733Y-108606504D01*
X164396735Y-108606500D01*
X164427498Y-108451845D01*
X164427498Y-108294160D01*
X164427498Y-84079294D01*
X164447460Y-84004794D01*
X164501998Y-83950256D01*
X164576498Y-83930294D01*
X164650998Y-83950256D01*
X164681857Y-83973935D01*
X164986804Y-84278882D01*
X165014204Y-84316595D01*
X165067711Y-84421606D01*
X165067714Y-84421612D01*
X165127873Y-84504414D01*
X165186524Y-84585141D01*
X165188033Y-84587217D01*
X165188035Y-84587220D01*
X165332779Y-84731964D01*
X165332787Y-84731971D01*
X165422130Y-84796881D01*
X165498390Y-84852287D01*
X165536143Y-84871523D01*
X165547363Y-84877240D01*
X165604680Y-84928849D01*
X165628514Y-85002203D01*
X165612478Y-85077645D01*
X165560869Y-85134962D01*
X165547363Y-85142760D01*
X165498388Y-85167714D01*
X165332787Y-85288028D01*
X165332779Y-85288035D01*
X165188035Y-85432779D01*
X165188028Y-85432787D01*
X165067714Y-85598387D01*
X164974782Y-85780775D01*
X164974778Y-85780787D01*
X164935756Y-85900886D01*
X164911523Y-85975466D01*
X164879500Y-86177648D01*
X164879500Y-86382352D01*
X164911523Y-86584534D01*
X164930054Y-86641568D01*
X164974778Y-86779212D01*
X164974782Y-86779224D01*
X165067714Y-86961612D01*
X165188028Y-87127212D01*
X165188035Y-87127220D01*
X165332779Y-87271964D01*
X165332787Y-87271971D01*
X165389783Y-87313380D01*
X165498390Y-87392287D01*
X165530165Y-87408477D01*
X165547363Y-87417240D01*
X165604680Y-87468849D01*
X165628514Y-87542203D01*
X165612478Y-87617645D01*
X165560869Y-87674962D01*
X165547363Y-87682760D01*
X165498388Y-87707714D01*
X165332787Y-87828028D01*
X165332779Y-87828035D01*
X165188035Y-87972779D01*
X165188028Y-87972787D01*
X165067714Y-88138387D01*
X164974782Y-88320775D01*
X164974778Y-88320787D01*
X164940170Y-88427301D01*
X164911523Y-88515466D01*
X164879500Y-88717648D01*
X164879500Y-88922352D01*
X164889171Y-88983410D01*
X164911523Y-89124534D01*
X164974778Y-89319212D01*
X164974782Y-89319224D01*
X165067714Y-89501612D01*
X165188028Y-89667212D01*
X165188035Y-89667220D01*
X165332779Y-89811964D01*
X165332787Y-89811971D01*
X165498387Y-89932285D01*
X165498390Y-89932287D01*
X165680781Y-90025220D01*
X165875466Y-90088477D01*
X166077648Y-90120500D01*
X166077653Y-90120500D01*
X167082347Y-90120500D01*
X167082352Y-90120500D01*
X167284534Y-90088477D01*
X167479219Y-90025220D01*
X167661610Y-89932287D01*
X167827219Y-89811966D01*
X167971966Y-89667219D01*
X168092287Y-89501610D01*
X168185220Y-89319219D01*
X168248477Y-89124534D01*
X168280500Y-88922352D01*
X168280500Y-88717648D01*
X168248477Y-88515466D01*
X168219829Y-88427298D01*
X168215793Y-88350279D01*
X168250808Y-88281557D01*
X168256159Y-88275917D01*
X169915444Y-86616632D01*
X169982237Y-86578070D01*
X170059365Y-86578070D01*
X170126160Y-86616634D01*
X170164724Y-86683429D01*
X170169801Y-86721993D01*
X170169801Y-86834198D01*
X171240655Y-86834198D01*
X171202171Y-86900855D01*
X171169801Y-87021663D01*
X171169801Y-87146733D01*
X171202171Y-87267541D01*
X171240655Y-87334198D01*
X170169802Y-87334198D01*
X170169802Y-87734171D01*
X170180295Y-87836894D01*
X170235443Y-88003319D01*
X170327481Y-88152538D01*
X170451460Y-88276517D01*
X170600679Y-88368555D01*
X170767103Y-88423703D01*
X170767112Y-88423705D01*
X170869816Y-88434197D01*
X171394801Y-88434197D01*
X171394801Y-87488343D01*
X171461458Y-87526828D01*
X171582266Y-87559198D01*
X171707336Y-87559198D01*
X171828144Y-87526828D01*
X171894801Y-87488343D01*
X171894801Y-88434197D01*
X172419775Y-88434197D01*
X172522497Y-88423703D01*
X172688922Y-88368555D01*
X172838141Y-88276517D01*
X172962120Y-88152538D01*
X173054158Y-88003319D01*
X173109306Y-87836895D01*
X173109308Y-87836886D01*
X173119800Y-87734187D01*
X173119801Y-87734177D01*
X173119801Y-87334198D01*
X172048947Y-87334198D01*
X172087431Y-87267541D01*
X172119801Y-87146733D01*
X172119801Y-87021663D01*
X172087431Y-86900855D01*
X172048947Y-86834198D01*
X173119800Y-86834198D01*
X173119800Y-86434224D01*
X173109306Y-86331501D01*
X173054158Y-86165076D01*
X172962120Y-86015857D01*
X172838141Y-85891878D01*
X172710227Y-85812981D01*
X172657299Y-85756880D01*
X172639511Y-85681831D01*
X172661631Y-85607943D01*
X172683090Y-85580805D01*
X172799897Y-85463998D01*
X172799905Y-85463990D01*
X172924852Y-85292014D01*
X173021358Y-85102610D01*
X173087047Y-84900441D01*
X173120301Y-84690485D01*
X173120301Y-84477911D01*
X173087047Y-84267955D01*
X173021358Y-84065786D01*
X172924852Y-83876382D01*
X172799905Y-83704406D01*
X172649593Y-83554094D01*
X172649592Y-83554093D01*
X172649586Y-83554088D01*
X172512846Y-83454742D01*
X172464307Y-83394802D01*
X172452241Y-83318624D01*
X172479881Y-83246619D01*
X172512846Y-83213654D01*
X172649586Y-83114307D01*
X172649585Y-83114307D01*
X172649593Y-83114302D01*
X172799905Y-82963990D01*
X172924852Y-82792014D01*
X173021358Y-82602610D01*
X173087047Y-82400441D01*
X173120301Y-82190485D01*
X173120301Y-81977911D01*
X173087047Y-81767955D01*
X173021358Y-81565786D01*
X172924852Y-81376382D01*
X172915432Y-81363417D01*
X172833147Y-81250160D01*
X172799905Y-81204406D01*
X172649593Y-81054094D01*
X172649592Y-81054093D01*
X172649586Y-81054088D01*
X172512846Y-80954742D01*
X172464307Y-80894802D01*
X172452241Y-80818624D01*
X172479881Y-80746619D01*
X172512846Y-80713654D01*
X172649586Y-80614307D01*
X172649585Y-80614307D01*
X172649593Y-80614302D01*
X172799905Y-80463990D01*
X172924852Y-80292014D01*
X173021358Y-80102610D01*
X173087047Y-79900441D01*
X173120301Y-79690485D01*
X173120301Y-79477911D01*
X173087047Y-79267955D01*
X173021358Y-79065786D01*
X172924852Y-78876382D01*
X172799905Y-78704406D01*
X172649593Y-78554094D01*
X172649592Y-78554093D01*
X172649586Y-78554088D01*
X172512846Y-78454742D01*
X172464307Y-78394802D01*
X172452241Y-78318624D01*
X172479881Y-78246619D01*
X172512846Y-78213654D01*
X172649586Y-78114307D01*
X172649585Y-78114307D01*
X172649593Y-78114302D01*
X172799905Y-77963990D01*
X172924852Y-77792014D01*
X173021358Y-77602610D01*
X173087047Y-77400441D01*
X173120301Y-77190485D01*
X173120301Y-76977911D01*
X173087047Y-76767955D01*
X173021358Y-76565786D01*
X172924852Y-76376382D01*
X172799905Y-76204406D01*
X172649593Y-76054094D01*
X172477617Y-75929147D01*
X172288213Y-75832641D01*
X172086044Y-75766952D01*
X171876088Y-75733698D01*
X171876083Y-75733698D01*
X171488097Y-75733698D01*
X171413597Y-75713736D01*
X171382738Y-75690057D01*
X171190895Y-75498214D01*
X171190892Y-75498211D01*
X171059782Y-75410606D01*
X171059781Y-75410605D01*
X171059779Y-75410604D01*
X170914101Y-75350263D01*
X170914097Y-75350262D01*
X170759445Y-75319500D01*
X168080403Y-75319500D01*
X168064289Y-75315182D01*
X168047621Y-75315849D01*
X168029487Y-75305857D01*
X168005903Y-75299538D01*
X167979339Y-75279985D01*
X167972844Y-75273989D01*
X167971966Y-75272781D01*
X167827219Y-75128034D01*
X167768551Y-75085410D01*
X167762133Y-75079485D01*
X167746040Y-75054020D01*
X167727079Y-75030605D01*
X167725686Y-75021811D01*
X167720930Y-75014285D01*
X167719726Y-74984183D01*
X167715013Y-74954427D01*
X167718203Y-74946114D01*
X167717848Y-74937218D01*
X167731854Y-74910550D01*
X167742652Y-74882421D01*
X167751029Y-74874043D01*
X167753712Y-74868936D01*
X167760300Y-74864772D01*
X167775614Y-74849458D01*
X167827219Y-74811966D01*
X167971966Y-74667219D01*
X168092287Y-74501610D01*
X168185220Y-74319219D01*
X168243167Y-74140875D01*
X168279513Y-74081562D01*
X171382738Y-70978338D01*
X171449533Y-70939774D01*
X171488097Y-70934697D01*
X172419805Y-70934697D01*
X172419809Y-70934697D01*
X172522598Y-70924197D01*
X172689135Y-70869012D01*
X172838457Y-70776910D01*
X172962513Y-70652854D01*
X173054615Y-70503532D01*
X173109800Y-70336995D01*
X173120301Y-70234207D01*
X173120300Y-68934190D01*
X173109800Y-68831401D01*
X173054615Y-68664864D01*
X172962513Y-68515542D01*
X172838457Y-68391486D01*
X172710588Y-68312616D01*
X172657661Y-68256517D01*
X172639874Y-68181468D01*
X172661994Y-68107580D01*
X172683453Y-68080442D01*
X172799897Y-67963998D01*
X172799905Y-67963990D01*
X172924852Y-67792014D01*
X173021358Y-67602610D01*
X173087047Y-67400441D01*
X173120301Y-67190485D01*
X173120301Y-66977911D01*
X173087047Y-66767955D01*
X173021358Y-66565786D01*
X172924852Y-66376382D01*
X172799905Y-66204406D01*
X172649593Y-66054094D01*
X172649592Y-66054093D01*
X172649586Y-66054088D01*
X172512846Y-65954742D01*
X172464307Y-65894802D01*
X172452241Y-65818624D01*
X172479881Y-65746619D01*
X172512846Y-65713654D01*
X172649586Y-65614307D01*
X172649585Y-65614307D01*
X172649593Y-65614302D01*
X172799905Y-65463990D01*
X172924852Y-65292014D01*
X173021358Y-65102610D01*
X173087047Y-64900441D01*
X173120301Y-64690485D01*
X173120301Y-64477911D01*
X173087047Y-64267955D01*
X173021358Y-64065786D01*
X172924852Y-63876382D01*
X172799905Y-63704406D01*
X172649593Y-63554094D01*
X172649592Y-63554093D01*
X172649586Y-63554088D01*
X172512846Y-63454742D01*
X172464307Y-63394802D01*
X172452241Y-63318624D01*
X172479881Y-63246619D01*
X172512846Y-63213654D01*
X172649586Y-63114307D01*
X172649585Y-63114307D01*
X172649593Y-63114302D01*
X172799905Y-62963990D01*
X172924852Y-62792014D01*
X173021358Y-62602610D01*
X173087047Y-62400441D01*
X173120301Y-62190485D01*
X173120301Y-61977911D01*
X173087047Y-61767955D01*
X173021358Y-61565786D01*
X172924852Y-61376382D01*
X172799905Y-61204406D01*
X172649593Y-61054094D01*
X172477617Y-60929147D01*
X172288213Y-60832641D01*
X172086044Y-60766952D01*
X171876088Y-60733698D01*
X171876083Y-60733698D01*
X171488097Y-60733698D01*
X171413597Y-60713736D01*
X171382738Y-60690057D01*
X171190895Y-60498214D01*
X171190892Y-60498211D01*
X171059782Y-60410606D01*
X171059781Y-60410605D01*
X171059779Y-60410604D01*
X170914101Y-60350263D01*
X170914097Y-60350262D01*
X170759445Y-60319500D01*
X168080403Y-60319500D01*
X168005903Y-60299538D01*
X167975044Y-60275859D01*
X167827220Y-60128035D01*
X167827212Y-60128028D01*
X167661612Y-60007714D01*
X167479224Y-59914782D01*
X167479220Y-59914780D01*
X167479219Y-59914780D01*
X167284534Y-59851523D01*
X167082352Y-59819500D01*
X166077648Y-59819500D01*
X165909163Y-59846185D01*
X165875465Y-59851523D01*
X165680787Y-59914778D01*
X165680775Y-59914782D01*
X165498387Y-60007714D01*
X165332787Y-60128028D01*
X165332779Y-60128035D01*
X165188035Y-60272779D01*
X165188028Y-60272787D01*
X165067714Y-60438387D01*
X164974782Y-60620775D01*
X164974778Y-60620787D01*
X164937106Y-60736731D01*
X164911523Y-60815466D01*
X164879500Y-61017648D01*
X164879500Y-61222352D01*
X164911523Y-61424534D01*
X164926579Y-61470873D01*
X164974778Y-61619212D01*
X164974782Y-61619224D01*
X165067714Y-61801612D01*
X165188028Y-61967212D01*
X165188035Y-61967220D01*
X165332779Y-62111964D01*
X165332787Y-62111971D01*
X165403200Y-62163128D01*
X165498390Y-62232287D01*
X165547363Y-62257240D01*
X165604680Y-62308849D01*
X165628514Y-62382203D01*
X165612478Y-62457645D01*
X165560869Y-62514962D01*
X165547363Y-62522760D01*
X165498388Y-62547714D01*
X165332787Y-62668028D01*
X165332779Y-62668035D01*
X165188035Y-62812779D01*
X165188028Y-62812787D01*
X165067714Y-62978387D01*
X164974782Y-63160775D01*
X164974778Y-63160787D01*
X164911523Y-63355465D01*
X164905293Y-63394802D01*
X164879500Y-63557648D01*
X164879500Y-63762352D01*
X164897561Y-63876380D01*
X164911523Y-63964534D01*
X164974778Y-64159212D01*
X164974782Y-64159224D01*
X165067714Y-64341612D01*
X165188028Y-64507212D01*
X165188035Y-64507220D01*
X165336921Y-64656106D01*
X165335405Y-64657621D01*
X165373416Y-64712908D01*
X165379480Y-64789797D01*
X165346287Y-64859417D01*
X165282731Y-64903113D01*
X165276601Y-64904917D01*
X165137915Y-64956645D01*
X165137905Y-64956650D01*
X165022812Y-65042809D01*
X165022809Y-65042812D01*
X164936650Y-65157905D01*
X164936645Y-65157915D01*
X164886401Y-65292622D01*
X164880001Y-65352157D01*
X164880000Y-65352177D01*
X164880000Y-65950000D01*
X166291184Y-65950000D01*
X166275124Y-65966060D01*
X166224964Y-66052939D01*
X166199000Y-66149840D01*
X166199000Y-66250160D01*
X166224964Y-66347061D01*
X166275124Y-66433940D01*
X166291184Y-66450000D01*
X164880000Y-66450000D01*
X164880000Y-66548204D01*
X164860038Y-66622704D01*
X164805500Y-66677242D01*
X164731000Y-66697204D01*
X164656500Y-66677242D01*
X164625641Y-66653563D01*
X160599565Y-62627487D01*
X160561001Y-62560692D01*
X160555924Y-62522128D01*
X160555924Y-58398296D01*
X160575886Y-58323796D01*
X160599565Y-58292937D01*
X163292397Y-55600105D01*
X164950801Y-53941701D01*
X166621789Y-52270713D01*
X166709394Y-52139603D01*
X166769737Y-51993921D01*
X166800500Y-51839266D01*
X166800500Y-51681582D01*
X166800500Y-48893295D01*
X166820462Y-48818795D01*
X166844137Y-48787940D01*
X169778556Y-45853520D01*
X169845349Y-45814958D01*
X169922477Y-45814958D01*
X169935974Y-45819272D01*
X170002517Y-45844091D01*
X170023433Y-45846339D01*
X170062114Y-45850499D01*
X170062118Y-45850499D01*
X170062127Y-45850500D01*
X171116703Y-45850499D01*
X171191203Y-45870461D01*
X171222062Y-45894140D01*
X171680859Y-46352937D01*
X171719423Y-46419732D01*
X171724500Y-46458296D01*
X171724500Y-49026793D01*
X171704538Y-49101293D01*
X171650000Y-49155831D01*
X171622369Y-49168230D01*
X171480665Y-49215186D01*
X171331343Y-49307288D01*
X171207288Y-49431343D01*
X171115186Y-49580666D01*
X171060001Y-49747201D01*
X171049500Y-49849995D01*
X171049500Y-51150003D01*
X171057059Y-51224000D01*
X171060001Y-51252797D01*
X171115186Y-51419334D01*
X171146978Y-51470877D01*
X171207288Y-51568656D01*
X171331344Y-51692712D01*
X171459209Y-51771579D01*
X171512138Y-51827679D01*
X171529926Y-51902728D01*
X171507806Y-51976616D01*
X171486348Y-52003754D01*
X171369903Y-52120198D01*
X171369895Y-52120209D01*
X171244950Y-52292181D01*
X171244950Y-52292182D01*
X171148446Y-52481582D01*
X171148441Y-52481594D01*
X171082754Y-52683756D01*
X171076103Y-52725748D01*
X171049500Y-52893713D01*
X171049500Y-53106287D01*
X171082754Y-53316243D01*
X171148443Y-53518412D01*
X171213079Y-53645268D01*
X171244950Y-53707817D01*
X171244950Y-53707818D01*
X171305699Y-53791432D01*
X171360748Y-53867201D01*
X171369895Y-53879790D01*
X171369897Y-53879793D01*
X171520206Y-54030102D01*
X171520214Y-54030109D01*
X171591539Y-54081928D01*
X171657381Y-54129765D01*
X171705919Y-54189703D01*
X171717985Y-54265881D01*
X171690345Y-54337887D01*
X171657382Y-54370851D01*
X171520537Y-54470274D01*
X171370279Y-54620532D01*
X171370277Y-54620535D01*
X171245378Y-54792443D01*
X171245378Y-54792444D01*
X171148906Y-54981777D01*
X171083244Y-55183863D01*
X171083242Y-55183871D01*
X171072769Y-55250000D01*
X172120854Y-55250000D01*
X172082370Y-55316657D01*
X172050000Y-55437465D01*
X172050000Y-55562535D01*
X172082370Y-55683343D01*
X172120854Y-55750000D01*
X171072769Y-55750000D01*
X171083242Y-55816128D01*
X171083244Y-55816136D01*
X171148906Y-56018222D01*
X171245378Y-56207555D01*
X171245378Y-56207556D01*
X171370277Y-56379464D01*
X171370279Y-56379467D01*
X171520532Y-56529720D01*
X171520535Y-56529722D01*
X171692444Y-56654621D01*
X171881777Y-56751093D01*
X172083868Y-56816756D01*
X172083868Y-56816757D01*
X172275000Y-56847028D01*
X172275000Y-55904145D01*
X172341657Y-55942630D01*
X172462465Y-55975000D01*
X172587535Y-55975000D01*
X172708343Y-55942630D01*
X172775000Y-55904145D01*
X172775000Y-56847028D01*
X172966131Y-56816757D01*
X172966131Y-56816756D01*
X173168222Y-56751093D01*
X173357555Y-56654621D01*
X173357556Y-56654621D01*
X173529464Y-56529722D01*
X173529467Y-56529720D01*
X173679720Y-56379467D01*
X173679722Y-56379464D01*
X173804621Y-56207556D01*
X173804621Y-56207555D01*
X173901093Y-56018222D01*
X173966755Y-55816136D01*
X173966757Y-55816128D01*
X173977231Y-55750000D01*
X172929146Y-55750000D01*
X172967630Y-55683343D01*
X173000000Y-55562535D01*
X173000000Y-55437465D01*
X172967630Y-55316657D01*
X172929146Y-55250000D01*
X173977230Y-55250000D01*
X173966757Y-55183871D01*
X173966755Y-55183863D01*
X173901093Y-54981777D01*
X173804621Y-54792444D01*
X173804621Y-54792443D01*
X173679722Y-54620535D01*
X173679720Y-54620532D01*
X173529467Y-54470279D01*
X173529456Y-54470270D01*
X173392618Y-54370851D01*
X173344080Y-54310912D01*
X173332014Y-54234733D01*
X173359655Y-54162728D01*
X173392610Y-54129771D01*
X173529792Y-54030104D01*
X173680104Y-53879792D01*
X173805051Y-53707816D01*
X173901557Y-53518412D01*
X173967246Y-53316243D01*
X174000500Y-53106287D01*
X174000500Y-52893713D01*
X173967246Y-52683757D01*
X173901557Y-52481588D01*
X173805051Y-52292184D01*
X173680104Y-52120208D01*
X173563650Y-52003754D01*
X173525087Y-51936960D01*
X173525087Y-51859832D01*
X173563651Y-51793037D01*
X173590784Y-51771583D01*
X173718656Y-51692712D01*
X173842712Y-51568656D01*
X173934814Y-51419334D01*
X173989999Y-51252797D01*
X174000500Y-51150009D01*
X174000499Y-49849992D01*
X173989999Y-49747203D01*
X173934814Y-49580666D01*
X173842712Y-49431344D01*
X173718656Y-49307288D01*
X173569334Y-49215186D01*
X173427631Y-49168230D01*
X173363192Y-49125846D01*
X173328578Y-49056922D01*
X173325500Y-49026793D01*
X173325500Y-45999500D01*
X173334927Y-45964315D01*
X173343293Y-45928891D01*
X173344867Y-45927219D01*
X173345462Y-45925000D01*
X173371218Y-45899243D01*
X173396176Y-45872747D01*
X173398325Y-45872136D01*
X173400000Y-45870462D01*
X173470046Y-45850567D01*
X173472286Y-45850500D01*
X173606287Y-45850500D01*
X173637477Y-45845559D01*
X173646959Y-45845276D01*
X173675567Y-45852031D01*
X173704805Y-45855104D01*
X173714078Y-45861126D01*
X173722022Y-45863002D01*
X173733241Y-45873570D01*
X173756772Y-45888850D01*
X174586859Y-46718937D01*
X174625423Y-46785732D01*
X174630500Y-46824296D01*
X174630500Y-90549951D01*
X174610538Y-90624451D01*
X174556000Y-90678989D01*
X174481500Y-90698951D01*
X174435457Y-90691659D01*
X174347938Y-90663223D01*
X174257951Y-90633985D01*
X174040222Y-90599500D01*
X173819778Y-90599500D01*
X173732686Y-90613294D01*
X173602043Y-90633985D01*
X173392393Y-90702105D01*
X173195976Y-90802185D01*
X173195975Y-90802186D01*
X173017636Y-90931757D01*
X173017633Y-90931759D01*
X172861759Y-91087633D01*
X172861757Y-91087636D01*
X172732186Y-91265975D01*
X172732185Y-91265976D01*
X172632105Y-91462393D01*
X172563985Y-91672043D01*
X172556513Y-91719224D01*
X172529500Y-91889778D01*
X172529500Y-92110222D01*
X172533660Y-92136485D01*
X172563985Y-92327956D01*
X172632105Y-92537606D01*
X172732185Y-92734023D01*
X172732186Y-92734024D01*
X172861758Y-92912365D01*
X173017635Y-93068242D01*
X173114915Y-93138919D01*
X173129417Y-93149456D01*
X173177955Y-93209396D01*
X173190021Y-93285575D01*
X173162381Y-93357580D01*
X173129417Y-93390544D01*
X173017636Y-93471757D01*
X173017633Y-93471759D01*
X172861759Y-93627633D01*
X172861757Y-93627636D01*
X172732186Y-93805975D01*
X172732185Y-93805976D01*
X172632105Y-94002393D01*
X172563985Y-94212043D01*
X172540995Y-94357201D01*
X172529500Y-94429778D01*
X172529500Y-94650222D01*
X172533660Y-94676485D01*
X172563985Y-94867956D01*
X172632105Y-95077606D01*
X172732185Y-95274023D01*
X172732186Y-95274024D01*
X172753888Y-95303894D01*
X172861758Y-95452365D01*
X173017635Y-95608242D01*
X173114915Y-95678919D01*
X173129417Y-95689456D01*
X173177955Y-95749396D01*
X173190021Y-95825575D01*
X173162381Y-95897580D01*
X173129417Y-95930544D01*
X173017636Y-96011757D01*
X173017633Y-96011759D01*
X172861759Y-96167633D01*
X172861757Y-96167636D01*
X172732186Y-96345975D01*
X172732185Y-96345976D01*
X172632105Y-96542393D01*
X172563985Y-96752043D01*
X172545542Y-96868492D01*
X172529500Y-96969778D01*
X172529500Y-97190222D01*
X172533660Y-97216485D01*
X172563985Y-97407956D01*
X172632105Y-97617606D01*
X172732185Y-97814023D01*
X172732186Y-97814024D01*
X172796971Y-97903193D01*
X172861758Y-97992365D01*
X173017635Y-98148242D01*
X173031603Y-98158390D01*
X173129417Y-98229456D01*
X173177955Y-98289396D01*
X173190021Y-98365575D01*
X173162381Y-98437580D01*
X173129417Y-98470544D01*
X173017636Y-98551757D01*
X173017633Y-98551759D01*
X172861759Y-98707633D01*
X172861757Y-98707636D01*
X172732186Y-98885975D01*
X172732185Y-98885976D01*
X172632105Y-99082393D01*
X172563985Y-99292043D01*
X172556513Y-99339224D01*
X172529500Y-99509778D01*
X172529500Y-99730222D01*
X172537612Y-99781438D01*
X172563985Y-99947956D01*
X172632105Y-100157606D01*
X172732185Y-100354023D01*
X172732186Y-100354024D01*
X172796971Y-100443193D01*
X172861758Y-100532365D01*
X173017635Y-100688242D01*
X173071964Y-100727714D01*
X173129417Y-100769456D01*
X173177955Y-100829396D01*
X173190021Y-100905575D01*
X173162381Y-100977580D01*
X173129417Y-101010544D01*
X173017636Y-101091757D01*
X173017633Y-101091759D01*
X172861759Y-101247633D01*
X172861757Y-101247636D01*
X172732186Y-101425975D01*
X172732185Y-101425976D01*
X172632105Y-101622393D01*
X172563985Y-101832043D01*
X172540995Y-101977201D01*
X172529500Y-102049778D01*
X172529500Y-102270222D01*
X172533660Y-102296485D01*
X172563985Y-102487956D01*
X172632105Y-102697606D01*
X172732185Y-102894023D01*
X172732186Y-102894024D01*
X172861758Y-103072365D01*
X173017635Y-103228242D01*
X173071964Y-103267714D01*
X173129417Y-103309456D01*
X173177955Y-103369396D01*
X173190021Y-103445575D01*
X173162381Y-103517580D01*
X173129417Y-103550544D01*
X173017636Y-103631757D01*
X173017633Y-103631759D01*
X172861759Y-103787633D01*
X172861757Y-103787636D01*
X172732186Y-103965975D01*
X172732185Y-103965976D01*
X172632105Y-104162393D01*
X172563985Y-104372043D01*
X172540995Y-104517201D01*
X172529500Y-104589778D01*
X172529500Y-104810222D01*
X172533660Y-104836485D01*
X172563985Y-105027956D01*
X172632105Y-105237606D01*
X172732185Y-105434023D01*
X172732186Y-105434024D01*
X172791676Y-105515905D01*
X172839955Y-105582356D01*
X172861757Y-105612363D01*
X172861759Y-105612366D01*
X173017633Y-105768240D01*
X173017641Y-105768247D01*
X173129841Y-105849764D01*
X173178380Y-105909703D01*
X173190446Y-105985882D01*
X173162806Y-106057887D01*
X173132548Y-106088144D01*
X173132486Y-106088931D01*
X173794059Y-106750504D01*
X173733919Y-106766619D01*
X173618080Y-106833498D01*
X173523498Y-106928080D01*
X173456619Y-107043919D01*
X173440504Y-107104058D01*
X172778931Y-106442486D01*
X172732613Y-106506240D01*
X172632571Y-106702581D01*
X172632567Y-106702593D01*
X172564474Y-106912159D01*
X172530000Y-107129822D01*
X172530000Y-107350177D01*
X172564474Y-107567840D01*
X172632567Y-107777406D01*
X172632571Y-107777418D01*
X172732614Y-107973761D01*
X172732619Y-107973770D01*
X172778930Y-108037512D01*
X172778932Y-108037512D01*
X173440504Y-107375939D01*
X173456619Y-107436081D01*
X173523498Y-107551920D01*
X173618080Y-107646502D01*
X173733919Y-107713381D01*
X173794057Y-107729494D01*
X173132486Y-108391066D01*
X173132603Y-108392557D01*
X173178380Y-108449087D01*
X173190446Y-108525265D01*
X173162805Y-108597270D01*
X173129843Y-108630233D01*
X173017638Y-108711754D01*
X172861759Y-108867633D01*
X172861757Y-108867636D01*
X172732186Y-109045975D01*
X172732185Y-109045976D01*
X172632105Y-109242393D01*
X172563985Y-109452043D01*
X172546729Y-109561000D01*
X172529500Y-109669778D01*
X172529500Y-109890222D01*
X172533660Y-109916485D01*
X172563985Y-110107956D01*
X172632105Y-110317606D01*
X172732185Y-110514023D01*
X172732186Y-110514024D01*
X172861758Y-110692365D01*
X173017635Y-110848242D01*
X173132335Y-110931576D01*
X173195975Y-110977813D01*
X173195976Y-110977814D01*
X173195978Y-110977815D01*
X173392394Y-111077895D01*
X173479512Y-111106201D01*
X173602043Y-111146014D01*
X173602048Y-111146014D01*
X173602049Y-111146015D01*
X173819778Y-111180500D01*
X173819782Y-111180500D01*
X174040218Y-111180500D01*
X174040222Y-111180500D01*
X174257951Y-111146015D01*
X174257952Y-111146014D01*
X174257956Y-111146014D01*
X174338556Y-111119825D01*
X174467606Y-111077895D01*
X174664022Y-110977815D01*
X174842365Y-110848242D01*
X174998242Y-110692365D01*
X175127815Y-110514022D01*
X175227895Y-110317606D01*
X175269825Y-110188556D01*
X175296014Y-110107956D01*
X175296015Y-110107951D01*
X175330500Y-109890222D01*
X175330500Y-109669778D01*
X175320745Y-109608191D01*
X175328806Y-109531489D01*
X175362549Y-109479528D01*
X176052789Y-108789289D01*
X176140394Y-108658179D01*
X176200738Y-108512497D01*
X176231500Y-108357842D01*
X176231500Y-108200157D01*
X176231500Y-46352158D01*
X176226863Y-46328843D01*
X176200737Y-46197502D01*
X176178457Y-46143713D01*
X176174011Y-46132979D01*
X176140396Y-46051825D01*
X176140395Y-46051823D01*
X176140394Y-46051821D01*
X176052789Y-45920711D01*
X175941289Y-45809211D01*
X174888850Y-44756772D01*
X174850286Y-44689977D01*
X174847044Y-44628104D01*
X174850500Y-44606287D01*
X174850500Y-44393713D01*
X174817246Y-44183757D01*
X174751557Y-43981588D01*
X174655051Y-43792184D01*
X174652148Y-43788189D01*
X174625291Y-43751222D01*
X174530104Y-43620208D01*
X174379792Y-43469896D01*
X174207816Y-43344949D01*
X174018412Y-43248443D01*
X173816243Y-43182754D01*
X173606287Y-43149500D01*
X173393713Y-43149500D01*
X173218749Y-43177211D01*
X173183756Y-43182754D01*
X172981594Y-43248441D01*
X172981588Y-43248443D01*
X172981582Y-43248445D01*
X172981582Y-43248446D01*
X172792182Y-43344950D01*
X172792181Y-43344950D01*
X172620209Y-43469895D01*
X172620198Y-43469904D01*
X172534179Y-43555923D01*
X172467384Y-43594487D01*
X172390256Y-43594487D01*
X172323462Y-43555922D01*
X172289215Y-43502633D01*
X172277008Y-43469904D01*
X172253796Y-43407669D01*
X172253795Y-43407668D01*
X172253795Y-43407666D01*
X172167547Y-43292455D01*
X172167544Y-43292452D01*
X172052333Y-43206204D01*
X172052329Y-43206202D01*
X171917482Y-43155908D01*
X171857876Y-43149500D01*
X170062136Y-43149500D01*
X170062111Y-43149502D01*
X170002521Y-43155908D01*
X170002515Y-43155909D01*
X169867670Y-43206202D01*
X169867666Y-43206204D01*
X169752455Y-43292452D01*
X169752452Y-43292455D01*
X169666204Y-43407666D01*
X169666202Y-43407670D01*
X169615908Y-43542517D01*
X169609500Y-43602114D01*
X169609500Y-43718528D01*
X169600739Y-43751222D01*
X169594137Y-43784423D01*
X169590834Y-43788189D01*
X169589538Y-43793028D01*
X169543286Y-43842413D01*
X169540700Y-43844141D01*
X169536094Y-43847219D01*
X169517273Y-43859795D01*
X169489707Y-43878214D01*
X165489711Y-47878211D01*
X165489710Y-47878212D01*
X165408155Y-47959766D01*
X165341360Y-47998329D01*
X165264232Y-47998329D01*
X165197437Y-47959764D01*
X165182253Y-47941985D01*
X165130109Y-47870214D01*
X165130102Y-47870206D01*
X164979793Y-47719897D01*
X164979785Y-47719890D01*
X164843045Y-47620544D01*
X164794506Y-47560604D01*
X164782440Y-47484426D01*
X164810080Y-47412421D01*
X164843045Y-47379456D01*
X164945319Y-47305150D01*
X164979792Y-47280104D01*
X165130104Y-47129792D01*
X165255051Y-46957816D01*
X165351557Y-46768412D01*
X165417246Y-46566243D01*
X165450500Y-46356287D01*
X165450500Y-46143713D01*
X165417246Y-45933757D01*
X165351557Y-45731588D01*
X165255051Y-45542184D01*
X165130104Y-45370208D01*
X164979792Y-45219896D01*
X164979791Y-45219895D01*
X164979785Y-45219890D01*
X164843045Y-45120544D01*
X164794506Y-45060604D01*
X164782440Y-44984426D01*
X164810080Y-44912421D01*
X164843045Y-44879456D01*
X164979785Y-44780109D01*
X164979784Y-44780109D01*
X164979792Y-44780104D01*
X165130104Y-44629792D01*
X165255051Y-44457816D01*
X165351557Y-44268412D01*
X165417246Y-44066243D01*
X165450500Y-43856287D01*
X165450500Y-43643713D01*
X165417246Y-43433757D01*
X165351557Y-43231588D01*
X165255051Y-43042184D01*
X165130104Y-42870208D01*
X164979792Y-42719896D01*
X164807816Y-42594949D01*
X164618412Y-42498443D01*
X164416243Y-42432754D01*
X164206287Y-42399500D01*
X163743713Y-42399500D01*
X163568749Y-42427211D01*
X163533756Y-42432754D01*
X163406815Y-42474000D01*
X163331588Y-42498443D01*
X163331582Y-42498445D01*
X163331582Y-42498446D01*
X163142182Y-42594950D01*
X163142181Y-42594950D01*
X162970209Y-42719895D01*
X162970206Y-42719897D01*
X162819897Y-42870206D01*
X162819895Y-42870209D01*
X162694950Y-43042181D01*
X162694950Y-43042182D01*
X162598446Y-43231582D01*
X162598441Y-43231594D01*
X162541231Y-43407669D01*
X162532754Y-43433757D01*
X162499500Y-43643713D01*
X162499500Y-43856287D01*
X162502973Y-43878214D01*
X162520046Y-43986015D01*
X162511983Y-44062720D01*
X162478239Y-44114681D01*
X157704859Y-48888062D01*
X157638064Y-48926626D01*
X157560936Y-48926626D01*
X157494141Y-48888062D01*
X157455577Y-48821267D01*
X157450500Y-48782703D01*
X157450500Y-48643717D01*
X157450500Y-48643713D01*
X157417246Y-48433757D01*
X157351557Y-48231588D01*
X157255051Y-48042184D01*
X157253902Y-48040603D01*
X157210062Y-47980262D01*
X157130104Y-47870208D01*
X156979792Y-47719896D01*
X156979791Y-47719895D01*
X156979785Y-47719890D01*
X156843045Y-47620544D01*
X156794506Y-47560604D01*
X156782440Y-47484426D01*
X156810080Y-47412421D01*
X156843045Y-47379456D01*
X156945319Y-47305150D01*
X156979792Y-47280104D01*
X157130104Y-47129792D01*
X157255051Y-46957816D01*
X157351557Y-46768412D01*
X157417246Y-46566243D01*
X157450500Y-46356287D01*
X157450500Y-46143713D01*
X157417246Y-45933757D01*
X157351557Y-45731588D01*
X157255051Y-45542184D01*
X157130104Y-45370208D01*
X156979792Y-45219896D01*
X156979791Y-45219895D01*
X156979785Y-45219890D01*
X156843045Y-45120544D01*
X156794506Y-45060604D01*
X156782440Y-44984426D01*
X156810080Y-44912421D01*
X156843045Y-44879456D01*
X156979785Y-44780109D01*
X156979784Y-44780109D01*
X156979792Y-44780104D01*
X157130104Y-44629792D01*
X157255051Y-44457816D01*
X157351557Y-44268412D01*
X157417246Y-44066243D01*
X157450500Y-43856287D01*
X157450500Y-43643713D01*
X157417246Y-43433757D01*
X157351557Y-43231588D01*
X157255051Y-43042184D01*
X157130104Y-42870208D01*
X156979792Y-42719896D01*
X156807816Y-42594949D01*
X156618412Y-42498443D01*
X156416243Y-42432754D01*
X156206287Y-42399500D01*
X155743713Y-42399500D01*
X155568749Y-42427211D01*
X155533756Y-42432754D01*
X155406815Y-42474000D01*
X155331588Y-42498443D01*
X155331582Y-42498445D01*
X155331582Y-42498446D01*
X155142182Y-42594950D01*
X155037448Y-42671044D01*
X154965443Y-42698684D01*
X154949868Y-42699500D01*
X148479500Y-42699500D01*
X148405000Y-42679538D01*
X148350462Y-42625000D01*
X148330500Y-42550500D01*
X148330499Y-41657136D01*
X148330499Y-41657128D01*
X148324091Y-41597517D01*
X148276423Y-41469712D01*
X148273797Y-41462670D01*
X148273795Y-41462666D01*
X148187547Y-41347455D01*
X148187544Y-41347452D01*
X148072333Y-41261204D01*
X148072329Y-41261202D01*
X147937482Y-41210908D01*
X147877885Y-41204500D01*
X147877873Y-41204500D01*
X147248296Y-41204500D01*
X147173796Y-41184538D01*
X147142937Y-41160859D01*
X146959292Y-40977214D01*
X146959289Y-40977211D01*
X146828179Y-40889606D01*
X146828178Y-40889605D01*
X146828176Y-40889604D01*
X146682498Y-40829263D01*
X146682494Y-40829262D01*
X146527837Y-40798499D01*
X146520557Y-40797782D01*
X146448372Y-40770614D01*
X146399443Y-40710993D01*
X146386880Y-40634895D01*
X146414048Y-40562710D01*
X146473669Y-40513781D01*
X146535162Y-40500500D01*
X176242557Y-40500500D01*
X176317057Y-40520462D01*
X176371595Y-40575000D01*
X176391557Y-40649500D01*
X176371595Y-40724000D01*
X176317057Y-40778538D01*
X176299577Y-40787158D01*
X176179783Y-40836778D01*
X175969712Y-40958063D01*
X175969711Y-40958064D01*
X175777262Y-41105735D01*
X175777260Y-41105736D01*
X175777256Y-41105740D01*
X175605740Y-41277256D01*
X175605736Y-41277260D01*
X175605735Y-41277262D01*
X175551875Y-41347454D01*
X175458063Y-41469712D01*
X175336778Y-41679783D01*
X175243947Y-41903896D01*
X175181160Y-42138218D01*
X175149500Y-42378706D01*
X175149500Y-42621293D01*
X175181160Y-42861781D01*
X175181161Y-42861787D01*
X175181162Y-42861789D01*
X175229498Y-43042181D01*
X175243947Y-43096103D01*
X175248338Y-43106704D01*
X175325278Y-43292454D01*
X175336778Y-43320216D01*
X175395568Y-43422043D01*
X175458064Y-43530289D01*
X175605735Y-43722738D01*
X175777262Y-43894265D01*
X175969711Y-44041936D01*
X176179788Y-44163224D01*
X176403900Y-44256054D01*
X176638211Y-44318838D01*
X176638217Y-44318838D01*
X176638218Y-44318839D01*
X176703600Y-44327446D01*
X176878712Y-44350500D01*
X177121288Y-44350500D01*
X177361789Y-44318838D01*
X177596100Y-44256054D01*
X177820212Y-44163224D01*
X178030289Y-44041936D01*
X178222738Y-43894265D01*
X178394265Y-43722738D01*
X178541936Y-43530289D01*
X178663224Y-43320212D01*
X178712843Y-43200420D01*
X178759794Y-43139232D01*
X178831052Y-43109717D01*
X178907520Y-43119784D01*
X178968710Y-43166736D01*
X178998225Y-43237994D01*
X178999500Y-43257442D01*
X178999500Y-117742557D01*
X178979538Y-117817057D01*
X178925000Y-117871595D01*
X178850500Y-117891557D01*
X178776000Y-117871595D01*
X178721462Y-117817057D01*
X178712842Y-117799577D01*
X178663224Y-117679788D01*
X178541936Y-117469711D01*
X178394265Y-117277262D01*
X178222738Y-117105735D01*
X178030289Y-116958064D01*
X177960263Y-116917634D01*
X177820216Y-116836778D01*
X177820214Y-116836777D01*
X177820212Y-116836776D01*
X177688932Y-116782398D01*
X177596103Y-116743947D01*
X177596101Y-116743946D01*
X177596100Y-116743946D01*
X177361789Y-116681162D01*
X177361787Y-116681161D01*
X177361781Y-116681160D01*
X177121293Y-116649500D01*
X177121288Y-116649500D01*
X176878712Y-116649500D01*
X176878706Y-116649500D01*
X176638218Y-116681160D01*
X176403896Y-116743947D01*
X176179783Y-116836778D01*
X175969712Y-116958063D01*
X175969711Y-116958064D01*
X175777262Y-117105735D01*
X175777260Y-117105736D01*
X175777256Y-117105740D01*
X175605740Y-117277256D01*
X175458063Y-117469712D01*
X175336778Y-117679783D01*
X175243947Y-117903896D01*
X175181160Y-118138218D01*
X175149500Y-118378706D01*
X175149500Y-118621293D01*
X175181160Y-118861781D01*
X175181161Y-118861787D01*
X175181162Y-118861789D01*
X175243946Y-119096100D01*
X175336776Y-119320212D01*
X175458064Y-119530289D01*
X175605735Y-119722738D01*
X175777262Y-119894265D01*
X175969711Y-120041936D01*
X176179788Y-120163224D01*
X176299577Y-120212842D01*
X176360767Y-120259795D01*
X176390282Y-120331052D01*
X176380215Y-120407520D01*
X176333262Y-120468710D01*
X176262005Y-120498225D01*
X176242557Y-120499500D01*
X113757443Y-120499500D01*
X113682943Y-120479538D01*
X113628405Y-120425000D01*
X113608443Y-120350500D01*
X113628405Y-120276000D01*
X113682943Y-120221462D01*
X113700423Y-120212842D01*
X113820212Y-120163224D01*
X114030289Y-120041936D01*
X114222738Y-119894265D01*
X114394265Y-119722738D01*
X114541936Y-119530289D01*
X114663224Y-119320212D01*
X114756054Y-119096100D01*
X114818838Y-118861789D01*
X114850500Y-118621288D01*
X114850500Y-118378712D01*
X114818838Y-118138211D01*
X114756054Y-117903900D01*
X114663224Y-117679788D01*
X114541936Y-117469711D01*
X114394265Y-117277262D01*
X114222738Y-117105735D01*
X114030289Y-116958064D01*
X113960263Y-116917634D01*
X113820216Y-116836778D01*
X113820214Y-116836777D01*
X113820212Y-116836776D01*
X113688932Y-116782398D01*
X113596103Y-116743947D01*
X113596101Y-116743946D01*
X113596100Y-116743946D01*
X113361789Y-116681162D01*
X113361787Y-116681161D01*
X113361781Y-116681160D01*
X113121293Y-116649500D01*
X113121288Y-116649500D01*
X112878712Y-116649500D01*
X112878706Y-116649500D01*
X112638218Y-116681160D01*
X112403896Y-116743947D01*
X112179783Y-116836778D01*
X111969712Y-116958063D01*
X111969711Y-116958064D01*
X111777262Y-117105735D01*
X111777260Y-117105736D01*
X111777256Y-117105740D01*
X111605740Y-117277256D01*
X111458063Y-117469712D01*
X111336778Y-117679783D01*
X111243947Y-117903896D01*
X111181160Y-118138218D01*
X111149500Y-118378706D01*
X111149500Y-118621293D01*
X111181160Y-118861781D01*
X111181161Y-118861787D01*
X111181162Y-118861789D01*
X111243946Y-119096100D01*
X111336776Y-119320212D01*
X111458064Y-119530289D01*
X111605735Y-119722738D01*
X111777262Y-119894265D01*
X111969711Y-120041936D01*
X112179788Y-120163224D01*
X112299577Y-120212842D01*
X112360767Y-120259795D01*
X112390282Y-120331052D01*
X112380215Y-120407520D01*
X112333262Y-120468710D01*
X112262005Y-120498225D01*
X112242557Y-120499500D01*
X110149500Y-120499500D01*
X110075000Y-120479538D01*
X110020462Y-120425000D01*
X110000500Y-120350500D01*
X110000500Y-72388570D01*
X118300000Y-72388570D01*
X118300000Y-72611429D01*
X118329084Y-72832349D01*
X118329087Y-72832366D01*
X118386761Y-73047615D01*
X118472047Y-73253508D01*
X118583469Y-73446498D01*
X118634040Y-73512403D01*
X119435386Y-72711056D01*
X119440889Y-72731591D01*
X119519881Y-72868408D01*
X119631592Y-72980119D01*
X119768409Y-73059111D01*
X119788941Y-73064612D01*
X118987594Y-73865958D01*
X119053500Y-73916529D01*
X119246491Y-74027952D01*
X119452384Y-74113238D01*
X119667633Y-74170912D01*
X119667650Y-74170915D01*
X119888570Y-74199999D01*
X119888576Y-74200000D01*
X120111424Y-74200000D01*
X120111429Y-74199999D01*
X120332349Y-74170915D01*
X120332366Y-74170912D01*
X120547615Y-74113238D01*
X120753508Y-74027952D01*
X120946495Y-73916532D01*
X121012403Y-73865957D01*
X120211058Y-73064612D01*
X120231591Y-73059111D01*
X120368408Y-72980119D01*
X120480119Y-72868408D01*
X120559111Y-72731591D01*
X120564612Y-72711058D01*
X121365957Y-73512403D01*
X121416532Y-73446495D01*
X121527952Y-73253508D01*
X121613238Y-73047615D01*
X121670912Y-72832366D01*
X121670915Y-72832349D01*
X121699999Y-72611429D01*
X121700000Y-72611424D01*
X121700000Y-72388576D01*
X121699999Y-72388570D01*
X121670915Y-72167650D01*
X121670912Y-72167633D01*
X121613238Y-71952384D01*
X121527952Y-71746491D01*
X121416529Y-71553500D01*
X121416529Y-71553499D01*
X121365958Y-71487594D01*
X120564612Y-72288940D01*
X120559111Y-72268409D01*
X120480119Y-72131592D01*
X120368408Y-72019881D01*
X120231591Y-71940889D01*
X120211057Y-71935386D01*
X121012404Y-71134040D01*
X120946498Y-71083469D01*
X120753508Y-70972047D01*
X120547615Y-70886761D01*
X120332366Y-70829087D01*
X120332349Y-70829084D01*
X120111429Y-70800000D01*
X119888570Y-70800000D01*
X119667650Y-70829084D01*
X119667633Y-70829087D01*
X119452384Y-70886761D01*
X119246491Y-70972047D01*
X119053500Y-71083470D01*
X118987595Y-71134041D01*
X119788941Y-71935387D01*
X119768409Y-71940889D01*
X119631592Y-72019881D01*
X119519881Y-72131592D01*
X119440889Y-72268409D01*
X119435387Y-72288941D01*
X118634041Y-71487595D01*
X118583470Y-71553500D01*
X118472047Y-71746491D01*
X118386761Y-71952384D01*
X118329087Y-72167633D01*
X118329084Y-72167650D01*
X118300000Y-72388570D01*
X110000500Y-72388570D01*
X110000500Y-40649500D01*
X110020462Y-40575000D01*
X110075000Y-40520462D01*
X110149500Y-40500500D01*
X112242557Y-40500500D01*
X112317057Y-40520462D01*
G37*
%TD.AperFunction*%
%TA.AperFunction,Conductor*%
G36*
X122400848Y-87912260D02*
G01*
X122439412Y-87979055D01*
X122439412Y-88056183D01*
X122428249Y-88085263D01*
X122379586Y-88180769D01*
X122379579Y-88180787D01*
X122318570Y-88368555D01*
X122316324Y-88375466D01*
X122284301Y-88577648D01*
X122284301Y-88782352D01*
X122306475Y-88922352D01*
X122316324Y-88984534D01*
X122379579Y-89179212D01*
X122379583Y-89179224D01*
X122472515Y-89361612D01*
X122592829Y-89527212D01*
X122592836Y-89527220D01*
X122737580Y-89671964D01*
X122737588Y-89671971D01*
X122826931Y-89736881D01*
X122903191Y-89792287D01*
X122941823Y-89811971D01*
X122952164Y-89817240D01*
X123009481Y-89868849D01*
X123033315Y-89942203D01*
X123017279Y-90017645D01*
X122965670Y-90074962D01*
X122952164Y-90082760D01*
X122903189Y-90107714D01*
X122737588Y-90228028D01*
X122737580Y-90228035D01*
X122592836Y-90372779D01*
X122592829Y-90372787D01*
X122472515Y-90538387D01*
X122379583Y-90720775D01*
X122379579Y-90720787D01*
X122316324Y-90915465D01*
X122313743Y-90931759D01*
X122284301Y-91117648D01*
X122284301Y-91322352D01*
X122285312Y-91328732D01*
X122316324Y-91524534D01*
X122379579Y-91719212D01*
X122379583Y-91719224D01*
X122472515Y-91901612D01*
X122592829Y-92067212D01*
X122592836Y-92067220D01*
X122741722Y-92216106D01*
X122740206Y-92217621D01*
X122778217Y-92272908D01*
X122784281Y-92349797D01*
X122751088Y-92419417D01*
X122687532Y-92463113D01*
X122681402Y-92464917D01*
X122542716Y-92516645D01*
X122542706Y-92516650D01*
X122427613Y-92602809D01*
X122427610Y-92602812D01*
X122341451Y-92717905D01*
X122341446Y-92717915D01*
X122291202Y-92852622D01*
X122284802Y-92912157D01*
X122284801Y-92912177D01*
X122284801Y-93510000D01*
X123695985Y-93510000D01*
X123679925Y-93526060D01*
X123629765Y-93612939D01*
X123603801Y-93709840D01*
X123603801Y-93810160D01*
X123629765Y-93907061D01*
X123679925Y-93993940D01*
X123695985Y-94010000D01*
X122284801Y-94010000D01*
X122284801Y-94607822D01*
X122284802Y-94607842D01*
X122291202Y-94667377D01*
X122341446Y-94802084D01*
X122341451Y-94802094D01*
X122427610Y-94917187D01*
X122427613Y-94917190D01*
X122542706Y-95003349D01*
X122542716Y-95003354D01*
X122686158Y-95056856D01*
X122685203Y-95059416D01*
X122739935Y-95088870D01*
X122780478Y-95154483D01*
X122782783Y-95231576D01*
X122746233Y-95299494D01*
X122741669Y-95303841D01*
X122741722Y-95303894D01*
X122592836Y-95452779D01*
X122592829Y-95452787D01*
X122472515Y-95618387D01*
X122379583Y-95800775D01*
X122379579Y-95800787D01*
X122316324Y-95995465D01*
X122313743Y-96011759D01*
X122284301Y-96197648D01*
X122284301Y-96402352D01*
X122306482Y-96542393D01*
X122316324Y-96604534D01*
X122379579Y-96799212D01*
X122379583Y-96799224D01*
X122472515Y-96981612D01*
X122592829Y-97147212D01*
X122592836Y-97147220D01*
X122737580Y-97291964D01*
X122737588Y-97291971D01*
X122826931Y-97356881D01*
X122903191Y-97412287D01*
X122952164Y-97437240D01*
X123009481Y-97488849D01*
X123033315Y-97562203D01*
X123017279Y-97637645D01*
X122965670Y-97694962D01*
X122952164Y-97702760D01*
X122903189Y-97727714D01*
X122737588Y-97848028D01*
X122737580Y-97848035D01*
X122592836Y-97992779D01*
X122592829Y-97992787D01*
X122472515Y-98158387D01*
X122379583Y-98340775D01*
X122379579Y-98340787D01*
X122316324Y-98535465D01*
X122313743Y-98551759D01*
X122284301Y-98737648D01*
X122284301Y-98942352D01*
X122285312Y-98948732D01*
X122316324Y-99144534D01*
X122379579Y-99339212D01*
X122379583Y-99339224D01*
X122472515Y-99521612D01*
X122592829Y-99687212D01*
X122592836Y-99687220D01*
X122737580Y-99831964D01*
X122737588Y-99831971D01*
X122897223Y-99947951D01*
X122903191Y-99952287D01*
X123085582Y-100045220D01*
X123280267Y-100108477D01*
X123482449Y-100140500D01*
X123482454Y-100140500D01*
X124487148Y-100140500D01*
X124487153Y-100140500D01*
X124689335Y-100108477D01*
X124884020Y-100045220D01*
X125066411Y-99952287D01*
X125232020Y-99831966D01*
X125376767Y-99687219D01*
X125376767Y-99687218D01*
X125379845Y-99684141D01*
X125446640Y-99645577D01*
X125485204Y-99640500D01*
X127087841Y-99640500D01*
X127242496Y-99609737D01*
X127242504Y-99609733D01*
X127249497Y-99607613D01*
X127249948Y-99609100D01*
X127317735Y-99600167D01*
X127388996Y-99629673D01*
X127435956Y-99690857D01*
X127446034Y-99767324D01*
X127416528Y-99838585D01*
X127403665Y-99853254D01*
X126261062Y-100995859D01*
X126194267Y-101034423D01*
X126155703Y-101039500D01*
X125485204Y-101039500D01*
X125410704Y-101019538D01*
X125379845Y-100995859D01*
X125232021Y-100848035D01*
X125232013Y-100848028D01*
X125066413Y-100727714D01*
X124884025Y-100634782D01*
X124884021Y-100634780D01*
X124884020Y-100634780D01*
X124689335Y-100571523D01*
X124487153Y-100539500D01*
X123482449Y-100539500D01*
X123313964Y-100566185D01*
X123280266Y-100571523D01*
X123085588Y-100634778D01*
X123085576Y-100634782D01*
X122903188Y-100727714D01*
X122737588Y-100848028D01*
X122737580Y-100848035D01*
X122592836Y-100992779D01*
X122592829Y-100992787D01*
X122472515Y-101158387D01*
X122379583Y-101340775D01*
X122379581Y-101340781D01*
X122316324Y-101535466D01*
X122284301Y-101737648D01*
X122284301Y-101942352D01*
X122316324Y-102144534D01*
X122376337Y-102329236D01*
X122379579Y-102339212D01*
X122379583Y-102339224D01*
X122472515Y-102521612D01*
X122592829Y-102687212D01*
X122592836Y-102687220D01*
X122737580Y-102831964D01*
X122737588Y-102831971D01*
X122799546Y-102876985D01*
X122903191Y-102952287D01*
X122952164Y-102977240D01*
X123009481Y-103028849D01*
X123033315Y-103102203D01*
X123017279Y-103177645D01*
X122965670Y-103234962D01*
X122952164Y-103242760D01*
X122903189Y-103267714D01*
X122737588Y-103388028D01*
X122737580Y-103388035D01*
X122592836Y-103532779D01*
X122592829Y-103532787D01*
X122472515Y-103698387D01*
X122379583Y-103880775D01*
X122379579Y-103880787D01*
X122344971Y-103987301D01*
X122316324Y-104075466D01*
X122284301Y-104277648D01*
X122284301Y-104482352D01*
X122316324Y-104684534D01*
X122376337Y-104869236D01*
X122379579Y-104879212D01*
X122379583Y-104879224D01*
X122472515Y-105061612D01*
X122592829Y-105227212D01*
X122592836Y-105227220D01*
X122737580Y-105371964D01*
X122737588Y-105371971D01*
X122799546Y-105416985D01*
X122903191Y-105492287D01*
X122949544Y-105515905D01*
X122952164Y-105517240D01*
X123009481Y-105568849D01*
X123033315Y-105642203D01*
X123017279Y-105717645D01*
X122965670Y-105774962D01*
X122952164Y-105782760D01*
X122903189Y-105807714D01*
X122737588Y-105928028D01*
X122737580Y-105928035D01*
X122592836Y-106072779D01*
X122592829Y-106072787D01*
X122472515Y-106238387D01*
X122379583Y-106420775D01*
X122379581Y-106420781D01*
X122316324Y-106615466D01*
X122284301Y-106817648D01*
X122284301Y-107022352D01*
X122316324Y-107224534D01*
X122376337Y-107409236D01*
X122379579Y-107419212D01*
X122379583Y-107419224D01*
X122472515Y-107601612D01*
X122592829Y-107767212D01*
X122592836Y-107767220D01*
X122741722Y-107916106D01*
X122740206Y-107917621D01*
X122778217Y-107972908D01*
X122784281Y-108049797D01*
X122751088Y-108119417D01*
X122687532Y-108163113D01*
X122681402Y-108164917D01*
X122542716Y-108216645D01*
X122542706Y-108216650D01*
X122427613Y-108302809D01*
X122427610Y-108302812D01*
X122341451Y-108417905D01*
X122341446Y-108417915D01*
X122291202Y-108552622D01*
X122284802Y-108612157D01*
X122284801Y-108612177D01*
X122284801Y-109210000D01*
X123695985Y-109210000D01*
X123679925Y-109226060D01*
X123629765Y-109312939D01*
X123603801Y-109409840D01*
X123603801Y-109510160D01*
X123629765Y-109607061D01*
X123679925Y-109693940D01*
X123695985Y-109710000D01*
X122284801Y-109710000D01*
X122284801Y-110307822D01*
X122284802Y-110307842D01*
X122291202Y-110367377D01*
X122341446Y-110502084D01*
X122341451Y-110502094D01*
X122427610Y-110617187D01*
X122427613Y-110617190D01*
X122542706Y-110703349D01*
X122542716Y-110703354D01*
X122686158Y-110756856D01*
X122685203Y-110759416D01*
X122739935Y-110788870D01*
X122780478Y-110854483D01*
X122782783Y-110931576D01*
X122746233Y-110999494D01*
X122741669Y-111003841D01*
X122741722Y-111003894D01*
X122592836Y-111152779D01*
X122592829Y-111152787D01*
X122472515Y-111318387D01*
X122379583Y-111500775D01*
X122379579Y-111500787D01*
X122331512Y-111648723D01*
X122316324Y-111695466D01*
X122284301Y-111897648D01*
X122284301Y-112102352D01*
X122316324Y-112304534D01*
X122353137Y-112417834D01*
X122379579Y-112499212D01*
X122379583Y-112499224D01*
X122472515Y-112681612D01*
X122592829Y-112847212D01*
X122592836Y-112847220D01*
X122737580Y-112991964D01*
X122737588Y-112991971D01*
X122826931Y-113056881D01*
X122903191Y-113112287D01*
X122952164Y-113137240D01*
X123009481Y-113188849D01*
X123033315Y-113262203D01*
X123017279Y-113337645D01*
X122965670Y-113394962D01*
X122952164Y-113402760D01*
X122903189Y-113427714D01*
X122737588Y-113548028D01*
X122737580Y-113548035D01*
X122592836Y-113692779D01*
X122592829Y-113692787D01*
X122472515Y-113858387D01*
X122379583Y-114040775D01*
X122379579Y-114040787D01*
X122344971Y-114147301D01*
X122316324Y-114235466D01*
X122284301Y-114437648D01*
X122284301Y-114642352D01*
X122316324Y-114844534D01*
X122344010Y-114929744D01*
X122349116Y-114945456D01*
X122353153Y-115022478D01*
X122318138Y-115091200D01*
X122253453Y-115133207D01*
X122207409Y-115140500D01*
X118159097Y-115140500D01*
X118084597Y-115120538D01*
X118053738Y-115096859D01*
X115500979Y-112544100D01*
X115462415Y-112477305D01*
X115462415Y-112400177D01*
X115464616Y-112392744D01*
X115493278Y-112304534D01*
X115525301Y-112102352D01*
X115525301Y-111897648D01*
X115493278Y-111695466D01*
X115430021Y-111500781D01*
X115337088Y-111318390D01*
X115330898Y-111309870D01*
X115216772Y-111152787D01*
X115216765Y-111152779D01*
X115067880Y-111003894D01*
X115069393Y-111002380D01*
X115031381Y-110947083D01*
X115025321Y-110870193D01*
X115058518Y-110800575D01*
X115122077Y-110756883D01*
X115128208Y-110755078D01*
X115266885Y-110703354D01*
X115266895Y-110703349D01*
X115381988Y-110617190D01*
X115381991Y-110617187D01*
X115468150Y-110502094D01*
X115468155Y-110502084D01*
X115518399Y-110367377D01*
X115524799Y-110307842D01*
X115524801Y-110307822D01*
X115524801Y-109710000D01*
X114113617Y-109710000D01*
X114129677Y-109693940D01*
X114179837Y-109607061D01*
X114205801Y-109510160D01*
X114205801Y-109409840D01*
X114179837Y-109312939D01*
X114129677Y-109226060D01*
X114113617Y-109210000D01*
X115524801Y-109210000D01*
X115524801Y-108612177D01*
X115524799Y-108612157D01*
X115518399Y-108552622D01*
X115468155Y-108417915D01*
X115468150Y-108417905D01*
X115381991Y-108302812D01*
X115381988Y-108302809D01*
X115266895Y-108216650D01*
X115266885Y-108216645D01*
X115123444Y-108163144D01*
X115124397Y-108160588D01*
X115069645Y-108131109D01*
X115029115Y-108065488D01*
X115026824Y-107988394D01*
X115063388Y-107920484D01*
X115067932Y-107916158D01*
X115067880Y-107916106D01*
X115072020Y-107911966D01*
X115216767Y-107767219D01*
X115337088Y-107601610D01*
X115430021Y-107419219D01*
X115493278Y-107224534D01*
X115525301Y-107022352D01*
X115525301Y-106817648D01*
X115493278Y-106615466D01*
X115430021Y-106420781D01*
X115337088Y-106238390D01*
X115299536Y-106186703D01*
X115216772Y-106072787D01*
X115216765Y-106072779D01*
X115072021Y-105928035D01*
X115072013Y-105928028D01*
X114906410Y-105807712D01*
X114857438Y-105782760D01*
X114800120Y-105731152D01*
X114776286Y-105657798D01*
X114792322Y-105582356D01*
X114843930Y-105525038D01*
X114857438Y-105517240D01*
X114894847Y-105498179D01*
X114906411Y-105492287D01*
X115072020Y-105371966D01*
X115216767Y-105227219D01*
X115337088Y-105061610D01*
X115430021Y-104879219D01*
X115493278Y-104684534D01*
X115525301Y-104482352D01*
X115525301Y-104277648D01*
X115493278Y-104075466D01*
X115464630Y-103987298D01*
X115460594Y-103910279D01*
X115495609Y-103841557D01*
X115500959Y-103835918D01*
X117478396Y-101858483D01*
X117566001Y-101727373D01*
X117626344Y-101581691D01*
X117657107Y-101427036D01*
X117657107Y-98749902D01*
X117677069Y-98675402D01*
X117700748Y-98644543D01*
X118497263Y-97848028D01*
X119345689Y-96999602D01*
X119433294Y-96868492D01*
X119493637Y-96722810D01*
X119524400Y-96568155D01*
X119524400Y-96410471D01*
X119524400Y-90639707D01*
X119544362Y-90565207D01*
X119568041Y-90534348D01*
X120290425Y-89811964D01*
X122190131Y-87912259D01*
X122256925Y-87873696D01*
X122334053Y-87873696D01*
X122400848Y-87912260D01*
G37*
%TD.AperFunction*%
%TA.AperFunction,Conductor*%
G36*
X158880424Y-58825462D02*
G01*
X158934962Y-58880000D01*
X158954924Y-58954500D01*
X158954924Y-62163128D01*
X158934962Y-62237628D01*
X158880424Y-62292166D01*
X158805924Y-62312128D01*
X158731424Y-62292166D01*
X158700565Y-62268487D01*
X158096178Y-61664100D01*
X158057614Y-61597305D01*
X158057614Y-61520177D01*
X158059815Y-61512744D01*
X158088477Y-61424534D01*
X158120500Y-61222352D01*
X158120500Y-61017648D01*
X158088477Y-60815466D01*
X158025220Y-60620781D01*
X157932287Y-60438390D01*
X157912101Y-60410606D01*
X157811971Y-60272787D01*
X157811964Y-60272779D01*
X157667220Y-60128035D01*
X157667212Y-60128028D01*
X157501612Y-60007714D01*
X157319224Y-59914782D01*
X157319220Y-59914780D01*
X157319219Y-59914780D01*
X157124534Y-59851523D01*
X156922352Y-59819500D01*
X155917648Y-59819500D01*
X155749163Y-59846185D01*
X155715465Y-59851523D01*
X155520787Y-59914778D01*
X155520775Y-59914782D01*
X155338387Y-60007714D01*
X155172787Y-60128028D01*
X155172779Y-60128035D01*
X155028035Y-60272779D01*
X155028028Y-60272787D01*
X154907714Y-60438387D01*
X154814782Y-60620775D01*
X154814778Y-60620787D01*
X154777106Y-60736731D01*
X154751523Y-60815466D01*
X154719500Y-61017648D01*
X154719500Y-61222352D01*
X154751523Y-61424534D01*
X154766579Y-61470873D01*
X154814778Y-61619212D01*
X154814782Y-61619224D01*
X154907714Y-61801612D01*
X155028028Y-61967212D01*
X155028035Y-61967220D01*
X155172779Y-62111964D01*
X155172787Y-62111971D01*
X155243200Y-62163128D01*
X155338390Y-62232287D01*
X155387363Y-62257240D01*
X155444680Y-62308849D01*
X155468514Y-62382203D01*
X155452478Y-62457645D01*
X155400869Y-62514962D01*
X155387363Y-62522760D01*
X155338388Y-62547714D01*
X155172787Y-62668028D01*
X155172779Y-62668035D01*
X155028035Y-62812779D01*
X155028028Y-62812787D01*
X154907714Y-62978387D01*
X154814782Y-63160775D01*
X154814778Y-63160787D01*
X154751523Y-63355465D01*
X154745293Y-63394802D01*
X154719500Y-63557648D01*
X154719500Y-63762352D01*
X154737561Y-63876380D01*
X154751523Y-63964534D01*
X154814778Y-64159212D01*
X154814782Y-64159224D01*
X154907714Y-64341612D01*
X155028028Y-64507212D01*
X155028035Y-64507220D01*
X155176921Y-64656106D01*
X155175405Y-64657621D01*
X155213416Y-64712908D01*
X155219480Y-64789797D01*
X155186287Y-64859417D01*
X155122731Y-64903113D01*
X155116601Y-64904917D01*
X154977915Y-64956645D01*
X154977905Y-64956650D01*
X154862812Y-65042809D01*
X154862809Y-65042812D01*
X154776650Y-65157905D01*
X154776645Y-65157915D01*
X154726401Y-65292622D01*
X154720001Y-65352157D01*
X154720000Y-65352177D01*
X154720000Y-65950000D01*
X156131184Y-65950000D01*
X156115124Y-65966060D01*
X156064964Y-66052939D01*
X156039000Y-66149840D01*
X156039000Y-66250160D01*
X156064964Y-66347061D01*
X156115124Y-66433940D01*
X156131184Y-66450000D01*
X154720000Y-66450000D01*
X154720000Y-67047822D01*
X154720001Y-67047842D01*
X154726401Y-67107377D01*
X154776645Y-67242084D01*
X154776650Y-67242094D01*
X154862809Y-67357187D01*
X154862812Y-67357190D01*
X154977905Y-67443349D01*
X154977915Y-67443354D01*
X155121357Y-67496856D01*
X155120402Y-67499416D01*
X155175134Y-67528870D01*
X155215677Y-67594483D01*
X155217982Y-67671576D01*
X155181432Y-67739494D01*
X155176868Y-67743841D01*
X155176921Y-67743894D01*
X155028035Y-67892779D01*
X155028028Y-67892787D01*
X154907714Y-68058387D01*
X154814782Y-68240775D01*
X154814780Y-68240781D01*
X154751523Y-68435466D01*
X154719500Y-68637648D01*
X154719500Y-68842352D01*
X154733429Y-68930294D01*
X154751523Y-69044534D01*
X154814778Y-69239212D01*
X154814782Y-69239224D01*
X154907714Y-69421612D01*
X155028028Y-69587212D01*
X155028035Y-69587220D01*
X155172779Y-69731964D01*
X155172787Y-69731971D01*
X155205986Y-69756091D01*
X155338390Y-69852287D01*
X155387363Y-69877240D01*
X155444680Y-69928849D01*
X155468514Y-70002203D01*
X155452478Y-70077645D01*
X155400869Y-70134962D01*
X155387363Y-70142760D01*
X155338388Y-70167714D01*
X155172787Y-70288028D01*
X155172779Y-70288035D01*
X155028035Y-70432779D01*
X155028028Y-70432787D01*
X154907714Y-70598387D01*
X154814782Y-70780775D01*
X154814778Y-70780787D01*
X154764770Y-70934697D01*
X154751523Y-70975466D01*
X154719500Y-71177648D01*
X154719500Y-71382352D01*
X154751523Y-71584534D01*
X154814775Y-71779205D01*
X154814778Y-71779212D01*
X154814782Y-71779224D01*
X154907714Y-71961612D01*
X155028028Y-72127212D01*
X155028035Y-72127220D01*
X155172779Y-72271964D01*
X155172787Y-72271971D01*
X155262130Y-72336881D01*
X155338390Y-72392287D01*
X155387363Y-72417240D01*
X155444680Y-72468849D01*
X155468514Y-72542203D01*
X155452478Y-72617645D01*
X155400869Y-72674962D01*
X155387363Y-72682760D01*
X155338388Y-72707714D01*
X155172787Y-72828028D01*
X155172779Y-72828035D01*
X155028035Y-72972779D01*
X155028028Y-72972787D01*
X154907714Y-73138387D01*
X154814782Y-73320775D01*
X154814780Y-73320781D01*
X154751523Y-73515466D01*
X154719500Y-73717648D01*
X154719500Y-73922352D01*
X154749277Y-74110354D01*
X154751523Y-74124534D01*
X154814778Y-74319212D01*
X154814782Y-74319224D01*
X154907714Y-74501612D01*
X155028028Y-74667212D01*
X155028033Y-74667218D01*
X155028034Y-74667219D01*
X155172781Y-74811966D01*
X155224381Y-74849455D01*
X155224382Y-74849456D01*
X155272920Y-74909396D01*
X155284986Y-74985574D01*
X155257346Y-75057580D01*
X155224382Y-75090544D01*
X155172782Y-75128033D01*
X155172779Y-75128035D01*
X155028035Y-75272779D01*
X155028028Y-75272787D01*
X154907714Y-75438387D01*
X154814782Y-75620775D01*
X154814778Y-75620787D01*
X154753299Y-75810001D01*
X154751523Y-75815466D01*
X154719500Y-76017648D01*
X154719500Y-76222352D01*
X154751523Y-76424534D01*
X154814775Y-76619205D01*
X154814778Y-76619212D01*
X154814782Y-76619224D01*
X154907714Y-76801612D01*
X155028028Y-76967212D01*
X155028035Y-76967220D01*
X155172779Y-77111964D01*
X155172787Y-77111971D01*
X155253461Y-77170583D01*
X155338390Y-77232287D01*
X155387363Y-77257240D01*
X155444680Y-77308849D01*
X155468514Y-77382203D01*
X155452478Y-77457645D01*
X155400869Y-77514962D01*
X155387363Y-77522760D01*
X155338388Y-77547714D01*
X155172787Y-77668028D01*
X155172779Y-77668035D01*
X155028035Y-77812779D01*
X155028028Y-77812787D01*
X154907714Y-77978387D01*
X154814782Y-78160775D01*
X154814778Y-78160787D01*
X154763494Y-78318624D01*
X154751523Y-78355466D01*
X154719500Y-78557648D01*
X154719500Y-78762352D01*
X154737561Y-78876380D01*
X154751523Y-78964534D01*
X154814778Y-79159212D01*
X154814782Y-79159224D01*
X154907714Y-79341612D01*
X155028028Y-79507212D01*
X155028035Y-79507220D01*
X155176921Y-79656106D01*
X155175405Y-79657621D01*
X155213416Y-79712908D01*
X155219480Y-79789797D01*
X155186287Y-79859417D01*
X155122731Y-79903113D01*
X155116601Y-79904917D01*
X154977915Y-79956645D01*
X154977905Y-79956650D01*
X154862812Y-80042809D01*
X154862809Y-80042812D01*
X154776650Y-80157905D01*
X154776645Y-80157915D01*
X154726401Y-80292622D01*
X154720001Y-80352157D01*
X154720000Y-80352177D01*
X154720000Y-80950000D01*
X156131184Y-80950000D01*
X156115124Y-80966060D01*
X156064964Y-81052939D01*
X156039000Y-81149840D01*
X156039000Y-81250160D01*
X156064964Y-81347061D01*
X156115124Y-81433940D01*
X156131184Y-81450000D01*
X154720000Y-81450000D01*
X154720000Y-82047822D01*
X154720001Y-82047842D01*
X154726401Y-82107377D01*
X154776645Y-82242084D01*
X154776650Y-82242094D01*
X154862809Y-82357187D01*
X154862812Y-82357190D01*
X154977905Y-82443349D01*
X154977915Y-82443354D01*
X155121357Y-82496856D01*
X155120402Y-82499416D01*
X155175134Y-82528870D01*
X155215677Y-82594483D01*
X155217982Y-82671576D01*
X155181432Y-82739494D01*
X155176868Y-82743841D01*
X155176921Y-82743894D01*
X155028035Y-82892779D01*
X155028028Y-82892787D01*
X154907714Y-83058387D01*
X154814782Y-83240775D01*
X154814778Y-83240787D01*
X154764736Y-83394802D01*
X154751523Y-83435466D01*
X154719500Y-83637648D01*
X154719500Y-83842352D01*
X154751523Y-84044534D01*
X154814779Y-84239217D01*
X154814782Y-84239224D01*
X154907714Y-84421612D01*
X155028028Y-84587212D01*
X155028035Y-84587220D01*
X155172779Y-84731964D01*
X155172787Y-84731971D01*
X155262130Y-84796881D01*
X155338390Y-84852287D01*
X155376143Y-84871523D01*
X155387363Y-84877240D01*
X155444680Y-84928849D01*
X155468514Y-85002203D01*
X155452478Y-85077645D01*
X155400869Y-85134962D01*
X155387363Y-85142760D01*
X155338388Y-85167714D01*
X155172787Y-85288028D01*
X155172779Y-85288035D01*
X155028035Y-85432779D01*
X155028028Y-85432787D01*
X154907714Y-85598387D01*
X154814782Y-85780775D01*
X154814778Y-85780787D01*
X154775756Y-85900886D01*
X154751523Y-85975466D01*
X154719500Y-86177648D01*
X154719500Y-86382352D01*
X154751523Y-86584534D01*
X154770054Y-86641568D01*
X154814778Y-86779212D01*
X154814782Y-86779224D01*
X154907714Y-86961612D01*
X155028028Y-87127212D01*
X155028035Y-87127220D01*
X155172779Y-87271964D01*
X155172787Y-87271971D01*
X155229783Y-87313380D01*
X155338390Y-87392287D01*
X155370165Y-87408477D01*
X155387363Y-87417240D01*
X155444680Y-87468849D01*
X155468514Y-87542203D01*
X155452478Y-87617645D01*
X155400869Y-87674962D01*
X155387363Y-87682760D01*
X155338388Y-87707714D01*
X155172787Y-87828028D01*
X155172779Y-87828035D01*
X155028035Y-87972779D01*
X155028028Y-87972787D01*
X154907714Y-88138387D01*
X154814782Y-88320775D01*
X154814778Y-88320787D01*
X154780170Y-88427301D01*
X154751523Y-88515466D01*
X154719500Y-88717648D01*
X154719500Y-88922352D01*
X154729171Y-88983410D01*
X154751523Y-89124534D01*
X154814778Y-89319212D01*
X154814782Y-89319224D01*
X154907714Y-89501612D01*
X155028028Y-89667212D01*
X155028035Y-89667220D01*
X155172779Y-89811964D01*
X155172787Y-89811971D01*
X155338387Y-89932285D01*
X155338390Y-89932287D01*
X155505914Y-90017645D01*
X155520785Y-90025222D01*
X155526195Y-90027463D01*
X155525329Y-90029552D01*
X155581219Y-90065840D01*
X155616241Y-90134558D01*
X155619500Y-90165551D01*
X155619500Y-106186703D01*
X155599538Y-106261203D01*
X155575859Y-106292062D01*
X152599870Y-109268050D01*
X152533075Y-109306614D01*
X152455947Y-109306614D01*
X152389152Y-109268050D01*
X152361751Y-109230336D01*
X152267815Y-109045978D01*
X152138242Y-108867635D01*
X151982365Y-108711758D01*
X151982364Y-108711757D01*
X151982358Y-108711752D01*
X151870583Y-108630544D01*
X151822044Y-108570605D01*
X151809978Y-108494426D01*
X151837618Y-108422421D01*
X151870583Y-108389456D01*
X151982358Y-108308247D01*
X151982357Y-108308247D01*
X151982365Y-108308242D01*
X152138242Y-108152365D01*
X152267815Y-107974022D01*
X152367895Y-107777606D01*
X152410493Y-107646502D01*
X152436014Y-107567956D01*
X152436015Y-107567951D01*
X152470500Y-107350222D01*
X152470500Y-107129778D01*
X152436015Y-106912049D01*
X152436014Y-106912048D01*
X152436014Y-106912043D01*
X152396201Y-106789512D01*
X152367895Y-106702394D01*
X152271558Y-106513323D01*
X152267814Y-106505976D01*
X152267813Y-106505975D01*
X152221836Y-106442693D01*
X152138242Y-106327635D01*
X151982365Y-106171758D01*
X151982364Y-106171757D01*
X151982358Y-106171752D01*
X151870583Y-106090544D01*
X151822044Y-106030605D01*
X151809978Y-105954426D01*
X151837618Y-105882421D01*
X151870583Y-105849456D01*
X151948703Y-105792699D01*
X151982365Y-105768242D01*
X152138242Y-105612365D01*
X152267815Y-105434022D01*
X152367895Y-105237606D01*
X152416051Y-105089394D01*
X152436014Y-105027956D01*
X152440126Y-105001996D01*
X152470500Y-104810222D01*
X152470500Y-104589778D01*
X152436015Y-104372049D01*
X152436014Y-104372048D01*
X152436014Y-104372043D01*
X152387720Y-104223410D01*
X152367895Y-104162394D01*
X152267815Y-103965978D01*
X152138242Y-103787635D01*
X151982365Y-103631758D01*
X151982364Y-103631757D01*
X151982358Y-103631752D01*
X151870583Y-103550544D01*
X151822044Y-103490605D01*
X151809978Y-103414426D01*
X151837618Y-103342421D01*
X151870583Y-103309456D01*
X151932961Y-103264135D01*
X151982365Y-103228242D01*
X152138242Y-103072365D01*
X152267815Y-102894022D01*
X152367895Y-102697606D01*
X152416051Y-102549394D01*
X152436014Y-102487956D01*
X152440126Y-102461996D01*
X152470500Y-102270222D01*
X152470500Y-102049778D01*
X152436015Y-101832049D01*
X152436014Y-101832048D01*
X152436014Y-101832043D01*
X152387720Y-101683410D01*
X152367895Y-101622394D01*
X152267815Y-101425978D01*
X152138242Y-101247635D01*
X151982365Y-101091758D01*
X151982364Y-101091757D01*
X151982358Y-101091752D01*
X151870583Y-101010544D01*
X151822044Y-100950605D01*
X151809978Y-100874426D01*
X151837618Y-100802421D01*
X151870583Y-100769456D01*
X151982358Y-100688247D01*
X151982357Y-100688247D01*
X151982365Y-100688242D01*
X152138242Y-100532365D01*
X152267815Y-100354022D01*
X152367895Y-100157606D01*
X152409825Y-100028556D01*
X152436014Y-99947956D01*
X152440126Y-99921996D01*
X152470500Y-99730222D01*
X152470500Y-99509778D01*
X152436015Y-99292049D01*
X152436014Y-99292048D01*
X152436014Y-99292043D01*
X152387720Y-99143410D01*
X152367895Y-99082394D01*
X152267815Y-98885978D01*
X152138242Y-98707635D01*
X151982365Y-98551758D01*
X151982364Y-98551757D01*
X151982358Y-98551752D01*
X151870583Y-98470544D01*
X151822044Y-98410605D01*
X151809978Y-98334426D01*
X151837618Y-98262421D01*
X151870583Y-98229456D01*
X151968397Y-98158390D01*
X151982365Y-98148242D01*
X152138242Y-97992365D01*
X152267815Y-97814022D01*
X152367895Y-97617606D01*
X152409825Y-97488556D01*
X152436014Y-97407956D01*
X152440126Y-97381996D01*
X152470500Y-97190222D01*
X152470500Y-96969778D01*
X152436015Y-96752049D01*
X152436014Y-96752048D01*
X152436014Y-96752043D01*
X152376265Y-96568155D01*
X152367895Y-96542394D01*
X152267815Y-96345978D01*
X152138242Y-96167635D01*
X151982365Y-96011758D01*
X151982364Y-96011757D01*
X151982358Y-96011752D01*
X151870583Y-95930544D01*
X151822044Y-95870605D01*
X151809978Y-95794426D01*
X151837618Y-95722421D01*
X151870583Y-95689456D01*
X151968397Y-95618390D01*
X151982365Y-95608242D01*
X152138242Y-95452365D01*
X152267815Y-95274022D01*
X152367895Y-95077606D01*
X152420017Y-94917190D01*
X152436014Y-94867956D01*
X152440126Y-94841996D01*
X152470500Y-94650222D01*
X152470500Y-94429778D01*
X152436015Y-94212049D01*
X152436014Y-94212048D01*
X152436014Y-94212043D01*
X152370366Y-94010000D01*
X152367895Y-94002394D01*
X152267815Y-93805978D01*
X152138242Y-93627635D01*
X151982365Y-93471758D01*
X151982364Y-93471757D01*
X151982358Y-93471752D01*
X151870583Y-93390544D01*
X151822044Y-93330605D01*
X151809978Y-93254426D01*
X151837618Y-93182421D01*
X151870583Y-93149456D01*
X151982358Y-93068247D01*
X151982357Y-93068247D01*
X151982365Y-93068242D01*
X152138242Y-92912365D01*
X152267815Y-92734022D01*
X152367895Y-92537606D01*
X152409825Y-92408556D01*
X152436014Y-92327956D01*
X152440126Y-92301996D01*
X152470500Y-92110222D01*
X152470500Y-91889778D01*
X152436015Y-91672049D01*
X152436014Y-91672048D01*
X152436014Y-91672043D01*
X152387720Y-91523410D01*
X152367895Y-91462394D01*
X152267815Y-91265978D01*
X152138242Y-91087635D01*
X151982365Y-90931758D01*
X151890217Y-90864809D01*
X151804024Y-90802186D01*
X151804023Y-90802185D01*
X151607606Y-90702105D01*
X151397956Y-90633985D01*
X151276990Y-90614826D01*
X151180222Y-90599500D01*
X150959778Y-90599500D01*
X150872686Y-90613294D01*
X150742043Y-90633985D01*
X150532393Y-90702105D01*
X150335976Y-90802185D01*
X150335975Y-90802186D01*
X150157636Y-90931757D01*
X150157633Y-90931759D01*
X150001759Y-91087633D01*
X150001757Y-91087636D01*
X149872186Y-91265975D01*
X149872185Y-91265976D01*
X149772105Y-91462393D01*
X149703985Y-91672043D01*
X149696513Y-91719224D01*
X149669500Y-91889778D01*
X149669500Y-92110222D01*
X149673660Y-92136485D01*
X149703985Y-92327956D01*
X149772105Y-92537606D01*
X149872185Y-92734023D01*
X149872186Y-92734024D01*
X150001758Y-92912365D01*
X150157635Y-93068242D01*
X150254915Y-93138919D01*
X150269417Y-93149456D01*
X150317955Y-93209396D01*
X150330021Y-93285575D01*
X150302381Y-93357580D01*
X150269417Y-93390544D01*
X150157636Y-93471757D01*
X150157633Y-93471759D01*
X150001759Y-93627633D01*
X150001757Y-93627636D01*
X149872186Y-93805975D01*
X149872185Y-93805976D01*
X149772105Y-94002393D01*
X149703985Y-94212043D01*
X149680995Y-94357201D01*
X149669500Y-94429778D01*
X149669500Y-94650222D01*
X149673660Y-94676485D01*
X149703985Y-94867956D01*
X149772105Y-95077606D01*
X149872185Y-95274023D01*
X149872186Y-95274024D01*
X149893888Y-95303894D01*
X150001758Y-95452365D01*
X150157635Y-95608242D01*
X150254915Y-95678919D01*
X150269417Y-95689456D01*
X150317955Y-95749396D01*
X150330021Y-95825575D01*
X150302381Y-95897580D01*
X150269417Y-95930544D01*
X150157636Y-96011757D01*
X150157633Y-96011759D01*
X150001759Y-96167633D01*
X150001757Y-96167636D01*
X149872186Y-96345975D01*
X149872185Y-96345976D01*
X149772105Y-96542393D01*
X149703985Y-96752043D01*
X149685542Y-96868492D01*
X149669500Y-96969778D01*
X149669500Y-97190222D01*
X149673660Y-97216485D01*
X149703985Y-97407956D01*
X149772105Y-97617606D01*
X149872185Y-97814023D01*
X149872186Y-97814024D01*
X149936971Y-97903193D01*
X150001758Y-97992365D01*
X150157635Y-98148242D01*
X150171603Y-98158390D01*
X150269417Y-98229456D01*
X150317955Y-98289396D01*
X150330021Y-98365575D01*
X150302381Y-98437580D01*
X150269417Y-98470544D01*
X150157636Y-98551757D01*
X150157633Y-98551759D01*
X150001759Y-98707633D01*
X150001757Y-98707636D01*
X149872186Y-98885975D01*
X149872185Y-98885976D01*
X149772105Y-99082393D01*
X149703985Y-99292043D01*
X149696513Y-99339224D01*
X149669500Y-99509778D01*
X149669500Y-99730222D01*
X149677612Y-99781438D01*
X149703985Y-99947956D01*
X149772105Y-100157606D01*
X149872185Y-100354023D01*
X149872186Y-100354024D01*
X149936971Y-100443193D01*
X150001758Y-100532365D01*
X150157635Y-100688242D01*
X150211964Y-100727714D01*
X150269417Y-100769456D01*
X150317955Y-100829396D01*
X150330021Y-100905575D01*
X150302381Y-100977580D01*
X150269417Y-101010544D01*
X150157636Y-101091757D01*
X150157633Y-101091759D01*
X150001759Y-101247633D01*
X150001757Y-101247636D01*
X149872186Y-101425975D01*
X149872185Y-101425976D01*
X149772105Y-101622393D01*
X149703985Y-101832043D01*
X149680995Y-101977201D01*
X149669500Y-102049778D01*
X149669500Y-102270222D01*
X149673660Y-102296485D01*
X149703985Y-102487956D01*
X149772105Y-102697606D01*
X149872185Y-102894023D01*
X149872186Y-102894024D01*
X150001758Y-103072365D01*
X150157635Y-103228242D01*
X150211964Y-103267714D01*
X150269417Y-103309456D01*
X150317955Y-103369396D01*
X150330021Y-103445575D01*
X150302381Y-103517580D01*
X150269417Y-103550544D01*
X150157636Y-103631757D01*
X150157633Y-103631759D01*
X150001759Y-103787633D01*
X150001757Y-103787636D01*
X149872186Y-103965975D01*
X149872185Y-103965976D01*
X149772105Y-104162393D01*
X149703985Y-104372043D01*
X149680995Y-104517201D01*
X149669500Y-104589778D01*
X149669500Y-104810222D01*
X149673660Y-104836485D01*
X149703985Y-105027956D01*
X149772105Y-105237606D01*
X149872185Y-105434023D01*
X149872186Y-105434024D01*
X149931676Y-105515905D01*
X150001758Y-105612365D01*
X150157635Y-105768242D01*
X150211964Y-105807714D01*
X150269417Y-105849456D01*
X150317955Y-105909396D01*
X150330021Y-105985575D01*
X150302381Y-106057580D01*
X150269417Y-106090544D01*
X150157636Y-106171757D01*
X150157633Y-106171759D01*
X150001759Y-106327633D01*
X150001757Y-106327636D01*
X149872186Y-106505975D01*
X149872185Y-106505976D01*
X149772105Y-106702393D01*
X149703985Y-106912043D01*
X149686149Y-107024658D01*
X149669500Y-107129778D01*
X149669500Y-107350222D01*
X149677612Y-107401438D01*
X149703985Y-107567956D01*
X149772105Y-107777606D01*
X149872185Y-107974023D01*
X149872186Y-107974024D01*
X149914517Y-108032287D01*
X150001758Y-108152365D01*
X150157635Y-108308242D01*
X150225904Y-108357842D01*
X150269417Y-108389456D01*
X150317955Y-108449396D01*
X150330021Y-108525575D01*
X150302381Y-108597580D01*
X150269417Y-108630544D01*
X150157636Y-108711757D01*
X150157633Y-108711759D01*
X150001759Y-108867633D01*
X150001757Y-108867636D01*
X149872186Y-109045975D01*
X149872185Y-109045976D01*
X149772105Y-109242393D01*
X149703985Y-109452043D01*
X149686729Y-109561000D01*
X149669500Y-109669778D01*
X149669500Y-109890222D01*
X149673660Y-109916485D01*
X149703985Y-110107956D01*
X149772105Y-110317606D01*
X149872185Y-110514023D01*
X149872186Y-110514024D01*
X150001758Y-110692365D01*
X150157635Y-110848242D01*
X150335978Y-110977815D01*
X150520336Y-111071751D01*
X150577653Y-111123360D01*
X150601487Y-111196714D01*
X150585451Y-111272156D01*
X150558050Y-111309870D01*
X149712063Y-112155859D01*
X149645268Y-112194423D01*
X149606704Y-112199500D01*
X146251733Y-112199500D01*
X146177233Y-112179538D01*
X146122695Y-112125000D01*
X146102733Y-112050500D01*
X146118972Y-111982857D01*
X146190021Y-111843417D01*
X146253278Y-111648732D01*
X146285301Y-111446550D01*
X146285301Y-111241846D01*
X146253278Y-111039664D01*
X146190021Y-110844979D01*
X146097088Y-110662588D01*
X145989151Y-110514024D01*
X145976772Y-110496985D01*
X145976765Y-110496977D01*
X145832021Y-110352233D01*
X145832013Y-110352226D01*
X145666410Y-110231910D01*
X145617438Y-110206958D01*
X145560120Y-110155350D01*
X145536286Y-110081996D01*
X145552322Y-110006554D01*
X145603930Y-109949236D01*
X145617438Y-109941438D01*
X145666411Y-109916485D01*
X145832020Y-109796164D01*
X145976767Y-109651417D01*
X146097088Y-109485808D01*
X146190021Y-109303417D01*
X146253278Y-109108732D01*
X146285301Y-108906550D01*
X146285301Y-108701846D01*
X146253278Y-108499664D01*
X146190021Y-108304979D01*
X146097088Y-108122588D01*
X146044203Y-108049797D01*
X145976772Y-107956985D01*
X145976765Y-107956977D01*
X145832021Y-107812233D01*
X145832013Y-107812226D01*
X145666410Y-107691910D01*
X145617438Y-107666958D01*
X145560120Y-107615350D01*
X145536286Y-107541996D01*
X145552322Y-107466554D01*
X145603930Y-107409236D01*
X145617438Y-107401438D01*
X145666411Y-107376485D01*
X145832020Y-107256164D01*
X145976767Y-107111417D01*
X146097088Y-106945808D01*
X146190021Y-106763417D01*
X146253278Y-106568732D01*
X146285301Y-106366550D01*
X146285301Y-106161846D01*
X146253278Y-105959664D01*
X146190021Y-105764979D01*
X146097088Y-105582588D01*
X146097086Y-105582585D01*
X145976772Y-105416985D01*
X145976765Y-105416977D01*
X145832021Y-105272233D01*
X145832013Y-105272226D01*
X145666410Y-105151910D01*
X145617438Y-105126958D01*
X145560120Y-105075350D01*
X145536286Y-105001996D01*
X145552322Y-104926554D01*
X145603930Y-104869236D01*
X145617438Y-104861438D01*
X145666411Y-104836485D01*
X145832020Y-104716164D01*
X145976767Y-104571417D01*
X146097088Y-104405808D01*
X146190021Y-104223417D01*
X146253278Y-104028732D01*
X146285301Y-103826550D01*
X146285301Y-103621846D01*
X146253278Y-103419664D01*
X146190021Y-103224979D01*
X146097088Y-103042588D01*
X146097086Y-103042585D01*
X145976772Y-102876985D01*
X145976765Y-102876977D01*
X145832021Y-102732233D01*
X145832013Y-102732226D01*
X145666410Y-102611910D01*
X145617438Y-102586958D01*
X145560120Y-102535350D01*
X145536286Y-102461996D01*
X145552322Y-102386554D01*
X145603930Y-102329236D01*
X145617438Y-102321438D01*
X145666411Y-102296485D01*
X145832020Y-102176164D01*
X145976767Y-102031417D01*
X146097088Y-101865808D01*
X146190021Y-101683417D01*
X146253278Y-101488732D01*
X146285301Y-101286550D01*
X146285301Y-101081846D01*
X146253278Y-100879664D01*
X146190021Y-100684979D01*
X146097088Y-100502588D01*
X146092199Y-100495859D01*
X145976772Y-100336985D01*
X145976765Y-100336977D01*
X145832021Y-100192233D01*
X145832013Y-100192226D01*
X145666410Y-100071910D01*
X145617438Y-100046958D01*
X145560120Y-99995350D01*
X145536286Y-99921996D01*
X145552322Y-99846554D01*
X145603930Y-99789236D01*
X145617438Y-99781438D01*
X145645138Y-99767324D01*
X145666411Y-99756485D01*
X145832020Y-99636164D01*
X145976767Y-99491417D01*
X146097088Y-99325808D01*
X146190021Y-99143417D01*
X146253278Y-98948732D01*
X146285301Y-98746550D01*
X146285301Y-98541846D01*
X146253278Y-98339664D01*
X146190021Y-98144979D01*
X146097088Y-97962588D01*
X146097086Y-97962585D01*
X145976772Y-97796985D01*
X145976765Y-97796977D01*
X145832021Y-97652233D01*
X145832013Y-97652226D01*
X145666410Y-97531910D01*
X145617438Y-97506958D01*
X145560120Y-97455350D01*
X145536286Y-97381996D01*
X145552322Y-97306554D01*
X145603930Y-97249236D01*
X145617438Y-97241438D01*
X145666411Y-97216485D01*
X145832020Y-97096164D01*
X145976767Y-96951417D01*
X146097088Y-96785808D01*
X146190021Y-96603417D01*
X146253278Y-96408732D01*
X146285301Y-96206550D01*
X146285301Y-96001846D01*
X146253278Y-95799664D01*
X146190021Y-95604979D01*
X146097088Y-95422588D01*
X146097086Y-95422585D01*
X145976772Y-95256985D01*
X145976765Y-95256977D01*
X145832021Y-95112233D01*
X145832013Y-95112226D01*
X145666410Y-94991910D01*
X145617438Y-94966958D01*
X145560120Y-94915350D01*
X145536286Y-94841996D01*
X145552322Y-94766554D01*
X145603930Y-94709236D01*
X145617438Y-94701438D01*
X145666411Y-94676485D01*
X145832020Y-94556164D01*
X145976767Y-94411417D01*
X146097088Y-94245808D01*
X146190021Y-94063417D01*
X146253278Y-93868732D01*
X146285301Y-93666550D01*
X146285301Y-93461846D01*
X146253278Y-93259664D01*
X146190021Y-93064979D01*
X146097088Y-92882588D01*
X145989151Y-92734024D01*
X145976772Y-92716985D01*
X145976765Y-92716977D01*
X145832021Y-92572233D01*
X145832013Y-92572226D01*
X145666410Y-92451910D01*
X145617438Y-92426958D01*
X145560120Y-92375350D01*
X145536286Y-92301996D01*
X145552322Y-92226554D01*
X145603930Y-92169236D01*
X145617438Y-92161438D01*
X145666411Y-92136485D01*
X145832020Y-92016164D01*
X145976767Y-91871417D01*
X146097088Y-91705808D01*
X146190021Y-91523417D01*
X146253278Y-91328732D01*
X146285301Y-91126550D01*
X146285301Y-90921846D01*
X146253278Y-90719664D01*
X146190021Y-90524979D01*
X146097088Y-90342588D01*
X146097086Y-90342585D01*
X145976772Y-90176985D01*
X145976765Y-90176977D01*
X145832021Y-90032233D01*
X145832013Y-90032226D01*
X145666410Y-89911910D01*
X145617438Y-89886958D01*
X145560120Y-89835350D01*
X145536286Y-89761996D01*
X145552322Y-89686554D01*
X145603930Y-89629236D01*
X145617438Y-89621438D01*
X145666411Y-89596485D01*
X145832020Y-89476164D01*
X145976767Y-89331417D01*
X146097088Y-89165808D01*
X146190021Y-88983417D01*
X146253278Y-88788732D01*
X146285301Y-88586550D01*
X146285301Y-88381846D01*
X146253278Y-88179664D01*
X146190021Y-87984979D01*
X146097088Y-87802588D01*
X146097086Y-87802585D01*
X145976772Y-87636985D01*
X145976765Y-87636977D01*
X145832021Y-87492233D01*
X145832013Y-87492226D01*
X145666410Y-87371910D01*
X145617438Y-87346958D01*
X145560120Y-87295350D01*
X145536286Y-87221996D01*
X145552322Y-87146554D01*
X145603930Y-87089236D01*
X145617438Y-87081438D01*
X145666411Y-87056485D01*
X145832020Y-86936164D01*
X145976767Y-86791417D01*
X146097088Y-86625808D01*
X146190021Y-86443417D01*
X146253278Y-86248732D01*
X146285301Y-86046550D01*
X146285301Y-85841846D01*
X146253278Y-85639664D01*
X146190021Y-85444979D01*
X146097088Y-85262588D01*
X146028158Y-85167713D01*
X145976772Y-85096985D01*
X145976765Y-85096977D01*
X145832021Y-84952233D01*
X145832013Y-84952226D01*
X145666410Y-84831910D01*
X145617438Y-84806958D01*
X145560120Y-84755350D01*
X145536286Y-84681996D01*
X145552322Y-84606554D01*
X145603930Y-84549236D01*
X145617438Y-84541438D01*
X145666411Y-84516485D01*
X145832020Y-84396164D01*
X145976767Y-84251417D01*
X146097088Y-84085808D01*
X146190021Y-83903417D01*
X146253278Y-83708732D01*
X146285301Y-83506550D01*
X146285301Y-83301846D01*
X146253278Y-83099664D01*
X146190021Y-82904979D01*
X146097088Y-82722588D01*
X146097086Y-82722585D01*
X145976772Y-82556985D01*
X145976765Y-82556977D01*
X145832021Y-82412233D01*
X145832013Y-82412226D01*
X145666410Y-82291910D01*
X145617438Y-82266958D01*
X145560120Y-82215350D01*
X145536286Y-82141996D01*
X145552322Y-82066554D01*
X145603930Y-82009236D01*
X145617438Y-82001438D01*
X145663604Y-81977915D01*
X145666411Y-81976485D01*
X145832020Y-81856164D01*
X145976767Y-81711417D01*
X146097088Y-81545808D01*
X146190021Y-81363417D01*
X146253278Y-81168732D01*
X146285301Y-80966550D01*
X146285301Y-80761846D01*
X146253278Y-80559664D01*
X146190021Y-80364979D01*
X146097088Y-80182588D01*
X145995536Y-80042812D01*
X145976772Y-80016985D01*
X145976765Y-80016977D01*
X145832021Y-79872233D01*
X145832013Y-79872226D01*
X145666410Y-79751910D01*
X145616886Y-79726676D01*
X145559569Y-79675067D01*
X145535736Y-79601714D01*
X145551773Y-79526271D01*
X145603382Y-79468954D01*
X145616889Y-79461156D01*
X145666155Y-79436054D01*
X145831690Y-79315785D01*
X145976388Y-79171087D01*
X146096657Y-79005552D01*
X146189554Y-78823230D01*
X146189559Y-78823218D01*
X146252790Y-78628615D01*
X146261410Y-78574198D01*
X145417813Y-78574198D01*
X145450726Y-78517191D01*
X145484801Y-78390024D01*
X145484801Y-78258372D01*
X145450726Y-78131205D01*
X145417813Y-78074198D01*
X146261409Y-78074198D01*
X146252790Y-78019780D01*
X146189559Y-77825177D01*
X146189554Y-77825165D01*
X146096657Y-77642843D01*
X145976388Y-77477308D01*
X145831690Y-77332610D01*
X145666155Y-77212341D01*
X145616887Y-77187238D01*
X145559570Y-77135629D01*
X145535736Y-77062276D01*
X145551772Y-76986833D01*
X145603381Y-76929516D01*
X145616884Y-76921720D01*
X145666411Y-76896485D01*
X145832020Y-76776164D01*
X145976767Y-76631417D01*
X146097088Y-76465808D01*
X146190021Y-76283417D01*
X146253278Y-76088732D01*
X146285301Y-75886550D01*
X146285301Y-75681846D01*
X146285301Y-75677493D01*
X146305263Y-75602993D01*
X146328942Y-75572134D01*
X148928297Y-72972779D01*
X151644594Y-70256483D01*
X151647332Y-70252385D01*
X151732199Y-70125373D01*
X151792542Y-69979691D01*
X151812535Y-69879179D01*
X151823305Y-69825037D01*
X151823305Y-69667352D01*
X151823305Y-60360513D01*
X151843267Y-60286013D01*
X151866946Y-60255154D01*
X153272959Y-58849141D01*
X153339754Y-58810577D01*
X153378318Y-58805500D01*
X158805924Y-58805500D01*
X158880424Y-58825462D01*
G37*
%TD.AperFunction*%
%TA.AperFunction,Conductor*%
G36*
X127081807Y-89500462D02*
G01*
X127112666Y-89524141D01*
X128400660Y-90812135D01*
X128439224Y-90878930D01*
X128444301Y-90917494D01*
X128444301Y-90921846D01*
X128444301Y-91126550D01*
X128476324Y-91328732D01*
X128519753Y-91462394D01*
X128539579Y-91523410D01*
X128539583Y-91523422D01*
X128632515Y-91705810D01*
X128752829Y-91871410D01*
X128752836Y-91871418D01*
X128897580Y-92016162D01*
X128897588Y-92016169D01*
X128960969Y-92062217D01*
X129063191Y-92136485D01*
X129112164Y-92161438D01*
X129169481Y-92213047D01*
X129193315Y-92286401D01*
X129177279Y-92361843D01*
X129125670Y-92419160D01*
X129112164Y-92426958D01*
X129063189Y-92451912D01*
X128897588Y-92572226D01*
X128897580Y-92572233D01*
X128752836Y-92716977D01*
X128752829Y-92716985D01*
X128632515Y-92882585D01*
X128539583Y-93064973D01*
X128539579Y-93064985D01*
X128514588Y-93141901D01*
X128476324Y-93259664D01*
X128444301Y-93461846D01*
X128444301Y-93461850D01*
X128444301Y-93670901D01*
X128424339Y-93745401D01*
X128400660Y-93776260D01*
X126721062Y-95455859D01*
X126654267Y-95494423D01*
X126615703Y-95499500D01*
X125485204Y-95499500D01*
X125466303Y-95494435D01*
X125446737Y-95494449D01*
X125429724Y-95484634D01*
X125410704Y-95479538D01*
X125379916Y-95455930D01*
X125376778Y-95452796D01*
X125376767Y-95452781D01*
X125232020Y-95308034D01*
X125231290Y-95307503D01*
X125226541Y-95302761D01*
X125210045Y-95274234D01*
X125191381Y-95247083D01*
X125190913Y-95241147D01*
X125187932Y-95235992D01*
X125187909Y-95203039D01*
X125185321Y-95170193D01*
X125187884Y-95164818D01*
X125187880Y-95158864D01*
X125204334Y-95130319D01*
X125218518Y-95100575D01*
X125223425Y-95097201D01*
X125226399Y-95092043D01*
X125254925Y-95075547D01*
X125282077Y-95056883D01*
X125288208Y-95055078D01*
X125426885Y-95003354D01*
X125426895Y-95003349D01*
X125541988Y-94917190D01*
X125541991Y-94917187D01*
X125628150Y-94802094D01*
X125628155Y-94802084D01*
X125678399Y-94667377D01*
X125684799Y-94607842D01*
X125684801Y-94607822D01*
X125684801Y-94010000D01*
X124273617Y-94010000D01*
X124289677Y-93993940D01*
X124339837Y-93907061D01*
X124365801Y-93810160D01*
X124365801Y-93709840D01*
X124339837Y-93612939D01*
X124289677Y-93526060D01*
X124273617Y-93510000D01*
X125684801Y-93510000D01*
X125684801Y-92912177D01*
X125684799Y-92912157D01*
X125678399Y-92852622D01*
X125628155Y-92717915D01*
X125628150Y-92717905D01*
X125541991Y-92602812D01*
X125541988Y-92602809D01*
X125426895Y-92516650D01*
X125426885Y-92516645D01*
X125283444Y-92463144D01*
X125284397Y-92460588D01*
X125229645Y-92431109D01*
X125189115Y-92365488D01*
X125186824Y-92288394D01*
X125223388Y-92220484D01*
X125227932Y-92216158D01*
X125227880Y-92216106D01*
X125282548Y-92161438D01*
X125376767Y-92067219D01*
X125497088Y-91901610D01*
X125590021Y-91719219D01*
X125653278Y-91524534D01*
X125685301Y-91322352D01*
X125685301Y-91117648D01*
X125653278Y-90915466D01*
X125590021Y-90720781D01*
X125497088Y-90538390D01*
X125497086Y-90538387D01*
X125376772Y-90372787D01*
X125376765Y-90372779D01*
X125232021Y-90228035D01*
X125232013Y-90228028D01*
X125066410Y-90107712D01*
X125017438Y-90082760D01*
X124960120Y-90031152D01*
X124936286Y-89957798D01*
X124952322Y-89882356D01*
X125003930Y-89825038D01*
X125017438Y-89817240D01*
X125027793Y-89811964D01*
X125066411Y-89792287D01*
X125232020Y-89671966D01*
X125376767Y-89527219D01*
X125376767Y-89527218D01*
X125379845Y-89524141D01*
X125446640Y-89485577D01*
X125485204Y-89480500D01*
X127007307Y-89480500D01*
X127081807Y-89500462D01*
G37*
%TD.AperFunction*%
%TA.AperFunction,Conductor*%
G36*
X128400660Y-80685623D02*
G01*
X128439224Y-80752418D01*
X128444301Y-80790982D01*
X128444301Y-80966550D01*
X128476324Y-81168732D01*
X128519300Y-81301000D01*
X128539579Y-81363410D01*
X128539583Y-81363422D01*
X128632515Y-81545810D01*
X128752829Y-81711410D01*
X128752836Y-81711418D01*
X128897580Y-81856162D01*
X128897588Y-81856169D01*
X129063188Y-81976483D01*
X129063191Y-81976485D01*
X129112714Y-82001718D01*
X129170031Y-82053327D01*
X129193865Y-82126680D01*
X129177829Y-82202123D01*
X129126220Y-82259440D01*
X129112715Y-82267237D01*
X129063449Y-82292339D01*
X128897911Y-82412610D01*
X128753213Y-82557308D01*
X128632944Y-82722843D01*
X128540047Y-82905165D01*
X128540042Y-82905177D01*
X128476811Y-83099780D01*
X128468192Y-83154198D01*
X129311789Y-83154198D01*
X129278876Y-83211205D01*
X129244801Y-83338372D01*
X129244801Y-83470024D01*
X129278876Y-83597191D01*
X129311789Y-83654198D01*
X128468192Y-83654198D01*
X128476811Y-83708615D01*
X128540042Y-83903218D01*
X128540047Y-83903230D01*
X128632944Y-84085552D01*
X128753213Y-84251087D01*
X128897911Y-84395785D01*
X129063448Y-84516056D01*
X129112713Y-84541157D01*
X129170030Y-84592765D01*
X129193865Y-84666118D01*
X129177829Y-84741561D01*
X129126221Y-84798878D01*
X129112716Y-84806676D01*
X129063189Y-84831912D01*
X128897588Y-84952226D01*
X128897580Y-84952233D01*
X128752836Y-85096977D01*
X128752829Y-85096985D01*
X128632515Y-85262585D01*
X128539583Y-85444973D01*
X128539579Y-85444985D01*
X128476323Y-85639665D01*
X128476321Y-85639672D01*
X128461364Y-85734110D01*
X128429993Y-85804569D01*
X128367595Y-85849904D01*
X128290889Y-85857965D01*
X128220430Y-85826594D01*
X128208840Y-85816159D01*
X127910895Y-85518214D01*
X127910892Y-85518211D01*
X127779782Y-85430606D01*
X127779781Y-85430605D01*
X127779779Y-85430604D01*
X127634101Y-85370263D01*
X127634097Y-85370262D01*
X127479445Y-85339500D01*
X125485204Y-85339500D01*
X125410704Y-85319538D01*
X125379845Y-85295859D01*
X125232021Y-85148035D01*
X125232013Y-85148028D01*
X125066413Y-85027714D01*
X124884025Y-84934782D01*
X124884021Y-84934780D01*
X124884020Y-84934780D01*
X124689335Y-84871523D01*
X124487153Y-84839500D01*
X124487148Y-84839500D01*
X124395784Y-84839500D01*
X124321284Y-84819538D01*
X124266746Y-84765000D01*
X124246784Y-84690500D01*
X124266746Y-84616000D01*
X124290425Y-84585141D01*
X126203990Y-82671576D01*
X128189942Y-80685622D01*
X128256737Y-80647059D01*
X128333865Y-80647059D01*
X128400660Y-80685623D01*
G37*
%TD.AperFunction*%
%TA.AperFunction,Conductor*%
G36*
X170094801Y-79480462D02*
G01*
X170149339Y-79535000D01*
X170169301Y-79609500D01*
X170169301Y-79690485D01*
X170202555Y-79900441D01*
X170268244Y-80102610D01*
X170308993Y-80182585D01*
X170364751Y-80292015D01*
X170364751Y-80292016D01*
X170408446Y-80352157D01*
X170489697Y-80463990D01*
X170640009Y-80614302D01*
X170738175Y-80685623D01*
X170776756Y-80713654D01*
X170825294Y-80773594D01*
X170837360Y-80849772D01*
X170809720Y-80921778D01*
X170776756Y-80954742D01*
X170640010Y-81054093D01*
X170640007Y-81054095D01*
X170489698Y-81204404D01*
X170489696Y-81204407D01*
X170364751Y-81376379D01*
X170364751Y-81376380D01*
X170268247Y-81565780D01*
X170268242Y-81565792D01*
X170220928Y-81711410D01*
X170202555Y-81767955D01*
X170169301Y-81977911D01*
X170169301Y-82190485D01*
X170172067Y-82207950D01*
X170189847Y-82320213D01*
X170181784Y-82396918D01*
X170148040Y-82448879D01*
X168515545Y-84081374D01*
X168448750Y-84119938D01*
X168371622Y-84119938D01*
X168304827Y-84081374D01*
X168266263Y-84014579D01*
X168263021Y-83952707D01*
X168280500Y-83842352D01*
X168280500Y-83637648D01*
X168248477Y-83435466D01*
X168185220Y-83240781D01*
X168092287Y-83058390D01*
X168023702Y-82963990D01*
X167971971Y-82892787D01*
X167971964Y-82892779D01*
X167823079Y-82743894D01*
X167824592Y-82742380D01*
X167786580Y-82687083D01*
X167780520Y-82610193D01*
X167813717Y-82540575D01*
X167877276Y-82496883D01*
X167883407Y-82495078D01*
X168022084Y-82443354D01*
X168022094Y-82443349D01*
X168137187Y-82357190D01*
X168137190Y-82357187D01*
X168223349Y-82242094D01*
X168223354Y-82242084D01*
X168273598Y-82107377D01*
X168279998Y-82047842D01*
X168280000Y-82047822D01*
X168280000Y-81450000D01*
X166868816Y-81450000D01*
X166884876Y-81433940D01*
X166935036Y-81347061D01*
X166961000Y-81250160D01*
X166961000Y-81149840D01*
X166935036Y-81052939D01*
X166884876Y-80966060D01*
X166868816Y-80950000D01*
X168280000Y-80950000D01*
X168280000Y-80352177D01*
X168279998Y-80352157D01*
X168273598Y-80292622D01*
X168223354Y-80157915D01*
X168223349Y-80157905D01*
X168137190Y-80042812D01*
X168137187Y-80042809D01*
X168022094Y-79956650D01*
X168022084Y-79956645D01*
X167878643Y-79903144D01*
X167879596Y-79900588D01*
X167824844Y-79871109D01*
X167784314Y-79805488D01*
X167782023Y-79728394D01*
X167818587Y-79660484D01*
X167823131Y-79656158D01*
X167823079Y-79656106D01*
X167975044Y-79504141D01*
X168041839Y-79465577D01*
X168080403Y-79460500D01*
X170020301Y-79460500D01*
X170094801Y-79480462D01*
G37*
%TD.AperFunction*%
%TA.AperFunction,Conductor*%
G36*
X158343500Y-65722758D02*
G01*
X158374359Y-65746437D01*
X161881857Y-69253935D01*
X161920421Y-69320730D01*
X161925498Y-69359294D01*
X161925498Y-75452389D01*
X161905536Y-75526889D01*
X161850998Y-75581427D01*
X161776498Y-75601389D01*
X161701998Y-75581427D01*
X161671139Y-75557748D01*
X158056777Y-71943386D01*
X158018213Y-71876591D01*
X158018213Y-71799463D01*
X158024487Y-71780986D01*
X158025210Y-71779237D01*
X158025220Y-71779219D01*
X158088477Y-71584534D01*
X158120500Y-71382352D01*
X158120500Y-71177648D01*
X158088477Y-70975466D01*
X158025220Y-70780781D01*
X157932287Y-70598390D01*
X157932285Y-70598387D01*
X157811971Y-70432787D01*
X157811964Y-70432779D01*
X157667220Y-70288035D01*
X157667212Y-70288028D01*
X157501609Y-70167712D01*
X157452637Y-70142760D01*
X157395319Y-70091152D01*
X157371485Y-70017798D01*
X157387521Y-69942356D01*
X157439129Y-69885038D01*
X157452637Y-69877240D01*
X157474891Y-69865901D01*
X157501610Y-69852287D01*
X157667219Y-69731966D01*
X157811966Y-69587219D01*
X157932287Y-69421610D01*
X158025220Y-69239219D01*
X158088477Y-69044534D01*
X158120500Y-68842352D01*
X158120500Y-68637648D01*
X158088477Y-68435466D01*
X158025220Y-68240781D01*
X157932287Y-68058390D01*
X157889292Y-67999212D01*
X157811971Y-67892787D01*
X157811964Y-67892779D01*
X157663079Y-67743894D01*
X157664592Y-67742380D01*
X157626580Y-67687083D01*
X157620520Y-67610193D01*
X157653717Y-67540575D01*
X157717276Y-67496883D01*
X157723407Y-67495078D01*
X157862084Y-67443354D01*
X157862094Y-67443349D01*
X157977187Y-67357190D01*
X157977190Y-67357187D01*
X158063349Y-67242094D01*
X158063354Y-67242084D01*
X158113598Y-67107377D01*
X158119998Y-67047842D01*
X158120000Y-67047822D01*
X158120000Y-66450000D01*
X156708816Y-66450000D01*
X156724876Y-66433940D01*
X156775036Y-66347061D01*
X156801000Y-66250160D01*
X156801000Y-66149840D01*
X156775036Y-66052939D01*
X156724876Y-65966060D01*
X156708816Y-65950000D01*
X158120000Y-65950000D01*
X158120000Y-65851796D01*
X158139962Y-65777296D01*
X158194500Y-65722758D01*
X158269000Y-65702796D01*
X158343500Y-65722758D01*
G37*
%TD.AperFunction*%
%TA.AperFunction,Conductor*%
G36*
X170094801Y-64480462D02*
G01*
X170149339Y-64535000D01*
X170169301Y-64609500D01*
X170169301Y-64690485D01*
X170202555Y-64900441D01*
X170268244Y-65102610D01*
X170360086Y-65282861D01*
X170364751Y-65292015D01*
X170364751Y-65292016D01*
X170393464Y-65331536D01*
X170489697Y-65463990D01*
X170640009Y-65614302D01*
X170748775Y-65693325D01*
X170776756Y-65713654D01*
X170825294Y-65773594D01*
X170837360Y-65849772D01*
X170809720Y-65921778D01*
X170776756Y-65954742D01*
X170640010Y-66054093D01*
X170640007Y-66054095D01*
X170489698Y-66204404D01*
X170489691Y-66204412D01*
X170364748Y-66376384D01*
X170361692Y-66381372D01*
X170359660Y-66380127D01*
X170317192Y-66427877D01*
X170308119Y-66433940D01*
X170265597Y-66462353D01*
X170265515Y-66462407D01*
X168431191Y-68296729D01*
X168364396Y-68335293D01*
X168287268Y-68335293D01*
X168220473Y-68296729D01*
X168189095Y-68245505D01*
X168187457Y-68246184D01*
X168185221Y-68240786D01*
X168185220Y-68240781D01*
X168092287Y-68058390D01*
X168049292Y-67999212D01*
X167971971Y-67892787D01*
X167971964Y-67892779D01*
X167823079Y-67743894D01*
X167824592Y-67742380D01*
X167786580Y-67687083D01*
X167780520Y-67610193D01*
X167813717Y-67540575D01*
X167877276Y-67496883D01*
X167883407Y-67495078D01*
X168022084Y-67443354D01*
X168022094Y-67443349D01*
X168137187Y-67357190D01*
X168137190Y-67357187D01*
X168223349Y-67242094D01*
X168223354Y-67242084D01*
X168273598Y-67107377D01*
X168279998Y-67047842D01*
X168280000Y-67047822D01*
X168280000Y-66450000D01*
X166868816Y-66450000D01*
X166884876Y-66433940D01*
X166935036Y-66347061D01*
X166961000Y-66250160D01*
X166961000Y-66149840D01*
X166935036Y-66052939D01*
X166884876Y-65966060D01*
X166868816Y-65950000D01*
X168280000Y-65950000D01*
X168280000Y-65352177D01*
X168279998Y-65352157D01*
X168273598Y-65292622D01*
X168223354Y-65157915D01*
X168223349Y-65157905D01*
X168137190Y-65042812D01*
X168137187Y-65042809D01*
X168022094Y-64956650D01*
X168022084Y-64956645D01*
X167878643Y-64903144D01*
X167879318Y-64901332D01*
X167856881Y-64888358D01*
X167824844Y-64871109D01*
X167823618Y-64869124D01*
X167821598Y-64867956D01*
X167803423Y-64836427D01*
X167784314Y-64805488D01*
X167784244Y-64803157D01*
X167783079Y-64801135D01*
X167783103Y-64764754D01*
X167782023Y-64728394D01*
X167783129Y-64726339D01*
X167783131Y-64724007D01*
X167791616Y-64710576D01*
X167818587Y-64660484D01*
X167821740Y-64657238D01*
X167826485Y-64652498D01*
X167827219Y-64651966D01*
X167971966Y-64507219D01*
X167971977Y-64507203D01*
X167975115Y-64504070D01*
X168008528Y-64484808D01*
X168041839Y-64465577D01*
X168041906Y-64465568D01*
X168041936Y-64465551D01*
X168042035Y-64465551D01*
X168080403Y-64460500D01*
X170020301Y-64460500D01*
X170094801Y-64480462D01*
G37*
%TD.AperFunction*%
%TD*%
M02*
