%TF.GenerationSoftware,KiCad,Pcbnew,9.0.4*%
%TF.CreationDate,2025-10-04T12:13:03+02:00*%
%TF.ProjectId,Chessboard,43686573-7362-46f6-9172-642e6b696361,rev?*%
%TF.SameCoordinates,Original*%
%TF.FileFunction,Legend,Top*%
%TF.FilePolarity,Positive*%
%FSLAX46Y46*%
G04 Gerber Fmt 4.6, Leading zero omitted, Abs format (unit mm)*
G04 Created by KiCad (PCBNEW 9.0.4) date 2025-10-04 12:13:03*
%MOMM*%
%LPD*%
G01*
G04 APERTURE LIST*
%ADD10C,0.150000*%
%ADD11C,0.120000*%
%ADD12C,0.100000*%
%ADD13C,1.800000*%
G04 APERTURE END LIST*
D10*
X186238095Y-89454819D02*
X186238095Y-90264342D01*
X186238095Y-90264342D02*
X186285714Y-90359580D01*
X186285714Y-90359580D02*
X186333333Y-90407200D01*
X186333333Y-90407200D02*
X186428571Y-90454819D01*
X186428571Y-90454819D02*
X186619047Y-90454819D01*
X186619047Y-90454819D02*
X186714285Y-90407200D01*
X186714285Y-90407200D02*
X186761904Y-90359580D01*
X186761904Y-90359580D02*
X186809523Y-90264342D01*
X186809523Y-90264342D02*
X186809523Y-89454819D01*
X187714285Y-89788152D02*
X187714285Y-90454819D01*
X187476190Y-89407200D02*
X187238095Y-90121485D01*
X187238095Y-90121485D02*
X187857142Y-90121485D01*
X162665714Y-94649104D02*
X163141904Y-94649104D01*
X162570476Y-94934819D02*
X162903809Y-93934819D01*
X162903809Y-93934819D02*
X163237142Y-94934819D01*
X163522857Y-94030057D02*
X163570476Y-93982438D01*
X163570476Y-93982438D02*
X163665714Y-93934819D01*
X163665714Y-93934819D02*
X163903809Y-93934819D01*
X163903809Y-93934819D02*
X163999047Y-93982438D01*
X163999047Y-93982438D02*
X164046666Y-94030057D01*
X164046666Y-94030057D02*
X164094285Y-94125295D01*
X164094285Y-94125295D02*
X164094285Y-94220533D01*
X164094285Y-94220533D02*
X164046666Y-94363390D01*
X164046666Y-94363390D02*
X163475238Y-94934819D01*
X163475238Y-94934819D02*
X164094285Y-94934819D01*
X162118095Y-134574819D02*
X162118095Y-135384342D01*
X162118095Y-135384342D02*
X162165714Y-135479580D01*
X162165714Y-135479580D02*
X162213333Y-135527200D01*
X162213333Y-135527200D02*
X162308571Y-135574819D01*
X162308571Y-135574819D02*
X162499047Y-135574819D01*
X162499047Y-135574819D02*
X162594285Y-135527200D01*
X162594285Y-135527200D02*
X162641904Y-135479580D01*
X162641904Y-135479580D02*
X162689523Y-135384342D01*
X162689523Y-135384342D02*
X162689523Y-134574819D01*
X163118095Y-135527200D02*
X163260952Y-135574819D01*
X163260952Y-135574819D02*
X163499047Y-135574819D01*
X163499047Y-135574819D02*
X163594285Y-135527200D01*
X163594285Y-135527200D02*
X163641904Y-135479580D01*
X163641904Y-135479580D02*
X163689523Y-135384342D01*
X163689523Y-135384342D02*
X163689523Y-135289104D01*
X163689523Y-135289104D02*
X163641904Y-135193866D01*
X163641904Y-135193866D02*
X163594285Y-135146247D01*
X163594285Y-135146247D02*
X163499047Y-135098628D01*
X163499047Y-135098628D02*
X163308571Y-135051009D01*
X163308571Y-135051009D02*
X163213333Y-135003390D01*
X163213333Y-135003390D02*
X163165714Y-134955771D01*
X163165714Y-134955771D02*
X163118095Y-134860533D01*
X163118095Y-134860533D02*
X163118095Y-134765295D01*
X163118095Y-134765295D02*
X163165714Y-134670057D01*
X163165714Y-134670057D02*
X163213333Y-134622438D01*
X163213333Y-134622438D02*
X163308571Y-134574819D01*
X163308571Y-134574819D02*
X163546666Y-134574819D01*
X163546666Y-134574819D02*
X163689523Y-134622438D01*
X164451428Y-135051009D02*
X164594285Y-135098628D01*
X164594285Y-135098628D02*
X164641904Y-135146247D01*
X164641904Y-135146247D02*
X164689523Y-135241485D01*
X164689523Y-135241485D02*
X164689523Y-135384342D01*
X164689523Y-135384342D02*
X164641904Y-135479580D01*
X164641904Y-135479580D02*
X164594285Y-135527200D01*
X164594285Y-135527200D02*
X164499047Y-135574819D01*
X164499047Y-135574819D02*
X164118095Y-135574819D01*
X164118095Y-135574819D02*
X164118095Y-134574819D01*
X164118095Y-134574819D02*
X164451428Y-134574819D01*
X164451428Y-134574819D02*
X164546666Y-134622438D01*
X164546666Y-134622438D02*
X164594285Y-134670057D01*
X164594285Y-134670057D02*
X164641904Y-134765295D01*
X164641904Y-134765295D02*
X164641904Y-134860533D01*
X164641904Y-134860533D02*
X164594285Y-134955771D01*
X164594285Y-134955771D02*
X164546666Y-135003390D01*
X164546666Y-135003390D02*
X164451428Y-135051009D01*
X164451428Y-135051009D02*
X164118095Y-135051009D01*
X186318095Y-105154819D02*
X186318095Y-105964342D01*
X186318095Y-105964342D02*
X186365714Y-106059580D01*
X186365714Y-106059580D02*
X186413333Y-106107200D01*
X186413333Y-106107200D02*
X186508571Y-106154819D01*
X186508571Y-106154819D02*
X186699047Y-106154819D01*
X186699047Y-106154819D02*
X186794285Y-106107200D01*
X186794285Y-106107200D02*
X186841904Y-106059580D01*
X186841904Y-106059580D02*
X186889523Y-105964342D01*
X186889523Y-105964342D02*
X186889523Y-105154819D01*
X187889523Y-106154819D02*
X187318095Y-106154819D01*
X187603809Y-106154819D02*
X187603809Y-105154819D01*
X187603809Y-105154819D02*
X187508571Y-105297676D01*
X187508571Y-105297676D02*
X187413333Y-105392914D01*
X187413333Y-105392914D02*
X187318095Y-105440533D01*
X151753333Y-76454819D02*
X151420000Y-75978628D01*
X151181905Y-76454819D02*
X151181905Y-75454819D01*
X151181905Y-75454819D02*
X151562857Y-75454819D01*
X151562857Y-75454819D02*
X151658095Y-75502438D01*
X151658095Y-75502438D02*
X151705714Y-75550057D01*
X151705714Y-75550057D02*
X151753333Y-75645295D01*
X151753333Y-75645295D02*
X151753333Y-75788152D01*
X151753333Y-75788152D02*
X151705714Y-75883390D01*
X151705714Y-75883390D02*
X151658095Y-75931009D01*
X151658095Y-75931009D02*
X151562857Y-75978628D01*
X151562857Y-75978628D02*
X151181905Y-75978628D01*
X152658095Y-75454819D02*
X152181905Y-75454819D01*
X152181905Y-75454819D02*
X152134286Y-75931009D01*
X152134286Y-75931009D02*
X152181905Y-75883390D01*
X152181905Y-75883390D02*
X152277143Y-75835771D01*
X152277143Y-75835771D02*
X152515238Y-75835771D01*
X152515238Y-75835771D02*
X152610476Y-75883390D01*
X152610476Y-75883390D02*
X152658095Y-75931009D01*
X152658095Y-75931009D02*
X152705714Y-76026247D01*
X152705714Y-76026247D02*
X152705714Y-76264342D01*
X152705714Y-76264342D02*
X152658095Y-76359580D01*
X152658095Y-76359580D02*
X152610476Y-76407200D01*
X152610476Y-76407200D02*
X152515238Y-76454819D01*
X152515238Y-76454819D02*
X152277143Y-76454819D01*
X152277143Y-76454819D02*
X152181905Y-76407200D01*
X152181905Y-76407200D02*
X152134286Y-76359580D01*
X167110057Y-89865238D02*
X167062438Y-89960476D01*
X167062438Y-89960476D02*
X166967200Y-90055714D01*
X166967200Y-90055714D02*
X166824342Y-90198571D01*
X166824342Y-90198571D02*
X166776723Y-90293809D01*
X166776723Y-90293809D02*
X166776723Y-90389047D01*
X167014819Y-90341428D02*
X166967200Y-90436666D01*
X166967200Y-90436666D02*
X166871961Y-90531904D01*
X166871961Y-90531904D02*
X166681485Y-90579523D01*
X166681485Y-90579523D02*
X166348152Y-90579523D01*
X166348152Y-90579523D02*
X166157676Y-90531904D01*
X166157676Y-90531904D02*
X166062438Y-90436666D01*
X166062438Y-90436666D02*
X166014819Y-90341428D01*
X166014819Y-90341428D02*
X166014819Y-90150952D01*
X166014819Y-90150952D02*
X166062438Y-90055714D01*
X166062438Y-90055714D02*
X166157676Y-89960476D01*
X166157676Y-89960476D02*
X166348152Y-89912857D01*
X166348152Y-89912857D02*
X166681485Y-89912857D01*
X166681485Y-89912857D02*
X166871961Y-89960476D01*
X166871961Y-89960476D02*
X166967200Y-90055714D01*
X166967200Y-90055714D02*
X167014819Y-90150952D01*
X167014819Y-90150952D02*
X167014819Y-90341428D01*
X167014819Y-88960476D02*
X167014819Y-89531904D01*
X167014819Y-89246190D02*
X166014819Y-89246190D01*
X166014819Y-89246190D02*
X166157676Y-89341428D01*
X166157676Y-89341428D02*
X166252914Y-89436666D01*
X166252914Y-89436666D02*
X166300533Y-89531904D01*
X172610057Y-65865238D02*
X172562438Y-65960476D01*
X172562438Y-65960476D02*
X172467200Y-66055714D01*
X172467200Y-66055714D02*
X172324342Y-66198571D01*
X172324342Y-66198571D02*
X172276723Y-66293809D01*
X172276723Y-66293809D02*
X172276723Y-66389047D01*
X172514819Y-66341428D02*
X172467200Y-66436666D01*
X172467200Y-66436666D02*
X172371961Y-66531904D01*
X172371961Y-66531904D02*
X172181485Y-66579523D01*
X172181485Y-66579523D02*
X171848152Y-66579523D01*
X171848152Y-66579523D02*
X171657676Y-66531904D01*
X171657676Y-66531904D02*
X171562438Y-66436666D01*
X171562438Y-66436666D02*
X171514819Y-66341428D01*
X171514819Y-66341428D02*
X171514819Y-66150952D01*
X171514819Y-66150952D02*
X171562438Y-66055714D01*
X171562438Y-66055714D02*
X171657676Y-65960476D01*
X171657676Y-65960476D02*
X171848152Y-65912857D01*
X171848152Y-65912857D02*
X172181485Y-65912857D01*
X172181485Y-65912857D02*
X172371961Y-65960476D01*
X172371961Y-65960476D02*
X172467200Y-66055714D01*
X172467200Y-66055714D02*
X172514819Y-66150952D01*
X172514819Y-66150952D02*
X172514819Y-66341428D01*
X171943390Y-65341428D02*
X171895771Y-65436666D01*
X171895771Y-65436666D02*
X171848152Y-65484285D01*
X171848152Y-65484285D02*
X171752914Y-65531904D01*
X171752914Y-65531904D02*
X171705295Y-65531904D01*
X171705295Y-65531904D02*
X171610057Y-65484285D01*
X171610057Y-65484285D02*
X171562438Y-65436666D01*
X171562438Y-65436666D02*
X171514819Y-65341428D01*
X171514819Y-65341428D02*
X171514819Y-65150952D01*
X171514819Y-65150952D02*
X171562438Y-65055714D01*
X171562438Y-65055714D02*
X171610057Y-65008095D01*
X171610057Y-65008095D02*
X171705295Y-64960476D01*
X171705295Y-64960476D02*
X171752914Y-64960476D01*
X171752914Y-64960476D02*
X171848152Y-65008095D01*
X171848152Y-65008095D02*
X171895771Y-65055714D01*
X171895771Y-65055714D02*
X171943390Y-65150952D01*
X171943390Y-65150952D02*
X171943390Y-65341428D01*
X171943390Y-65341428D02*
X171991009Y-65436666D01*
X171991009Y-65436666D02*
X172038628Y-65484285D01*
X172038628Y-65484285D02*
X172133866Y-65531904D01*
X172133866Y-65531904D02*
X172324342Y-65531904D01*
X172324342Y-65531904D02*
X172419580Y-65484285D01*
X172419580Y-65484285D02*
X172467200Y-65436666D01*
X172467200Y-65436666D02*
X172514819Y-65341428D01*
X172514819Y-65341428D02*
X172514819Y-65150952D01*
X172514819Y-65150952D02*
X172467200Y-65055714D01*
X172467200Y-65055714D02*
X172419580Y-65008095D01*
X172419580Y-65008095D02*
X172324342Y-64960476D01*
X172324342Y-64960476D02*
X172133866Y-64960476D01*
X172133866Y-64960476D02*
X172038628Y-65008095D01*
X172038628Y-65008095D02*
X171991009Y-65055714D01*
X171991009Y-65055714D02*
X171943390Y-65150952D01*
X151753333Y-83454819D02*
X151420000Y-82978628D01*
X151181905Y-83454819D02*
X151181905Y-82454819D01*
X151181905Y-82454819D02*
X151562857Y-82454819D01*
X151562857Y-82454819D02*
X151658095Y-82502438D01*
X151658095Y-82502438D02*
X151705714Y-82550057D01*
X151705714Y-82550057D02*
X151753333Y-82645295D01*
X151753333Y-82645295D02*
X151753333Y-82788152D01*
X151753333Y-82788152D02*
X151705714Y-82883390D01*
X151705714Y-82883390D02*
X151658095Y-82931009D01*
X151658095Y-82931009D02*
X151562857Y-82978628D01*
X151562857Y-82978628D02*
X151181905Y-82978628D01*
X152086667Y-82454819D02*
X152705714Y-82454819D01*
X152705714Y-82454819D02*
X152372381Y-82835771D01*
X152372381Y-82835771D02*
X152515238Y-82835771D01*
X152515238Y-82835771D02*
X152610476Y-82883390D01*
X152610476Y-82883390D02*
X152658095Y-82931009D01*
X152658095Y-82931009D02*
X152705714Y-83026247D01*
X152705714Y-83026247D02*
X152705714Y-83264342D01*
X152705714Y-83264342D02*
X152658095Y-83359580D01*
X152658095Y-83359580D02*
X152610476Y-83407200D01*
X152610476Y-83407200D02*
X152515238Y-83454819D01*
X152515238Y-83454819D02*
X152229524Y-83454819D01*
X152229524Y-83454819D02*
X152134286Y-83407200D01*
X152134286Y-83407200D02*
X152086667Y-83359580D01*
X151753333Y-65954819D02*
X151420000Y-65478628D01*
X151181905Y-65954819D02*
X151181905Y-64954819D01*
X151181905Y-64954819D02*
X151562857Y-64954819D01*
X151562857Y-64954819D02*
X151658095Y-65002438D01*
X151658095Y-65002438D02*
X151705714Y-65050057D01*
X151705714Y-65050057D02*
X151753333Y-65145295D01*
X151753333Y-65145295D02*
X151753333Y-65288152D01*
X151753333Y-65288152D02*
X151705714Y-65383390D01*
X151705714Y-65383390D02*
X151658095Y-65431009D01*
X151658095Y-65431009D02*
X151562857Y-65478628D01*
X151562857Y-65478628D02*
X151181905Y-65478628D01*
X152324762Y-65383390D02*
X152229524Y-65335771D01*
X152229524Y-65335771D02*
X152181905Y-65288152D01*
X152181905Y-65288152D02*
X152134286Y-65192914D01*
X152134286Y-65192914D02*
X152134286Y-65145295D01*
X152134286Y-65145295D02*
X152181905Y-65050057D01*
X152181905Y-65050057D02*
X152229524Y-65002438D01*
X152229524Y-65002438D02*
X152324762Y-64954819D01*
X152324762Y-64954819D02*
X152515238Y-64954819D01*
X152515238Y-64954819D02*
X152610476Y-65002438D01*
X152610476Y-65002438D02*
X152658095Y-65050057D01*
X152658095Y-65050057D02*
X152705714Y-65145295D01*
X152705714Y-65145295D02*
X152705714Y-65192914D01*
X152705714Y-65192914D02*
X152658095Y-65288152D01*
X152658095Y-65288152D02*
X152610476Y-65335771D01*
X152610476Y-65335771D02*
X152515238Y-65383390D01*
X152515238Y-65383390D02*
X152324762Y-65383390D01*
X152324762Y-65383390D02*
X152229524Y-65431009D01*
X152229524Y-65431009D02*
X152181905Y-65478628D01*
X152181905Y-65478628D02*
X152134286Y-65573866D01*
X152134286Y-65573866D02*
X152134286Y-65764342D01*
X152134286Y-65764342D02*
X152181905Y-65859580D01*
X152181905Y-65859580D02*
X152229524Y-65907200D01*
X152229524Y-65907200D02*
X152324762Y-65954819D01*
X152324762Y-65954819D02*
X152515238Y-65954819D01*
X152515238Y-65954819D02*
X152610476Y-65907200D01*
X152610476Y-65907200D02*
X152658095Y-65859580D01*
X152658095Y-65859580D02*
X152705714Y-65764342D01*
X152705714Y-65764342D02*
X152705714Y-65573866D01*
X152705714Y-65573866D02*
X152658095Y-65478628D01*
X152658095Y-65478628D02*
X152610476Y-65431009D01*
X152610476Y-65431009D02*
X152515238Y-65383390D01*
X167110057Y-68865238D02*
X167062438Y-68960476D01*
X167062438Y-68960476D02*
X166967200Y-69055714D01*
X166967200Y-69055714D02*
X166824342Y-69198571D01*
X166824342Y-69198571D02*
X166776723Y-69293809D01*
X166776723Y-69293809D02*
X166776723Y-69389047D01*
X167014819Y-69341428D02*
X166967200Y-69436666D01*
X166967200Y-69436666D02*
X166871961Y-69531904D01*
X166871961Y-69531904D02*
X166681485Y-69579523D01*
X166681485Y-69579523D02*
X166348152Y-69579523D01*
X166348152Y-69579523D02*
X166157676Y-69531904D01*
X166157676Y-69531904D02*
X166062438Y-69436666D01*
X166062438Y-69436666D02*
X166014819Y-69341428D01*
X166014819Y-69341428D02*
X166014819Y-69150952D01*
X166014819Y-69150952D02*
X166062438Y-69055714D01*
X166062438Y-69055714D02*
X166157676Y-68960476D01*
X166157676Y-68960476D02*
X166348152Y-68912857D01*
X166348152Y-68912857D02*
X166681485Y-68912857D01*
X166681485Y-68912857D02*
X166871961Y-68960476D01*
X166871961Y-68960476D02*
X166967200Y-69055714D01*
X166967200Y-69055714D02*
X167014819Y-69150952D01*
X167014819Y-69150952D02*
X167014819Y-69341428D01*
X166014819Y-68579523D02*
X166014819Y-67912857D01*
X166014819Y-67912857D02*
X167014819Y-68341428D01*
X172610057Y-86365238D02*
X172562438Y-86460476D01*
X172562438Y-86460476D02*
X172467200Y-86555714D01*
X172467200Y-86555714D02*
X172324342Y-86698571D01*
X172324342Y-86698571D02*
X172276723Y-86793809D01*
X172276723Y-86793809D02*
X172276723Y-86889047D01*
X172514819Y-86841428D02*
X172467200Y-86936666D01*
X172467200Y-86936666D02*
X172371961Y-87031904D01*
X172371961Y-87031904D02*
X172181485Y-87079523D01*
X172181485Y-87079523D02*
X171848152Y-87079523D01*
X171848152Y-87079523D02*
X171657676Y-87031904D01*
X171657676Y-87031904D02*
X171562438Y-86936666D01*
X171562438Y-86936666D02*
X171514819Y-86841428D01*
X171514819Y-86841428D02*
X171514819Y-86650952D01*
X171514819Y-86650952D02*
X171562438Y-86555714D01*
X171562438Y-86555714D02*
X171657676Y-86460476D01*
X171657676Y-86460476D02*
X171848152Y-86412857D01*
X171848152Y-86412857D02*
X172181485Y-86412857D01*
X172181485Y-86412857D02*
X172371961Y-86460476D01*
X172371961Y-86460476D02*
X172467200Y-86555714D01*
X172467200Y-86555714D02*
X172514819Y-86650952D01*
X172514819Y-86650952D02*
X172514819Y-86841428D01*
X171610057Y-86031904D02*
X171562438Y-85984285D01*
X171562438Y-85984285D02*
X171514819Y-85889047D01*
X171514819Y-85889047D02*
X171514819Y-85650952D01*
X171514819Y-85650952D02*
X171562438Y-85555714D01*
X171562438Y-85555714D02*
X171610057Y-85508095D01*
X171610057Y-85508095D02*
X171705295Y-85460476D01*
X171705295Y-85460476D02*
X171800533Y-85460476D01*
X171800533Y-85460476D02*
X171943390Y-85508095D01*
X171943390Y-85508095D02*
X172514819Y-86079523D01*
X172514819Y-86079523D02*
X172514819Y-85460476D01*
X151753333Y-90454819D02*
X151420000Y-89978628D01*
X151181905Y-90454819D02*
X151181905Y-89454819D01*
X151181905Y-89454819D02*
X151562857Y-89454819D01*
X151562857Y-89454819D02*
X151658095Y-89502438D01*
X151658095Y-89502438D02*
X151705714Y-89550057D01*
X151705714Y-89550057D02*
X151753333Y-89645295D01*
X151753333Y-89645295D02*
X151753333Y-89788152D01*
X151753333Y-89788152D02*
X151705714Y-89883390D01*
X151705714Y-89883390D02*
X151658095Y-89931009D01*
X151658095Y-89931009D02*
X151562857Y-89978628D01*
X151562857Y-89978628D02*
X151181905Y-89978628D01*
X152705714Y-90454819D02*
X152134286Y-90454819D01*
X152420000Y-90454819D02*
X152420000Y-89454819D01*
X152420000Y-89454819D02*
X152324762Y-89597676D01*
X152324762Y-89597676D02*
X152229524Y-89692914D01*
X152229524Y-89692914D02*
X152134286Y-89740533D01*
X151753333Y-79954819D02*
X151420000Y-79478628D01*
X151181905Y-79954819D02*
X151181905Y-78954819D01*
X151181905Y-78954819D02*
X151562857Y-78954819D01*
X151562857Y-78954819D02*
X151658095Y-79002438D01*
X151658095Y-79002438D02*
X151705714Y-79050057D01*
X151705714Y-79050057D02*
X151753333Y-79145295D01*
X151753333Y-79145295D02*
X151753333Y-79288152D01*
X151753333Y-79288152D02*
X151705714Y-79383390D01*
X151705714Y-79383390D02*
X151658095Y-79431009D01*
X151658095Y-79431009D02*
X151562857Y-79478628D01*
X151562857Y-79478628D02*
X151181905Y-79478628D01*
X152610476Y-79288152D02*
X152610476Y-79954819D01*
X152372381Y-78907200D02*
X152134286Y-79621485D01*
X152134286Y-79621485D02*
X152753333Y-79621485D01*
X151753333Y-72954819D02*
X151420000Y-72478628D01*
X151181905Y-72954819D02*
X151181905Y-71954819D01*
X151181905Y-71954819D02*
X151562857Y-71954819D01*
X151562857Y-71954819D02*
X151658095Y-72002438D01*
X151658095Y-72002438D02*
X151705714Y-72050057D01*
X151705714Y-72050057D02*
X151753333Y-72145295D01*
X151753333Y-72145295D02*
X151753333Y-72288152D01*
X151753333Y-72288152D02*
X151705714Y-72383390D01*
X151705714Y-72383390D02*
X151658095Y-72431009D01*
X151658095Y-72431009D02*
X151562857Y-72478628D01*
X151562857Y-72478628D02*
X151181905Y-72478628D01*
X152610476Y-71954819D02*
X152420000Y-71954819D01*
X152420000Y-71954819D02*
X152324762Y-72002438D01*
X152324762Y-72002438D02*
X152277143Y-72050057D01*
X152277143Y-72050057D02*
X152181905Y-72192914D01*
X152181905Y-72192914D02*
X152134286Y-72383390D01*
X152134286Y-72383390D02*
X152134286Y-72764342D01*
X152134286Y-72764342D02*
X152181905Y-72859580D01*
X152181905Y-72859580D02*
X152229524Y-72907200D01*
X152229524Y-72907200D02*
X152324762Y-72954819D01*
X152324762Y-72954819D02*
X152515238Y-72954819D01*
X152515238Y-72954819D02*
X152610476Y-72907200D01*
X152610476Y-72907200D02*
X152658095Y-72859580D01*
X152658095Y-72859580D02*
X152705714Y-72764342D01*
X152705714Y-72764342D02*
X152705714Y-72526247D01*
X152705714Y-72526247D02*
X152658095Y-72431009D01*
X152658095Y-72431009D02*
X152610476Y-72383390D01*
X152610476Y-72383390D02*
X152515238Y-72335771D01*
X152515238Y-72335771D02*
X152324762Y-72335771D01*
X152324762Y-72335771D02*
X152229524Y-72383390D01*
X152229524Y-72383390D02*
X152181905Y-72431009D01*
X152181905Y-72431009D02*
X152134286Y-72526247D01*
X167110057Y-75865238D02*
X167062438Y-75960476D01*
X167062438Y-75960476D02*
X166967200Y-76055714D01*
X166967200Y-76055714D02*
X166824342Y-76198571D01*
X166824342Y-76198571D02*
X166776723Y-76293809D01*
X166776723Y-76293809D02*
X166776723Y-76389047D01*
X167014819Y-76341428D02*
X166967200Y-76436666D01*
X166967200Y-76436666D02*
X166871961Y-76531904D01*
X166871961Y-76531904D02*
X166681485Y-76579523D01*
X166681485Y-76579523D02*
X166348152Y-76579523D01*
X166348152Y-76579523D02*
X166157676Y-76531904D01*
X166157676Y-76531904D02*
X166062438Y-76436666D01*
X166062438Y-76436666D02*
X166014819Y-76341428D01*
X166014819Y-76341428D02*
X166014819Y-76150952D01*
X166014819Y-76150952D02*
X166062438Y-76055714D01*
X166062438Y-76055714D02*
X166157676Y-75960476D01*
X166157676Y-75960476D02*
X166348152Y-75912857D01*
X166348152Y-75912857D02*
X166681485Y-75912857D01*
X166681485Y-75912857D02*
X166871961Y-75960476D01*
X166871961Y-75960476D02*
X166967200Y-76055714D01*
X166967200Y-76055714D02*
X167014819Y-76150952D01*
X167014819Y-76150952D02*
X167014819Y-76341428D01*
X166014819Y-75008095D02*
X166014819Y-75484285D01*
X166014819Y-75484285D02*
X166491009Y-75531904D01*
X166491009Y-75531904D02*
X166443390Y-75484285D01*
X166443390Y-75484285D02*
X166395771Y-75389047D01*
X166395771Y-75389047D02*
X166395771Y-75150952D01*
X166395771Y-75150952D02*
X166443390Y-75055714D01*
X166443390Y-75055714D02*
X166491009Y-75008095D01*
X166491009Y-75008095D02*
X166586247Y-74960476D01*
X166586247Y-74960476D02*
X166824342Y-74960476D01*
X166824342Y-74960476D02*
X166919580Y-75008095D01*
X166919580Y-75008095D02*
X166967200Y-75055714D01*
X166967200Y-75055714D02*
X167014819Y-75150952D01*
X167014819Y-75150952D02*
X167014819Y-75389047D01*
X167014819Y-75389047D02*
X166967200Y-75484285D01*
X166967200Y-75484285D02*
X166919580Y-75531904D01*
X172610057Y-72865238D02*
X172562438Y-72960476D01*
X172562438Y-72960476D02*
X172467200Y-73055714D01*
X172467200Y-73055714D02*
X172324342Y-73198571D01*
X172324342Y-73198571D02*
X172276723Y-73293809D01*
X172276723Y-73293809D02*
X172276723Y-73389047D01*
X172514819Y-73341428D02*
X172467200Y-73436666D01*
X172467200Y-73436666D02*
X172371961Y-73531904D01*
X172371961Y-73531904D02*
X172181485Y-73579523D01*
X172181485Y-73579523D02*
X171848152Y-73579523D01*
X171848152Y-73579523D02*
X171657676Y-73531904D01*
X171657676Y-73531904D02*
X171562438Y-73436666D01*
X171562438Y-73436666D02*
X171514819Y-73341428D01*
X171514819Y-73341428D02*
X171514819Y-73150952D01*
X171514819Y-73150952D02*
X171562438Y-73055714D01*
X171562438Y-73055714D02*
X171657676Y-72960476D01*
X171657676Y-72960476D02*
X171848152Y-72912857D01*
X171848152Y-72912857D02*
X172181485Y-72912857D01*
X172181485Y-72912857D02*
X172371961Y-72960476D01*
X172371961Y-72960476D02*
X172467200Y-73055714D01*
X172467200Y-73055714D02*
X172514819Y-73150952D01*
X172514819Y-73150952D02*
X172514819Y-73341428D01*
X171514819Y-72055714D02*
X171514819Y-72246190D01*
X171514819Y-72246190D02*
X171562438Y-72341428D01*
X171562438Y-72341428D02*
X171610057Y-72389047D01*
X171610057Y-72389047D02*
X171752914Y-72484285D01*
X171752914Y-72484285D02*
X171943390Y-72531904D01*
X171943390Y-72531904D02*
X172324342Y-72531904D01*
X172324342Y-72531904D02*
X172419580Y-72484285D01*
X172419580Y-72484285D02*
X172467200Y-72436666D01*
X172467200Y-72436666D02*
X172514819Y-72341428D01*
X172514819Y-72341428D02*
X172514819Y-72150952D01*
X172514819Y-72150952D02*
X172467200Y-72055714D01*
X172467200Y-72055714D02*
X172419580Y-72008095D01*
X172419580Y-72008095D02*
X172324342Y-71960476D01*
X172324342Y-71960476D02*
X172086247Y-71960476D01*
X172086247Y-71960476D02*
X171991009Y-72008095D01*
X171991009Y-72008095D02*
X171943390Y-72055714D01*
X171943390Y-72055714D02*
X171895771Y-72150952D01*
X171895771Y-72150952D02*
X171895771Y-72341428D01*
X171895771Y-72341428D02*
X171943390Y-72436666D01*
X171943390Y-72436666D02*
X171991009Y-72484285D01*
X171991009Y-72484285D02*
X172086247Y-72531904D01*
X167110057Y-82865238D02*
X167062438Y-82960476D01*
X167062438Y-82960476D02*
X166967200Y-83055714D01*
X166967200Y-83055714D02*
X166824342Y-83198571D01*
X166824342Y-83198571D02*
X166776723Y-83293809D01*
X166776723Y-83293809D02*
X166776723Y-83389047D01*
X167014819Y-83341428D02*
X166967200Y-83436666D01*
X166967200Y-83436666D02*
X166871961Y-83531904D01*
X166871961Y-83531904D02*
X166681485Y-83579523D01*
X166681485Y-83579523D02*
X166348152Y-83579523D01*
X166348152Y-83579523D02*
X166157676Y-83531904D01*
X166157676Y-83531904D02*
X166062438Y-83436666D01*
X166062438Y-83436666D02*
X166014819Y-83341428D01*
X166014819Y-83341428D02*
X166014819Y-83150952D01*
X166014819Y-83150952D02*
X166062438Y-83055714D01*
X166062438Y-83055714D02*
X166157676Y-82960476D01*
X166157676Y-82960476D02*
X166348152Y-82912857D01*
X166348152Y-82912857D02*
X166681485Y-82912857D01*
X166681485Y-82912857D02*
X166871961Y-82960476D01*
X166871961Y-82960476D02*
X166967200Y-83055714D01*
X166967200Y-83055714D02*
X167014819Y-83150952D01*
X167014819Y-83150952D02*
X167014819Y-83341428D01*
X166014819Y-82579523D02*
X166014819Y-81960476D01*
X166014819Y-81960476D02*
X166395771Y-82293809D01*
X166395771Y-82293809D02*
X166395771Y-82150952D01*
X166395771Y-82150952D02*
X166443390Y-82055714D01*
X166443390Y-82055714D02*
X166491009Y-82008095D01*
X166491009Y-82008095D02*
X166586247Y-81960476D01*
X166586247Y-81960476D02*
X166824342Y-81960476D01*
X166824342Y-81960476D02*
X166919580Y-82008095D01*
X166919580Y-82008095D02*
X166967200Y-82055714D01*
X166967200Y-82055714D02*
X167014819Y-82150952D01*
X167014819Y-82150952D02*
X167014819Y-82436666D01*
X167014819Y-82436666D02*
X166967200Y-82531904D01*
X166967200Y-82531904D02*
X166919580Y-82579523D01*
X151753333Y-69454819D02*
X151420000Y-68978628D01*
X151181905Y-69454819D02*
X151181905Y-68454819D01*
X151181905Y-68454819D02*
X151562857Y-68454819D01*
X151562857Y-68454819D02*
X151658095Y-68502438D01*
X151658095Y-68502438D02*
X151705714Y-68550057D01*
X151705714Y-68550057D02*
X151753333Y-68645295D01*
X151753333Y-68645295D02*
X151753333Y-68788152D01*
X151753333Y-68788152D02*
X151705714Y-68883390D01*
X151705714Y-68883390D02*
X151658095Y-68931009D01*
X151658095Y-68931009D02*
X151562857Y-68978628D01*
X151562857Y-68978628D02*
X151181905Y-68978628D01*
X152086667Y-68454819D02*
X152753333Y-68454819D01*
X152753333Y-68454819D02*
X152324762Y-69454819D01*
X172610057Y-79365238D02*
X172562438Y-79460476D01*
X172562438Y-79460476D02*
X172467200Y-79555714D01*
X172467200Y-79555714D02*
X172324342Y-79698571D01*
X172324342Y-79698571D02*
X172276723Y-79793809D01*
X172276723Y-79793809D02*
X172276723Y-79889047D01*
X172514819Y-79841428D02*
X172467200Y-79936666D01*
X172467200Y-79936666D02*
X172371961Y-80031904D01*
X172371961Y-80031904D02*
X172181485Y-80079523D01*
X172181485Y-80079523D02*
X171848152Y-80079523D01*
X171848152Y-80079523D02*
X171657676Y-80031904D01*
X171657676Y-80031904D02*
X171562438Y-79936666D01*
X171562438Y-79936666D02*
X171514819Y-79841428D01*
X171514819Y-79841428D02*
X171514819Y-79650952D01*
X171514819Y-79650952D02*
X171562438Y-79555714D01*
X171562438Y-79555714D02*
X171657676Y-79460476D01*
X171657676Y-79460476D02*
X171848152Y-79412857D01*
X171848152Y-79412857D02*
X172181485Y-79412857D01*
X172181485Y-79412857D02*
X172371961Y-79460476D01*
X172371961Y-79460476D02*
X172467200Y-79555714D01*
X172467200Y-79555714D02*
X172514819Y-79650952D01*
X172514819Y-79650952D02*
X172514819Y-79841428D01*
X171848152Y-78555714D02*
X172514819Y-78555714D01*
X171467200Y-78793809D02*
X172181485Y-79031904D01*
X172181485Y-79031904D02*
X172181485Y-78412857D01*
X151753333Y-86954819D02*
X151420000Y-86478628D01*
X151181905Y-86954819D02*
X151181905Y-85954819D01*
X151181905Y-85954819D02*
X151562857Y-85954819D01*
X151562857Y-85954819D02*
X151658095Y-86002438D01*
X151658095Y-86002438D02*
X151705714Y-86050057D01*
X151705714Y-86050057D02*
X151753333Y-86145295D01*
X151753333Y-86145295D02*
X151753333Y-86288152D01*
X151753333Y-86288152D02*
X151705714Y-86383390D01*
X151705714Y-86383390D02*
X151658095Y-86431009D01*
X151658095Y-86431009D02*
X151562857Y-86478628D01*
X151562857Y-86478628D02*
X151181905Y-86478628D01*
X152134286Y-86050057D02*
X152181905Y-86002438D01*
X152181905Y-86002438D02*
X152277143Y-85954819D01*
X152277143Y-85954819D02*
X152515238Y-85954819D01*
X152515238Y-85954819D02*
X152610476Y-86002438D01*
X152610476Y-86002438D02*
X152658095Y-86050057D01*
X152658095Y-86050057D02*
X152705714Y-86145295D01*
X152705714Y-86145295D02*
X152705714Y-86240533D01*
X152705714Y-86240533D02*
X152658095Y-86383390D01*
X152658095Y-86383390D02*
X152086667Y-86954819D01*
X152086667Y-86954819D02*
X152705714Y-86954819D01*
X193564819Y-106193333D02*
X194279104Y-106193333D01*
X194279104Y-106193333D02*
X194421961Y-106240952D01*
X194421961Y-106240952D02*
X194517200Y-106336190D01*
X194517200Y-106336190D02*
X194564819Y-106479047D01*
X194564819Y-106479047D02*
X194564819Y-106574285D01*
X193564819Y-105812380D02*
X193564819Y-105193333D01*
X193564819Y-105193333D02*
X193945771Y-105526666D01*
X193945771Y-105526666D02*
X193945771Y-105383809D01*
X193945771Y-105383809D02*
X193993390Y-105288571D01*
X193993390Y-105288571D02*
X194041009Y-105240952D01*
X194041009Y-105240952D02*
X194136247Y-105193333D01*
X194136247Y-105193333D02*
X194374342Y-105193333D01*
X194374342Y-105193333D02*
X194469580Y-105240952D01*
X194469580Y-105240952D02*
X194517200Y-105288571D01*
X194517200Y-105288571D02*
X194564819Y-105383809D01*
X194564819Y-105383809D02*
X194564819Y-105669523D01*
X194564819Y-105669523D02*
X194517200Y-105764761D01*
X194517200Y-105764761D02*
X194469580Y-105812380D01*
X144833333Y-90609580D02*
X144785714Y-90657200D01*
X144785714Y-90657200D02*
X144642857Y-90704819D01*
X144642857Y-90704819D02*
X144547619Y-90704819D01*
X144547619Y-90704819D02*
X144404762Y-90657200D01*
X144404762Y-90657200D02*
X144309524Y-90561961D01*
X144309524Y-90561961D02*
X144261905Y-90466723D01*
X144261905Y-90466723D02*
X144214286Y-90276247D01*
X144214286Y-90276247D02*
X144214286Y-90133390D01*
X144214286Y-90133390D02*
X144261905Y-89942914D01*
X144261905Y-89942914D02*
X144309524Y-89847676D01*
X144309524Y-89847676D02*
X144404762Y-89752438D01*
X144404762Y-89752438D02*
X144547619Y-89704819D01*
X144547619Y-89704819D02*
X144642857Y-89704819D01*
X144642857Y-89704819D02*
X144785714Y-89752438D01*
X144785714Y-89752438D02*
X144833333Y-89800057D01*
X145166667Y-89704819D02*
X145785714Y-89704819D01*
X145785714Y-89704819D02*
X145452381Y-90085771D01*
X145452381Y-90085771D02*
X145595238Y-90085771D01*
X145595238Y-90085771D02*
X145690476Y-90133390D01*
X145690476Y-90133390D02*
X145738095Y-90181009D01*
X145738095Y-90181009D02*
X145785714Y-90276247D01*
X145785714Y-90276247D02*
X145785714Y-90514342D01*
X145785714Y-90514342D02*
X145738095Y-90609580D01*
X145738095Y-90609580D02*
X145690476Y-90657200D01*
X145690476Y-90657200D02*
X145595238Y-90704819D01*
X145595238Y-90704819D02*
X145309524Y-90704819D01*
X145309524Y-90704819D02*
X145214286Y-90657200D01*
X145214286Y-90657200D02*
X145166667Y-90609580D01*
X199004819Y-76833333D02*
X199719104Y-76833333D01*
X199719104Y-76833333D02*
X199861961Y-76880952D01*
X199861961Y-76880952D02*
X199957200Y-76976190D01*
X199957200Y-76976190D02*
X200004819Y-77119047D01*
X200004819Y-77119047D02*
X200004819Y-77214285D01*
X200004819Y-75833333D02*
X200004819Y-76404761D01*
X200004819Y-76119047D02*
X199004819Y-76119047D01*
X199004819Y-76119047D02*
X199147676Y-76214285D01*
X199147676Y-76214285D02*
X199242914Y-76309523D01*
X199242914Y-76309523D02*
X199290533Y-76404761D01*
X173904819Y-74083333D02*
X174619104Y-74083333D01*
X174619104Y-74083333D02*
X174761961Y-74130952D01*
X174761961Y-74130952D02*
X174857200Y-74226190D01*
X174857200Y-74226190D02*
X174904819Y-74369047D01*
X174904819Y-74369047D02*
X174904819Y-74464285D01*
X174238152Y-73178571D02*
X174904819Y-73178571D01*
X173857200Y-73416666D02*
X174571485Y-73654761D01*
X174571485Y-73654761D02*
X174571485Y-73035714D01*
X182404819Y-74083333D02*
X183119104Y-74083333D01*
X183119104Y-74083333D02*
X183261961Y-74130952D01*
X183261961Y-74130952D02*
X183357200Y-74226190D01*
X183357200Y-74226190D02*
X183404819Y-74369047D01*
X183404819Y-74369047D02*
X183404819Y-74464285D01*
X182500057Y-73654761D02*
X182452438Y-73607142D01*
X182452438Y-73607142D02*
X182404819Y-73511904D01*
X182404819Y-73511904D02*
X182404819Y-73273809D01*
X182404819Y-73273809D02*
X182452438Y-73178571D01*
X182452438Y-73178571D02*
X182500057Y-73130952D01*
X182500057Y-73130952D02*
X182595295Y-73083333D01*
X182595295Y-73083333D02*
X182690533Y-73083333D01*
X182690533Y-73083333D02*
X182833390Y-73130952D01*
X182833390Y-73130952D02*
X183404819Y-73702380D01*
X183404819Y-73702380D02*
X183404819Y-73083333D01*
X193564819Y-89943333D02*
X194279104Y-89943333D01*
X194279104Y-89943333D02*
X194421961Y-89990952D01*
X194421961Y-89990952D02*
X194517200Y-90086190D01*
X194517200Y-90086190D02*
X194564819Y-90229047D01*
X194564819Y-90229047D02*
X194564819Y-90324285D01*
X193564819Y-88990952D02*
X193564819Y-89467142D01*
X193564819Y-89467142D02*
X194041009Y-89514761D01*
X194041009Y-89514761D02*
X193993390Y-89467142D01*
X193993390Y-89467142D02*
X193945771Y-89371904D01*
X193945771Y-89371904D02*
X193945771Y-89133809D01*
X193945771Y-89133809D02*
X193993390Y-89038571D01*
X193993390Y-89038571D02*
X194041009Y-88990952D01*
X194041009Y-88990952D02*
X194136247Y-88943333D01*
X194136247Y-88943333D02*
X194374342Y-88943333D01*
X194374342Y-88943333D02*
X194469580Y-88990952D01*
X194469580Y-88990952D02*
X194517200Y-89038571D01*
X194517200Y-89038571D02*
X194564819Y-89133809D01*
X194564819Y-89133809D02*
X194564819Y-89371904D01*
X194564819Y-89371904D02*
X194517200Y-89467142D01*
X194517200Y-89467142D02*
X194469580Y-89514761D01*
X144158095Y-130614819D02*
X144158095Y-131424342D01*
X144158095Y-131424342D02*
X144205714Y-131519580D01*
X144205714Y-131519580D02*
X144253333Y-131567200D01*
X144253333Y-131567200D02*
X144348571Y-131614819D01*
X144348571Y-131614819D02*
X144539047Y-131614819D01*
X144539047Y-131614819D02*
X144634285Y-131567200D01*
X144634285Y-131567200D02*
X144681904Y-131519580D01*
X144681904Y-131519580D02*
X144729523Y-131424342D01*
X144729523Y-131424342D02*
X144729523Y-130614819D01*
X145681904Y-130614819D02*
X145205714Y-130614819D01*
X145205714Y-130614819D02*
X145158095Y-131091009D01*
X145158095Y-131091009D02*
X145205714Y-131043390D01*
X145205714Y-131043390D02*
X145300952Y-130995771D01*
X145300952Y-130995771D02*
X145539047Y-130995771D01*
X145539047Y-130995771D02*
X145634285Y-131043390D01*
X145634285Y-131043390D02*
X145681904Y-131091009D01*
X145681904Y-131091009D02*
X145729523Y-131186247D01*
X145729523Y-131186247D02*
X145729523Y-131424342D01*
X145729523Y-131424342D02*
X145681904Y-131519580D01*
X145681904Y-131519580D02*
X145634285Y-131567200D01*
X145634285Y-131567200D02*
X145539047Y-131614819D01*
X145539047Y-131614819D02*
X145300952Y-131614819D01*
X145300952Y-131614819D02*
X145205714Y-131567200D01*
X145205714Y-131567200D02*
X145158095Y-131519580D01*
X179527200Y-64833332D02*
X179574819Y-64690475D01*
X179574819Y-64690475D02*
X179574819Y-64452380D01*
X179574819Y-64452380D02*
X179527200Y-64357142D01*
X179527200Y-64357142D02*
X179479580Y-64309523D01*
X179479580Y-64309523D02*
X179384342Y-64261904D01*
X179384342Y-64261904D02*
X179289104Y-64261904D01*
X179289104Y-64261904D02*
X179193866Y-64309523D01*
X179193866Y-64309523D02*
X179146247Y-64357142D01*
X179146247Y-64357142D02*
X179098628Y-64452380D01*
X179098628Y-64452380D02*
X179051009Y-64642856D01*
X179051009Y-64642856D02*
X179003390Y-64738094D01*
X179003390Y-64738094D02*
X178955771Y-64785713D01*
X178955771Y-64785713D02*
X178860533Y-64833332D01*
X178860533Y-64833332D02*
X178765295Y-64833332D01*
X178765295Y-64833332D02*
X178670057Y-64785713D01*
X178670057Y-64785713D02*
X178622438Y-64738094D01*
X178622438Y-64738094D02*
X178574819Y-64642856D01*
X178574819Y-64642856D02*
X178574819Y-64404761D01*
X178574819Y-64404761D02*
X178622438Y-64261904D01*
X178574819Y-63928570D02*
X179574819Y-63690475D01*
X179574819Y-63690475D02*
X178860533Y-63499999D01*
X178860533Y-63499999D02*
X179574819Y-63309523D01*
X179574819Y-63309523D02*
X178574819Y-63071428D01*
X179574819Y-62166666D02*
X179574819Y-62738094D01*
X179574819Y-62452380D02*
X178574819Y-62452380D01*
X178574819Y-62452380D02*
X178717676Y-62547618D01*
X178717676Y-62547618D02*
X178812914Y-62642856D01*
X178812914Y-62642856D02*
X178860533Y-62738094D01*
X191238095Y-126454819D02*
X191238095Y-127264342D01*
X191238095Y-127264342D02*
X191285714Y-127359580D01*
X191285714Y-127359580D02*
X191333333Y-127407200D01*
X191333333Y-127407200D02*
X191428571Y-127454819D01*
X191428571Y-127454819D02*
X191619047Y-127454819D01*
X191619047Y-127454819D02*
X191714285Y-127407200D01*
X191714285Y-127407200D02*
X191761904Y-127359580D01*
X191761904Y-127359580D02*
X191809523Y-127264342D01*
X191809523Y-127264342D02*
X191809523Y-126454819D01*
X192238095Y-126550057D02*
X192285714Y-126502438D01*
X192285714Y-126502438D02*
X192380952Y-126454819D01*
X192380952Y-126454819D02*
X192619047Y-126454819D01*
X192619047Y-126454819D02*
X192714285Y-126502438D01*
X192714285Y-126502438D02*
X192761904Y-126550057D01*
X192761904Y-126550057D02*
X192809523Y-126645295D01*
X192809523Y-126645295D02*
X192809523Y-126740533D01*
X192809523Y-126740533D02*
X192761904Y-126883390D01*
X192761904Y-126883390D02*
X192190476Y-127454819D01*
X192190476Y-127454819D02*
X192809523Y-127454819D01*
X144158095Y-114914819D02*
X144158095Y-115724342D01*
X144158095Y-115724342D02*
X144205714Y-115819580D01*
X144205714Y-115819580D02*
X144253333Y-115867200D01*
X144253333Y-115867200D02*
X144348571Y-115914819D01*
X144348571Y-115914819D02*
X144539047Y-115914819D01*
X144539047Y-115914819D02*
X144634285Y-115867200D01*
X144634285Y-115867200D02*
X144681904Y-115819580D01*
X144681904Y-115819580D02*
X144729523Y-115724342D01*
X144729523Y-115724342D02*
X144729523Y-114914819D01*
X145110476Y-114914819D02*
X145729523Y-114914819D01*
X145729523Y-114914819D02*
X145396190Y-115295771D01*
X145396190Y-115295771D02*
X145539047Y-115295771D01*
X145539047Y-115295771D02*
X145634285Y-115343390D01*
X145634285Y-115343390D02*
X145681904Y-115391009D01*
X145681904Y-115391009D02*
X145729523Y-115486247D01*
X145729523Y-115486247D02*
X145729523Y-115724342D01*
X145729523Y-115724342D02*
X145681904Y-115819580D01*
X145681904Y-115819580D02*
X145634285Y-115867200D01*
X145634285Y-115867200D02*
X145539047Y-115914819D01*
X145539047Y-115914819D02*
X145253333Y-115914819D01*
X145253333Y-115914819D02*
X145158095Y-115867200D01*
X145158095Y-115867200D02*
X145110476Y-115819580D01*
%TO.C,U4*%
X180700000Y-84600000D02*
X180700000Y-99000000D01*
X180700000Y-99000000D02*
X193300000Y-99000000D01*
X193300000Y-84600000D02*
X180700000Y-84600000D01*
X193300000Y-99000000D02*
X193300000Y-84600000D01*
D11*
%TO.C,A2*%
X172400000Y-139060000D02*
X172400000Y-95620000D01*
X172400000Y-139060000D02*
X167320000Y-139060000D01*
X172400000Y-95620000D02*
X154360000Y-95620000D01*
X169730000Y-136390000D02*
X172400000Y-136390000D01*
X169730000Y-98290000D02*
X172400000Y-98290000D01*
X169730000Y-98290000D02*
X169730000Y-136390000D01*
X167320000Y-141600000D02*
X159440000Y-141600000D01*
X167320000Y-131180000D02*
X167320000Y-141600000D01*
X159440000Y-141600000D02*
X159440000Y-131180000D01*
X159440000Y-131180000D02*
X167320000Y-131180000D01*
X157030000Y-136390000D02*
X154360000Y-136390000D01*
X157030000Y-100830000D02*
X157030000Y-136390000D01*
X157030000Y-100830000D02*
X157030000Y-98290000D01*
X157030000Y-100830000D02*
X154360000Y-100830000D01*
X157030000Y-98290000D02*
X154360000Y-98290000D01*
X154360000Y-139060000D02*
X159440000Y-139060000D01*
X154360000Y-100830000D02*
X154360000Y-139060000D01*
X154360000Y-95620000D02*
X154360000Y-98290000D01*
D10*
%TO.C,U1*%
X193380000Y-114700000D02*
X193380000Y-100300000D01*
X193380000Y-100300000D02*
X180780000Y-100300000D01*
X180780000Y-114700000D02*
X193380000Y-114700000D01*
X180780000Y-100300000D02*
X180780000Y-114700000D01*
D11*
%TO.C,R5*%
X155960000Y-75770000D02*
X155190000Y-75770000D01*
X147880000Y-75770000D02*
X148650000Y-75770000D01*
X155190000Y-77140000D02*
X148650000Y-77140000D01*
X148650000Y-74400000D01*
X155190000Y-74400000D01*
X155190000Y-77140000D01*
%TO.C,Q1*%
X165600000Y-89770000D02*
G75*
G02*
X161161522Y-91608478I-2600000J0D01*
G01*
X161161522Y-87931522D02*
G75*
G02*
X165600001Y-89770000I1838478J-1838478D01*
G01*
X161150000Y-87970000D02*
X161150000Y-91570000D01*
%TO.C,Q8*%
X166650000Y-63970000D02*
X166650000Y-67570000D01*
X166661522Y-63931522D02*
G75*
G02*
X171100001Y-65770000I1838478J-1838478D01*
G01*
X171100000Y-65770000D02*
G75*
G02*
X166661522Y-67608478I-2600000J0D01*
G01*
%TO.C,R3*%
X155190000Y-84140000D02*
X148650000Y-84140000D01*
X148650000Y-81400000D01*
X155190000Y-81400000D01*
X155190000Y-84140000D01*
X147880000Y-82770000D02*
X148650000Y-82770000D01*
X155960000Y-82770000D02*
X155190000Y-82770000D01*
%TO.C,R8*%
X155960000Y-65270000D02*
X155190000Y-65270000D01*
X147880000Y-65270000D02*
X148650000Y-65270000D01*
X155190000Y-66640000D02*
X148650000Y-66640000D01*
X148650000Y-63900000D01*
X155190000Y-63900000D01*
X155190000Y-66640000D01*
%TO.C,Q7*%
X161150000Y-66970000D02*
X161150000Y-70570000D01*
X161161522Y-66931522D02*
G75*
G02*
X165600001Y-68770000I1838478J-1838478D01*
G01*
X165600000Y-68770000D02*
G75*
G02*
X161161522Y-70608478I-2600000J0D01*
G01*
%TO.C,Q2*%
X171100000Y-86270000D02*
G75*
G02*
X166661522Y-88108478I-2600000J0D01*
G01*
X166661522Y-84431522D02*
G75*
G02*
X171100001Y-86270000I1838478J-1838478D01*
G01*
X166650000Y-84470000D02*
X166650000Y-88070000D01*
%TO.C,R1*%
X155960000Y-89770000D02*
X155190000Y-89770000D01*
X147880000Y-89770000D02*
X148650000Y-89770000D01*
X155190000Y-91140000D02*
X148650000Y-91140000D01*
X148650000Y-88400000D01*
X155190000Y-88400000D01*
X155190000Y-91140000D01*
%TO.C,R4*%
X155190000Y-80640000D02*
X148650000Y-80640000D01*
X148650000Y-77900000D01*
X155190000Y-77900000D01*
X155190000Y-80640000D01*
X147880000Y-79270000D02*
X148650000Y-79270000D01*
X155960000Y-79270000D02*
X155190000Y-79270000D01*
%TO.C,R6*%
X155960000Y-72270000D02*
X155190000Y-72270000D01*
X147880000Y-72270000D02*
X148650000Y-72270000D01*
X155190000Y-73640000D02*
X148650000Y-73640000D01*
X148650000Y-70900000D01*
X155190000Y-70900000D01*
X155190000Y-73640000D01*
%TO.C,Q5*%
X161150000Y-73970000D02*
X161150000Y-77570000D01*
X161161522Y-73931522D02*
G75*
G02*
X165600001Y-75770000I1838478J-1838478D01*
G01*
X165600000Y-75770000D02*
G75*
G02*
X161161522Y-77608478I-2600000J0D01*
G01*
%TO.C,Q6*%
X166650000Y-70970000D02*
X166650000Y-74570000D01*
X166661522Y-70931522D02*
G75*
G02*
X171100001Y-72770000I1838478J-1838478D01*
G01*
X171100000Y-72770000D02*
G75*
G02*
X166661522Y-74608478I-2600000J0D01*
G01*
%TO.C,Q3*%
X165600000Y-82770000D02*
G75*
G02*
X161161522Y-84608478I-2600000J0D01*
G01*
X161161522Y-80931522D02*
G75*
G02*
X165600001Y-82770000I1838478J-1838478D01*
G01*
X161150000Y-80970000D02*
X161150000Y-84570000D01*
%TO.C,R7*%
X155960000Y-68770000D02*
X155190000Y-68770000D01*
X147880000Y-68770000D02*
X148650000Y-68770000D01*
X155190000Y-70140000D02*
X148650000Y-70140000D01*
X148650000Y-67400000D01*
X155190000Y-67400000D01*
X155190000Y-70140000D01*
%TO.C,Q4*%
X171100000Y-79270000D02*
G75*
G02*
X166661522Y-81108478I-2600000J0D01*
G01*
X166661522Y-77431522D02*
G75*
G02*
X171100001Y-79270000I1838478J-1838478D01*
G01*
X166650000Y-77470000D02*
X166650000Y-81070000D01*
%TO.C,R2*%
X155960000Y-86270000D02*
X155190000Y-86270000D01*
X147880000Y-86270000D02*
X148650000Y-86270000D01*
X155190000Y-87640000D02*
X148650000Y-87640000D01*
X148650000Y-84900000D01*
X155190000Y-84900000D01*
X155190000Y-87640000D01*
%TO.C,J3*%
X194910000Y-113710000D02*
X196160000Y-113710000D01*
X195200000Y-113420000D02*
X201170000Y-113420000D01*
X201170000Y-113420000D02*
X201170000Y-98300000D01*
X195210000Y-113410000D02*
X195960000Y-113410000D01*
X195960000Y-113410000D02*
X195960000Y-111610000D01*
X197460000Y-113410000D02*
X197460000Y-112660000D01*
X197460000Y-112660000D02*
X200410000Y-112660000D01*
X200410000Y-112660000D02*
X200410000Y-105860000D01*
X194910000Y-112460000D02*
X194910000Y-113710000D01*
X195210000Y-111610000D02*
X195210000Y-113410000D01*
X195960000Y-111610000D02*
X195210000Y-111610000D01*
X195210000Y-110110000D02*
X195960000Y-110110000D01*
X195960000Y-110110000D02*
X195960000Y-101610000D01*
X195210000Y-101610000D02*
X195210000Y-110110000D01*
X195960000Y-101610000D02*
X195210000Y-101610000D01*
X195210000Y-100110000D02*
X195960000Y-100110000D01*
X195960000Y-100110000D02*
X195960000Y-98310000D01*
X197460000Y-99060000D02*
X200410000Y-99060000D01*
X200410000Y-99060000D02*
X200410000Y-105860000D01*
X195210000Y-98310000D02*
X195210000Y-100110000D01*
X195960000Y-98310000D02*
X195210000Y-98310000D01*
X197460000Y-98310000D02*
X197460000Y-99060000D01*
X195200000Y-98300000D02*
X195200000Y-113420000D01*
X201170000Y-98300000D02*
X195200000Y-98300000D01*
%TO.C,C3*%
X137380457Y-94505000D02*
X138780457Y-94505000D01*
X138080457Y-93805000D02*
X138080457Y-95205000D01*
X145000000Y-91420000D02*
X145000000Y-105580000D01*
X145040000Y-91420000D02*
X145040000Y-105580000D01*
X145080000Y-91420000D02*
X145080000Y-105580000D01*
X145120000Y-91421000D02*
X145120000Y-105579000D01*
X145160000Y-91422000D02*
X145160000Y-105578000D01*
X145200000Y-91423000D02*
X145200000Y-105577000D01*
X145240000Y-91424000D02*
X145240000Y-105576000D01*
X145280000Y-91426000D02*
X145280000Y-105574000D01*
X145320000Y-91427000D02*
X145320000Y-105573000D01*
X145360000Y-91429000D02*
X145360000Y-105571000D01*
X145400000Y-91431000D02*
X145400000Y-105569000D01*
X145440000Y-91434000D02*
X145440000Y-105566000D01*
X145480000Y-91436000D02*
X145480000Y-105564000D01*
X145520000Y-91439000D02*
X145520000Y-105561000D01*
X145560000Y-91442000D02*
X145560000Y-105558000D01*
X145600000Y-91445000D02*
X145600000Y-105555000D01*
X145640000Y-91449000D02*
X145640000Y-105551000D01*
X145680000Y-91453000D02*
X145680000Y-105547000D01*
X145720000Y-91456000D02*
X145720000Y-105544000D01*
X145760000Y-91461000D02*
X145760000Y-105539000D01*
X145800000Y-91465000D02*
X145800000Y-105535000D01*
X145840000Y-91470000D02*
X145840000Y-105530000D01*
X145880000Y-91475000D02*
X145880000Y-105525000D01*
X145920000Y-91480000D02*
X145920000Y-105520000D01*
X145960000Y-91485000D02*
X145960000Y-105515000D01*
X146000000Y-91491000D02*
X146000000Y-105509000D01*
X146040000Y-91496000D02*
X146040000Y-105504000D01*
X146080000Y-91502000D02*
X146080000Y-97060000D01*
X146080000Y-99940000D02*
X146080000Y-105498000D01*
X146120000Y-91509000D02*
X146120000Y-97060000D01*
X146120000Y-99940000D02*
X146120000Y-105491000D01*
X146160000Y-91515000D02*
X146160000Y-97060000D01*
X146160000Y-99940000D02*
X146160000Y-105485000D01*
X146200000Y-91522000D02*
X146200000Y-97060000D01*
X146200000Y-99940000D02*
X146200000Y-105478000D01*
X146240000Y-91529000D02*
X146240000Y-97060000D01*
X146240000Y-99940000D02*
X146240000Y-105471000D01*
X146280000Y-91536000D02*
X146280000Y-97060000D01*
X146280000Y-99940000D02*
X146280000Y-105464000D01*
X146320000Y-91543000D02*
X146320000Y-97060000D01*
X146320000Y-99940000D02*
X146320000Y-105457000D01*
X146360000Y-91551000D02*
X146360000Y-97060000D01*
X146360000Y-99940000D02*
X146360000Y-105449000D01*
X146400000Y-91559000D02*
X146400000Y-97060000D01*
X146400000Y-99940000D02*
X146400000Y-105441000D01*
X146440000Y-91567000D02*
X146440000Y-97060000D01*
X146440000Y-99940000D02*
X146440000Y-105433000D01*
X146480000Y-91576000D02*
X146480000Y-97060000D01*
X146480000Y-99940000D02*
X146480000Y-105424000D01*
X146520000Y-91584000D02*
X146520000Y-97060000D01*
X146520000Y-99940000D02*
X146520000Y-105416000D01*
X146560000Y-91593000D02*
X146560000Y-97060000D01*
X146560000Y-99940000D02*
X146560000Y-105407000D01*
X146600000Y-91602000D02*
X146600000Y-97060000D01*
X146600000Y-99940000D02*
X146600000Y-105398000D01*
X146640000Y-91611000D02*
X146640000Y-97060000D01*
X146640000Y-99940000D02*
X146640000Y-105389000D01*
X146680000Y-91621000D02*
X146680000Y-97060000D01*
X146680000Y-99940000D02*
X146680000Y-105379000D01*
X146720000Y-91631000D02*
X146720000Y-97060000D01*
X146720000Y-99940000D02*
X146720000Y-105369000D01*
X146760000Y-91641000D02*
X146760000Y-97060000D01*
X146760000Y-99940000D02*
X146760000Y-105359000D01*
X146800000Y-91651000D02*
X146800000Y-97060000D01*
X146800000Y-99940000D02*
X146800000Y-105349000D01*
X146840000Y-91662000D02*
X146840000Y-97060000D01*
X146840000Y-99940000D02*
X146840000Y-105338000D01*
X146880000Y-91673000D02*
X146880000Y-97060000D01*
X146880000Y-99940000D02*
X146880000Y-105327000D01*
X146920000Y-91684000D02*
X146920000Y-97060000D01*
X146920000Y-99940000D02*
X146920000Y-105316000D01*
X146960000Y-91695000D02*
X146960000Y-97060000D01*
X146960000Y-99940000D02*
X146960000Y-105305000D01*
X147000000Y-91707000D02*
X147000000Y-97060000D01*
X147000000Y-99940000D02*
X147000000Y-105293000D01*
X147040000Y-91719000D02*
X147040000Y-97060000D01*
X147040000Y-99940000D02*
X147040000Y-105281000D01*
X147080000Y-91731000D02*
X147080000Y-97060000D01*
X147080000Y-99940000D02*
X147080000Y-105269000D01*
X147120000Y-91743000D02*
X147120000Y-97060000D01*
X147120000Y-99940000D02*
X147120000Y-105257000D01*
X147160000Y-91756000D02*
X147160000Y-97060000D01*
X147160000Y-99940000D02*
X147160000Y-105244000D01*
X147200000Y-91768000D02*
X147200000Y-97060000D01*
X147200000Y-99940000D02*
X147200000Y-105232000D01*
X147240000Y-91782000D02*
X147240000Y-97060000D01*
X147240000Y-99940000D02*
X147240000Y-105218000D01*
X147280000Y-91795000D02*
X147280000Y-97060000D01*
X147280000Y-99940000D02*
X147280000Y-105205000D01*
X147320000Y-91809000D02*
X147320000Y-97060000D01*
X147320000Y-99940000D02*
X147320000Y-105191000D01*
X147360000Y-91823000D02*
X147360000Y-97060000D01*
X147360000Y-99940000D02*
X147360000Y-105177000D01*
X147400000Y-91837000D02*
X147400000Y-97060000D01*
X147400000Y-99940000D02*
X147400000Y-105163000D01*
X147440000Y-91851000D02*
X147440000Y-97060000D01*
X147440000Y-99940000D02*
X147440000Y-105149000D01*
X147480000Y-91866000D02*
X147480000Y-97060000D01*
X147480000Y-99940000D02*
X147480000Y-105134000D01*
X147520000Y-91881000D02*
X147520000Y-97060000D01*
X147520000Y-99940000D02*
X147520000Y-105119000D01*
X147560000Y-91896000D02*
X147560000Y-97060000D01*
X147560000Y-99940000D02*
X147560000Y-105104000D01*
X147600000Y-91912000D02*
X147600000Y-97060000D01*
X147600000Y-99940000D02*
X147600000Y-105088000D01*
X147640000Y-91928000D02*
X147640000Y-97060000D01*
X147640000Y-99940000D02*
X147640000Y-105072000D01*
X147680000Y-91944000D02*
X147680000Y-97060000D01*
X147680000Y-99940000D02*
X147680000Y-105056000D01*
X147720000Y-91960000D02*
X147720000Y-97060000D01*
X147720000Y-99940000D02*
X147720000Y-105040000D01*
X147760000Y-91977000D02*
X147760000Y-97060000D01*
X147760000Y-99940000D02*
X147760000Y-105023000D01*
X147800000Y-91994000D02*
X147800000Y-97060000D01*
X147800000Y-99940000D02*
X147800000Y-105006000D01*
X147840000Y-92011000D02*
X147840000Y-97060000D01*
X147840000Y-99940000D02*
X147840000Y-104989000D01*
X147880000Y-92028000D02*
X147880000Y-97060000D01*
X147880000Y-99940000D02*
X147880000Y-104972000D01*
X147920000Y-92046000D02*
X147920000Y-97060000D01*
X147920000Y-99940000D02*
X147920000Y-104954000D01*
X147960000Y-92064000D02*
X147960000Y-97060000D01*
X147960000Y-99940000D02*
X147960000Y-104936000D01*
X148000000Y-92083000D02*
X148000000Y-97060000D01*
X148000000Y-99940000D02*
X148000000Y-104917000D01*
X148040000Y-92102000D02*
X148040000Y-97060000D01*
X148040000Y-99940000D02*
X148040000Y-104898000D01*
X148080000Y-92121000D02*
X148080000Y-97060000D01*
X148080000Y-99940000D02*
X148080000Y-104879000D01*
X148120000Y-92140000D02*
X148120000Y-97060000D01*
X148120000Y-99940000D02*
X148120000Y-104860000D01*
X148160000Y-92160000D02*
X148160000Y-97060000D01*
X148160000Y-99940000D02*
X148160000Y-104840000D01*
X148200000Y-92180000D02*
X148200000Y-97060000D01*
X148200000Y-99940000D02*
X148200000Y-104820000D01*
X148240000Y-92200000D02*
X148240000Y-97060000D01*
X148240000Y-99940000D02*
X148240000Y-104800000D01*
X148280000Y-92221000D02*
X148280000Y-97060000D01*
X148280000Y-99940000D02*
X148280000Y-104779000D01*
X148320000Y-92241000D02*
X148320000Y-97060000D01*
X148320000Y-99940000D02*
X148320000Y-104759000D01*
X148360000Y-92263000D02*
X148360000Y-97060000D01*
X148360000Y-99940000D02*
X148360000Y-104737000D01*
X148400000Y-92284000D02*
X148400000Y-97060000D01*
X148400000Y-99940000D02*
X148400000Y-104716000D01*
X148440000Y-92306000D02*
X148440000Y-97060000D01*
X148440000Y-99940000D02*
X148440000Y-104694000D01*
X148480000Y-92328000D02*
X148480000Y-97060000D01*
X148480000Y-99940000D02*
X148480000Y-104672000D01*
X148520000Y-92351000D02*
X148520000Y-97060000D01*
X148520000Y-99940000D02*
X148520000Y-104649000D01*
X148560000Y-92374000D02*
X148560000Y-97060000D01*
X148560000Y-99940000D02*
X148560000Y-104626000D01*
X148600000Y-92397000D02*
X148600000Y-97060000D01*
X148600000Y-99940000D02*
X148600000Y-104603000D01*
X148640000Y-92421000D02*
X148640000Y-97060000D01*
X148640000Y-99940000D02*
X148640000Y-104579000D01*
X148680000Y-92445000D02*
X148680000Y-97060000D01*
X148680000Y-99940000D02*
X148680000Y-104555000D01*
X148720000Y-92469000D02*
X148720000Y-97060000D01*
X148720000Y-99940000D02*
X148720000Y-104531000D01*
X148760000Y-92494000D02*
X148760000Y-97060000D01*
X148760000Y-99940000D02*
X148760000Y-104506000D01*
X148800000Y-92519000D02*
X148800000Y-97060000D01*
X148800000Y-99940000D02*
X148800000Y-104481000D01*
X148840000Y-92544000D02*
X148840000Y-97060000D01*
X148840000Y-99940000D02*
X148840000Y-104456000D01*
X148880000Y-92570000D02*
X148880000Y-97060000D01*
X148880000Y-99940000D02*
X148880000Y-104430000D01*
X148920000Y-92596000D02*
X148920000Y-97060000D01*
X148920000Y-99940000D02*
X148920000Y-104404000D01*
X148960000Y-92623000D02*
X148960000Y-104377000D01*
X149000000Y-92650000D02*
X149000000Y-104350000D01*
X149040000Y-92677000D02*
X149040000Y-104323000D01*
X149080000Y-92705000D02*
X149080000Y-104295000D01*
X149120000Y-92733000D02*
X149120000Y-104267000D01*
X149160000Y-92762000D02*
X149160000Y-104238000D01*
X149200000Y-92791000D02*
X149200000Y-104209000D01*
X149240000Y-92820000D02*
X149240000Y-104180000D01*
X149280000Y-92850000D02*
X149280000Y-104150000D01*
X149320000Y-92880000D02*
X149320000Y-104120000D01*
X149360000Y-92911000D02*
X149360000Y-104089000D01*
X149400000Y-92942000D02*
X149400000Y-104058000D01*
X149440000Y-92974000D02*
X149440000Y-104026000D01*
X149480000Y-93006000D02*
X149480000Y-103994000D01*
X149520000Y-93039000D02*
X149520000Y-103961000D01*
X149560000Y-93072000D02*
X149560000Y-103928000D01*
X149600000Y-93105000D02*
X149600000Y-103895000D01*
X149640000Y-93140000D02*
X149640000Y-103860000D01*
X149680000Y-93174000D02*
X149680000Y-103826000D01*
X149720000Y-93209000D02*
X149720000Y-103791000D01*
X149760000Y-93245000D02*
X149760000Y-103755000D01*
X149800000Y-93281000D02*
X149800000Y-103719000D01*
X149840000Y-93318000D02*
X149840000Y-103682000D01*
X149880000Y-93355000D02*
X149880000Y-103645000D01*
X149920000Y-93393000D02*
X149920000Y-103607000D01*
X149960000Y-93432000D02*
X149960000Y-103568000D01*
X150000000Y-93471000D02*
X150000000Y-103529000D01*
X150040000Y-93511000D02*
X150040000Y-103489000D01*
X150080000Y-93551000D02*
X150080000Y-103449000D01*
X150120000Y-93592000D02*
X150120000Y-103408000D01*
X150160000Y-93634000D02*
X150160000Y-103366000D01*
X150200000Y-93676000D02*
X150200000Y-103324000D01*
X150240000Y-93720000D02*
X150240000Y-103280000D01*
X150280000Y-93763000D02*
X150280000Y-103237000D01*
X150320000Y-93808000D02*
X150320000Y-103192000D01*
X150360000Y-93853000D02*
X150360000Y-103147000D01*
X150400000Y-93899000D02*
X150400000Y-103101000D01*
X150440000Y-93946000D02*
X150440000Y-103054000D01*
X150480000Y-93994000D02*
X150480000Y-103006000D01*
X150520000Y-94043000D02*
X150520000Y-102957000D01*
X150560000Y-94092000D02*
X150560000Y-102908000D01*
X150600000Y-94143000D02*
X150600000Y-102857000D01*
X150640000Y-94194000D02*
X150640000Y-102806000D01*
X150680000Y-94247000D02*
X150680000Y-102753000D01*
X150720000Y-94300000D02*
X150720000Y-102700000D01*
X150760000Y-94355000D02*
X150760000Y-102645000D01*
X150800000Y-94410000D02*
X150800000Y-102590000D01*
X150840000Y-94467000D02*
X150840000Y-102533000D01*
X150880000Y-94525000D02*
X150880000Y-102475000D01*
X150920000Y-94584000D02*
X150920000Y-102416000D01*
X150960000Y-94645000D02*
X150960000Y-102355000D01*
X151000000Y-94707000D02*
X151000000Y-102293000D01*
X151040000Y-94770000D02*
X151040000Y-102230000D01*
X151080000Y-94835000D02*
X151080000Y-102165000D01*
X151120000Y-94901000D02*
X151120000Y-102099000D01*
X151160000Y-94969000D02*
X151160000Y-102031000D01*
X151200000Y-95039000D02*
X151200000Y-101961000D01*
X151240000Y-95111000D02*
X151240000Y-101889000D01*
X151280000Y-95185000D02*
X151280000Y-101815000D01*
X151320000Y-95261000D02*
X151320000Y-101739000D01*
X151360000Y-95339000D02*
X151360000Y-101661000D01*
X151400000Y-95420000D02*
X151400000Y-101580000D01*
X151440000Y-95503000D02*
X151440000Y-101497000D01*
X151480000Y-95590000D02*
X151480000Y-101410000D01*
X151520000Y-95679000D02*
X151520000Y-101321000D01*
X151560000Y-95772000D02*
X151560000Y-101228000D01*
X151600000Y-95869000D02*
X151600000Y-101131000D01*
X151640000Y-95970000D02*
X151640000Y-101030000D01*
X151680000Y-96076000D02*
X151680000Y-100924000D01*
X151720000Y-96187000D02*
X151720000Y-100813000D01*
X151760000Y-96305000D02*
X151760000Y-100695000D01*
X151800000Y-96429000D02*
X151800000Y-100571000D01*
X151840000Y-96563000D02*
X151840000Y-100437000D01*
X151880000Y-96707000D02*
X151880000Y-100293000D01*
X151920000Y-96864000D02*
X151920000Y-100136000D01*
X151960000Y-97039000D02*
X151960000Y-99961000D01*
X152000000Y-97238000D02*
X152000000Y-99762000D01*
X152040000Y-97476000D02*
X152040000Y-99524000D01*
X152080000Y-97786000D02*
X152080000Y-99214000D01*
X152120000Y-98500000D02*
G75*
G02*
X137880000Y-98500000I-7120000J0D01*
G01*
X137880000Y-98500000D02*
G75*
G02*
X152120000Y-98500000I7120000J0D01*
G01*
%TO.C,J1*%
X198750000Y-71150000D02*
X197500000Y-71150000D01*
X198460000Y-71440000D02*
X192490000Y-71440000D01*
X192490000Y-71440000D02*
X192490000Y-81560000D01*
X198450000Y-71450000D02*
X197700000Y-71450000D01*
X197700000Y-71450000D02*
X197700000Y-73250000D01*
X196200000Y-71450000D02*
X196200000Y-72200000D01*
X196200000Y-72200000D02*
X193250000Y-72200000D01*
X193250000Y-72200000D02*
X193250000Y-76500000D01*
X198750000Y-72400000D02*
X198750000Y-71150000D01*
X198450000Y-73250000D02*
X198450000Y-71450000D01*
X197700000Y-73250000D02*
X198450000Y-73250000D01*
X198450000Y-74750000D02*
X197700000Y-74750000D01*
X197700000Y-74750000D02*
X197700000Y-78250000D01*
X198450000Y-78250000D02*
X198450000Y-74750000D01*
X197700000Y-78250000D02*
X198450000Y-78250000D01*
X198450000Y-79750000D02*
X197700000Y-79750000D01*
X197700000Y-79750000D02*
X197700000Y-81550000D01*
X196200000Y-80800000D02*
X193250000Y-80800000D01*
X193250000Y-80800000D02*
X193250000Y-76500000D01*
X198450000Y-81550000D02*
X198450000Y-79750000D01*
X197700000Y-81550000D02*
X198450000Y-81550000D01*
X196200000Y-81550000D02*
X196200000Y-80800000D01*
X198460000Y-81560000D02*
X198460000Y-71440000D01*
X192490000Y-81560000D02*
X198460000Y-81560000D01*
%TO.C,J4*%
X175250000Y-80350000D02*
X176500000Y-80350000D01*
X175540000Y-80060000D02*
X181510000Y-80060000D01*
X181510000Y-80060000D02*
X181510000Y-67440000D01*
X175550000Y-80050000D02*
X176300000Y-80050000D01*
X176300000Y-80050000D02*
X176300000Y-78250000D01*
X177800000Y-80050000D02*
X177800000Y-79300000D01*
X177800000Y-79300000D02*
X180750000Y-79300000D01*
X180750000Y-79300000D02*
X180750000Y-73750000D01*
X175250000Y-79100000D02*
X175250000Y-80350000D01*
X175550000Y-78250000D02*
X175550000Y-80050000D01*
X176300000Y-78250000D02*
X175550000Y-78250000D01*
X175550000Y-76750000D02*
X176300000Y-76750000D01*
X176300000Y-76750000D02*
X176300000Y-70750000D01*
X175550000Y-70750000D02*
X175550000Y-76750000D01*
X176300000Y-70750000D02*
X175550000Y-70750000D01*
X175550000Y-69250000D02*
X176300000Y-69250000D01*
X176300000Y-69250000D02*
X176300000Y-67450000D01*
X177800000Y-68200000D02*
X180750000Y-68200000D01*
X180750000Y-68200000D02*
X180750000Y-73750000D01*
X175550000Y-67450000D02*
X175550000Y-69250000D01*
X176300000Y-67450000D02*
X175550000Y-67450000D01*
X177800000Y-67450000D02*
X177800000Y-68200000D01*
X175540000Y-67440000D02*
X175540000Y-80060000D01*
X181510000Y-67440000D02*
X175540000Y-67440000D01*
%TO.C,J2*%
X183750000Y-80350000D02*
X185000000Y-80350000D01*
X184040000Y-80060000D02*
X190010000Y-80060000D01*
X190010000Y-80060000D02*
X190010000Y-67440000D01*
X184050000Y-80050000D02*
X184800000Y-80050000D01*
X184800000Y-80050000D02*
X184800000Y-78250000D01*
X186300000Y-80050000D02*
X186300000Y-79300000D01*
X186300000Y-79300000D02*
X189250000Y-79300000D01*
X189250000Y-79300000D02*
X189250000Y-73750000D01*
X183750000Y-79100000D02*
X183750000Y-80350000D01*
X184050000Y-78250000D02*
X184050000Y-80050000D01*
X184800000Y-78250000D02*
X184050000Y-78250000D01*
X184050000Y-76750000D02*
X184800000Y-76750000D01*
X184800000Y-76750000D02*
X184800000Y-70750000D01*
X184050000Y-70750000D02*
X184050000Y-76750000D01*
X184800000Y-70750000D02*
X184050000Y-70750000D01*
X184050000Y-69250000D02*
X184800000Y-69250000D01*
X184800000Y-69250000D02*
X184800000Y-67450000D01*
X186300000Y-68200000D02*
X189250000Y-68200000D01*
X189250000Y-68200000D02*
X189250000Y-73750000D01*
X184050000Y-67450000D02*
X184050000Y-69250000D01*
X184800000Y-67450000D02*
X184050000Y-67450000D01*
X186300000Y-67450000D02*
X186300000Y-68200000D01*
X184040000Y-67440000D02*
X184040000Y-80060000D01*
X190010000Y-67440000D02*
X184040000Y-67440000D01*
%TO.C,J5*%
X194910000Y-96210000D02*
X196160000Y-96210000D01*
X195200000Y-95920000D02*
X201170000Y-95920000D01*
X201170000Y-95920000D02*
X201170000Y-83300000D01*
X195210000Y-95910000D02*
X195960000Y-95910000D01*
X195960000Y-95910000D02*
X195960000Y-94110000D01*
X197460000Y-95910000D02*
X197460000Y-95160000D01*
X197460000Y-95160000D02*
X200410000Y-95160000D01*
X200410000Y-95160000D02*
X200410000Y-89610000D01*
X194910000Y-94960000D02*
X194910000Y-96210000D01*
X195210000Y-94110000D02*
X195210000Y-95910000D01*
X195960000Y-94110000D02*
X195210000Y-94110000D01*
X195210000Y-92610000D02*
X195960000Y-92610000D01*
X195960000Y-92610000D02*
X195960000Y-86610000D01*
X195210000Y-86610000D02*
X195210000Y-92610000D01*
X195960000Y-86610000D02*
X195210000Y-86610000D01*
X195210000Y-85110000D02*
X195960000Y-85110000D01*
X195960000Y-85110000D02*
X195960000Y-83310000D01*
X197460000Y-84060000D02*
X200410000Y-84060000D01*
X200410000Y-84060000D02*
X200410000Y-89610000D01*
X195210000Y-83310000D02*
X195210000Y-85110000D01*
X195960000Y-83310000D02*
X195210000Y-83310000D01*
X197460000Y-83310000D02*
X197460000Y-84060000D01*
X195200000Y-83300000D02*
X195200000Y-95920000D01*
X201170000Y-83300000D02*
X195200000Y-83300000D01*
D10*
%TO.C,U5*%
X138620000Y-122160000D02*
X138620000Y-136560000D01*
X138620000Y-136560000D02*
X151220000Y-136560000D01*
X151220000Y-122160000D02*
X138620000Y-122160000D01*
X151220000Y-136560000D02*
X151220000Y-122160000D01*
D11*
%TO.C,SW1*%
X180120000Y-64880000D02*
X180120000Y-63500000D01*
X181500000Y-64880000D02*
X180120000Y-64880000D01*
X182770000Y-64880000D02*
X185420000Y-64880000D01*
X182770000Y-64880000D02*
X182770000Y-62120000D01*
X185420000Y-64880000D02*
X185420000Y-62120000D01*
X182770000Y-62120000D02*
X185420000Y-62120000D01*
%TO.C,U2*%
D12*
X178500000Y-115500000D02*
X204500000Y-115500000D01*
X204500000Y-142000000D01*
X178500000Y-142000000D01*
X178500000Y-115500000D01*
X195459931Y-142865188D02*
X188320350Y-142865188D01*
X195459931Y-137051451D02*
X195459931Y-142865188D01*
X188320350Y-142865188D02*
X188320350Y-137051451D01*
X188320350Y-137051451D02*
X195459931Y-137051451D01*
D10*
%TO.C,U3*%
X138620000Y-106460000D02*
X138620000Y-120860000D01*
X138620000Y-120860000D02*
X151220000Y-120860000D01*
X151220000Y-106460000D02*
X138620000Y-106460000D01*
X151220000Y-120860000D02*
X151220000Y-106460000D01*
%TD*%
D13*
%TO.C,U2*%
X180070000Y-134780000D03*
X180070000Y-132240000D03*
X180070000Y-129700000D03*
X180070000Y-127160000D03*
X180070000Y-124620000D03*
X180070000Y-122080000D03*
X180070000Y-119540000D03*
X180070000Y-117000000D03*
X202930000Y-117000000D03*
X202930000Y-119540000D03*
X202930000Y-122080000D03*
X202930000Y-124620000D03*
X202930000Y-127160000D03*
X202930000Y-129700000D03*
X202930000Y-132240000D03*
X202930000Y-134780000D03*
%TD*%
M02*
