%TF.GenerationSoftware,KiCad,Pcbnew,9.0.4*%
%TF.CreationDate,2025-10-25T00:01:33+02:00*%
%TF.ProjectId,Chessfield,43686573-7366-4696-956c-642e6b696361,rev?*%
%TF.SameCoordinates,Original*%
%TF.FileFunction,Copper,L2,Bot*%
%TF.FilePolarity,Positive*%
%FSLAX46Y46*%
G04 Gerber Fmt 4.6, Leading zero omitted, Abs format (unit mm)*
G04 Created by KiCad (PCBNEW 9.0.4) date 2025-10-25 00:01:33*
%MOMM*%
%LPD*%
G01*
G04 APERTURE LIST*
%TA.AperFunction,ComponentPad*%
%ADD10R,1.700000X1.700000*%
%TD*%
%TA.AperFunction,ComponentPad*%
%ADD11C,1.700000*%
%TD*%
%TA.AperFunction,ComponentPad*%
%ADD12R,1.050000X1.500000*%
%TD*%
%TA.AperFunction,ComponentPad*%
%ADD13O,1.050000X1.500000*%
%TD*%
%TA.AperFunction,Conductor*%
%ADD14C,0.500000*%
%TD*%
G04 APERTURE END LIST*
D10*
%TO.P,J4,1,Pin_1*%
%TO.N,+5V*%
X142052500Y-82885000D03*
D11*
%TO.P,J4,2,Pin_2*%
%TO.N,DOL*%
X144592500Y-82885000D03*
%TO.P,J4,3,Pin_3*%
%TO.N,DOS*%
X147132500Y-82885000D03*
%TO.P,J4,4,Pin_4*%
%TO.N,GND*%
X149672500Y-82885000D03*
%TD*%
D10*
%TO.P,J3,1,Pin_1*%
%TO.N,GND*%
X149672500Y-108000000D03*
D11*
%TO.P,J3,2,Pin_2*%
%TO.N,DOS*%
X147132500Y-108000000D03*
%TO.P,J3,3,Pin_3*%
%TO.N,DIL*%
X144592500Y-108000000D03*
%TO.P,J3,4,Pin_4*%
%TO.N,+5V*%
X142052500Y-108000000D03*
%TD*%
D12*
%TO.P,H1,1,VCC*%
%TO.N,VS*%
X144592500Y-92000000D03*
D13*
%TO.P,H1,2,GND*%
%TO.N,GND*%
X145862500Y-92000000D03*
%TO.P,H1,3,OUT*%
%TO.N,DOS*%
X147132500Y-92000000D03*
%TD*%
D10*
%TO.P,J2,1,Pin_1*%
%TO.N,+5V*%
X158477500Y-91690000D03*
D11*
%TO.P,J2,2,Pin_2*%
%TO.N,DIL*%
X158477500Y-94230000D03*
%TO.P,J2,3,Pin_3*%
%TO.N,VS*%
X158477500Y-96770000D03*
%TO.P,J2,4,Pin_4*%
%TO.N,GND*%
X158477500Y-99310000D03*
%TD*%
D10*
%TO.P,J1,1,Pin_1*%
%TO.N,GND*%
X133247500Y-99310000D03*
D11*
%TO.P,J1,2,Pin_2*%
%TO.N,VS*%
X133247500Y-96770000D03*
%TO.P,J1,3,Pin_3*%
%TO.N,DOL*%
X133247500Y-94230000D03*
%TO.P,J1,4,Pin_4*%
%TO.N,+5V*%
X133247500Y-91690000D03*
%TD*%
D14*
%TO.N,VS*%
X145416806Y-90699000D02*
X144592500Y-91523306D01*
X152406500Y-90699000D02*
X145416806Y-90699000D01*
X158477500Y-96770000D02*
X152406500Y-90699000D01*
X144592500Y-91523306D02*
X144592500Y-92000000D01*
%TO.N,DOS*%
X147132500Y-108000000D02*
X147132500Y-92000000D01*
%TO.N,DIL*%
X145993500Y-109401000D02*
X144592500Y-108000000D01*
X151099000Y-109401000D02*
X145993500Y-109401000D01*
X160000000Y-100500000D02*
X151099000Y-109401000D01*
X158477500Y-94230000D02*
X160000000Y-95752500D01*
X160000000Y-95752500D02*
X160000000Y-100500000D01*
%TO.N,+5V*%
X131846500Y-100711000D02*
X131846500Y-93091000D01*
X139135500Y-108000000D02*
X131846500Y-100711000D01*
X131846500Y-93091000D02*
X133247500Y-91690000D01*
X142052500Y-108000000D02*
X139135500Y-108000000D01*
X142052500Y-82885000D02*
X133247500Y-91690000D01*
X158477500Y-89708686D02*
X150019814Y-81251000D01*
X150019814Y-81251000D02*
X143686500Y-81251000D01*
X158477500Y-91690000D02*
X158477500Y-89708686D01*
X143686500Y-81251000D02*
X142052500Y-82885000D01*
X158362500Y-91690000D02*
X158477500Y-91690000D01*
%TO.N,VS*%
X138017500Y-92000000D02*
X133247500Y-96770000D01*
X144592500Y-92000000D02*
X138017500Y-92000000D01*
%TO.N,DIL*%
X144707500Y-108000000D02*
X144592500Y-108000000D01*
%TO.N,DOL*%
X144592500Y-82885000D02*
X133247500Y-94230000D01*
%TD*%
%TA.AperFunction,Conductor*%
%TO.N,GND*%
G36*
X152111309Y-91469185D02*
G01*
X152131951Y-91485819D01*
X157107324Y-96461191D01*
X157140809Y-96522514D01*
X157142116Y-96568270D01*
X157127000Y-96663707D01*
X157127000Y-96876286D01*
X157160253Y-97086239D01*
X157225944Y-97288414D01*
X157322451Y-97477820D01*
X157447390Y-97649786D01*
X157597713Y-97800109D01*
X157769679Y-97925048D01*
X157769681Y-97925049D01*
X157769684Y-97925051D01*
X157778993Y-97929794D01*
X157829790Y-97977766D01*
X157846587Y-98045587D01*
X157824052Y-98111722D01*
X157779005Y-98150760D01*
X157769946Y-98155376D01*
X157769940Y-98155380D01*
X157715782Y-98194727D01*
X157715782Y-98194728D01*
X158348091Y-98827037D01*
X158284507Y-98844075D01*
X158170493Y-98909901D01*
X158077401Y-99002993D01*
X158011575Y-99117007D01*
X157994537Y-99180591D01*
X157362228Y-98548282D01*
X157362227Y-98548282D01*
X157322880Y-98602439D01*
X157226404Y-98791782D01*
X157160742Y-98993869D01*
X157160742Y-98993872D01*
X157127500Y-99203753D01*
X157127500Y-99416246D01*
X157160742Y-99626127D01*
X157160742Y-99626130D01*
X157226404Y-99828217D01*
X157322875Y-100017550D01*
X157362228Y-100071716D01*
X157994537Y-99439408D01*
X158011575Y-99502993D01*
X158077401Y-99617007D01*
X158170493Y-99710099D01*
X158284507Y-99775925D01*
X158348089Y-99792962D01*
X157715782Y-100425269D01*
X157715782Y-100425270D01*
X157769949Y-100464624D01*
X157959282Y-100561095D01*
X158161370Y-100626757D01*
X158371254Y-100660000D01*
X158479269Y-100660000D01*
X158546308Y-100679685D01*
X158592063Y-100732489D01*
X158602007Y-100801647D01*
X158572982Y-100865203D01*
X158566950Y-100871681D01*
X151193246Y-108245384D01*
X151131923Y-108278869D01*
X151062231Y-108273885D01*
X151025066Y-108250000D01*
X150105512Y-108250000D01*
X150138425Y-108192993D01*
X150172500Y-108065826D01*
X150172500Y-107934174D01*
X150138425Y-107807007D01*
X150105512Y-107750000D01*
X151022500Y-107750000D01*
X151022500Y-107102172D01*
X151022499Y-107102155D01*
X151016098Y-107042627D01*
X151016096Y-107042620D01*
X150965854Y-106907913D01*
X150965850Y-106907906D01*
X150879690Y-106792812D01*
X150879687Y-106792809D01*
X150764593Y-106706649D01*
X150764586Y-106706645D01*
X150629879Y-106656403D01*
X150629872Y-106656401D01*
X150570344Y-106650000D01*
X149922500Y-106650000D01*
X149922500Y-107566988D01*
X149865493Y-107534075D01*
X149738326Y-107500000D01*
X149606674Y-107500000D01*
X149479507Y-107534075D01*
X149422500Y-107566988D01*
X149422500Y-106650000D01*
X148774655Y-106650000D01*
X148715127Y-106656401D01*
X148715120Y-106656403D01*
X148580413Y-106706645D01*
X148580406Y-106706649D01*
X148465312Y-106792809D01*
X148465309Y-106792812D01*
X148379149Y-106907906D01*
X148379146Y-106907912D01*
X148330077Y-107039471D01*
X148288205Y-107095404D01*
X148222741Y-107119821D01*
X148154468Y-107104969D01*
X148126214Y-107083818D01*
X148012294Y-106969898D01*
X148012288Y-106969893D01*
X147934115Y-106913097D01*
X147891449Y-106857767D01*
X147883000Y-106812779D01*
X147883000Y-92976138D01*
X147902685Y-92909099D01*
X147919322Y-92888454D01*
X147929058Y-92878718D01*
X148041282Y-92710762D01*
X148041282Y-92710761D01*
X148041286Y-92710756D01*
X148118591Y-92524127D01*
X148158000Y-92326003D01*
X148158000Y-91673997D01*
X148142822Y-91597691D01*
X148149049Y-91528100D01*
X148191912Y-91472923D01*
X148257802Y-91449678D01*
X148264439Y-91449500D01*
X152044270Y-91449500D01*
X152111309Y-91469185D01*
G37*
%TD.AperFunction*%
%TA.AperFunction,Conductor*%
G36*
X145632245Y-92300075D02*
G01*
X145717755Y-92349444D01*
X145813130Y-92375000D01*
X145911870Y-92375000D01*
X146007245Y-92349444D01*
X146092755Y-92300075D01*
X146107000Y-92285830D01*
X146107000Y-92326003D01*
X146112222Y-92352259D01*
X146112468Y-92363046D01*
X146112500Y-92365865D01*
X146112500Y-93220352D01*
X146161474Y-93210612D01*
X146161479Y-93210610D01*
X146210547Y-93190286D01*
X146280017Y-93182817D01*
X146342496Y-93214092D01*
X146378148Y-93274181D01*
X146382000Y-93304847D01*
X146382000Y-106812779D01*
X146362315Y-106879818D01*
X146330885Y-106913097D01*
X146252711Y-106969893D01*
X146252705Y-106969898D01*
X146102390Y-107120213D01*
X145977449Y-107292182D01*
X145972984Y-107300946D01*
X145925009Y-107351742D01*
X145857188Y-107368536D01*
X145791053Y-107345998D01*
X145752016Y-107300946D01*
X145747550Y-107292182D01*
X145622609Y-107120213D01*
X145472286Y-106969890D01*
X145300320Y-106844951D01*
X145110914Y-106748444D01*
X145110913Y-106748443D01*
X145110912Y-106748443D01*
X144908743Y-106682754D01*
X144908741Y-106682753D01*
X144908740Y-106682753D01*
X144747457Y-106657208D01*
X144698787Y-106649500D01*
X144486213Y-106649500D01*
X144437542Y-106657208D01*
X144276260Y-106682753D01*
X144074085Y-106748444D01*
X143884679Y-106844951D01*
X143712713Y-106969890D01*
X143562390Y-107120213D01*
X143437449Y-107292182D01*
X143432984Y-107300946D01*
X143385009Y-107351742D01*
X143317188Y-107368536D01*
X143251053Y-107345998D01*
X143212016Y-107300946D01*
X143207550Y-107292182D01*
X143082609Y-107120213D01*
X142932286Y-106969890D01*
X142760320Y-106844951D01*
X142570914Y-106748444D01*
X142570913Y-106748443D01*
X142570912Y-106748443D01*
X142368743Y-106682754D01*
X142368741Y-106682753D01*
X142368740Y-106682753D01*
X142207457Y-106657208D01*
X142158787Y-106649500D01*
X141946213Y-106649500D01*
X141897542Y-106657208D01*
X141736260Y-106682753D01*
X141534085Y-106748444D01*
X141344679Y-106844951D01*
X141172713Y-106969890D01*
X141022392Y-107120211D01*
X140965597Y-107198385D01*
X140910267Y-107241051D01*
X140865279Y-107249500D01*
X139497729Y-107249500D01*
X139430690Y-107229815D01*
X139410048Y-107213181D01*
X138846367Y-106649500D01*
X133014862Y-100817994D01*
X132981379Y-100756674D01*
X132986363Y-100686982D01*
X132997500Y-100669653D01*
X132997500Y-99743012D01*
X133054507Y-99775925D01*
X133181674Y-99810000D01*
X133313326Y-99810000D01*
X133440493Y-99775925D01*
X133497500Y-99743012D01*
X133497500Y-100660000D01*
X134145328Y-100660000D01*
X134145344Y-100659999D01*
X134204872Y-100653598D01*
X134204879Y-100653596D01*
X134339586Y-100603354D01*
X134339593Y-100603350D01*
X134454687Y-100517190D01*
X134454690Y-100517187D01*
X134540850Y-100402093D01*
X134540854Y-100402086D01*
X134591096Y-100267379D01*
X134591098Y-100267372D01*
X134597499Y-100207844D01*
X134597500Y-100207827D01*
X134597500Y-99560000D01*
X133680512Y-99560000D01*
X133713425Y-99502993D01*
X133747500Y-99375826D01*
X133747500Y-99244174D01*
X133713425Y-99117007D01*
X133680512Y-99060000D01*
X134597500Y-99060000D01*
X134597500Y-98412172D01*
X134597499Y-98412155D01*
X134591098Y-98352627D01*
X134591096Y-98352620D01*
X134540854Y-98217913D01*
X134540850Y-98217906D01*
X134454690Y-98102812D01*
X134454687Y-98102809D01*
X134339593Y-98016649D01*
X134339588Y-98016646D01*
X134208028Y-97967577D01*
X134152095Y-97925705D01*
X134127678Y-97860241D01*
X134142530Y-97791968D01*
X134163675Y-97763720D01*
X134277604Y-97649792D01*
X134402551Y-97477816D01*
X134499057Y-97288412D01*
X134564746Y-97086243D01*
X134598000Y-96876287D01*
X134598000Y-96663713D01*
X134582882Y-96568268D01*
X134591836Y-96498979D01*
X134617671Y-96461195D01*
X138292049Y-92786819D01*
X138353372Y-92753334D01*
X138379730Y-92750500D01*
X143450523Y-92750500D01*
X143517562Y-92770185D01*
X143563317Y-92822989D01*
X143570766Y-92850134D01*
X143571624Y-92849932D01*
X143573407Y-92857479D01*
X143623702Y-92992328D01*
X143623706Y-92992335D01*
X143709952Y-93107544D01*
X143709955Y-93107547D01*
X143825164Y-93193793D01*
X143825171Y-93193797D01*
X143960017Y-93244091D01*
X143960016Y-93244091D01*
X143966944Y-93244835D01*
X144019627Y-93250500D01*
X145165372Y-93250499D01*
X145224983Y-93244091D01*
X145359831Y-93193796D01*
X145361393Y-93192626D01*
X145363222Y-93191944D01*
X145367618Y-93189544D01*
X145367962Y-93190175D01*
X145426854Y-93168204D01*
X145483164Y-93177326D01*
X145563517Y-93210609D01*
X145563525Y-93210611D01*
X145612500Y-93220353D01*
X145612500Y-92855671D01*
X145613211Y-92842415D01*
X145617999Y-92797881D01*
X145618000Y-92797873D01*
X145617999Y-92285829D01*
X145632245Y-92300075D01*
G37*
%TD.AperFunction*%
%TA.AperFunction,Conductor*%
G36*
X149206575Y-83077993D02*
G01*
X149272401Y-83192007D01*
X149365493Y-83285099D01*
X149479507Y-83350925D01*
X149543090Y-83367962D01*
X148910782Y-84000269D01*
X148910782Y-84000270D01*
X148964949Y-84039624D01*
X149154282Y-84136095D01*
X149356370Y-84201757D01*
X149566254Y-84235000D01*
X149778746Y-84235000D01*
X149988627Y-84201757D01*
X149988630Y-84201757D01*
X150190717Y-84136095D01*
X150380054Y-84039622D01*
X150434216Y-84000270D01*
X150434217Y-84000270D01*
X149801908Y-83367962D01*
X149865493Y-83350925D01*
X149979507Y-83285099D01*
X150072599Y-83192007D01*
X150138425Y-83077993D01*
X150155462Y-83014409D01*
X150787770Y-83646717D01*
X150787770Y-83646716D01*
X150827122Y-83592554D01*
X150909255Y-83431361D01*
X150957230Y-83380565D01*
X151025051Y-83363770D01*
X151091186Y-83386307D01*
X151107421Y-83399975D01*
X157690681Y-89983234D01*
X157705384Y-90010161D01*
X157721977Y-90035980D01*
X157722868Y-90042180D01*
X157724166Y-90044557D01*
X157727000Y-90070915D01*
X157727000Y-90215500D01*
X157707315Y-90282539D01*
X157654511Y-90328294D01*
X157603005Y-90339500D01*
X157579632Y-90339500D01*
X157579623Y-90339501D01*
X157520016Y-90345908D01*
X157385171Y-90396202D01*
X157385164Y-90396206D01*
X157269955Y-90482452D01*
X157269952Y-90482455D01*
X157183706Y-90597664D01*
X157183702Y-90597671D01*
X157133408Y-90732517D01*
X157127001Y-90792116D01*
X157127001Y-90792123D01*
X157127000Y-90792135D01*
X157127000Y-92587870D01*
X157127001Y-92587876D01*
X157133408Y-92647483D01*
X157183702Y-92782328D01*
X157183706Y-92782335D01*
X157269952Y-92897544D01*
X157269955Y-92897547D01*
X157385164Y-92983793D01*
X157385171Y-92983797D01*
X157516582Y-93032810D01*
X157572516Y-93074681D01*
X157596933Y-93140145D01*
X157582082Y-93208418D01*
X157560931Y-93236673D01*
X157447389Y-93350215D01*
X157322451Y-93522179D01*
X157225944Y-93711585D01*
X157160253Y-93913760D01*
X157133018Y-94085713D01*
X157103089Y-94148848D01*
X157043777Y-94185779D01*
X156973914Y-94184781D01*
X156922864Y-94153996D01*
X152884913Y-90116045D01*
X152838339Y-90084927D01*
X152807288Y-90064180D01*
X152761995Y-90033916D01*
X152761994Y-90033915D01*
X152761992Y-90033914D01*
X152761990Y-90033913D01*
X152625417Y-89977343D01*
X152625407Y-89977340D01*
X152480420Y-89948500D01*
X152480418Y-89948500D01*
X145342888Y-89948500D01*
X145342882Y-89948500D01*
X145314048Y-89954234D01*
X145314049Y-89954235D01*
X145197899Y-89977339D01*
X145197889Y-89977342D01*
X145117887Y-90010479D01*
X145117888Y-90010480D01*
X145061311Y-90033915D01*
X145016018Y-90064180D01*
X145016016Y-90064181D01*
X144938395Y-90116043D01*
X144938390Y-90116047D01*
X144341255Y-90713181D01*
X144279932Y-90746666D01*
X144253575Y-90749500D01*
X144019630Y-90749500D01*
X144019623Y-90749501D01*
X143960016Y-90755908D01*
X143825171Y-90806202D01*
X143825164Y-90806206D01*
X143709955Y-90892452D01*
X143709952Y-90892455D01*
X143623706Y-91007664D01*
X143623702Y-91007671D01*
X143573408Y-91142517D01*
X143571626Y-91150062D01*
X143569353Y-91149525D01*
X143547071Y-91203312D01*
X143489677Y-91243157D01*
X143450524Y-91249500D01*
X137943576Y-91249500D01*
X137914742Y-91255234D01*
X137914743Y-91255235D01*
X137798593Y-91278339D01*
X137798583Y-91278342D01*
X137718581Y-91311479D01*
X137718582Y-91311480D01*
X137662006Y-91334915D01*
X137618352Y-91364084D01*
X137539082Y-91417049D01*
X137539081Y-91417050D01*
X134802135Y-94153995D01*
X134791085Y-94160028D01*
X134782978Y-94169660D01*
X134761001Y-94176455D01*
X134740812Y-94187480D01*
X134728254Y-94186581D01*
X134716227Y-94190301D01*
X134694067Y-94184137D01*
X134671120Y-94182496D01*
X134661040Y-94174950D01*
X134648913Y-94171577D01*
X134633602Y-94154410D01*
X134615187Y-94140624D01*
X134609674Y-94127580D01*
X134602408Y-94119433D01*
X134591981Y-94085714D01*
X134591981Y-94085713D01*
X134582882Y-94028268D01*
X134591836Y-93958980D01*
X134617671Y-93921195D01*
X144283694Y-84255172D01*
X144345015Y-84221689D01*
X144390765Y-84220382D01*
X144486213Y-84235500D01*
X144486215Y-84235500D01*
X144698786Y-84235500D01*
X144698787Y-84235500D01*
X144908743Y-84202246D01*
X145110912Y-84136557D01*
X145300316Y-84040051D01*
X145355072Y-84000269D01*
X145472286Y-83915109D01*
X145472288Y-83915106D01*
X145472292Y-83915104D01*
X145622604Y-83764792D01*
X145622606Y-83764788D01*
X145622609Y-83764786D01*
X145747548Y-83592820D01*
X145747547Y-83592820D01*
X145747551Y-83592816D01*
X145752014Y-83584054D01*
X145799988Y-83533259D01*
X145867808Y-83516463D01*
X145933944Y-83538999D01*
X145972986Y-83584056D01*
X145977451Y-83592820D01*
X146102390Y-83764786D01*
X146252713Y-83915109D01*
X146424679Y-84040048D01*
X146424681Y-84040049D01*
X146424684Y-84040051D01*
X146614088Y-84136557D01*
X146816257Y-84202246D01*
X147026213Y-84235500D01*
X147026214Y-84235500D01*
X147238786Y-84235500D01*
X147238787Y-84235500D01*
X147448743Y-84202246D01*
X147650912Y-84136557D01*
X147840316Y-84040051D01*
X147895072Y-84000269D01*
X148012286Y-83915109D01*
X148012288Y-83915106D01*
X148012292Y-83915104D01*
X148162604Y-83764792D01*
X148162606Y-83764788D01*
X148162609Y-83764786D01*
X148248390Y-83646717D01*
X148287551Y-83592816D01*
X148292293Y-83583508D01*
X148340263Y-83532711D01*
X148408083Y-83515911D01*
X148474219Y-83538445D01*
X148513263Y-83583500D01*
X148517873Y-83592547D01*
X148557228Y-83646716D01*
X149189536Y-83014407D01*
X149206575Y-83077993D01*
G37*
%TD.AperFunction*%
%TD*%
M02*
