%TF.GenerationSoftware,KiCad,Pcbnew,9.0.4*%
%TF.CreationDate,2025-10-25T00:01:33+02:00*%
%TF.ProjectId,Chessfield,43686573-7366-4696-956c-642e6b696361,rev?*%
%TF.SameCoordinates,Original*%
%TF.FileFunction,Copper,L1,Top*%
%TF.FilePolarity,Positive*%
%FSLAX46Y46*%
G04 Gerber Fmt 4.6, Leading zero omitted, Abs format (unit mm)*
G04 Created by KiCad (PCBNEW 9.0.4) date 2025-10-25 00:01:33*
%MOMM*%
%LPD*%
G01*
G04 APERTURE LIST*
G04 Aperture macros list*
%AMRoundRect*
0 Rectangle with rounded corners*
0 $1 Rounding radius*
0 $2 $3 $4 $5 $6 $7 $8 $9 X,Y pos of 4 corners*
0 Add a 4 corners polygon primitive as box body*
4,1,4,$2,$3,$4,$5,$6,$7,$8,$9,$2,$3,0*
0 Add four circle primitives for the rounded corners*
1,1,$1+$1,$2,$3*
1,1,$1+$1,$4,$5*
1,1,$1+$1,$6,$7*
1,1,$1+$1,$8,$9*
0 Add four rect primitives between the rounded corners*
20,1,$1+$1,$2,$3,$4,$5,0*
20,1,$1+$1,$4,$5,$6,$7,0*
20,1,$1+$1,$6,$7,$8,$9,0*
20,1,$1+$1,$8,$9,$2,$3,0*%
G04 Aperture macros list end*
%TA.AperFunction,SMDPad,CuDef*%
%ADD10RoundRect,0.090000X-0.660000X-0.360000X0.660000X-0.360000X0.660000X0.360000X-0.660000X0.360000X0*%
%TD*%
%TA.AperFunction,ComponentPad*%
%ADD11R,1.700000X1.700000*%
%TD*%
%TA.AperFunction,ComponentPad*%
%ADD12C,1.700000*%
%TD*%
%TA.AperFunction,SMDPad,CuDef*%
%ADD13RoundRect,0.237500X-0.300000X-0.237500X0.300000X-0.237500X0.300000X0.237500X-0.300000X0.237500X0*%
%TD*%
%TA.AperFunction,ComponentPad*%
%ADD14R,1.050000X1.500000*%
%TD*%
%TA.AperFunction,ComponentPad*%
%ADD15O,1.050000X1.500000*%
%TD*%
%TA.AperFunction,SMDPad,CuDef*%
%ADD16RoundRect,0.090000X0.660000X0.360000X-0.660000X0.360000X-0.660000X-0.360000X0.660000X-0.360000X0*%
%TD*%
%TA.AperFunction,SMDPad,CuDef*%
%ADD17RoundRect,0.237500X0.300000X0.237500X-0.300000X0.237500X-0.300000X-0.237500X0.300000X-0.237500X0*%
%TD*%
%TA.AperFunction,Conductor*%
%ADD18C,0.500000*%
%TD*%
G04 APERTURE END LIST*
D10*
%TO.P,D1,4,DIN*%
%TO.N,DIL*%
X141312500Y-86850000D03*
%TO.P,D1,3,VSS*%
%TO.N,GND*%
X141312500Y-90150000D03*
%TO.P,D1,2,DOUT*%
%TO.N,Net-(D1-DOUT)*%
X136412500Y-90150000D03*
%TO.P,D1,1,VDD*%
%TO.N,+5V*%
X136412500Y-86850000D03*
%TD*%
D11*
%TO.P,J4,1,Pin_1*%
%TO.N,+5V*%
X142052500Y-82885000D03*
D12*
%TO.P,J4,2,Pin_2*%
%TO.N,DOL*%
X144592500Y-82885000D03*
%TO.P,J4,3,Pin_3*%
%TO.N,DOS*%
X147132500Y-82885000D03*
%TO.P,J4,4,Pin_4*%
%TO.N,GND*%
X149672500Y-82885000D03*
%TD*%
D13*
%TO.P,C1,1*%
%TO.N,+5V*%
X138000000Y-93000000D03*
%TO.P,C1,2*%
%TO.N,GND*%
X139725000Y-93000000D03*
%TD*%
D11*
%TO.P,J3,1,Pin_1*%
%TO.N,GND*%
X149672500Y-108000000D03*
D12*
%TO.P,J3,2,Pin_2*%
%TO.N,DOS*%
X147132500Y-108000000D03*
%TO.P,J3,3,Pin_3*%
%TO.N,DIL*%
X144592500Y-108000000D03*
%TO.P,J3,4,Pin_4*%
%TO.N,+5V*%
X142052500Y-108000000D03*
%TD*%
D14*
%TO.P,H1,1,VCC*%
%TO.N,VS*%
X144592500Y-92000000D03*
D15*
%TO.P,H1,2,GND*%
%TO.N,GND*%
X145862500Y-92000000D03*
%TO.P,H1,3,OUT*%
%TO.N,DOS*%
X147132500Y-92000000D03*
%TD*%
D16*
%TO.P,D4,1,VDD*%
%TO.N,+5V*%
X155312500Y-104150000D03*
%TO.P,D4,2,DOUT*%
%TO.N,DOL*%
X155312500Y-100850000D03*
%TO.P,D4,3,VSS*%
%TO.N,GND*%
X150412500Y-100850000D03*
%TO.P,D4,4,DIN*%
%TO.N,Net-(D3-DOUT)*%
X150412500Y-104150000D03*
%TD*%
D17*
%TO.P,C4,1*%
%TO.N,+5V*%
X153725000Y-97500000D03*
%TO.P,C4,2*%
%TO.N,GND*%
X152000000Y-97500000D03*
%TD*%
D16*
%TO.P,D3,1,VDD*%
%TO.N,+5V*%
X155312500Y-90150000D03*
%TO.P,D3,2,DOUT*%
%TO.N,Net-(D3-DOUT)*%
X155312500Y-86850000D03*
%TO.P,D3,3,VSS*%
%TO.N,GND*%
X150412500Y-86850000D03*
%TO.P,D3,4,DIN*%
%TO.N,Net-(D2-DOUT)*%
X150412500Y-90150000D03*
%TD*%
D11*
%TO.P,J2,1,Pin_1*%
%TO.N,+5V*%
X158477500Y-91690000D03*
D12*
%TO.P,J2,2,Pin_2*%
%TO.N,DIL*%
X158477500Y-94230000D03*
%TO.P,J2,3,Pin_3*%
%TO.N,VS*%
X158477500Y-96770000D03*
%TO.P,J2,4,Pin_4*%
%TO.N,GND*%
X158477500Y-99310000D03*
%TD*%
D17*
%TO.P,C3,1*%
%TO.N,+5V*%
X153725000Y-93000000D03*
%TO.P,C3,2*%
%TO.N,GND*%
X152000000Y-93000000D03*
%TD*%
D13*
%TO.P,C2,1*%
%TO.N,+5V*%
X138000000Y-97500000D03*
%TO.P,C2,2*%
%TO.N,GND*%
X139725000Y-97500000D03*
%TD*%
D16*
%TO.P,D2,1,VDD*%
%TO.N,+5V*%
X141312500Y-104150000D03*
%TO.P,D2,2,DOUT*%
%TO.N,Net-(D2-DOUT)*%
X141312500Y-100850000D03*
%TO.P,D2,3,VSS*%
%TO.N,GND*%
X136412500Y-100850000D03*
%TO.P,D2,4,DIN*%
%TO.N,Net-(D1-DOUT)*%
X136412500Y-104150000D03*
%TD*%
D11*
%TO.P,J1,1,Pin_1*%
%TO.N,GND*%
X133247500Y-99310000D03*
D12*
%TO.P,J1,2,Pin_2*%
%TO.N,VS*%
X133247500Y-96770000D03*
%TO.P,J1,3,Pin_3*%
%TO.N,DOL*%
X133247500Y-94230000D03*
%TO.P,J1,4,Pin_4*%
%TO.N,+5V*%
X133247500Y-91690000D03*
%TD*%
D18*
%TO.N,Net-(D3-DOUT)*%
X154533496Y-103000000D02*
X156768814Y-103000000D01*
X153383496Y-104150000D02*
X154533496Y-103000000D01*
X150412500Y-104150000D02*
X153383496Y-104150000D01*
%TO.N,Net-(D2-DOUT)*%
X143147462Y-102684962D02*
X141312500Y-100850000D01*
X151831785Y-102684962D02*
X143147462Y-102684962D01*
X152516748Y-102000000D02*
X151831785Y-102684962D01*
X156613500Y-101478004D02*
X156091504Y-102000000D01*
X156240504Y-99849000D02*
X156613500Y-100221996D01*
X148500000Y-99000000D02*
X149349000Y-99849000D01*
X156091504Y-102000000D02*
X152516748Y-102000000D01*
X148500000Y-92062500D02*
X148500000Y-99000000D01*
X149349000Y-99849000D02*
X156240504Y-99849000D01*
X156613500Y-100221996D02*
X156613500Y-101478004D01*
X150412500Y-90150000D02*
X148500000Y-92062500D01*
%TO.N,DOL*%
X151500000Y-101883962D02*
X145383962Y-101883962D01*
X152533962Y-100850000D02*
X151500000Y-101883962D01*
X155312500Y-100850000D02*
X152533962Y-100850000D01*
%TO.N,GND*%
X158215500Y-99048000D02*
X158477500Y-99310000D01*
%TO.N,DOL*%
X143500000Y-100000000D02*
X145383962Y-101883962D01*
X146000000Y-88500000D02*
X143500000Y-91000000D01*
X143500000Y-91000000D02*
X143500000Y-100000000D01*
X146000000Y-84292500D02*
X146000000Y-88500000D01*
X144592500Y-82885000D02*
X146000000Y-84292500D01*
%TO.N,Net-(D3-DOUT)*%
X156439500Y-86850000D02*
X155312500Y-86850000D01*
X159878500Y-99890314D02*
X159878500Y-90289000D01*
X159878500Y-90289000D02*
X156439500Y-86850000D01*
X156768814Y-103000000D02*
X159878500Y-99890314D01*
%TO.N,+5V*%
X156937500Y-90150000D02*
X158477500Y-91690000D01*
X155312500Y-90150000D02*
X156937500Y-90150000D01*
%TO.N,DOL*%
X144592500Y-82885000D02*
X144500000Y-82977500D01*
%TO.N,+5V*%
X155312500Y-91412500D02*
X153725000Y-93000000D01*
X155312500Y-90150000D02*
X155312500Y-91412500D01*
X153725000Y-97500000D02*
X153725000Y-93000000D01*
X153962500Y-106512000D02*
X153962500Y-105500000D01*
X143453500Y-109401000D02*
X151073500Y-109401000D01*
X151073500Y-109401000D02*
X153962500Y-106512000D01*
X142052500Y-108000000D02*
X143453500Y-109401000D01*
X153962500Y-105500000D02*
X155312500Y-104150000D01*
X142662500Y-105500000D02*
X153962500Y-105500000D01*
X141312500Y-104150000D02*
X142662500Y-105500000D01*
X133247500Y-90015000D02*
X133247500Y-91690000D01*
X136412500Y-86850000D02*
X133247500Y-90015000D01*
X138000000Y-88437500D02*
X136412500Y-86850000D01*
X138000000Y-93000000D02*
X138000000Y-88437500D01*
X138000000Y-97500000D02*
X138000000Y-93000000D01*
%TO.N,DIL*%
X143191500Y-106599000D02*
X144592500Y-108000000D01*
X141599000Y-106599000D02*
X143191500Y-106599000D01*
X140011500Y-105011500D02*
X141599000Y-106599000D01*
X140011500Y-100221996D02*
X140011500Y-105011500D01*
X140813500Y-99419996D02*
X140011500Y-100221996D01*
X140813500Y-92429312D02*
X140813500Y-99419996D01*
X140011500Y-91627312D02*
X140813500Y-92429312D01*
X140011500Y-88151000D02*
X140011500Y-91627312D01*
X141312500Y-86850000D02*
X140011500Y-88151000D01*
%TO.N,Net-(D1-DOUT)*%
X137713500Y-102849000D02*
X136412500Y-104150000D01*
X137713500Y-100221996D02*
X137713500Y-102849000D01*
X136412500Y-98920996D02*
X137713500Y-100221996D01*
X136412500Y-90150000D02*
X136412500Y-98920996D01*
%TO.N,DOS*%
X147132500Y-82885000D02*
X147132500Y-92000000D01*
%TD*%
%TA.AperFunction,Conductor*%
%TO.N,GND*%
G36*
X160305039Y-81020185D02*
G01*
X160350794Y-81072989D01*
X160362000Y-81124500D01*
X160362000Y-89411770D01*
X160342315Y-89478809D01*
X160289511Y-89524564D01*
X160220353Y-89534508D01*
X160156797Y-89505483D01*
X160150319Y-89499451D01*
X156917921Y-86267052D01*
X156917920Y-86267051D01*
X156805967Y-86192247D01*
X156805944Y-86192232D01*
X156805899Y-86192202D01*
X156794995Y-86184916D01*
X156794993Y-86184915D01*
X156794990Y-86184913D01*
X156658417Y-86128343D01*
X156658407Y-86128340D01*
X156513420Y-86099500D01*
X156513418Y-86099500D01*
X156475660Y-86099500D01*
X156408621Y-86079815D01*
X156400500Y-86073271D01*
X156400096Y-86073799D01*
X156393650Y-86068853D01*
X156393649Y-86068851D01*
X156270298Y-85974200D01*
X156270294Y-85974198D01*
X156126651Y-85914699D01*
X156126649Y-85914698D01*
X156011201Y-85899500D01*
X154613796Y-85899500D01*
X154498357Y-85914696D01*
X154498348Y-85914699D01*
X154354705Y-85974198D01*
X154354702Y-85974199D01*
X154354702Y-85974200D01*
X154231351Y-86068851D01*
X154136703Y-86192199D01*
X154136698Y-86192205D01*
X154077199Y-86335848D01*
X154077198Y-86335850D01*
X154062000Y-86451298D01*
X154062000Y-87248703D01*
X154077196Y-87364142D01*
X154077199Y-87364151D01*
X154136593Y-87507541D01*
X154136700Y-87507798D01*
X154231351Y-87631149D01*
X154354702Y-87725800D01*
X154498349Y-87785301D01*
X154613799Y-87800500D01*
X156011200Y-87800499D01*
X156011203Y-87800499D01*
X156126642Y-87785303D01*
X156126645Y-87785301D01*
X156126651Y-87785301D01*
X156182179Y-87762299D01*
X156251647Y-87754831D01*
X156314126Y-87786105D01*
X156317312Y-87789180D01*
X158655952Y-90127819D01*
X158689437Y-90189142D01*
X158684453Y-90258834D01*
X158642581Y-90314767D01*
X158577117Y-90339184D01*
X158568271Y-90339500D01*
X158239730Y-90339500D01*
X158172691Y-90319815D01*
X158152049Y-90303181D01*
X157415921Y-89567052D01*
X157415920Y-89567051D01*
X157303967Y-89492247D01*
X157303944Y-89492232D01*
X157303899Y-89492202D01*
X157292995Y-89484916D01*
X157292993Y-89484915D01*
X157292990Y-89484913D01*
X157156417Y-89428343D01*
X157156407Y-89428340D01*
X157011420Y-89399500D01*
X157011418Y-89399500D01*
X156475660Y-89399500D01*
X156408621Y-89379815D01*
X156400500Y-89373271D01*
X156400096Y-89373799D01*
X156393650Y-89368853D01*
X156393649Y-89368851D01*
X156270298Y-89274200D01*
X156270294Y-89274198D01*
X156126651Y-89214699D01*
X156126649Y-89214698D01*
X156011201Y-89199500D01*
X154613796Y-89199500D01*
X154498357Y-89214696D01*
X154498348Y-89214699D01*
X154354705Y-89274198D01*
X154354702Y-89274199D01*
X154354702Y-89274200D01*
X154231351Y-89368851D01*
X154136703Y-89492199D01*
X154136698Y-89492205D01*
X154077199Y-89635848D01*
X154077198Y-89635850D01*
X154062000Y-89751298D01*
X154062000Y-90548703D01*
X154077196Y-90664142D01*
X154077199Y-90664151D01*
X154136593Y-90807541D01*
X154136700Y-90807798D01*
X154231351Y-90931149D01*
X154354702Y-91025800D01*
X154354707Y-91025802D01*
X154383452Y-91037709D01*
X154437855Y-91081550D01*
X154459920Y-91147844D01*
X154442641Y-91215544D01*
X154423680Y-91239951D01*
X153675449Y-91988181D01*
X153614126Y-92021666D01*
X153587769Y-92024500D01*
X153375831Y-92024500D01*
X153375812Y-92024501D01*
X153274747Y-92034825D01*
X153110984Y-92089092D01*
X153110981Y-92089093D01*
X152964148Y-92179661D01*
X152949825Y-92193984D01*
X152888501Y-92227468D01*
X152818809Y-92222482D01*
X152774465Y-92193982D01*
X152760538Y-92180055D01*
X152760534Y-92180052D01*
X152613811Y-92089551D01*
X152613800Y-92089546D01*
X152450152Y-92035319D01*
X152349154Y-92025000D01*
X152250000Y-92025000D01*
X152250000Y-93974999D01*
X152349140Y-93974999D01*
X152349154Y-93974998D01*
X152450152Y-93964680D01*
X152613800Y-93910453D01*
X152613811Y-93910448D01*
X152760537Y-93819945D01*
X152762813Y-93817670D01*
X152764762Y-93816605D01*
X152766206Y-93815464D01*
X152766400Y-93815710D01*
X152824134Y-93784181D01*
X152893826Y-93789160D01*
X152949762Y-93831028D01*
X152974183Y-93896491D01*
X152974500Y-93905345D01*
X152974500Y-96594655D01*
X152954815Y-96661694D01*
X152902011Y-96707449D01*
X152832853Y-96717393D01*
X152769297Y-96688368D01*
X152762819Y-96682336D01*
X152760538Y-96680055D01*
X152760534Y-96680052D01*
X152613811Y-96589551D01*
X152613800Y-96589546D01*
X152450152Y-96535319D01*
X152349154Y-96525000D01*
X152250000Y-96525000D01*
X152250000Y-98474999D01*
X152349140Y-98474999D01*
X152349154Y-98474998D01*
X152450152Y-98464680D01*
X152613800Y-98410453D01*
X152613811Y-98410448D01*
X152760535Y-98319947D01*
X152774460Y-98306021D01*
X152835782Y-98272533D01*
X152905473Y-98277514D01*
X152949827Y-98306017D01*
X152964150Y-98320340D01*
X153110984Y-98410908D01*
X153274747Y-98465174D01*
X153375823Y-98475500D01*
X154074176Y-98475499D01*
X154074184Y-98475498D01*
X154074187Y-98475498D01*
X154129530Y-98469844D01*
X154175253Y-98465174D01*
X154339016Y-98410908D01*
X154485850Y-98320340D01*
X154607840Y-98198350D01*
X154698408Y-98051516D01*
X154752674Y-97887753D01*
X154763000Y-97786677D01*
X154762999Y-97213324D01*
X154752674Y-97112247D01*
X154698408Y-96948484D01*
X154607840Y-96801650D01*
X154511819Y-96705629D01*
X154478334Y-96644306D01*
X154475500Y-96617948D01*
X154475500Y-93882052D01*
X154495185Y-93815013D01*
X154511819Y-93794371D01*
X154523583Y-93782607D01*
X154607840Y-93698350D01*
X154698408Y-93551516D01*
X154752674Y-93387753D01*
X154763000Y-93286677D01*
X154762999Y-93074729D01*
X154782683Y-93007690D01*
X154799313Y-92987053D01*
X155895452Y-91890916D01*
X155958680Y-91796287D01*
X155977584Y-91767995D01*
X156034158Y-91631413D01*
X156063000Y-91486418D01*
X156063000Y-91194519D01*
X156082685Y-91127480D01*
X156135489Y-91081725D01*
X156139507Y-91079975D01*
X156270293Y-91025802D01*
X156270294Y-91025802D01*
X156270294Y-91025801D01*
X156270298Y-91025800D01*
X156393649Y-90931149D01*
X156393650Y-90931146D01*
X156400096Y-90926201D01*
X156402259Y-90929021D01*
X156414906Y-90922115D01*
X156440725Y-90905523D01*
X156446925Y-90904631D01*
X156449302Y-90903334D01*
X156475660Y-90900500D01*
X156575270Y-90900500D01*
X156642309Y-90920185D01*
X156662951Y-90936819D01*
X157090681Y-91364549D01*
X157124166Y-91425872D01*
X157127000Y-91452230D01*
X157127000Y-92587870D01*
X157127001Y-92587876D01*
X157133408Y-92647483D01*
X157183702Y-92782328D01*
X157183706Y-92782335D01*
X157269952Y-92897544D01*
X157269955Y-92897547D01*
X157385164Y-92983793D01*
X157385171Y-92983797D01*
X157516582Y-93032810D01*
X157572516Y-93074681D01*
X157596933Y-93140145D01*
X157582082Y-93208418D01*
X157560931Y-93236673D01*
X157447389Y-93350215D01*
X157322451Y-93522179D01*
X157225944Y-93711585D01*
X157160253Y-93913760D01*
X157127000Y-94123713D01*
X157127000Y-94336286D01*
X157160253Y-94546239D01*
X157225944Y-94748414D01*
X157322451Y-94937820D01*
X157447390Y-95109786D01*
X157597713Y-95260109D01*
X157769682Y-95385050D01*
X157778446Y-95389516D01*
X157829242Y-95437491D01*
X157846036Y-95505312D01*
X157823498Y-95571447D01*
X157778446Y-95610484D01*
X157769682Y-95614949D01*
X157597713Y-95739890D01*
X157447390Y-95890213D01*
X157322451Y-96062179D01*
X157225944Y-96251585D01*
X157160253Y-96453760D01*
X157130074Y-96644306D01*
X157127000Y-96663713D01*
X157127000Y-96876287D01*
X157160254Y-97086243D01*
X157201547Y-97213330D01*
X157225944Y-97288414D01*
X157322451Y-97477820D01*
X157447390Y-97649786D01*
X157597713Y-97800109D01*
X157769679Y-97925048D01*
X157769681Y-97925049D01*
X157769684Y-97925051D01*
X157778993Y-97929794D01*
X157829790Y-97977766D01*
X157846587Y-98045587D01*
X157824052Y-98111722D01*
X157779005Y-98150760D01*
X157769946Y-98155376D01*
X157769940Y-98155380D01*
X157715782Y-98194727D01*
X157715782Y-98194728D01*
X158348091Y-98827037D01*
X158284507Y-98844075D01*
X158170493Y-98909901D01*
X158077401Y-99002993D01*
X158011575Y-99117007D01*
X157994537Y-99180591D01*
X157362228Y-98548282D01*
X157362227Y-98548282D01*
X157322880Y-98602439D01*
X157226404Y-98791782D01*
X157160742Y-98993869D01*
X157160742Y-98993872D01*
X157127500Y-99203753D01*
X157127500Y-99375265D01*
X157107815Y-99442304D01*
X157055011Y-99488059D01*
X156985853Y-99498003D01*
X156922297Y-99468978D01*
X156915819Y-99462946D01*
X156718925Y-99266052D01*
X156718918Y-99266046D01*
X156645233Y-99216812D01*
X156645233Y-99216813D01*
X156595995Y-99183913D01*
X156459421Y-99127343D01*
X156459411Y-99127340D01*
X156314424Y-99098500D01*
X156314422Y-99098500D01*
X149711229Y-99098500D01*
X149644190Y-99078815D01*
X149623548Y-99062181D01*
X149286819Y-98725451D01*
X149253334Y-98664128D01*
X149250500Y-98637770D01*
X149250500Y-97786654D01*
X150962501Y-97786654D01*
X150972819Y-97887652D01*
X151027046Y-98051300D01*
X151027051Y-98051311D01*
X151117552Y-98198034D01*
X151117555Y-98198038D01*
X151239461Y-98319944D01*
X151239465Y-98319947D01*
X151386188Y-98410448D01*
X151386199Y-98410453D01*
X151549847Y-98464680D01*
X151650851Y-98474999D01*
X151750000Y-98474998D01*
X151750000Y-97750000D01*
X150962501Y-97750000D01*
X150962501Y-97786654D01*
X149250500Y-97786654D01*
X149250500Y-97213345D01*
X150962500Y-97213345D01*
X150962500Y-97250000D01*
X151750000Y-97250000D01*
X151750000Y-96524999D01*
X151650860Y-96525000D01*
X151650844Y-96525001D01*
X151549847Y-96535319D01*
X151386199Y-96589546D01*
X151386188Y-96589551D01*
X151239465Y-96680052D01*
X151239461Y-96680055D01*
X151117555Y-96801961D01*
X151117552Y-96801965D01*
X151027051Y-96948688D01*
X151027046Y-96948699D01*
X150972819Y-97112347D01*
X150962500Y-97213345D01*
X149250500Y-97213345D01*
X149250500Y-93286654D01*
X150962501Y-93286654D01*
X150972819Y-93387652D01*
X151027046Y-93551300D01*
X151027051Y-93551311D01*
X151117552Y-93698034D01*
X151117555Y-93698038D01*
X151239461Y-93819944D01*
X151239465Y-93819947D01*
X151386188Y-93910448D01*
X151386199Y-93910453D01*
X151549847Y-93964680D01*
X151650851Y-93974999D01*
X151750000Y-93974998D01*
X151750000Y-93250000D01*
X150962501Y-93250000D01*
X150962501Y-93286654D01*
X149250500Y-93286654D01*
X149250500Y-92713345D01*
X150962500Y-92713345D01*
X150962500Y-92750000D01*
X151750000Y-92750000D01*
X151750000Y-92024999D01*
X151650860Y-92025000D01*
X151650844Y-92025001D01*
X151549847Y-92035319D01*
X151386199Y-92089546D01*
X151386188Y-92089551D01*
X151239465Y-92180052D01*
X151239461Y-92180055D01*
X151117555Y-92301961D01*
X151117552Y-92301965D01*
X151027051Y-92448688D01*
X151027046Y-92448699D01*
X150972819Y-92612347D01*
X150962500Y-92713345D01*
X149250500Y-92713345D01*
X149250500Y-92424728D01*
X149270185Y-92357689D01*
X149286814Y-92337052D01*
X150487048Y-91136817D01*
X150548371Y-91103333D01*
X150574729Y-91100499D01*
X151111203Y-91100499D01*
X151226642Y-91085303D01*
X151226646Y-91085301D01*
X151226651Y-91085301D01*
X151370298Y-91025800D01*
X151493649Y-90931149D01*
X151588300Y-90807798D01*
X151647801Y-90664151D01*
X151663000Y-90548701D01*
X151662999Y-89751300D01*
X151662999Y-89751298D01*
X151662999Y-89751296D01*
X151647803Y-89635857D01*
X151647801Y-89635850D01*
X151647801Y-89635849D01*
X151588300Y-89492202D01*
X151493649Y-89368851D01*
X151370298Y-89274200D01*
X151370294Y-89274198D01*
X151226651Y-89214699D01*
X151226649Y-89214698D01*
X151111201Y-89199500D01*
X149713796Y-89199500D01*
X149598357Y-89214696D01*
X149598348Y-89214699D01*
X149454705Y-89274198D01*
X149454702Y-89274199D01*
X149454702Y-89274200D01*
X149331351Y-89368851D01*
X149236703Y-89492199D01*
X149236698Y-89492205D01*
X149177199Y-89635848D01*
X149177198Y-89635850D01*
X149162000Y-89751298D01*
X149162000Y-90287769D01*
X149142315Y-90354808D01*
X149125681Y-90375450D01*
X148216459Y-91284671D01*
X148199238Y-91294074D01*
X148184958Y-91307533D01*
X148169202Y-91310474D01*
X148155136Y-91318156D01*
X148135564Y-91316756D01*
X148116276Y-91320358D01*
X148101431Y-91314315D01*
X148085444Y-91313172D01*
X148069736Y-91301413D01*
X148051562Y-91294015D01*
X148033209Y-91274068D01*
X148029511Y-91271300D01*
X148027355Y-91268330D01*
X148026492Y-91267103D01*
X147929058Y-91121282D01*
X147911742Y-91103966D01*
X147905577Y-91095201D01*
X147897647Y-91071854D01*
X147885834Y-91050219D01*
X147883765Y-91030978D01*
X147883108Y-91029043D01*
X147883421Y-91027782D01*
X147883000Y-91023861D01*
X147883000Y-87248670D01*
X149162500Y-87248670D01*
X149177685Y-87364019D01*
X149177687Y-87364024D01*
X149237133Y-87507541D01*
X149237133Y-87507542D01*
X149331707Y-87630792D01*
X149454958Y-87725366D01*
X149598475Y-87784812D01*
X149598480Y-87784814D01*
X149713829Y-87800000D01*
X150162500Y-87800000D01*
X150662500Y-87800000D01*
X151111171Y-87800000D01*
X151226519Y-87784814D01*
X151226524Y-87784812D01*
X151370041Y-87725366D01*
X151370042Y-87725366D01*
X151493292Y-87630792D01*
X151587866Y-87507542D01*
X151587866Y-87507541D01*
X151647312Y-87364024D01*
X151647314Y-87364019D01*
X151662500Y-87248670D01*
X151662500Y-87100000D01*
X150662500Y-87100000D01*
X150662500Y-87800000D01*
X150162500Y-87800000D01*
X150162500Y-87100000D01*
X149162500Y-87100000D01*
X149162500Y-87248670D01*
X147883000Y-87248670D01*
X147883000Y-86451329D01*
X149162500Y-86451329D01*
X149162500Y-86600000D01*
X150162500Y-86600000D01*
X150662500Y-86600000D01*
X151662500Y-86600000D01*
X151662500Y-86451329D01*
X151647314Y-86335980D01*
X151647312Y-86335975D01*
X151587866Y-86192458D01*
X151587866Y-86192457D01*
X151493292Y-86069207D01*
X151370041Y-85974633D01*
X151226524Y-85915187D01*
X151226519Y-85915185D01*
X151111171Y-85900000D01*
X150662500Y-85900000D01*
X150662500Y-86600000D01*
X150162500Y-86600000D01*
X150162500Y-85900000D01*
X149713829Y-85900000D01*
X149598480Y-85915185D01*
X149598475Y-85915187D01*
X149454958Y-85974633D01*
X149454957Y-85974633D01*
X149331707Y-86069207D01*
X149237133Y-86192457D01*
X149237133Y-86192458D01*
X149177687Y-86335975D01*
X149177685Y-86335980D01*
X149162500Y-86451329D01*
X147883000Y-86451329D01*
X147883000Y-84072220D01*
X147883330Y-84071093D01*
X147883021Y-84069962D01*
X147893146Y-84037665D01*
X147902685Y-84005181D01*
X147903686Y-84004046D01*
X147903923Y-84003292D01*
X147909131Y-83997877D01*
X147927518Y-83977044D01*
X147930730Y-83974361D01*
X148012292Y-83915104D01*
X148162604Y-83764792D01*
X148162606Y-83764788D01*
X148162609Y-83764786D01*
X148248390Y-83646717D01*
X148287551Y-83592816D01*
X148292293Y-83583508D01*
X148340263Y-83532711D01*
X148408083Y-83515911D01*
X148474219Y-83538445D01*
X148513263Y-83583500D01*
X148517873Y-83592547D01*
X148557228Y-83646716D01*
X149189537Y-83014408D01*
X149206575Y-83077993D01*
X149272401Y-83192007D01*
X149365493Y-83285099D01*
X149479507Y-83350925D01*
X149543090Y-83367962D01*
X148910782Y-84000269D01*
X148910782Y-84000270D01*
X148964949Y-84039624D01*
X149154282Y-84136095D01*
X149356370Y-84201757D01*
X149566254Y-84235000D01*
X149778746Y-84235000D01*
X149988627Y-84201757D01*
X149988630Y-84201757D01*
X150190717Y-84136095D01*
X150380054Y-84039622D01*
X150434216Y-84000270D01*
X150434217Y-84000270D01*
X149801908Y-83367962D01*
X149865493Y-83350925D01*
X149979507Y-83285099D01*
X150072599Y-83192007D01*
X150138425Y-83077993D01*
X150155462Y-83014409D01*
X150787770Y-83646717D01*
X150787770Y-83646716D01*
X150827122Y-83592554D01*
X150923595Y-83403217D01*
X150989257Y-83201130D01*
X150989257Y-83201127D01*
X151022500Y-82991246D01*
X151022500Y-82893713D01*
X157012000Y-82893713D01*
X157012000Y-83106287D01*
X157045254Y-83316243D01*
X157110130Y-83515911D01*
X157110944Y-83518414D01*
X157207451Y-83707820D01*
X157332390Y-83879786D01*
X157482713Y-84030109D01*
X157654679Y-84155048D01*
X157654681Y-84155049D01*
X157654684Y-84155051D01*
X157844088Y-84251557D01*
X158046257Y-84317246D01*
X158256213Y-84350500D01*
X158256214Y-84350500D01*
X158468786Y-84350500D01*
X158468787Y-84350500D01*
X158678743Y-84317246D01*
X158880912Y-84251557D01*
X159070316Y-84155051D01*
X159156346Y-84092547D01*
X159242286Y-84030109D01*
X159242288Y-84030106D01*
X159242292Y-84030104D01*
X159392604Y-83879792D01*
X159392606Y-83879788D01*
X159392609Y-83879786D01*
X159517548Y-83707820D01*
X159517547Y-83707820D01*
X159517551Y-83707816D01*
X159614057Y-83518412D01*
X159679746Y-83316243D01*
X159713000Y-83106287D01*
X159713000Y-82893713D01*
X159679746Y-82683757D01*
X159614057Y-82481588D01*
X159517551Y-82292184D01*
X159517549Y-82292181D01*
X159517548Y-82292179D01*
X159392609Y-82120213D01*
X159242286Y-81969890D01*
X159070320Y-81844951D01*
X158880914Y-81748444D01*
X158880913Y-81748443D01*
X158880912Y-81748443D01*
X158678743Y-81682754D01*
X158678741Y-81682753D01*
X158678740Y-81682753D01*
X158517457Y-81657208D01*
X158468787Y-81649500D01*
X158256213Y-81649500D01*
X158207542Y-81657208D01*
X158046260Y-81682753D01*
X157844085Y-81748444D01*
X157654679Y-81844951D01*
X157482713Y-81969890D01*
X157332390Y-82120213D01*
X157207451Y-82292179D01*
X157110944Y-82481585D01*
X157045253Y-82683760D01*
X157043947Y-82692007D01*
X157012000Y-82893713D01*
X151022500Y-82893713D01*
X151022500Y-82778753D01*
X150989257Y-82568872D01*
X150989257Y-82568869D01*
X150923595Y-82366782D01*
X150827124Y-82177449D01*
X150787770Y-82123282D01*
X150787769Y-82123282D01*
X150155462Y-82755590D01*
X150138425Y-82692007D01*
X150072599Y-82577993D01*
X149979507Y-82484901D01*
X149865493Y-82419075D01*
X149801909Y-82402037D01*
X150434216Y-81769728D01*
X150380050Y-81730375D01*
X150190717Y-81633904D01*
X149988629Y-81568242D01*
X149778746Y-81535000D01*
X149566254Y-81535000D01*
X149356372Y-81568242D01*
X149356369Y-81568242D01*
X149154282Y-81633904D01*
X148964939Y-81730380D01*
X148910782Y-81769727D01*
X148910782Y-81769728D01*
X149543091Y-82402037D01*
X149479507Y-82419075D01*
X149365493Y-82484901D01*
X149272401Y-82577993D01*
X149206575Y-82692007D01*
X149189537Y-82755591D01*
X148557228Y-82123282D01*
X148557227Y-82123282D01*
X148517880Y-82177440D01*
X148517876Y-82177446D01*
X148513260Y-82186505D01*
X148465281Y-82237297D01*
X148397459Y-82254087D01*
X148331326Y-82231543D01*
X148292294Y-82186493D01*
X148287551Y-82177184D01*
X148287549Y-82177181D01*
X148287548Y-82177179D01*
X148162609Y-82005213D01*
X148012286Y-81854890D01*
X147840320Y-81729951D01*
X147650914Y-81633444D01*
X147650913Y-81633443D01*
X147650912Y-81633443D01*
X147448743Y-81567754D01*
X147448741Y-81567753D01*
X147448740Y-81567753D01*
X147287457Y-81542208D01*
X147238787Y-81534500D01*
X147026213Y-81534500D01*
X146977542Y-81542208D01*
X146816260Y-81567753D01*
X146614085Y-81633444D01*
X146424679Y-81729951D01*
X146252713Y-81854890D01*
X146102390Y-82005213D01*
X145977449Y-82177182D01*
X145972984Y-82185946D01*
X145925009Y-82236742D01*
X145857188Y-82253536D01*
X145791053Y-82230998D01*
X145752016Y-82185946D01*
X145747550Y-82177182D01*
X145622609Y-82005213D01*
X145472286Y-81854890D01*
X145300320Y-81729951D01*
X145110914Y-81633444D01*
X145110913Y-81633443D01*
X145110912Y-81633443D01*
X144908743Y-81567754D01*
X144908741Y-81567753D01*
X144908740Y-81567753D01*
X144747457Y-81542208D01*
X144698787Y-81534500D01*
X144486213Y-81534500D01*
X144437542Y-81542208D01*
X144276260Y-81567753D01*
X144074085Y-81633444D01*
X143884679Y-81729951D01*
X143712715Y-81854889D01*
X143599173Y-81968431D01*
X143537850Y-82001915D01*
X143468158Y-81996931D01*
X143412225Y-81955059D01*
X143395310Y-81924082D01*
X143346297Y-81792671D01*
X143346293Y-81792664D01*
X143260047Y-81677455D01*
X143260044Y-81677452D01*
X143144835Y-81591206D01*
X143144828Y-81591202D01*
X143009982Y-81540908D01*
X143009983Y-81540908D01*
X142950383Y-81534501D01*
X142950381Y-81534500D01*
X142950373Y-81534500D01*
X142950364Y-81534500D01*
X141154629Y-81534500D01*
X141154623Y-81534501D01*
X141095016Y-81540908D01*
X140960171Y-81591202D01*
X140960164Y-81591206D01*
X140844955Y-81677452D01*
X140844952Y-81677455D01*
X140758706Y-81792664D01*
X140758702Y-81792671D01*
X140708408Y-81927517D01*
X140702001Y-81987116D01*
X140702000Y-81987135D01*
X140702000Y-83782870D01*
X140702001Y-83782876D01*
X140708408Y-83842483D01*
X140758702Y-83977328D01*
X140758706Y-83977335D01*
X140844952Y-84092544D01*
X140844955Y-84092547D01*
X140960164Y-84178793D01*
X140960171Y-84178797D01*
X141095017Y-84229091D01*
X141095016Y-84229091D01*
X141101944Y-84229835D01*
X141154627Y-84235500D01*
X142950372Y-84235499D01*
X143009983Y-84229091D01*
X143144831Y-84178796D01*
X143260046Y-84092546D01*
X143346296Y-83977331D01*
X143395310Y-83845916D01*
X143437181Y-83789984D01*
X143502645Y-83765566D01*
X143570918Y-83780417D01*
X143599173Y-83801569D01*
X143712713Y-83915109D01*
X143884679Y-84040048D01*
X143884681Y-84040049D01*
X143884684Y-84040051D01*
X144074088Y-84136557D01*
X144276257Y-84202246D01*
X144486213Y-84235500D01*
X144486214Y-84235500D01*
X144698784Y-84235500D01*
X144698787Y-84235500D01*
X144794231Y-84220382D01*
X144863520Y-84229336D01*
X144901307Y-84255174D01*
X145213181Y-84567048D01*
X145246666Y-84628371D01*
X145249500Y-84654729D01*
X145249500Y-88137769D01*
X145229815Y-88204808D01*
X145213181Y-88225450D01*
X142917050Y-90521580D01*
X142917044Y-90521588D01*
X142867812Y-90595268D01*
X142867813Y-90595269D01*
X142834921Y-90644496D01*
X142834914Y-90644508D01*
X142778342Y-90781086D01*
X142778340Y-90781092D01*
X142749500Y-90926079D01*
X142749500Y-90926082D01*
X142749500Y-100073918D01*
X142749500Y-100073920D01*
X142749499Y-100073920D01*
X142778340Y-100218907D01*
X142778343Y-100218917D01*
X142834914Y-100355492D01*
X142867812Y-100404727D01*
X142867813Y-100404730D01*
X142917046Y-100478414D01*
X142917052Y-100478421D01*
X144161414Y-101722781D01*
X144194899Y-101784104D01*
X144189915Y-101853795D01*
X144148044Y-101909729D01*
X144082579Y-101934146D01*
X144073733Y-101934462D01*
X143509691Y-101934462D01*
X143442652Y-101914777D01*
X143422010Y-101898143D01*
X142599318Y-101075451D01*
X142565833Y-101014128D01*
X142562999Y-100987770D01*
X142562999Y-100451296D01*
X142547803Y-100335857D01*
X142547801Y-100335852D01*
X142547801Y-100335849D01*
X142488300Y-100192202D01*
X142393649Y-100068851D01*
X142270298Y-99974200D01*
X142270294Y-99974198D01*
X142126651Y-99914699D01*
X142126649Y-99914698D01*
X142011202Y-99899500D01*
X142011201Y-99899500D01*
X141612797Y-99899500D01*
X141545758Y-99879815D01*
X141500003Y-99827011D01*
X141490059Y-99757853D01*
X141498236Y-99728048D01*
X141535156Y-99638913D01*
X141535158Y-99638909D01*
X141564000Y-99493914D01*
X141564000Y-99346079D01*
X141564000Y-92355394D01*
X141564000Y-92355391D01*
X141535159Y-92210404D01*
X141535158Y-92210403D01*
X141535158Y-92210399D01*
X141523536Y-92182341D01*
X141478587Y-92073823D01*
X141478580Y-92073810D01*
X141396452Y-91950897D01*
X141396185Y-91950630D01*
X141291916Y-91846361D01*
X141070555Y-91625000D01*
X140798319Y-91352763D01*
X140783615Y-91325835D01*
X140767023Y-91300017D01*
X140766131Y-91293816D01*
X140764834Y-91291440D01*
X140762000Y-91265082D01*
X140762000Y-91224000D01*
X140781685Y-91156961D01*
X140834489Y-91111206D01*
X140886000Y-91100000D01*
X141062500Y-91100000D01*
X141562500Y-91100000D01*
X142011171Y-91100000D01*
X142126519Y-91084814D01*
X142126524Y-91084812D01*
X142270041Y-91025366D01*
X142270042Y-91025366D01*
X142393292Y-90930792D01*
X142487866Y-90807542D01*
X142487866Y-90807541D01*
X142547312Y-90664024D01*
X142547314Y-90664019D01*
X142562500Y-90548670D01*
X142562500Y-90400000D01*
X141562500Y-90400000D01*
X141562500Y-91100000D01*
X141062500Y-91100000D01*
X141062500Y-89900000D01*
X141562500Y-89900000D01*
X142562500Y-89900000D01*
X142562500Y-89751329D01*
X142547314Y-89635980D01*
X142547312Y-89635975D01*
X142487866Y-89492458D01*
X142487866Y-89492457D01*
X142393292Y-89369207D01*
X142270041Y-89274633D01*
X142126524Y-89215187D01*
X142126519Y-89215185D01*
X142011171Y-89200000D01*
X141562500Y-89200000D01*
X141562500Y-89900000D01*
X141062500Y-89900000D01*
X141062500Y-89200000D01*
X140886000Y-89200000D01*
X140818961Y-89180315D01*
X140773206Y-89127511D01*
X140762000Y-89076000D01*
X140762000Y-88513229D01*
X140781685Y-88446190D01*
X140798315Y-88425552D01*
X141387049Y-87836817D01*
X141448372Y-87803333D01*
X141474730Y-87800499D01*
X142011203Y-87800499D01*
X142126642Y-87785303D01*
X142126646Y-87785301D01*
X142126651Y-87785301D01*
X142270298Y-87725800D01*
X142393649Y-87631149D01*
X142488300Y-87507798D01*
X142547801Y-87364151D01*
X142563000Y-87248701D01*
X142562999Y-86451300D01*
X142562999Y-86451298D01*
X142562999Y-86451296D01*
X142547803Y-86335857D01*
X142547801Y-86335850D01*
X142547801Y-86335849D01*
X142488300Y-86192202D01*
X142393649Y-86068851D01*
X142270298Y-85974200D01*
X142270294Y-85974198D01*
X142126651Y-85914699D01*
X142126649Y-85914698D01*
X142011201Y-85899500D01*
X140613796Y-85899500D01*
X140498357Y-85914696D01*
X140498348Y-85914699D01*
X140354705Y-85974198D01*
X140354702Y-85974199D01*
X140354702Y-85974200D01*
X140231351Y-86068851D01*
X140136703Y-86192199D01*
X140136698Y-86192205D01*
X140077199Y-86335848D01*
X140077198Y-86335850D01*
X140062000Y-86451298D01*
X140062000Y-86987769D01*
X140042315Y-87054808D01*
X140025681Y-87075450D01*
X139428545Y-87672586D01*
X139399647Y-87715839D01*
X139399645Y-87715842D01*
X139346419Y-87795498D01*
X139346412Y-87795511D01*
X139289843Y-87932082D01*
X139289840Y-87932092D01*
X139261000Y-88077079D01*
X139261000Y-88077082D01*
X139261000Y-91701230D01*
X139261000Y-91701232D01*
X139260999Y-91701232D01*
X139289840Y-91846219D01*
X139289842Y-91846225D01*
X139305869Y-91884917D01*
X139313338Y-91954386D01*
X139282063Y-92016866D01*
X139230312Y-92050076D01*
X139111199Y-92089546D01*
X139111188Y-92089551D01*
X138964465Y-92180052D01*
X138964458Y-92180058D01*
X138962175Y-92182341D01*
X138960224Y-92183406D01*
X138958799Y-92184533D01*
X138958606Y-92184289D01*
X138900850Y-92215822D01*
X138831159Y-92210833D01*
X138775228Y-92168958D01*
X138750815Y-92103492D01*
X138750500Y-92094654D01*
X138750500Y-88363579D01*
X138721659Y-88218592D01*
X138721658Y-88218591D01*
X138721658Y-88218587D01*
X138715951Y-88204808D01*
X138665087Y-88082011D01*
X138665085Y-88082007D01*
X138665084Y-88082005D01*
X138624712Y-88021584D01*
X138582952Y-87959084D01*
X137699318Y-87075450D01*
X137665833Y-87014127D01*
X137662999Y-86987769D01*
X137662999Y-86451296D01*
X137647803Y-86335857D01*
X137647801Y-86335850D01*
X137647801Y-86335849D01*
X137588300Y-86192202D01*
X137493649Y-86068851D01*
X137370298Y-85974200D01*
X137370294Y-85974198D01*
X137226651Y-85914699D01*
X137226649Y-85914698D01*
X137111201Y-85899500D01*
X135713796Y-85899500D01*
X135598357Y-85914696D01*
X135598348Y-85914699D01*
X135454705Y-85974198D01*
X135454702Y-85974199D01*
X135454702Y-85974200D01*
X135331351Y-86068851D01*
X135236703Y-86192199D01*
X135236698Y-86192205D01*
X135177199Y-86335848D01*
X135177198Y-86335850D01*
X135162000Y-86451298D01*
X135162000Y-86987769D01*
X135142315Y-87054808D01*
X135125681Y-87075450D01*
X132664549Y-89536582D01*
X132664543Y-89536589D01*
X132643995Y-89567342D01*
X132643996Y-89567343D01*
X132582414Y-89659508D01*
X132525843Y-89796082D01*
X132525840Y-89796092D01*
X132497000Y-89941079D01*
X132497000Y-90502779D01*
X132477315Y-90569818D01*
X132445885Y-90603097D01*
X132367711Y-90659893D01*
X132367705Y-90659898D01*
X132217390Y-90810213D01*
X132092451Y-90982179D01*
X131995944Y-91171585D01*
X131930253Y-91373760D01*
X131917825Y-91452230D01*
X131897000Y-91583713D01*
X131897000Y-91796287D01*
X131906340Y-91855255D01*
X131922040Y-91954386D01*
X131930254Y-92006243D01*
X131991254Y-92193982D01*
X131995944Y-92208414D01*
X132092451Y-92397820D01*
X132217390Y-92569786D01*
X132367713Y-92720109D01*
X132539682Y-92845050D01*
X132548446Y-92849516D01*
X132599242Y-92897491D01*
X132616036Y-92965312D01*
X132593498Y-93031447D01*
X132548446Y-93070484D01*
X132539682Y-93074949D01*
X132367713Y-93199890D01*
X132217390Y-93350213D01*
X132092451Y-93522179D01*
X131995944Y-93711585D01*
X131930253Y-93913760D01*
X131897000Y-94123713D01*
X131897000Y-94336286D01*
X131930253Y-94546239D01*
X131995944Y-94748414D01*
X132092451Y-94937820D01*
X132217390Y-95109786D01*
X132367713Y-95260109D01*
X132539682Y-95385050D01*
X132548446Y-95389516D01*
X132599242Y-95437491D01*
X132616036Y-95505312D01*
X132593498Y-95571447D01*
X132548446Y-95610484D01*
X132539682Y-95614949D01*
X132367713Y-95739890D01*
X132217390Y-95890213D01*
X132092451Y-96062179D01*
X131995944Y-96251585D01*
X131930253Y-96453760D01*
X131900074Y-96644306D01*
X131897000Y-96663713D01*
X131897000Y-96876287D01*
X131930254Y-97086243D01*
X131971547Y-97213330D01*
X131995944Y-97288414D01*
X132092451Y-97477820D01*
X132217390Y-97649786D01*
X132331318Y-97763714D01*
X132364803Y-97825037D01*
X132359819Y-97894729D01*
X132317947Y-97950662D01*
X132286971Y-97967577D01*
X132155412Y-98016646D01*
X132155406Y-98016649D01*
X132040312Y-98102809D01*
X132040309Y-98102812D01*
X131954149Y-98217906D01*
X131954145Y-98217913D01*
X131903903Y-98352620D01*
X131903901Y-98352627D01*
X131897500Y-98412155D01*
X131897500Y-99060000D01*
X132814488Y-99060000D01*
X132781575Y-99117007D01*
X132747500Y-99244174D01*
X132747500Y-99375826D01*
X132781575Y-99502993D01*
X132814488Y-99560000D01*
X131897500Y-99560000D01*
X131897500Y-100207844D01*
X131903901Y-100267372D01*
X131903903Y-100267379D01*
X131954145Y-100402086D01*
X131954149Y-100402093D01*
X132040309Y-100517187D01*
X132040312Y-100517190D01*
X132155406Y-100603350D01*
X132155413Y-100603354D01*
X132290120Y-100653596D01*
X132290127Y-100653598D01*
X132349655Y-100659999D01*
X132349672Y-100660000D01*
X132997500Y-100660000D01*
X132997500Y-99743012D01*
X133054507Y-99775925D01*
X133181674Y-99810000D01*
X133313326Y-99810000D01*
X133440493Y-99775925D01*
X133497500Y-99743012D01*
X133497500Y-100660000D01*
X134145328Y-100660000D01*
X134145344Y-100659999D01*
X134204872Y-100653598D01*
X134204879Y-100653596D01*
X134339586Y-100603354D01*
X134339593Y-100603350D01*
X134454687Y-100517190D01*
X134454690Y-100517187D01*
X134540850Y-100402093D01*
X134540854Y-100402086D01*
X134591096Y-100267379D01*
X134591098Y-100267372D01*
X134597499Y-100207844D01*
X134597500Y-100207827D01*
X134597500Y-99560000D01*
X133680512Y-99560000D01*
X133713425Y-99502993D01*
X133747500Y-99375826D01*
X133747500Y-99244174D01*
X133713425Y-99117007D01*
X133680512Y-99060000D01*
X134597500Y-99060000D01*
X134597500Y-98412172D01*
X134597499Y-98412155D01*
X134591098Y-98352627D01*
X134591096Y-98352620D01*
X134540854Y-98217913D01*
X134540850Y-98217906D01*
X134454690Y-98102812D01*
X134454687Y-98102809D01*
X134339593Y-98016649D01*
X134339588Y-98016646D01*
X134208028Y-97967577D01*
X134152095Y-97925705D01*
X134127678Y-97860241D01*
X134142530Y-97791968D01*
X134163675Y-97763720D01*
X134277604Y-97649792D01*
X134402551Y-97477816D01*
X134499057Y-97288412D01*
X134564746Y-97086243D01*
X134598000Y-96876287D01*
X134598000Y-96663713D01*
X134564746Y-96453757D01*
X134499057Y-96251588D01*
X134402551Y-96062184D01*
X134402549Y-96062181D01*
X134402548Y-96062179D01*
X134277609Y-95890213D01*
X134127286Y-95739890D01*
X133955320Y-95614951D01*
X133954615Y-95614591D01*
X133946554Y-95610485D01*
X133895759Y-95562512D01*
X133878963Y-95494692D01*
X133901499Y-95428556D01*
X133946554Y-95389515D01*
X133955316Y-95385051D01*
X133977289Y-95369086D01*
X134127286Y-95260109D01*
X134127288Y-95260106D01*
X134127292Y-95260104D01*
X134277604Y-95109792D01*
X134277606Y-95109788D01*
X134277609Y-95109786D01*
X134402548Y-94937820D01*
X134402547Y-94937820D01*
X134402551Y-94937816D01*
X134499057Y-94748412D01*
X134564746Y-94546243D01*
X134598000Y-94336287D01*
X134598000Y-94123713D01*
X134564746Y-93913757D01*
X134499057Y-93711588D01*
X134402551Y-93522184D01*
X134402549Y-93522181D01*
X134402548Y-93522179D01*
X134277609Y-93350213D01*
X134127286Y-93199890D01*
X133955320Y-93074951D01*
X133950488Y-93072489D01*
X133946554Y-93070485D01*
X133895759Y-93022512D01*
X133878963Y-92954692D01*
X133901499Y-92888556D01*
X133946554Y-92849515D01*
X133955316Y-92845051D01*
X133977289Y-92829086D01*
X134127286Y-92720109D01*
X134127288Y-92720106D01*
X134127292Y-92720104D01*
X134277604Y-92569792D01*
X134277606Y-92569788D01*
X134277609Y-92569786D01*
X134402548Y-92397820D01*
X134402547Y-92397820D01*
X134402551Y-92397816D01*
X134499057Y-92208412D01*
X134564746Y-92006243D01*
X134598000Y-91796287D01*
X134598000Y-91583713D01*
X134564746Y-91373757D01*
X134499057Y-91171588D01*
X134402551Y-90982184D01*
X134402549Y-90982181D01*
X134402548Y-90982179D01*
X134277609Y-90810213D01*
X134127294Y-90659898D01*
X134127288Y-90659893D01*
X134049115Y-90603097D01*
X134006449Y-90547767D01*
X133998000Y-90502779D01*
X133998000Y-90377230D01*
X134017685Y-90310191D01*
X134034319Y-90289549D01*
X136324819Y-87999049D01*
X136386142Y-87965564D01*
X136455834Y-87970548D01*
X136500181Y-87999049D01*
X137213181Y-88712049D01*
X137246666Y-88773372D01*
X137249500Y-88799730D01*
X137249500Y-89076312D01*
X137229815Y-89143351D01*
X137177011Y-89189106D01*
X137115343Y-89198356D01*
X137115251Y-89199765D01*
X137111208Y-89199500D01*
X135713796Y-89199500D01*
X135598357Y-89214696D01*
X135598348Y-89214699D01*
X135454705Y-89274198D01*
X135454702Y-89274199D01*
X135454702Y-89274200D01*
X135331351Y-89368851D01*
X135236703Y-89492199D01*
X135236698Y-89492205D01*
X135177199Y-89635848D01*
X135177198Y-89635850D01*
X135162000Y-89751298D01*
X135162000Y-90548703D01*
X135177196Y-90664142D01*
X135177199Y-90664151D01*
X135236593Y-90807541D01*
X135236700Y-90807798D01*
X135331351Y-90931149D01*
X135454702Y-91025800D01*
X135454705Y-91025801D01*
X135454706Y-91025802D01*
X135492433Y-91041429D01*
X135585454Y-91079959D01*
X135639856Y-91123798D01*
X135661921Y-91190092D01*
X135662000Y-91194519D01*
X135662000Y-98994914D01*
X135662000Y-98994916D01*
X135661999Y-98994916D01*
X135690840Y-99139903D01*
X135690842Y-99139909D01*
X135747415Y-99276490D01*
X135748644Y-99278328D01*
X135748649Y-99278344D01*
X135748653Y-99278342D01*
X135829547Y-99399411D01*
X135829551Y-99399416D01*
X135829552Y-99399417D01*
X136118455Y-99688319D01*
X136151940Y-99749642D01*
X136146956Y-99819333D01*
X136105085Y-99875267D01*
X136039620Y-99899684D01*
X136030774Y-99900000D01*
X135713829Y-99900000D01*
X135598480Y-99915185D01*
X135598475Y-99915187D01*
X135454958Y-99974633D01*
X135454957Y-99974633D01*
X135331707Y-100069207D01*
X135237133Y-100192457D01*
X135237133Y-100192458D01*
X135177687Y-100335975D01*
X135177685Y-100335980D01*
X135162500Y-100451329D01*
X135162500Y-100600000D01*
X136288500Y-100600000D01*
X136355539Y-100619685D01*
X136401294Y-100672489D01*
X136412500Y-100724000D01*
X136412500Y-100850000D01*
X136538500Y-100850000D01*
X136605539Y-100869685D01*
X136651294Y-100922489D01*
X136662500Y-100974000D01*
X136662500Y-101800000D01*
X136839000Y-101800000D01*
X136906039Y-101819685D01*
X136951794Y-101872489D01*
X136963000Y-101924000D01*
X136963000Y-102486769D01*
X136943315Y-102553808D01*
X136926681Y-102574450D01*
X136337949Y-103163181D01*
X136276626Y-103196666D01*
X136250268Y-103199500D01*
X135713796Y-103199500D01*
X135598357Y-103214696D01*
X135598348Y-103214699D01*
X135454705Y-103274198D01*
X135454702Y-103274199D01*
X135454702Y-103274200D01*
X135331351Y-103368851D01*
X135265134Y-103455147D01*
X135236698Y-103492205D01*
X135177199Y-103635848D01*
X135177198Y-103635850D01*
X135162000Y-103751298D01*
X135162000Y-104548703D01*
X135177196Y-104664142D01*
X135177199Y-104664151D01*
X135236700Y-104807798D01*
X135331351Y-104931149D01*
X135454702Y-105025800D01*
X135598349Y-105085301D01*
X135713799Y-105100500D01*
X137111200Y-105100499D01*
X137111203Y-105100499D01*
X137226642Y-105085303D01*
X137226646Y-105085301D01*
X137226651Y-105085301D01*
X137370298Y-105025800D01*
X137493649Y-104931149D01*
X137588300Y-104807798D01*
X137647801Y-104664151D01*
X137663000Y-104548701D01*
X137662999Y-104012229D01*
X137682683Y-103945191D01*
X137699318Y-103924549D01*
X137988011Y-103635857D01*
X138296452Y-103327416D01*
X138332009Y-103274200D01*
X138368948Y-103218917D01*
X138372174Y-103214087D01*
X138378584Y-103204495D01*
X138435158Y-103067913D01*
X138456190Y-102962181D01*
X138464000Y-102922920D01*
X138464000Y-100148075D01*
X138435159Y-100003088D01*
X138435158Y-100003087D01*
X138435158Y-100003083D01*
X138423194Y-99974200D01*
X138378587Y-99866507D01*
X138378585Y-99866503D01*
X138378584Y-99866501D01*
X138321513Y-99781088D01*
X138318063Y-99775925D01*
X138313159Y-99768585D01*
X138296452Y-99743580D01*
X137199319Y-98646447D01*
X137184615Y-98619519D01*
X137168023Y-98593701D01*
X137167131Y-98587500D01*
X137165834Y-98585124D01*
X137163000Y-98558766D01*
X137163000Y-98495544D01*
X137182685Y-98428505D01*
X137235489Y-98382750D01*
X137304647Y-98372806D01*
X137352094Y-98390004D01*
X137385984Y-98410908D01*
X137549747Y-98465174D01*
X137650823Y-98475500D01*
X138349176Y-98475499D01*
X138349184Y-98475498D01*
X138349187Y-98475498D01*
X138404530Y-98469844D01*
X138450253Y-98465174D01*
X138614016Y-98410908D01*
X138760850Y-98320340D01*
X138775171Y-98306018D01*
X138836489Y-98272533D01*
X138906181Y-98277514D01*
X138950534Y-98306017D01*
X138964461Y-98319944D01*
X138964465Y-98319947D01*
X139111188Y-98410448D01*
X139111199Y-98410453D01*
X139274847Y-98464680D01*
X139375851Y-98474999D01*
X139475000Y-98474998D01*
X139475000Y-96524999D01*
X139375860Y-96525000D01*
X139375844Y-96525001D01*
X139274847Y-96535319D01*
X139111199Y-96589546D01*
X139111188Y-96589551D01*
X138964465Y-96680052D01*
X138964458Y-96680058D01*
X138962175Y-96682341D01*
X138960224Y-96683406D01*
X138958799Y-96684533D01*
X138958606Y-96684289D01*
X138900850Y-96715822D01*
X138831159Y-96710833D01*
X138775228Y-96668958D01*
X138750815Y-96603492D01*
X138750500Y-96594654D01*
X138750500Y-93905345D01*
X138770185Y-93838306D01*
X138822989Y-93792551D01*
X138892147Y-93782607D01*
X138955703Y-93811632D01*
X138962181Y-93817664D01*
X138964461Y-93819944D01*
X138964465Y-93819947D01*
X139111188Y-93910448D01*
X139111199Y-93910453D01*
X139274847Y-93964680D01*
X139375851Y-93974999D01*
X139475000Y-93974998D01*
X139475000Y-93124000D01*
X139494685Y-93056961D01*
X139547489Y-93011206D01*
X139599000Y-93000000D01*
X139851000Y-93000000D01*
X139918039Y-93019685D01*
X139963794Y-93072489D01*
X139975000Y-93124000D01*
X139975000Y-93974999D01*
X139989965Y-93989964D01*
X140006039Y-93994684D01*
X140051794Y-94047488D01*
X140063000Y-94098999D01*
X140063000Y-96401000D01*
X140043315Y-96468039D01*
X139990511Y-96513794D01*
X139985009Y-96514990D01*
X139975000Y-96525000D01*
X139975000Y-98474999D01*
X139989965Y-98489964D01*
X140006039Y-98494684D01*
X140051794Y-98547488D01*
X140063000Y-98598999D01*
X140063000Y-99057766D01*
X140043315Y-99124805D01*
X140026681Y-99145447D01*
X139428549Y-99743578D01*
X139403486Y-99781089D01*
X139403485Y-99781090D01*
X139346419Y-99866494D01*
X139346412Y-99866507D01*
X139289843Y-100003078D01*
X139289840Y-100003088D01*
X139261000Y-100148075D01*
X139261000Y-100148078D01*
X139261000Y-105085418D01*
X139261000Y-105085420D01*
X139260999Y-105085420D01*
X139289840Y-105230407D01*
X139289843Y-105230417D01*
X139346414Y-105366992D01*
X139379312Y-105416227D01*
X139379313Y-105416230D01*
X139428546Y-105489914D01*
X139428552Y-105489921D01*
X140962844Y-107024212D01*
X140996329Y-107085535D01*
X140991345Y-107155227D01*
X140975482Y-107184777D01*
X140897450Y-107292180D01*
X140800944Y-107481585D01*
X140735253Y-107683760D01*
X140702000Y-107893713D01*
X140702000Y-108106286D01*
X140735253Y-108316239D01*
X140800944Y-108518414D01*
X140897451Y-108707820D01*
X141022390Y-108879786D01*
X141172713Y-109030109D01*
X141344679Y-109155048D01*
X141344681Y-109155049D01*
X141344684Y-109155051D01*
X141534088Y-109251557D01*
X141736257Y-109317246D01*
X141946213Y-109350500D01*
X141946214Y-109350500D01*
X142158784Y-109350500D01*
X142158787Y-109350500D01*
X142254231Y-109335382D01*
X142323520Y-109344336D01*
X142361307Y-109370174D01*
X142778951Y-109787819D01*
X142812436Y-109849142D01*
X142807452Y-109918834D01*
X142765580Y-109974767D01*
X142700116Y-109999184D01*
X142691270Y-109999500D01*
X131487000Y-109999500D01*
X131419961Y-109979815D01*
X131374206Y-109927011D01*
X131363000Y-109875500D01*
X131363000Y-107893713D01*
X132012000Y-107893713D01*
X132012000Y-108106286D01*
X132045253Y-108316239D01*
X132110944Y-108518414D01*
X132207451Y-108707820D01*
X132332390Y-108879786D01*
X132482713Y-109030109D01*
X132654679Y-109155048D01*
X132654681Y-109155049D01*
X132654684Y-109155051D01*
X132844088Y-109251557D01*
X133046257Y-109317246D01*
X133256213Y-109350500D01*
X133256214Y-109350500D01*
X133468786Y-109350500D01*
X133468787Y-109350500D01*
X133678743Y-109317246D01*
X133880912Y-109251557D01*
X134070316Y-109155051D01*
X134092289Y-109139086D01*
X134242286Y-109030109D01*
X134242288Y-109030106D01*
X134242292Y-109030104D01*
X134392604Y-108879792D01*
X134392606Y-108879788D01*
X134392609Y-108879786D01*
X134517548Y-108707820D01*
X134517547Y-108707820D01*
X134517551Y-108707816D01*
X134614057Y-108518412D01*
X134679746Y-108316243D01*
X134713000Y-108106287D01*
X134713000Y-107893713D01*
X134679746Y-107683757D01*
X134614057Y-107481588D01*
X134517551Y-107292184D01*
X134517549Y-107292181D01*
X134517548Y-107292179D01*
X134392609Y-107120213D01*
X134242286Y-106969890D01*
X134070320Y-106844951D01*
X133880914Y-106748444D01*
X133880913Y-106748443D01*
X133880912Y-106748443D01*
X133678743Y-106682754D01*
X133678741Y-106682753D01*
X133678740Y-106682753D01*
X133517457Y-106657208D01*
X133468787Y-106649500D01*
X133256213Y-106649500D01*
X133207542Y-106657208D01*
X133046260Y-106682753D01*
X132844085Y-106748444D01*
X132654679Y-106844951D01*
X132482713Y-106969890D01*
X132332390Y-107120213D01*
X132207451Y-107292179D01*
X132110944Y-107481585D01*
X132045253Y-107683760D01*
X132012000Y-107893713D01*
X131363000Y-107893713D01*
X131363000Y-101248670D01*
X135162500Y-101248670D01*
X135177685Y-101364019D01*
X135177687Y-101364024D01*
X135237133Y-101507541D01*
X135237133Y-101507542D01*
X135331707Y-101630792D01*
X135454958Y-101725366D01*
X135598475Y-101784812D01*
X135598480Y-101784814D01*
X135713829Y-101800000D01*
X136162500Y-101800000D01*
X136162500Y-101100000D01*
X135162500Y-101100000D01*
X135162500Y-101248670D01*
X131363000Y-101248670D01*
X131363000Y-82893713D01*
X132012000Y-82893713D01*
X132012000Y-83106287D01*
X132045254Y-83316243D01*
X132110130Y-83515911D01*
X132110944Y-83518414D01*
X132207451Y-83707820D01*
X132332390Y-83879786D01*
X132482713Y-84030109D01*
X132654679Y-84155048D01*
X132654681Y-84155049D01*
X132654684Y-84155051D01*
X132844088Y-84251557D01*
X133046257Y-84317246D01*
X133256213Y-84350500D01*
X133256214Y-84350500D01*
X133468786Y-84350500D01*
X133468787Y-84350500D01*
X133678743Y-84317246D01*
X133880912Y-84251557D01*
X134070316Y-84155051D01*
X134156346Y-84092547D01*
X134242286Y-84030109D01*
X134242288Y-84030106D01*
X134242292Y-84030104D01*
X134392604Y-83879792D01*
X134392606Y-83879788D01*
X134392609Y-83879786D01*
X134517548Y-83707820D01*
X134517547Y-83707820D01*
X134517551Y-83707816D01*
X134614057Y-83518412D01*
X134679746Y-83316243D01*
X134713000Y-83106287D01*
X134713000Y-82893713D01*
X134679746Y-82683757D01*
X134614057Y-82481588D01*
X134517551Y-82292184D01*
X134517549Y-82292181D01*
X134517548Y-82292179D01*
X134392609Y-82120213D01*
X134242286Y-81969890D01*
X134070320Y-81844951D01*
X133880914Y-81748444D01*
X133880913Y-81748443D01*
X133880912Y-81748443D01*
X133678743Y-81682754D01*
X133678741Y-81682753D01*
X133678740Y-81682753D01*
X133517457Y-81657208D01*
X133468787Y-81649500D01*
X133256213Y-81649500D01*
X133207542Y-81657208D01*
X133046260Y-81682753D01*
X132844085Y-81748444D01*
X132654679Y-81844951D01*
X132482713Y-81969890D01*
X132332390Y-82120213D01*
X132207451Y-82292179D01*
X132110944Y-82481585D01*
X132045253Y-82683760D01*
X132043947Y-82692007D01*
X132012000Y-82893713D01*
X131363000Y-82893713D01*
X131363000Y-81124500D01*
X131382685Y-81057461D01*
X131435489Y-81011706D01*
X131487000Y-81000500D01*
X160238000Y-81000500D01*
X160305039Y-81020185D01*
G37*
%TD.AperFunction*%
%TA.AperFunction,Conductor*%
G36*
X152930309Y-106270185D02*
G01*
X152976064Y-106322989D01*
X152986008Y-106392147D01*
X152956983Y-106455703D01*
X152950951Y-106462181D01*
X151180497Y-108232635D01*
X151119174Y-108266120D01*
X151049482Y-108261136D01*
X151032155Y-108250000D01*
X150105512Y-108250000D01*
X150138425Y-108192993D01*
X150172500Y-108065826D01*
X150172500Y-107934174D01*
X150138425Y-107807007D01*
X150105512Y-107750000D01*
X151022500Y-107750000D01*
X151022500Y-107102172D01*
X151022499Y-107102155D01*
X151016098Y-107042627D01*
X151016096Y-107042620D01*
X150965854Y-106907913D01*
X150965850Y-106907906D01*
X150879690Y-106792812D01*
X150879687Y-106792809D01*
X150764593Y-106706649D01*
X150764586Y-106706645D01*
X150629879Y-106656403D01*
X150629872Y-106656401D01*
X150570344Y-106650000D01*
X149922500Y-106650000D01*
X149922500Y-107566988D01*
X149865493Y-107534075D01*
X149738326Y-107500000D01*
X149606674Y-107500000D01*
X149479507Y-107534075D01*
X149422500Y-107566988D01*
X149422500Y-106650000D01*
X148774655Y-106650000D01*
X148715127Y-106656401D01*
X148715120Y-106656403D01*
X148580413Y-106706645D01*
X148580406Y-106706649D01*
X148465312Y-106792809D01*
X148465309Y-106792812D01*
X148379149Y-106907906D01*
X148379146Y-106907912D01*
X148330077Y-107039471D01*
X148288205Y-107095404D01*
X148222741Y-107119821D01*
X148154468Y-107104969D01*
X148126214Y-107083818D01*
X148012286Y-106969890D01*
X147840320Y-106844951D01*
X147650914Y-106748444D01*
X147650913Y-106748443D01*
X147650912Y-106748443D01*
X147448743Y-106682754D01*
X147448741Y-106682753D01*
X147448740Y-106682753D01*
X147287457Y-106657208D01*
X147238787Y-106649500D01*
X147026213Y-106649500D01*
X146977542Y-106657208D01*
X146816260Y-106682753D01*
X146614085Y-106748444D01*
X146424679Y-106844951D01*
X146252713Y-106969890D01*
X146102390Y-107120213D01*
X145977449Y-107292182D01*
X145972984Y-107300946D01*
X145925009Y-107351742D01*
X145857188Y-107368536D01*
X145791053Y-107345998D01*
X145752016Y-107300946D01*
X145747550Y-107292182D01*
X145622609Y-107120213D01*
X145472286Y-106969890D01*
X145300320Y-106844951D01*
X145110914Y-106748444D01*
X145110913Y-106748443D01*
X145110912Y-106748443D01*
X144908743Y-106682754D01*
X144908741Y-106682753D01*
X144908740Y-106682753D01*
X144747457Y-106657208D01*
X144698787Y-106649500D01*
X144486213Y-106649500D01*
X144486208Y-106649500D01*
X144390770Y-106664616D01*
X144321477Y-106655662D01*
X144283693Y-106629826D01*
X144116047Y-106462179D01*
X144082564Y-106400858D01*
X144087548Y-106331166D01*
X144129420Y-106275233D01*
X144194884Y-106250816D01*
X144203730Y-106250500D01*
X152863270Y-106250500D01*
X152930309Y-106270185D01*
G37*
%TD.AperFunction*%
%TA.AperFunction,Conductor*%
G36*
X158011575Y-99502993D02*
G01*
X158077401Y-99617007D01*
X158170493Y-99710099D01*
X158284507Y-99775925D01*
X158348089Y-99792962D01*
X157715782Y-100425269D01*
X157715782Y-100425270D01*
X157769949Y-100464624D01*
X157931138Y-100546755D01*
X157981934Y-100594730D01*
X157998729Y-100662551D01*
X157976191Y-100728686D01*
X157962524Y-100744921D01*
X157575681Y-101131764D01*
X157514358Y-101165249D01*
X157444666Y-101160265D01*
X157388733Y-101118393D01*
X157364316Y-101052929D01*
X157364000Y-101044083D01*
X157364000Y-100148080D01*
X157363999Y-100148075D01*
X157363970Y-100147928D01*
X157363977Y-100147846D01*
X157363403Y-100142013D01*
X157364508Y-100141904D01*
X157370188Y-100078337D01*
X157397903Y-100036041D01*
X157994537Y-99439408D01*
X158011575Y-99502993D01*
G37*
%TD.AperFunction*%
%TA.AperFunction,Conductor*%
G36*
X145632245Y-92300075D02*
G01*
X145717755Y-92349444D01*
X145813130Y-92375000D01*
X145911870Y-92375000D01*
X146007245Y-92349444D01*
X146092755Y-92300075D01*
X146107000Y-92285830D01*
X146107000Y-92326002D01*
X146110117Y-92341671D01*
X146112500Y-92365865D01*
X146112500Y-93220352D01*
X146161474Y-93210612D01*
X146161483Y-93210609D01*
X146348015Y-93133346D01*
X146348018Y-93133344D01*
X146428158Y-93079796D01*
X146494835Y-93058917D01*
X146562216Y-93077401D01*
X146565922Y-93079783D01*
X146646744Y-93133786D01*
X146833373Y-93211091D01*
X146999277Y-93244091D01*
X147031492Y-93250499D01*
X147031496Y-93250500D01*
X147031497Y-93250500D01*
X147233504Y-93250500D01*
X147233505Y-93250499D01*
X147431627Y-93211091D01*
X147578047Y-93150440D01*
X147647516Y-93142972D01*
X147709995Y-93174247D01*
X147745648Y-93234336D01*
X147749500Y-93265002D01*
X147749500Y-99073918D01*
X147749500Y-99073920D01*
X147749499Y-99073920D01*
X147778340Y-99218907D01*
X147778343Y-99218917D01*
X147834914Y-99355491D01*
X147834916Y-99355495D01*
X147848126Y-99375265D01*
X147864259Y-99399411D01*
X147917049Y-99478418D01*
X147917052Y-99478421D01*
X148580537Y-100141904D01*
X148766048Y-100327415D01*
X148766049Y-100327416D01*
X148840719Y-100402086D01*
X148870585Y-100431952D01*
X148993498Y-100514080D01*
X148993511Y-100514087D01*
X149072380Y-100546755D01*
X149112541Y-100563390D01*
X149152770Y-100590270D01*
X149162500Y-100600000D01*
X150288500Y-100600000D01*
X150355539Y-100619685D01*
X150401294Y-100672489D01*
X150412500Y-100724000D01*
X150412500Y-100976000D01*
X150392815Y-101043039D01*
X150340011Y-101088794D01*
X150288500Y-101100000D01*
X149160125Y-101100000D01*
X149104034Y-101130628D01*
X149077676Y-101133462D01*
X145746191Y-101133462D01*
X145679152Y-101113777D01*
X145658510Y-101097143D01*
X144286819Y-99725451D01*
X144253334Y-99664128D01*
X144250500Y-99637770D01*
X144250500Y-93374499D01*
X144270185Y-93307460D01*
X144322989Y-93261705D01*
X144374500Y-93250499D01*
X145165371Y-93250499D01*
X145165372Y-93250499D01*
X145224983Y-93244091D01*
X145359831Y-93193796D01*
X145361393Y-93192626D01*
X145363222Y-93191944D01*
X145367618Y-93189544D01*
X145367962Y-93190175D01*
X145426854Y-93168204D01*
X145483164Y-93177326D01*
X145563517Y-93210609D01*
X145563525Y-93210611D01*
X145612500Y-93220353D01*
X145612500Y-92855671D01*
X145613211Y-92842415D01*
X145617999Y-92797881D01*
X145618000Y-92797873D01*
X145617999Y-92285829D01*
X145632245Y-92300075D01*
G37*
%TD.AperFunction*%
%TA.AperFunction,Conductor*%
G36*
X146301334Y-89362547D02*
G01*
X146357267Y-89404419D01*
X146381684Y-89469883D01*
X146382000Y-89478729D01*
X146382000Y-90695152D01*
X146362315Y-90762191D01*
X146309511Y-90807946D01*
X146240353Y-90817890D01*
X146210548Y-90809713D01*
X146161484Y-90789390D01*
X146161477Y-90789388D01*
X146112500Y-90779645D01*
X146112500Y-91634134D01*
X146110117Y-91658326D01*
X146107000Y-91673995D01*
X146107000Y-91714170D01*
X146092755Y-91699925D01*
X146007245Y-91650556D01*
X145911870Y-91625000D01*
X145813130Y-91625000D01*
X145717755Y-91650556D01*
X145632245Y-91699925D01*
X145617999Y-91714170D01*
X145617999Y-91202128D01*
X145613210Y-91157577D01*
X145612500Y-91144324D01*
X145612500Y-90779646D01*
X145612499Y-90779645D01*
X145563522Y-90789388D01*
X145563515Y-90789390D01*
X145483163Y-90822673D01*
X145413693Y-90830142D01*
X145367777Y-90810154D01*
X145367614Y-90810454D01*
X145364266Y-90808626D01*
X145361399Y-90807377D01*
X145359831Y-90806204D01*
X145359830Y-90806203D01*
X145359828Y-90806202D01*
X145224982Y-90755908D01*
X145224983Y-90755908D01*
X145165383Y-90749501D01*
X145165381Y-90749500D01*
X145165373Y-90749500D01*
X145165365Y-90749500D01*
X145111229Y-90749500D01*
X145044190Y-90729815D01*
X144998435Y-90677011D01*
X144988491Y-90607853D01*
X145017516Y-90544297D01*
X145023548Y-90537819D01*
X145433548Y-90127819D01*
X146170320Y-89391046D01*
X146231642Y-89357563D01*
X146301334Y-89362547D01*
G37*
%TD.AperFunction*%
%TD*%
M02*
