%TF.GenerationSoftware,KiCad,Pcbnew,9.0.4*%
%TF.CreationDate,2025-10-06T18:28:57+02:00*%
%TF.ProjectId,Chessfield,43686573-7366-4696-956c-642e6b696361,rev?*%
%TF.SameCoordinates,Original*%
%TF.FileFunction,Copper,L2,Bot*%
%TF.FilePolarity,Positive*%
%FSLAX46Y46*%
G04 Gerber Fmt 4.6, Leading zero omitted, Abs format (unit mm)*
G04 Created by KiCad (PCBNEW 9.0.4) date 2025-10-06 18:28:57*
%MOMM*%
%LPD*%
G01*
G04 APERTURE LIST*
%TA.AperFunction,ComponentPad*%
%ADD10R,1.050000X1.500000*%
%TD*%
%TA.AperFunction,ComponentPad*%
%ADD11O,1.050000X1.500000*%
%TD*%
%TA.AperFunction,ComponentPad*%
%ADD12R,1.700000X1.700000*%
%TD*%
%TA.AperFunction,ComponentPad*%
%ADD13C,1.700000*%
%TD*%
%TA.AperFunction,Conductor*%
%ADD14C,0.500000*%
%TD*%
G04 APERTURE END LIST*
D10*
%TO.P,H1,1,VCC*%
%TO.N,VS*%
X144592500Y-92000000D03*
D11*
%TO.P,H1,2,GND*%
%TO.N,GND*%
X145862500Y-92000000D03*
%TO.P,H1,3,OUT*%
%TO.N,DOS*%
X147132500Y-92000000D03*
%TD*%
D12*
%TO.P,J4,1,Pin_1*%
%TO.N,+5V*%
X142052500Y-82885000D03*
D13*
%TO.P,J4,2,Pin_2*%
%TO.N,DOL*%
X144592500Y-82885000D03*
%TO.P,J4,3,Pin_3*%
%TO.N,DOS*%
X147132500Y-82885000D03*
%TO.P,J4,4,Pin_4*%
%TO.N,GND*%
X149672500Y-82885000D03*
%TD*%
D12*
%TO.P,J3,1,Pin_1*%
%TO.N,+5V*%
X149672500Y-108000000D03*
D13*
%TO.P,J3,2,Pin_2*%
%TO.N,DOS*%
X147132500Y-108000000D03*
%TO.P,J3,3,Pin_3*%
%TO.N,DIL*%
X144592500Y-108000000D03*
%TO.P,J3,4,Pin_4*%
%TO.N,GND*%
X142052500Y-108000000D03*
%TD*%
D12*
%TO.P,J2,1,Pin_1*%
%TO.N,+5V*%
X158477500Y-91690000D03*
D13*
%TO.P,J2,2,Pin_2*%
%TO.N,DOL*%
X158477500Y-94230000D03*
%TO.P,J2,3,Pin_3*%
%TO.N,VS*%
X158477500Y-96770000D03*
%TO.P,J2,4,Pin_4*%
%TO.N,GND*%
X158477500Y-99310000D03*
%TD*%
D12*
%TO.P,J1,1,Pin_1*%
%TO.N,+5V*%
X133247500Y-99310000D03*
D13*
%TO.P,J1,2,Pin_2*%
%TO.N,VS*%
X133247500Y-96770000D03*
%TO.P,J1,3,Pin_3*%
%TO.N,DIL*%
X133247500Y-94230000D03*
%TO.P,J1,4,Pin_4*%
%TO.N,GND*%
X133247500Y-91690000D03*
%TD*%
D14*
%TO.N,DOL*%
X150840500Y-81251000D02*
X146226500Y-81251000D01*
X160111500Y-94000000D02*
X160111500Y-90522000D01*
X160111500Y-90522000D02*
X150840500Y-81251000D01*
%TO.N,DIL*%
X131846500Y-100711000D02*
X131846500Y-95631000D01*
X131846500Y-95631000D02*
X133247500Y-94230000D01*
X140884500Y-109749000D02*
X131846500Y-100711000D01*
X142843500Y-109749000D02*
X140884500Y-109749000D01*
X144592500Y-108000000D02*
X142843500Y-109749000D01*
%TO.N,VS*%
X148885806Y-96770000D02*
X158477500Y-96770000D01*
X144592500Y-92476694D02*
X148885806Y-96770000D01*
X144592500Y-92000000D02*
X144592500Y-92476694D01*
X138017500Y-92000000D02*
X133247500Y-96770000D01*
X144592500Y-92000000D02*
X138017500Y-92000000D01*
%TO.N,DOL*%
X146226500Y-81251000D02*
X144592500Y-82885000D01*
X159881500Y-94230000D02*
X160111500Y-94000000D01*
X158477500Y-94230000D02*
X159881500Y-94230000D01*
%TO.N,DOS*%
X147132500Y-82385000D02*
X147132500Y-92000000D01*
%TD*%
%TA.AperFunction,Conductor*%
%TO.N,GND*%
G36*
X143451264Y-92756135D02*
G01*
X143473030Y-92756778D01*
X143487878Y-92765945D01*
X143504734Y-92770462D01*
X143520130Y-92785858D01*
X143538657Y-92797297D01*
X143546932Y-92812660D01*
X143559272Y-92825000D01*
X143568888Y-92849221D01*
X143570152Y-92848750D01*
X143623702Y-92992329D01*
X143623704Y-92992333D01*
X143709952Y-93107544D01*
X143709955Y-93107547D01*
X143825166Y-93193795D01*
X143825170Y-93193797D01*
X143960017Y-93244091D01*
X144019614Y-93250499D01*
X144019618Y-93250499D01*
X144019627Y-93250500D01*
X144243218Y-93250499D01*
X144317718Y-93270461D01*
X144348578Y-93294140D01*
X146433895Y-95379456D01*
X148302855Y-97248416D01*
X148407390Y-97352951D01*
X148488782Y-97407335D01*
X148530306Y-97435081D01*
X148530307Y-97435081D01*
X148530311Y-97435084D01*
X148586886Y-97458518D01*
X148666894Y-97491659D01*
X148783047Y-97514763D01*
X148811888Y-97520500D01*
X148811889Y-97520500D01*
X148959724Y-97520500D01*
X157277541Y-97520500D01*
X157352041Y-97540462D01*
X157398085Y-97581921D01*
X157447390Y-97649785D01*
X157447395Y-97649791D01*
X157447396Y-97649792D01*
X157597708Y-97800104D01*
X157688253Y-97865888D01*
X157762408Y-97919765D01*
X157810946Y-97979705D01*
X157823012Y-98055883D01*
X157795372Y-98127889D01*
X157762408Y-98160852D01*
X157715782Y-98194727D01*
X157715782Y-98194729D01*
X158348090Y-98827037D01*
X158284507Y-98844075D01*
X158170493Y-98909901D01*
X158077401Y-99002993D01*
X158011575Y-99117007D01*
X157994537Y-99180590D01*
X157362229Y-98548282D01*
X157362228Y-98548282D01*
X157322878Y-98602444D01*
X157226406Y-98791779D01*
X157160742Y-98993871D01*
X157127500Y-99203757D01*
X157127500Y-99416242D01*
X157160742Y-99626128D01*
X157226406Y-99828220D01*
X157322878Y-100017555D01*
X157362228Y-100071716D01*
X157362229Y-100071716D01*
X157994537Y-99439408D01*
X158011575Y-99502993D01*
X158077401Y-99617007D01*
X158170493Y-99710099D01*
X158284507Y-99775925D01*
X158348090Y-99792962D01*
X157715782Y-100425270D01*
X157769944Y-100464621D01*
X157769944Y-100464622D01*
X157959279Y-100561093D01*
X158161371Y-100626757D01*
X158371258Y-100660000D01*
X158583742Y-100660000D01*
X158793628Y-100626757D01*
X158995720Y-100561093D01*
X159185055Y-100464622D01*
X159185057Y-100464620D01*
X159239216Y-100425270D01*
X159239216Y-100425269D01*
X158606909Y-99792962D01*
X158670493Y-99775925D01*
X158784507Y-99710099D01*
X158877599Y-99617007D01*
X158943425Y-99502993D01*
X158960462Y-99439409D01*
X159592769Y-100071716D01*
X159592770Y-100071716D01*
X159632120Y-100017557D01*
X159632122Y-100017555D01*
X159728593Y-99828220D01*
X159794257Y-99626128D01*
X159827500Y-99416242D01*
X159827500Y-99203757D01*
X159794257Y-98993871D01*
X159728593Y-98791779D01*
X159632121Y-98602444D01*
X159592770Y-98548282D01*
X158960462Y-99180589D01*
X158943425Y-99117007D01*
X158877599Y-99002993D01*
X158784507Y-98909901D01*
X158670493Y-98844075D01*
X158606907Y-98827037D01*
X159239216Y-98194729D01*
X159192589Y-98160852D01*
X159144051Y-98100912D01*
X159131986Y-98024733D01*
X159159627Y-97952728D01*
X159192589Y-97919766D01*
X159357292Y-97800104D01*
X159507604Y-97649792D01*
X159632551Y-97477816D01*
X159729057Y-97288412D01*
X159794746Y-97086243D01*
X159828000Y-96876287D01*
X159828000Y-96663713D01*
X159794746Y-96453757D01*
X159729057Y-96251588D01*
X159632551Y-96062184D01*
X159507604Y-95890208D01*
X159357292Y-95739896D01*
X159193017Y-95620544D01*
X159144479Y-95560604D01*
X159132413Y-95484426D01*
X159160053Y-95412420D01*
X159193017Y-95379456D01*
X159200019Y-95374368D01*
X159357292Y-95260104D01*
X159507604Y-95109792D01*
X159539203Y-95066299D01*
X159556915Y-95041921D01*
X159616854Y-94993382D01*
X159677459Y-94980500D01*
X159955414Y-94980500D01*
X159955417Y-94980500D01*
X159955418Y-94980500D01*
X160100413Y-94951658D01*
X160155981Y-94928640D01*
X160232448Y-94918574D01*
X160303705Y-94948089D01*
X160350658Y-95009279D01*
X160362000Y-95066299D01*
X160362000Y-109850500D01*
X160342038Y-109925000D01*
X160287500Y-109979538D01*
X160213000Y-109999500D01*
X144014085Y-109999500D01*
X143939585Y-109979538D01*
X143885047Y-109925000D01*
X143865085Y-109850500D01*
X143885047Y-109776000D01*
X143908726Y-109745141D01*
X144274686Y-109379179D01*
X144341479Y-109340617D01*
X144403348Y-109337375D01*
X144486213Y-109350500D01*
X144486214Y-109350500D01*
X144698782Y-109350500D01*
X144698787Y-109350500D01*
X144908743Y-109317246D01*
X145110912Y-109251557D01*
X145300316Y-109155051D01*
X145472292Y-109030104D01*
X145622604Y-108879792D01*
X145741956Y-108715517D01*
X145801896Y-108666979D01*
X145878074Y-108654913D01*
X145950080Y-108682553D01*
X145983044Y-108715517D01*
X146102396Y-108879792D01*
X146252708Y-109030104D01*
X146424684Y-109155051D01*
X146614088Y-109251557D01*
X146816257Y-109317246D01*
X147026213Y-109350500D01*
X147026218Y-109350500D01*
X147238782Y-109350500D01*
X147238787Y-109350500D01*
X147448743Y-109317246D01*
X147650912Y-109251557D01*
X147840316Y-109155051D01*
X148012292Y-109030104D01*
X148098319Y-108944077D01*
X148165113Y-108905512D01*
X148242241Y-108905512D01*
X148309036Y-108944076D01*
X148343284Y-108997366D01*
X148378702Y-109092329D01*
X148378704Y-109092333D01*
X148464952Y-109207544D01*
X148464955Y-109207547D01*
X148580166Y-109293795D01*
X148580170Y-109293797D01*
X148715017Y-109344091D01*
X148774614Y-109350499D01*
X148774618Y-109350499D01*
X148774627Y-109350500D01*
X150570372Y-109350499D01*
X150629983Y-109344091D01*
X150725947Y-109308298D01*
X150764829Y-109293797D01*
X150764833Y-109293795D01*
X150822438Y-109250671D01*
X150880046Y-109207546D01*
X150966296Y-109092331D01*
X151016591Y-108957483D01*
X151023000Y-108897873D01*
X151022999Y-107893713D01*
X157012000Y-107893713D01*
X157012000Y-108106287D01*
X157045254Y-108316243D01*
X157110943Y-108518412D01*
X157207449Y-108707816D01*
X157332396Y-108879792D01*
X157482708Y-109030104D01*
X157654684Y-109155051D01*
X157844088Y-109251557D01*
X158046257Y-109317246D01*
X158256213Y-109350500D01*
X158256218Y-109350500D01*
X158468782Y-109350500D01*
X158468787Y-109350500D01*
X158678743Y-109317246D01*
X158880912Y-109251557D01*
X159070316Y-109155051D01*
X159242292Y-109030104D01*
X159392604Y-108879792D01*
X159517551Y-108707816D01*
X159614057Y-108518412D01*
X159679746Y-108316243D01*
X159713000Y-108106287D01*
X159713000Y-107893713D01*
X159679746Y-107683757D01*
X159614057Y-107481588D01*
X159517551Y-107292184D01*
X159512265Y-107284909D01*
X159478389Y-107238282D01*
X159392604Y-107120208D01*
X159242292Y-106969896D01*
X159070316Y-106844949D01*
X158880912Y-106748443D01*
X158678743Y-106682754D01*
X158468787Y-106649500D01*
X158256213Y-106649500D01*
X158081249Y-106677211D01*
X158046256Y-106682754D01*
X157844094Y-106748441D01*
X157844088Y-106748443D01*
X157844082Y-106748445D01*
X157844082Y-106748446D01*
X157654682Y-106844950D01*
X157654681Y-106844950D01*
X157482709Y-106969895D01*
X157482706Y-106969897D01*
X157332397Y-107120206D01*
X157332395Y-107120209D01*
X157207450Y-107292181D01*
X157207450Y-107292182D01*
X157110946Y-107481582D01*
X157110941Y-107481594D01*
X157072501Y-107599901D01*
X157045254Y-107683757D01*
X157012000Y-107893713D01*
X151022999Y-107893713D01*
X151022999Y-107102128D01*
X151016591Y-107042517D01*
X150989505Y-106969895D01*
X150966297Y-106907670D01*
X150966295Y-106907666D01*
X150880047Y-106792455D01*
X150880044Y-106792452D01*
X150764833Y-106706204D01*
X150764829Y-106706202D01*
X150629982Y-106655908D01*
X150570376Y-106649500D01*
X148774636Y-106649500D01*
X148774611Y-106649502D01*
X148715021Y-106655908D01*
X148715015Y-106655909D01*
X148580170Y-106706202D01*
X148580166Y-106706204D01*
X148464955Y-106792452D01*
X148464952Y-106792455D01*
X148378704Y-106907666D01*
X148378703Y-106907668D01*
X148343284Y-107002634D01*
X148298545Y-107065461D01*
X148228387Y-107097501D01*
X148151608Y-107090170D01*
X148098319Y-107055923D01*
X148012293Y-106969897D01*
X148012292Y-106969896D01*
X147840316Y-106844949D01*
X147650912Y-106748443D01*
X147448743Y-106682754D01*
X147238787Y-106649500D01*
X147026213Y-106649500D01*
X146851249Y-106677211D01*
X146816256Y-106682754D01*
X146614094Y-106748441D01*
X146614088Y-106748443D01*
X146614082Y-106748445D01*
X146614082Y-106748446D01*
X146424682Y-106844950D01*
X146424681Y-106844950D01*
X146252709Y-106969895D01*
X146252706Y-106969897D01*
X146102397Y-107120206D01*
X146102395Y-107120209D01*
X145983044Y-107284482D01*
X145923104Y-107333020D01*
X145846925Y-107345086D01*
X145774920Y-107317446D01*
X145741956Y-107284482D01*
X145679736Y-107198844D01*
X145622604Y-107120208D01*
X145472292Y-106969896D01*
X145300316Y-106844949D01*
X145110912Y-106748443D01*
X144908743Y-106682754D01*
X144698787Y-106649500D01*
X144486213Y-106649500D01*
X144311249Y-106677211D01*
X144276256Y-106682754D01*
X144074094Y-106748441D01*
X144074088Y-106748443D01*
X144074082Y-106748445D01*
X144074082Y-106748446D01*
X143884682Y-106844950D01*
X143884681Y-106844950D01*
X143712709Y-106969895D01*
X143712706Y-106969897D01*
X143562397Y-107120206D01*
X143562388Y-107120217D01*
X143442733Y-107284908D01*
X143382793Y-107333446D01*
X143306615Y-107345512D01*
X143234610Y-107317871D01*
X143201647Y-107284909D01*
X143167770Y-107238282D01*
X142535462Y-107870589D01*
X142518425Y-107807007D01*
X142452599Y-107692993D01*
X142359507Y-107599901D01*
X142245493Y-107534075D01*
X142181907Y-107517037D01*
X142814216Y-106884729D01*
X142814216Y-106884728D01*
X142760055Y-106845378D01*
X142760055Y-106845377D01*
X142570720Y-106748906D01*
X142368628Y-106683242D01*
X142158742Y-106650000D01*
X141946258Y-106650000D01*
X141736371Y-106683242D01*
X141534279Y-106748906D01*
X141344944Y-106845378D01*
X141290782Y-106884728D01*
X141290782Y-106884729D01*
X141923090Y-107517037D01*
X141859507Y-107534075D01*
X141745493Y-107599901D01*
X141652401Y-107692993D01*
X141586575Y-107807007D01*
X141569537Y-107870590D01*
X140937229Y-107238282D01*
X140937228Y-107238282D01*
X140897878Y-107292444D01*
X140801406Y-107481779D01*
X140735742Y-107683871D01*
X140702500Y-107893757D01*
X140702500Y-108106245D01*
X140705924Y-108127867D01*
X140697860Y-108204573D01*
X140652524Y-108266970D01*
X140582064Y-108298339D01*
X140505358Y-108290275D01*
X140453399Y-108256532D01*
X139243743Y-107046876D01*
X133111726Y-100914858D01*
X133073162Y-100848063D01*
X133073162Y-100770935D01*
X133111726Y-100704140D01*
X133178521Y-100665576D01*
X133217085Y-100660499D01*
X134145364Y-100660499D01*
X134145372Y-100660499D01*
X134204983Y-100654091D01*
X134300947Y-100618298D01*
X134339829Y-100603797D01*
X134339833Y-100603795D01*
X134397438Y-100560671D01*
X134455046Y-100517546D01*
X134541296Y-100402331D01*
X134591591Y-100267483D01*
X134598000Y-100207873D01*
X134597999Y-98412128D01*
X134591591Y-98352517D01*
X134577088Y-98313633D01*
X134541297Y-98217670D01*
X134541295Y-98217666D01*
X134455047Y-98102455D01*
X134455044Y-98102452D01*
X134339833Y-98016204D01*
X134339829Y-98016202D01*
X134244866Y-97980784D01*
X134182039Y-97936046D01*
X134149998Y-97865888D01*
X134157329Y-97789109D01*
X134191577Y-97735819D01*
X134277596Y-97649800D01*
X134277604Y-97649792D01*
X134402551Y-97477816D01*
X134499057Y-97288412D01*
X134564746Y-97086243D01*
X134598000Y-96876287D01*
X134598000Y-96663713D01*
X134584875Y-96580850D01*
X134592936Y-96504149D01*
X134626679Y-96452187D01*
X138284727Y-92794141D01*
X138351522Y-92755577D01*
X138390086Y-92750500D01*
X143430234Y-92750500D01*
X143451264Y-92756135D01*
G37*
%TD.AperFunction*%
%TA.AperFunction,Conductor*%
G36*
X151246000Y-82725048D02*
G01*
X151276859Y-82748727D01*
X158613273Y-90085141D01*
X158651837Y-90151936D01*
X158651837Y-90229064D01*
X158613273Y-90295859D01*
X158546478Y-90334423D01*
X158507914Y-90339500D01*
X157579636Y-90339500D01*
X157579611Y-90339502D01*
X157520021Y-90345908D01*
X157520015Y-90345909D01*
X157385170Y-90396202D01*
X157385166Y-90396204D01*
X157269955Y-90482452D01*
X157269952Y-90482455D01*
X157183704Y-90597666D01*
X157183702Y-90597670D01*
X157133408Y-90732517D01*
X157127000Y-90792114D01*
X157127000Y-92587863D01*
X157127002Y-92587888D01*
X157133408Y-92647478D01*
X157133409Y-92647484D01*
X157183702Y-92782329D01*
X157183704Y-92782333D01*
X157269952Y-92897544D01*
X157269955Y-92897547D01*
X157385166Y-92983795D01*
X157385168Y-92983795D01*
X157385169Y-92983796D01*
X157480133Y-93019215D01*
X157542960Y-93063953D01*
X157575001Y-93134111D01*
X157567670Y-93210890D01*
X157533423Y-93264179D01*
X157447404Y-93350198D01*
X157447395Y-93350209D01*
X157322450Y-93522181D01*
X157322450Y-93522182D01*
X157322449Y-93522184D01*
X157225943Y-93711588D01*
X157160254Y-93913757D01*
X157127000Y-94123713D01*
X157127000Y-94336287D01*
X157160254Y-94546243D01*
X157225943Y-94748412D01*
X157317774Y-94928641D01*
X157322450Y-94937817D01*
X157322450Y-94937818D01*
X157384922Y-95023804D01*
X157447396Y-95109792D01*
X157597708Y-95260104D01*
X157676344Y-95317236D01*
X157761982Y-95379456D01*
X157810520Y-95439396D01*
X157822586Y-95515575D01*
X157794946Y-95587580D01*
X157761982Y-95620544D01*
X157597709Y-95739895D01*
X157597706Y-95739897D01*
X157447397Y-95890206D01*
X157447390Y-95890214D01*
X157398085Y-95958079D01*
X157338146Y-96006618D01*
X157277541Y-96019500D01*
X149258391Y-96019500D01*
X149183891Y-95999538D01*
X149153032Y-95975859D01*
X147513455Y-94336282D01*
X146603198Y-93426024D01*
X146564635Y-93359231D01*
X146564635Y-93282103D01*
X146603199Y-93215308D01*
X146669994Y-93176744D01*
X146747122Y-93176744D01*
X146765576Y-93183008D01*
X146833373Y-93211091D01*
X147031497Y-93250500D01*
X147233503Y-93250500D01*
X147431627Y-93211091D01*
X147618256Y-93133786D01*
X147618258Y-93133784D01*
X147618261Y-93133783D01*
X147657530Y-93107544D01*
X147786218Y-93021558D01*
X147929058Y-92878718D01*
X148041286Y-92710756D01*
X148118591Y-92524127D01*
X148158000Y-92326003D01*
X148158000Y-91673997D01*
X148118591Y-91475873D01*
X148041286Y-91289244D01*
X148041283Y-91289238D01*
X147943558Y-91142983D01*
X147929058Y-91121282D01*
X147926641Y-91118865D01*
X147925613Y-91117085D01*
X147924411Y-91115620D01*
X147924652Y-91115421D01*
X147888077Y-91052070D01*
X147883000Y-91013506D01*
X147883000Y-84084958D01*
X147889387Y-84061119D01*
X147891100Y-84036499D01*
X147898758Y-84026145D01*
X147902962Y-84010458D01*
X147934207Y-83972541D01*
X147939128Y-83968260D01*
X148012292Y-83915104D01*
X148162604Y-83764792D01*
X148282267Y-83600089D01*
X148342204Y-83551552D01*
X148418383Y-83539486D01*
X148490388Y-83567126D01*
X148523352Y-83600089D01*
X148557229Y-83646716D01*
X149189537Y-83014408D01*
X149206575Y-83077993D01*
X149272401Y-83192007D01*
X149365493Y-83285099D01*
X149479507Y-83350925D01*
X149543090Y-83367962D01*
X148910782Y-84000270D01*
X148964944Y-84039621D01*
X148964944Y-84039622D01*
X149154279Y-84136093D01*
X149356371Y-84201757D01*
X149566258Y-84235000D01*
X149778742Y-84235000D01*
X149988628Y-84201757D01*
X150190720Y-84136093D01*
X150380055Y-84039622D01*
X150380057Y-84039620D01*
X150434216Y-84000270D01*
X150434216Y-84000269D01*
X149801909Y-83367962D01*
X149865493Y-83350925D01*
X149979507Y-83285099D01*
X150072599Y-83192007D01*
X150138425Y-83077993D01*
X150155462Y-83014409D01*
X150787769Y-83646716D01*
X150787770Y-83646716D01*
X150827120Y-83592557D01*
X150827122Y-83592555D01*
X150923593Y-83403220D01*
X150989257Y-83201128D01*
X151022500Y-82991242D01*
X151022500Y-82854086D01*
X151042462Y-82779586D01*
X151097000Y-82725048D01*
X151171500Y-82705086D01*
X151246000Y-82725048D01*
G37*
%TD.AperFunction*%
%TA.AperFunction,Conductor*%
G36*
X145130414Y-81020462D02*
G01*
X145184952Y-81075000D01*
X145204914Y-81149500D01*
X145184952Y-81224000D01*
X145161272Y-81254859D01*
X144910313Y-81505816D01*
X144843518Y-81544380D01*
X144781648Y-81547623D01*
X144720801Y-81537986D01*
X144698787Y-81534500D01*
X144486213Y-81534500D01*
X144311249Y-81562211D01*
X144276256Y-81567754D01*
X144074094Y-81633441D01*
X144074088Y-81633443D01*
X144074082Y-81633445D01*
X144074082Y-81633446D01*
X143884682Y-81729950D01*
X143884681Y-81729950D01*
X143712709Y-81854895D01*
X143712698Y-81854904D01*
X143626679Y-81940923D01*
X143559884Y-81979487D01*
X143482756Y-81979487D01*
X143415962Y-81940922D01*
X143381715Y-81887633D01*
X143369505Y-81854896D01*
X143346296Y-81792669D01*
X143346295Y-81792668D01*
X143346295Y-81792666D01*
X143260047Y-81677455D01*
X143260044Y-81677452D01*
X143144833Y-81591204D01*
X143144829Y-81591202D01*
X143009982Y-81540908D01*
X142950376Y-81534500D01*
X141154636Y-81534500D01*
X141154611Y-81534502D01*
X141095021Y-81540908D01*
X141095015Y-81540909D01*
X140960170Y-81591202D01*
X140960166Y-81591204D01*
X140844955Y-81677452D01*
X140844952Y-81677455D01*
X140758704Y-81792666D01*
X140758702Y-81792670D01*
X140708408Y-81927517D01*
X140702000Y-81987114D01*
X140702000Y-83782863D01*
X140702002Y-83782888D01*
X140708408Y-83842478D01*
X140708409Y-83842484D01*
X140758702Y-83977329D01*
X140758704Y-83977333D01*
X140844952Y-84092544D01*
X140844955Y-84092547D01*
X140960166Y-84178795D01*
X140960170Y-84178797D01*
X141095017Y-84229091D01*
X141154614Y-84235499D01*
X141154618Y-84235499D01*
X141154627Y-84235500D01*
X142950372Y-84235499D01*
X143009983Y-84229091D01*
X143105947Y-84193298D01*
X143144829Y-84178797D01*
X143144833Y-84178795D01*
X143202438Y-84135671D01*
X143260046Y-84092546D01*
X143321497Y-84010458D01*
X143346295Y-83977333D01*
X143346298Y-83977327D01*
X143381715Y-83882367D01*
X143426453Y-83819540D01*
X143496610Y-83787498D01*
X143573389Y-83794829D01*
X143626680Y-83829076D01*
X143712708Y-83915104D01*
X143884684Y-84040051D01*
X144074088Y-84136557D01*
X144276257Y-84202246D01*
X144486213Y-84235500D01*
X144486218Y-84235500D01*
X144698782Y-84235500D01*
X144698787Y-84235500D01*
X144908743Y-84202246D01*
X145110912Y-84136557D01*
X145300316Y-84040051D01*
X145472292Y-83915104D01*
X145622604Y-83764792D01*
X145741956Y-83600517D01*
X145801896Y-83551979D01*
X145878074Y-83539913D01*
X145950080Y-83567553D01*
X145983044Y-83600517D01*
X146102396Y-83764792D01*
X146252708Y-83915104D01*
X146320579Y-83964415D01*
X146369117Y-84024352D01*
X146382000Y-84084958D01*
X146382000Y-90657737D01*
X146362038Y-90732237D01*
X146307500Y-90786775D01*
X146233000Y-90806737D01*
X146175983Y-90795396D01*
X146161488Y-90789392D01*
X146161476Y-90789389D01*
X146112500Y-90779645D01*
X146112500Y-91631671D01*
X146112453Y-91635406D01*
X146112132Y-91648194D01*
X146107000Y-91673997D01*
X146107000Y-91714170D01*
X146092755Y-91699925D01*
X146007245Y-91650556D01*
X145911870Y-91625000D01*
X145813130Y-91625000D01*
X145717755Y-91650556D01*
X145632245Y-91699925D01*
X145617999Y-91714171D01*
X145617999Y-91202136D01*
X145617999Y-91202128D01*
X145613353Y-91158907D01*
X145612500Y-91142983D01*
X145612500Y-90779646D01*
X145563520Y-90789389D01*
X145496041Y-90817339D01*
X145419572Y-90827405D01*
X145367618Y-90810456D01*
X145359834Y-90806206D01*
X145359833Y-90806205D01*
X145359831Y-90806204D01*
X145224983Y-90755909D01*
X145224982Y-90755908D01*
X145224980Y-90755908D01*
X145165376Y-90749500D01*
X144019636Y-90749500D01*
X144019611Y-90749502D01*
X143960021Y-90755908D01*
X143960015Y-90755909D01*
X143825170Y-90806202D01*
X143825166Y-90806204D01*
X143709955Y-90892452D01*
X143709952Y-90892455D01*
X143623704Y-91007666D01*
X143623702Y-91007670D01*
X143570152Y-91151249D01*
X143567001Y-91150073D01*
X143538675Y-91202684D01*
X143473054Y-91243214D01*
X143430234Y-91249500D01*
X137943582Y-91249500D01*
X137914741Y-91255236D01*
X137881360Y-91261876D01*
X137798588Y-91278340D01*
X137798586Y-91278341D01*
X137718582Y-91311479D01*
X137718580Y-91311481D01*
X137662005Y-91334916D01*
X137661996Y-91334921D01*
X137612769Y-91367813D01*
X137539091Y-91417041D01*
X137539083Y-91417048D01*
X134836830Y-94119300D01*
X134770035Y-94157864D01*
X134692907Y-94157864D01*
X134626112Y-94119300D01*
X134587548Y-94052505D01*
X134584306Y-94037259D01*
X134564746Y-93913757D01*
X134499057Y-93711588D01*
X134402551Y-93522184D01*
X134277604Y-93350208D01*
X134127292Y-93199896D01*
X134000184Y-93107547D01*
X133962591Y-93080234D01*
X133914053Y-93020294D01*
X133901987Y-92944115D01*
X133929627Y-92872110D01*
X133962590Y-92839147D01*
X134009216Y-92805269D01*
X133376909Y-92172962D01*
X133440493Y-92155925D01*
X133554507Y-92090099D01*
X133647599Y-91997007D01*
X133713425Y-91882993D01*
X133730462Y-91819409D01*
X134362769Y-92451716D01*
X134362770Y-92451716D01*
X134402120Y-92397557D01*
X134402122Y-92397555D01*
X134498593Y-92208220D01*
X134564257Y-92006128D01*
X134597500Y-91796242D01*
X134597500Y-91583757D01*
X134564257Y-91373871D01*
X134498593Y-91171779D01*
X134402121Y-90982444D01*
X134362770Y-90928282D01*
X133730462Y-91560589D01*
X133713425Y-91497007D01*
X133647599Y-91382993D01*
X133554507Y-91289901D01*
X133440493Y-91224075D01*
X133376907Y-91207037D01*
X134009216Y-90574729D01*
X134009216Y-90574728D01*
X133955055Y-90535378D01*
X133955055Y-90535377D01*
X133765720Y-90438906D01*
X133563628Y-90373242D01*
X133353742Y-90340000D01*
X133141258Y-90340000D01*
X132931371Y-90373242D01*
X132729279Y-90438906D01*
X132539944Y-90535378D01*
X132485782Y-90574728D01*
X132485782Y-90574729D01*
X133118090Y-91207037D01*
X133054507Y-91224075D01*
X132940493Y-91289901D01*
X132847401Y-91382993D01*
X132781575Y-91497007D01*
X132764537Y-91560590D01*
X132132229Y-90928282D01*
X132132228Y-90928282D01*
X132092878Y-90982444D01*
X131996406Y-91171779D01*
X131930742Y-91373871D01*
X131897500Y-91583757D01*
X131897500Y-91796242D01*
X131930742Y-92006128D01*
X131996406Y-92208220D01*
X132092878Y-92397555D01*
X132132228Y-92451716D01*
X132132229Y-92451716D01*
X132764537Y-91819408D01*
X132781575Y-91882993D01*
X132847401Y-91997007D01*
X132940493Y-92090099D01*
X133054507Y-92155925D01*
X133118090Y-92172962D01*
X132485782Y-92805270D01*
X132532409Y-92839147D01*
X132580947Y-92899087D01*
X132593012Y-92975266D01*
X132565371Y-93047271D01*
X132532408Y-93080233D01*
X132367717Y-93199888D01*
X132367706Y-93199897D01*
X132217397Y-93350206D01*
X132217395Y-93350209D01*
X132092450Y-93522181D01*
X132092450Y-93522182D01*
X132092449Y-93522184D01*
X131995943Y-93711588D01*
X131930254Y-93913757D01*
X131897000Y-94123713D01*
X131897000Y-94336287D01*
X131910124Y-94419147D01*
X131902061Y-94495853D01*
X131868317Y-94547814D01*
X131617359Y-94798773D01*
X131550564Y-94837337D01*
X131473436Y-94837337D01*
X131406641Y-94798773D01*
X131368077Y-94731978D01*
X131363000Y-94693414D01*
X131363000Y-82893713D01*
X132012000Y-82893713D01*
X132012000Y-83106287D01*
X132045254Y-83316243D01*
X132110943Y-83518412D01*
X132207449Y-83707816D01*
X132332396Y-83879792D01*
X132482708Y-84030104D01*
X132654684Y-84155051D01*
X132844088Y-84251557D01*
X133046257Y-84317246D01*
X133256213Y-84350500D01*
X133256218Y-84350500D01*
X133468782Y-84350500D01*
X133468787Y-84350500D01*
X133678743Y-84317246D01*
X133880912Y-84251557D01*
X134070316Y-84155051D01*
X134242292Y-84030104D01*
X134392604Y-83879792D01*
X134517551Y-83707816D01*
X134614057Y-83518412D01*
X134679746Y-83316243D01*
X134713000Y-83106287D01*
X134713000Y-82893713D01*
X134679746Y-82683757D01*
X134614057Y-82481588D01*
X134517551Y-82292184D01*
X134392604Y-82120208D01*
X134242292Y-81969896D01*
X134070316Y-81844949D01*
X133880912Y-81748443D01*
X133678743Y-81682754D01*
X133468787Y-81649500D01*
X133256213Y-81649500D01*
X133081249Y-81677211D01*
X133046256Y-81682754D01*
X132901006Y-81729949D01*
X132844088Y-81748443D01*
X132844082Y-81748445D01*
X132844082Y-81748446D01*
X132654682Y-81844950D01*
X132654681Y-81844950D01*
X132482709Y-81969895D01*
X132482706Y-81969897D01*
X132332397Y-82120206D01*
X132332395Y-82120209D01*
X132207450Y-82292181D01*
X132207450Y-82292182D01*
X132110946Y-82481582D01*
X132110941Y-82481594D01*
X132109867Y-82484901D01*
X132045254Y-82683757D01*
X132012000Y-82893713D01*
X131363000Y-82893713D01*
X131363000Y-81149500D01*
X131382962Y-81075000D01*
X131437500Y-81020462D01*
X131512000Y-81000500D01*
X145055914Y-81000500D01*
X145130414Y-81020462D01*
G37*
%TD.AperFunction*%
%TD*%
M02*
