%TF.GenerationSoftware,KiCad,Pcbnew,9.0.4*%
%TF.CreationDate,2025-10-24T23:27:24+02:00*%
%TF.ProjectId,Chessfield,43686573-7366-4696-956c-642e6b696361,rev?*%
%TF.SameCoordinates,Original*%
%TF.FileFunction,Copper,L2,Bot*%
%TF.FilePolarity,Positive*%
%FSLAX46Y46*%
G04 Gerber Fmt 4.6, Leading zero omitted, Abs format (unit mm)*
G04 Created by KiCad (PCBNEW 9.0.4) date 2025-10-24 23:27:24*
%MOMM*%
%LPD*%
G01*
G04 APERTURE LIST*
%TA.AperFunction,ComponentPad*%
%ADD10R,1.700000X1.700000*%
%TD*%
%TA.AperFunction,ComponentPad*%
%ADD11C,1.700000*%
%TD*%
%TA.AperFunction,ComponentPad*%
%ADD12R,1.050000X1.500000*%
%TD*%
%TA.AperFunction,ComponentPad*%
%ADD13O,1.050000X1.500000*%
%TD*%
%TA.AperFunction,Conductor*%
%ADD14C,0.500000*%
%TD*%
G04 APERTURE END LIST*
D10*
%TO.P,J4,1,Pin_1*%
%TO.N,+5V*%
X142052500Y-82885000D03*
D11*
%TO.P,J4,2,Pin_2*%
%TO.N,DOL*%
X144592500Y-82885000D03*
%TO.P,J4,3,Pin_3*%
%TO.N,DOS*%
X147132500Y-82885000D03*
%TO.P,J4,4,Pin_4*%
%TO.N,GND*%
X149672500Y-82885000D03*
%TD*%
D10*
%TO.P,J3,1,Pin_1*%
%TO.N,GND*%
X149672500Y-108000000D03*
D11*
%TO.P,J3,2,Pin_2*%
%TO.N,DOS*%
X147132500Y-108000000D03*
%TO.P,J3,3,Pin_3*%
%TO.N,DIL*%
X144592500Y-108000000D03*
%TO.P,J3,4,Pin_4*%
%TO.N,+5V*%
X142052500Y-108000000D03*
%TD*%
D12*
%TO.P,H1,1,VCC*%
%TO.N,VS*%
X144592500Y-92000000D03*
D13*
%TO.P,H1,2,GND*%
%TO.N,GND*%
X145862500Y-92000000D03*
%TO.P,H1,3,OUT*%
%TO.N,DOS*%
X147132500Y-92000000D03*
%TD*%
D10*
%TO.P,J2,1,Pin_1*%
%TO.N,+5V*%
X158477500Y-91690000D03*
D11*
%TO.P,J2,2,Pin_2*%
%TO.N,DOL*%
X158477500Y-94230000D03*
%TO.P,J2,3,Pin_3*%
%TO.N,VS*%
X158477500Y-96770000D03*
%TO.P,J2,4,Pin_4*%
%TO.N,GND*%
X158477500Y-99310000D03*
%TD*%
D10*
%TO.P,J1,1,Pin_1*%
%TO.N,GND*%
X133247500Y-99310000D03*
D11*
%TO.P,J1,2,Pin_2*%
%TO.N,VS*%
X133247500Y-96770000D03*
%TO.P,J1,3,Pin_3*%
%TO.N,DIL*%
X133247500Y-94230000D03*
%TO.P,J1,4,Pin_4*%
%TO.N,+5V*%
X133247500Y-91690000D03*
%TD*%
D14*
%TO.N,DIL*%
X144592500Y-108000000D02*
X142843500Y-109749000D01*
X131846500Y-100711000D02*
X131846500Y-95631000D01*
X142843500Y-109749000D02*
X140884500Y-109749000D01*
X140884500Y-109749000D02*
X131846500Y-100711000D01*
X131846500Y-95631000D02*
X133247500Y-94230000D01*
%TO.N,DOL*%
X159881500Y-94230000D02*
X160111500Y-94000000D01*
X146226500Y-81251000D02*
X144592500Y-82885000D01*
X150840500Y-81251000D02*
X146226500Y-81251000D01*
X158477500Y-94230000D02*
X159881500Y-94230000D01*
X160111500Y-90522000D02*
X150840500Y-81251000D01*
X160111500Y-94000000D02*
X160111500Y-90522000D01*
%TO.N,VS*%
X138017500Y-92000000D02*
X133247500Y-96770000D01*
X144592500Y-92000000D02*
X138017500Y-92000000D01*
X144592500Y-92000000D02*
X144592500Y-92476694D01*
X144592500Y-92476694D02*
X148885806Y-96770000D01*
X148885806Y-96770000D02*
X158477500Y-96770000D01*
%TO.N,DOS*%
X147132500Y-82385000D02*
X147132500Y-92000000D01*
%TD*%
%TA.AperFunction,Conductor*%
%TO.N,GND*%
G36*
X143452719Y-92751144D02*
G01*
X143454935Y-92750579D01*
X143486076Y-92760939D01*
X143517562Y-92770185D01*
X143519059Y-92771913D01*
X143521232Y-92772636D01*
X143541838Y-92798201D01*
X143563317Y-92822989D01*
X143564090Y-92825809D01*
X143565079Y-92827035D01*
X143570965Y-92850087D01*
X143571624Y-92849932D01*
X143573407Y-92857479D01*
X143623702Y-92992328D01*
X143623706Y-92992335D01*
X143709952Y-93107544D01*
X143709955Y-93107547D01*
X143825164Y-93193793D01*
X143825171Y-93193797D01*
X143864373Y-93208418D01*
X143960017Y-93244091D01*
X144019627Y-93250500D01*
X144253574Y-93250499D01*
X144320614Y-93270183D01*
X144341256Y-93286818D01*
X146439487Y-95385048D01*
X148302855Y-97248416D01*
X148407390Y-97352951D01*
X148407393Y-97352953D01*
X148407394Y-97352954D01*
X148530309Y-97435083D01*
X148530312Y-97435085D01*
X148580471Y-97455861D01*
X148586886Y-97458518D01*
X148666894Y-97491659D01*
X148783047Y-97514763D01*
X148806186Y-97519365D01*
X148811887Y-97520500D01*
X148811888Y-97520500D01*
X148811889Y-97520500D01*
X148959724Y-97520500D01*
X157290279Y-97520500D01*
X157357318Y-97540185D01*
X157390597Y-97571615D01*
X157447392Y-97649788D01*
X157597713Y-97800109D01*
X157769679Y-97925048D01*
X157769681Y-97925049D01*
X157769684Y-97925051D01*
X157778993Y-97929794D01*
X157829790Y-97977766D01*
X157846587Y-98045587D01*
X157824052Y-98111722D01*
X157779005Y-98150760D01*
X157769946Y-98155376D01*
X157769940Y-98155380D01*
X157715782Y-98194727D01*
X157715782Y-98194728D01*
X158348091Y-98827037D01*
X158284507Y-98844075D01*
X158170493Y-98909901D01*
X158077401Y-99002993D01*
X158011575Y-99117007D01*
X157994537Y-99180591D01*
X157362228Y-98548282D01*
X157362227Y-98548282D01*
X157322880Y-98602439D01*
X157226404Y-98791782D01*
X157160742Y-98993869D01*
X157160742Y-98993872D01*
X157127500Y-99203753D01*
X157127500Y-99416246D01*
X157160742Y-99626127D01*
X157160742Y-99626130D01*
X157226404Y-99828217D01*
X157322875Y-100017550D01*
X157362228Y-100071716D01*
X157994537Y-99439408D01*
X158011575Y-99502993D01*
X158077401Y-99617007D01*
X158170493Y-99710099D01*
X158284507Y-99775925D01*
X158348090Y-99792962D01*
X157715782Y-100425269D01*
X157715782Y-100425270D01*
X157769949Y-100464624D01*
X157959282Y-100561095D01*
X158161370Y-100626757D01*
X158371254Y-100660000D01*
X158583746Y-100660000D01*
X158793627Y-100626757D01*
X158793630Y-100626757D01*
X158995717Y-100561095D01*
X159185054Y-100464622D01*
X159239216Y-100425270D01*
X159239217Y-100425270D01*
X158606908Y-99792962D01*
X158670493Y-99775925D01*
X158784507Y-99710099D01*
X158877599Y-99617007D01*
X158943425Y-99502993D01*
X158960462Y-99439408D01*
X159592770Y-100071717D01*
X159592770Y-100071716D01*
X159632122Y-100017554D01*
X159728595Y-99828217D01*
X159794257Y-99626130D01*
X159794257Y-99626127D01*
X159827500Y-99416246D01*
X159827500Y-99203753D01*
X159794257Y-98993872D01*
X159794257Y-98993869D01*
X159728595Y-98791782D01*
X159632124Y-98602449D01*
X159592770Y-98548282D01*
X159592769Y-98548282D01*
X158960462Y-99180590D01*
X158943425Y-99117007D01*
X158877599Y-99002993D01*
X158784507Y-98909901D01*
X158670493Y-98844075D01*
X158606909Y-98827037D01*
X159239216Y-98194728D01*
X159185047Y-98155373D01*
X159185047Y-98155372D01*
X159176000Y-98150763D01*
X159125206Y-98102788D01*
X159108412Y-98034966D01*
X159130951Y-97968832D01*
X159176008Y-97929793D01*
X159185316Y-97925051D01*
X159274520Y-97860241D01*
X159357286Y-97800109D01*
X159357288Y-97800106D01*
X159357292Y-97800104D01*
X159507604Y-97649792D01*
X159507606Y-97649788D01*
X159507609Y-97649786D01*
X159632548Y-97477820D01*
X159632547Y-97477820D01*
X159632551Y-97477816D01*
X159729057Y-97288412D01*
X159794746Y-97086243D01*
X159828000Y-96876287D01*
X159828000Y-96663713D01*
X159794746Y-96453757D01*
X159729057Y-96251588D01*
X159632551Y-96062184D01*
X159632549Y-96062181D01*
X159632548Y-96062179D01*
X159507609Y-95890213D01*
X159357286Y-95739890D01*
X159185320Y-95614951D01*
X159184615Y-95614591D01*
X159176554Y-95610485D01*
X159125759Y-95562512D01*
X159108963Y-95494692D01*
X159131499Y-95428556D01*
X159176554Y-95389515D01*
X159185316Y-95385051D01*
X159207289Y-95369086D01*
X159357286Y-95260109D01*
X159357288Y-95260106D01*
X159357292Y-95260104D01*
X159507604Y-95109792D01*
X159507608Y-95109786D01*
X159564403Y-95031615D01*
X159619733Y-94988949D01*
X159664721Y-94980500D01*
X159955420Y-94980500D01*
X160052962Y-94961096D01*
X160100413Y-94951658D01*
X160190548Y-94914322D01*
X160260017Y-94906854D01*
X160322496Y-94938129D01*
X160358148Y-94998218D01*
X160362000Y-95028884D01*
X160362000Y-109875500D01*
X160342315Y-109942539D01*
X160289511Y-109988294D01*
X160238000Y-109999500D01*
X143953729Y-109999500D01*
X143886690Y-109979815D01*
X143840935Y-109927011D01*
X143830991Y-109857853D01*
X143860016Y-109794297D01*
X143866048Y-109787819D01*
X144283693Y-109370172D01*
X144345014Y-109336689D01*
X144390765Y-109335382D01*
X144486213Y-109350500D01*
X144486215Y-109350500D01*
X144698786Y-109350500D01*
X144698787Y-109350500D01*
X144908743Y-109317246D01*
X145110912Y-109251557D01*
X145300316Y-109155051D01*
X145386978Y-109092088D01*
X145472286Y-109030109D01*
X145472288Y-109030106D01*
X145472292Y-109030104D01*
X145622604Y-108879792D01*
X145622606Y-108879788D01*
X145622609Y-108879786D01*
X145747548Y-108707820D01*
X145747547Y-108707820D01*
X145747551Y-108707816D01*
X145752014Y-108699054D01*
X145799988Y-108648259D01*
X145867808Y-108631463D01*
X145933944Y-108653999D01*
X145972986Y-108699056D01*
X145977451Y-108707820D01*
X146102390Y-108879786D01*
X146252713Y-109030109D01*
X146424679Y-109155048D01*
X146424681Y-109155049D01*
X146424684Y-109155051D01*
X146614088Y-109251557D01*
X146816257Y-109317246D01*
X147026213Y-109350500D01*
X147026214Y-109350500D01*
X147238786Y-109350500D01*
X147238787Y-109350500D01*
X147448743Y-109317246D01*
X147650912Y-109251557D01*
X147840316Y-109155051D01*
X147926978Y-109092088D01*
X148012284Y-109030110D01*
X148012284Y-109030109D01*
X148012292Y-109030104D01*
X148126217Y-108916178D01*
X148187536Y-108882696D01*
X148257228Y-108887680D01*
X148313162Y-108929551D01*
X148330077Y-108960528D01*
X148379146Y-109092088D01*
X148379149Y-109092093D01*
X148465309Y-109207187D01*
X148465312Y-109207190D01*
X148580406Y-109293350D01*
X148580413Y-109293354D01*
X148715120Y-109343596D01*
X148715127Y-109343598D01*
X148774655Y-109349999D01*
X148774672Y-109350000D01*
X149422500Y-109350000D01*
X149422500Y-108433012D01*
X149479507Y-108465925D01*
X149606674Y-108500000D01*
X149738326Y-108500000D01*
X149865493Y-108465925D01*
X149922500Y-108433012D01*
X149922500Y-109350000D01*
X150570328Y-109350000D01*
X150570344Y-109349999D01*
X150629872Y-109343598D01*
X150629879Y-109343596D01*
X150764586Y-109293354D01*
X150764593Y-109293350D01*
X150879687Y-109207190D01*
X150879690Y-109207187D01*
X150965850Y-109092093D01*
X150965854Y-109092086D01*
X151016096Y-108957379D01*
X151016098Y-108957372D01*
X151022499Y-108897844D01*
X151022500Y-108897827D01*
X151022500Y-108250000D01*
X150105512Y-108250000D01*
X150138425Y-108192993D01*
X150172500Y-108065826D01*
X150172500Y-107934174D01*
X150161658Y-107893713D01*
X157012000Y-107893713D01*
X157012000Y-108106286D01*
X157044318Y-108310337D01*
X157045254Y-108316243D01*
X157049047Y-108327918D01*
X157110944Y-108518414D01*
X157207451Y-108707820D01*
X157332390Y-108879786D01*
X157482713Y-109030109D01*
X157654679Y-109155048D01*
X157654681Y-109155049D01*
X157654684Y-109155051D01*
X157844088Y-109251557D01*
X158046257Y-109317246D01*
X158256213Y-109350500D01*
X158256214Y-109350500D01*
X158468786Y-109350500D01*
X158468787Y-109350500D01*
X158678743Y-109317246D01*
X158880912Y-109251557D01*
X159070316Y-109155051D01*
X159156978Y-109092088D01*
X159242286Y-109030109D01*
X159242288Y-109030106D01*
X159242292Y-109030104D01*
X159392604Y-108879792D01*
X159392606Y-108879788D01*
X159392609Y-108879786D01*
X159517548Y-108707820D01*
X159517547Y-108707820D01*
X159517551Y-108707816D01*
X159614057Y-108518412D01*
X159679746Y-108316243D01*
X159713000Y-108106287D01*
X159713000Y-107893713D01*
X159679746Y-107683757D01*
X159614057Y-107481588D01*
X159517551Y-107292184D01*
X159517549Y-107292181D01*
X159517548Y-107292179D01*
X159392609Y-107120213D01*
X159242286Y-106969890D01*
X159070320Y-106844951D01*
X158880914Y-106748444D01*
X158880913Y-106748443D01*
X158880912Y-106748443D01*
X158678743Y-106682754D01*
X158678741Y-106682753D01*
X158678740Y-106682753D01*
X158517457Y-106657208D01*
X158468787Y-106649500D01*
X158256213Y-106649500D01*
X158207542Y-106657208D01*
X158046260Y-106682753D01*
X157844085Y-106748444D01*
X157654679Y-106844951D01*
X157482713Y-106969890D01*
X157332390Y-107120213D01*
X157207451Y-107292179D01*
X157110944Y-107481585D01*
X157045253Y-107683760D01*
X157012000Y-107893713D01*
X150161658Y-107893713D01*
X150138425Y-107807007D01*
X150105512Y-107750000D01*
X151022500Y-107750000D01*
X151022500Y-107102172D01*
X151022499Y-107102155D01*
X151016098Y-107042627D01*
X151016096Y-107042620D01*
X150965854Y-106907913D01*
X150965850Y-106907906D01*
X150879690Y-106792812D01*
X150879687Y-106792809D01*
X150764593Y-106706649D01*
X150764586Y-106706645D01*
X150629879Y-106656403D01*
X150629872Y-106656401D01*
X150570344Y-106650000D01*
X149922500Y-106650000D01*
X149922500Y-107566988D01*
X149865493Y-107534075D01*
X149738326Y-107500000D01*
X149606674Y-107500000D01*
X149479507Y-107534075D01*
X149422500Y-107566988D01*
X149422500Y-106650000D01*
X148774655Y-106650000D01*
X148715127Y-106656401D01*
X148715120Y-106656403D01*
X148580413Y-106706645D01*
X148580406Y-106706649D01*
X148465312Y-106792809D01*
X148465309Y-106792812D01*
X148379149Y-106907906D01*
X148379146Y-106907912D01*
X148330077Y-107039471D01*
X148288205Y-107095404D01*
X148222741Y-107119821D01*
X148154468Y-107104969D01*
X148126214Y-107083818D01*
X148012286Y-106969890D01*
X147840320Y-106844951D01*
X147650914Y-106748444D01*
X147650913Y-106748443D01*
X147650912Y-106748443D01*
X147448743Y-106682754D01*
X147448741Y-106682753D01*
X147448740Y-106682753D01*
X147287457Y-106657208D01*
X147238787Y-106649500D01*
X147026213Y-106649500D01*
X146977542Y-106657208D01*
X146816260Y-106682753D01*
X146614085Y-106748444D01*
X146424679Y-106844951D01*
X146252713Y-106969890D01*
X146102390Y-107120213D01*
X145977449Y-107292182D01*
X145972984Y-107300946D01*
X145925009Y-107351742D01*
X145857188Y-107368536D01*
X145791053Y-107345998D01*
X145752016Y-107300946D01*
X145747550Y-107292182D01*
X145622609Y-107120213D01*
X145472286Y-106969890D01*
X145300320Y-106844951D01*
X145110914Y-106748444D01*
X145110913Y-106748443D01*
X145110912Y-106748443D01*
X144908743Y-106682754D01*
X144908741Y-106682753D01*
X144908740Y-106682753D01*
X144747457Y-106657208D01*
X144698787Y-106649500D01*
X144486213Y-106649500D01*
X144437542Y-106657208D01*
X144276260Y-106682753D01*
X144074085Y-106748444D01*
X143884679Y-106844951D01*
X143712713Y-106969890D01*
X143562390Y-107120213D01*
X143437449Y-107292182D01*
X143432984Y-107300946D01*
X143385009Y-107351742D01*
X143317188Y-107368536D01*
X143251053Y-107345998D01*
X143212016Y-107300946D01*
X143207550Y-107292182D01*
X143082609Y-107120213D01*
X142932286Y-106969890D01*
X142760320Y-106844951D01*
X142570914Y-106748444D01*
X142570913Y-106748443D01*
X142570912Y-106748443D01*
X142368743Y-106682754D01*
X142368741Y-106682753D01*
X142368740Y-106682753D01*
X142207457Y-106657208D01*
X142158787Y-106649500D01*
X141946213Y-106649500D01*
X141897542Y-106657208D01*
X141736260Y-106682753D01*
X141534085Y-106748444D01*
X141344679Y-106844951D01*
X141172713Y-106969890D01*
X141022390Y-107120213D01*
X140897451Y-107292179D01*
X140800944Y-107481585D01*
X140735253Y-107683760D01*
X140733791Y-107692993D01*
X140702000Y-107893713D01*
X140702000Y-108106287D01*
X140715733Y-108192993D01*
X140717359Y-108203259D01*
X140708403Y-108272552D01*
X140663406Y-108326004D01*
X140596655Y-108346643D01*
X140529341Y-108327918D01*
X140507204Y-108310337D01*
X138846367Y-106649500D01*
X133014862Y-100817994D01*
X132981379Y-100756674D01*
X132986363Y-100686982D01*
X132997500Y-100669653D01*
X132997500Y-99743012D01*
X133054507Y-99775925D01*
X133181674Y-99810000D01*
X133313326Y-99810000D01*
X133440493Y-99775925D01*
X133497500Y-99743012D01*
X133497500Y-100660000D01*
X134145328Y-100660000D01*
X134145344Y-100659999D01*
X134204872Y-100653598D01*
X134204879Y-100653596D01*
X134339586Y-100603354D01*
X134339593Y-100603350D01*
X134454687Y-100517190D01*
X134454690Y-100517187D01*
X134540850Y-100402093D01*
X134540854Y-100402086D01*
X134565996Y-100334678D01*
X134591096Y-100267379D01*
X134591098Y-100267372D01*
X134597499Y-100207844D01*
X134597500Y-100207827D01*
X134597500Y-99560000D01*
X133680512Y-99560000D01*
X133713425Y-99502993D01*
X133747500Y-99375826D01*
X133747500Y-99244174D01*
X133713425Y-99117007D01*
X133680512Y-99060000D01*
X134597500Y-99060000D01*
X134597500Y-98412172D01*
X134597499Y-98412155D01*
X134591098Y-98352627D01*
X134591096Y-98352620D01*
X134540854Y-98217913D01*
X134540850Y-98217906D01*
X134454690Y-98102812D01*
X134454687Y-98102809D01*
X134339593Y-98016649D01*
X134339588Y-98016646D01*
X134208028Y-97967577D01*
X134152095Y-97925705D01*
X134127678Y-97860241D01*
X134142530Y-97791968D01*
X134163675Y-97763720D01*
X134277604Y-97649792D01*
X134402551Y-97477816D01*
X134499057Y-97288412D01*
X134564746Y-97086243D01*
X134598000Y-96876287D01*
X134598000Y-96663713D01*
X134582882Y-96568268D01*
X134591836Y-96498979D01*
X134617671Y-96461195D01*
X138292049Y-92786819D01*
X138353372Y-92753334D01*
X138379730Y-92750500D01*
X143450523Y-92750500D01*
X143452719Y-92751144D01*
G37*
%TD.AperFunction*%
%TA.AperFunction,Conductor*%
G36*
X151227703Y-82700017D02*
G01*
X151234181Y-82706049D01*
X158655951Y-90127819D01*
X158689436Y-90189142D01*
X158684452Y-90258834D01*
X158642580Y-90314767D01*
X158577116Y-90339184D01*
X158568270Y-90339500D01*
X157579629Y-90339500D01*
X157579623Y-90339501D01*
X157520016Y-90345908D01*
X157385171Y-90396202D01*
X157385164Y-90396206D01*
X157269955Y-90482452D01*
X157269952Y-90482455D01*
X157183706Y-90597664D01*
X157183702Y-90597671D01*
X157133408Y-90732517D01*
X157127001Y-90792116D01*
X157127000Y-90792135D01*
X157127000Y-92587870D01*
X157127001Y-92587876D01*
X157133408Y-92647483D01*
X157183702Y-92782328D01*
X157183706Y-92782335D01*
X157269952Y-92897544D01*
X157269955Y-92897547D01*
X157385164Y-92983793D01*
X157385171Y-92983797D01*
X157516582Y-93032810D01*
X157572516Y-93074681D01*
X157596933Y-93140145D01*
X157582082Y-93208418D01*
X157560931Y-93236673D01*
X157447389Y-93350215D01*
X157322451Y-93522179D01*
X157225944Y-93711585D01*
X157160253Y-93913760D01*
X157127000Y-94123713D01*
X157127000Y-94336286D01*
X157160253Y-94546239D01*
X157225944Y-94748414D01*
X157322451Y-94937820D01*
X157447390Y-95109786D01*
X157597713Y-95260109D01*
X157769682Y-95385050D01*
X157778446Y-95389516D01*
X157829242Y-95437491D01*
X157846036Y-95505312D01*
X157823498Y-95571447D01*
X157778446Y-95610484D01*
X157769682Y-95614949D01*
X157597713Y-95739890D01*
X157447392Y-95890211D01*
X157390597Y-95968385D01*
X157335267Y-96011051D01*
X157290279Y-96019500D01*
X149248035Y-96019500D01*
X149180996Y-95999815D01*
X149160354Y-95983181D01*
X147513459Y-94336286D01*
X146514325Y-93337151D01*
X146480841Y-93275830D01*
X146485825Y-93206138D01*
X146527697Y-93150205D01*
X146593161Y-93125788D01*
X146649459Y-93134910D01*
X146833373Y-93211091D01*
X146999277Y-93244091D01*
X147031492Y-93250499D01*
X147031496Y-93250500D01*
X147031497Y-93250500D01*
X147233504Y-93250500D01*
X147233505Y-93250499D01*
X147431627Y-93211091D01*
X147618256Y-93133786D01*
X147786218Y-93021558D01*
X147929058Y-92878718D01*
X148041286Y-92710756D01*
X148118591Y-92524127D01*
X148158000Y-92326003D01*
X148158000Y-91673997D01*
X148118591Y-91475873D01*
X148041286Y-91289244D01*
X148041284Y-91289241D01*
X148041282Y-91289237D01*
X147929058Y-91121281D01*
X147919319Y-91111542D01*
X147885834Y-91050219D01*
X147883000Y-91023861D01*
X147883000Y-84072220D01*
X147883330Y-84071093D01*
X147883021Y-84069962D01*
X147893146Y-84037665D01*
X147902685Y-84005181D01*
X147903686Y-84004046D01*
X147903923Y-84003292D01*
X147909131Y-83997877D01*
X147927518Y-83977044D01*
X147930730Y-83974361D01*
X148012292Y-83915104D01*
X148162604Y-83764792D01*
X148162606Y-83764788D01*
X148162609Y-83764786D01*
X148248390Y-83646717D01*
X148287551Y-83592816D01*
X148292293Y-83583508D01*
X148340263Y-83532711D01*
X148408083Y-83515911D01*
X148474219Y-83538445D01*
X148513263Y-83583500D01*
X148517873Y-83592547D01*
X148557228Y-83646716D01*
X149189536Y-83014407D01*
X149206575Y-83077993D01*
X149272401Y-83192007D01*
X149365493Y-83285099D01*
X149479507Y-83350925D01*
X149543090Y-83367962D01*
X148910782Y-84000269D01*
X148910782Y-84000270D01*
X148964949Y-84039624D01*
X149154282Y-84136095D01*
X149356370Y-84201757D01*
X149566254Y-84235000D01*
X149778746Y-84235000D01*
X149988627Y-84201757D01*
X149988630Y-84201757D01*
X150190717Y-84136095D01*
X150380054Y-84039622D01*
X150434216Y-84000270D01*
X150434217Y-84000270D01*
X149801908Y-83367962D01*
X149865493Y-83350925D01*
X149979507Y-83285099D01*
X150072599Y-83192007D01*
X150138425Y-83077993D01*
X150155462Y-83014409D01*
X150787770Y-83646717D01*
X150787770Y-83646716D01*
X150827122Y-83592554D01*
X150923595Y-83403217D01*
X150989257Y-83201130D01*
X150989257Y-83201127D01*
X151022500Y-82991246D01*
X151022500Y-82793730D01*
X151042185Y-82726691D01*
X151094989Y-82680936D01*
X151164147Y-82670992D01*
X151227703Y-82700017D01*
G37*
%TD.AperFunction*%
%TA.AperFunction,Conductor*%
G36*
X145183309Y-81020185D02*
G01*
X145229064Y-81072989D01*
X145239008Y-81142147D01*
X145209983Y-81205703D01*
X145203951Y-81212181D01*
X144901307Y-81514824D01*
X144839984Y-81548309D01*
X144794228Y-81549616D01*
X144698792Y-81534500D01*
X144698787Y-81534500D01*
X144486213Y-81534500D01*
X144437542Y-81542208D01*
X144276260Y-81567753D01*
X144074085Y-81633444D01*
X143884679Y-81729951D01*
X143712715Y-81854889D01*
X143599173Y-81968431D01*
X143537850Y-82001915D01*
X143468158Y-81996931D01*
X143412225Y-81955059D01*
X143395310Y-81924082D01*
X143346297Y-81792671D01*
X143346293Y-81792664D01*
X143260047Y-81677455D01*
X143260044Y-81677452D01*
X143144835Y-81591206D01*
X143144828Y-81591202D01*
X143009982Y-81540908D01*
X143009983Y-81540908D01*
X142950383Y-81534501D01*
X142950381Y-81534500D01*
X142950373Y-81534500D01*
X142950364Y-81534500D01*
X141154629Y-81534500D01*
X141154623Y-81534501D01*
X141095016Y-81540908D01*
X140960171Y-81591202D01*
X140960164Y-81591206D01*
X140844955Y-81677452D01*
X140844952Y-81677455D01*
X140758706Y-81792664D01*
X140758702Y-81792671D01*
X140708408Y-81927517D01*
X140702001Y-81987116D01*
X140702000Y-81987135D01*
X140702000Y-83782870D01*
X140702001Y-83782876D01*
X140708408Y-83842483D01*
X140758702Y-83977328D01*
X140758706Y-83977335D01*
X140844952Y-84092544D01*
X140844955Y-84092547D01*
X140960164Y-84178793D01*
X140960171Y-84178797D01*
X141095017Y-84229091D01*
X141095016Y-84229091D01*
X141101944Y-84229835D01*
X141154627Y-84235500D01*
X142950372Y-84235499D01*
X143009983Y-84229091D01*
X143144831Y-84178796D01*
X143260046Y-84092546D01*
X143346296Y-83977331D01*
X143395310Y-83845916D01*
X143437181Y-83789984D01*
X143502645Y-83765566D01*
X143570918Y-83780417D01*
X143599173Y-83801569D01*
X143712713Y-83915109D01*
X143884679Y-84040048D01*
X143884681Y-84040049D01*
X143884684Y-84040051D01*
X144074088Y-84136557D01*
X144276257Y-84202246D01*
X144486213Y-84235500D01*
X144486214Y-84235500D01*
X144698786Y-84235500D01*
X144698787Y-84235500D01*
X144908743Y-84202246D01*
X145110912Y-84136557D01*
X145300316Y-84040051D01*
X145386638Y-83977335D01*
X145472286Y-83915109D01*
X145472288Y-83915106D01*
X145472292Y-83915104D01*
X145622604Y-83764792D01*
X145622606Y-83764788D01*
X145622609Y-83764786D01*
X145747548Y-83592820D01*
X145747547Y-83592820D01*
X145747551Y-83592816D01*
X145752014Y-83584054D01*
X145799988Y-83533259D01*
X145867808Y-83516463D01*
X145933944Y-83538999D01*
X145972986Y-83584056D01*
X145977451Y-83592820D01*
X146102390Y-83764786D01*
X146102396Y-83764792D01*
X146252708Y-83915104D01*
X146330884Y-83971902D01*
X146373551Y-84027231D01*
X146382000Y-84072220D01*
X146382000Y-90695152D01*
X146362315Y-90762191D01*
X146309511Y-90807946D01*
X146240353Y-90817890D01*
X146210548Y-90809713D01*
X146161484Y-90789390D01*
X146161477Y-90789388D01*
X146112500Y-90779645D01*
X146112500Y-91634134D01*
X146112468Y-91636953D01*
X146112222Y-91647740D01*
X146107000Y-91673997D01*
X146107000Y-91714170D01*
X146092755Y-91699925D01*
X146007245Y-91650556D01*
X145911870Y-91625000D01*
X145813130Y-91625000D01*
X145717755Y-91650556D01*
X145632245Y-91699925D01*
X145617999Y-91714171D01*
X145617999Y-91202129D01*
X145617998Y-91202123D01*
X145613210Y-91157577D01*
X145612500Y-91144324D01*
X145612500Y-90779646D01*
X145612499Y-90779645D01*
X145563522Y-90789388D01*
X145563515Y-90789390D01*
X145483163Y-90822673D01*
X145413693Y-90830142D01*
X145367777Y-90810154D01*
X145367614Y-90810454D01*
X145364266Y-90808626D01*
X145361399Y-90807377D01*
X145359831Y-90806204D01*
X145359830Y-90806203D01*
X145359828Y-90806202D01*
X145224982Y-90755908D01*
X145224983Y-90755908D01*
X145165383Y-90749501D01*
X145165381Y-90749500D01*
X145165373Y-90749500D01*
X145165364Y-90749500D01*
X144019629Y-90749500D01*
X144019623Y-90749501D01*
X143960016Y-90755908D01*
X143825171Y-90806202D01*
X143825164Y-90806206D01*
X143709955Y-90892452D01*
X143709952Y-90892455D01*
X143623706Y-91007664D01*
X143623702Y-91007671D01*
X143573408Y-91142517D01*
X143571626Y-91150062D01*
X143569353Y-91149525D01*
X143547071Y-91203312D01*
X143489677Y-91243157D01*
X143450524Y-91249500D01*
X137943576Y-91249500D01*
X137914742Y-91255234D01*
X137914743Y-91255235D01*
X137798593Y-91278339D01*
X137798583Y-91278342D01*
X137718581Y-91311479D01*
X137718582Y-91311480D01*
X137662002Y-91334917D01*
X137612769Y-91367813D01*
X137539088Y-91417044D01*
X137539080Y-91417050D01*
X134802135Y-94153995D01*
X134740812Y-94187480D01*
X134671120Y-94182496D01*
X134615187Y-94140624D01*
X134591981Y-94085712D01*
X134564746Y-93913760D01*
X134564746Y-93913757D01*
X134499057Y-93711588D01*
X134402551Y-93522184D01*
X134402549Y-93522181D01*
X134402548Y-93522179D01*
X134277609Y-93350213D01*
X134127286Y-93199890D01*
X133955320Y-93074951D01*
X133954615Y-93074591D01*
X133946554Y-93070485D01*
X133895759Y-93022512D01*
X133878963Y-92954692D01*
X133901499Y-92888556D01*
X133946554Y-92849515D01*
X133955316Y-92845051D01*
X134041638Y-92782335D01*
X134127286Y-92720109D01*
X134127288Y-92720106D01*
X134127292Y-92720104D01*
X134277604Y-92569792D01*
X134277606Y-92569788D01*
X134277609Y-92569786D01*
X134402548Y-92397820D01*
X134402547Y-92397820D01*
X134402551Y-92397816D01*
X134499057Y-92208412D01*
X134564746Y-92006243D01*
X134598000Y-91796287D01*
X134598000Y-91583713D01*
X134564746Y-91373757D01*
X134499057Y-91171588D01*
X134402551Y-90982184D01*
X134402549Y-90982181D01*
X134402548Y-90982179D01*
X134277609Y-90810213D01*
X134127286Y-90659890D01*
X133955320Y-90534951D01*
X133765914Y-90438444D01*
X133765913Y-90438443D01*
X133765912Y-90438443D01*
X133563743Y-90372754D01*
X133563741Y-90372753D01*
X133563740Y-90372753D01*
X133402457Y-90347208D01*
X133353787Y-90339500D01*
X133141213Y-90339500D01*
X133092542Y-90347208D01*
X132931260Y-90372753D01*
X132729085Y-90438444D01*
X132539679Y-90534951D01*
X132367713Y-90659890D01*
X132217390Y-90810213D01*
X132092451Y-90982179D01*
X131995944Y-91171585D01*
X131930253Y-91373760D01*
X131897000Y-91583713D01*
X131897000Y-91796286D01*
X131927785Y-91990659D01*
X131930254Y-92006243D01*
X131975256Y-92144745D01*
X131995944Y-92208414D01*
X132092451Y-92397820D01*
X132217390Y-92569786D01*
X132367713Y-92720109D01*
X132539682Y-92845050D01*
X132548446Y-92849516D01*
X132599242Y-92897491D01*
X132616036Y-92965312D01*
X132593498Y-93031447D01*
X132548446Y-93070484D01*
X132539682Y-93074949D01*
X132367713Y-93199890D01*
X132217390Y-93350213D01*
X132092451Y-93522179D01*
X131995944Y-93711585D01*
X131930253Y-93913760D01*
X131897000Y-94123713D01*
X131897000Y-94336292D01*
X131912116Y-94431728D01*
X131903162Y-94501021D01*
X131877324Y-94538807D01*
X131574681Y-94841451D01*
X131513358Y-94874936D01*
X131443667Y-94869952D01*
X131387733Y-94828081D01*
X131363316Y-94762616D01*
X131363000Y-94753770D01*
X131363000Y-82893713D01*
X132012000Y-82893713D01*
X132012000Y-83106287D01*
X132045254Y-83316243D01*
X132110130Y-83515911D01*
X132110944Y-83518414D01*
X132207451Y-83707820D01*
X132332390Y-83879786D01*
X132482713Y-84030109D01*
X132654679Y-84155048D01*
X132654681Y-84155049D01*
X132654684Y-84155051D01*
X132844088Y-84251557D01*
X133046257Y-84317246D01*
X133256213Y-84350500D01*
X133256214Y-84350500D01*
X133468786Y-84350500D01*
X133468787Y-84350500D01*
X133678743Y-84317246D01*
X133880912Y-84251557D01*
X134070316Y-84155051D01*
X134156346Y-84092547D01*
X134242286Y-84030109D01*
X134242288Y-84030106D01*
X134242292Y-84030104D01*
X134392604Y-83879792D01*
X134392606Y-83879788D01*
X134392609Y-83879786D01*
X134517548Y-83707820D01*
X134517547Y-83707820D01*
X134517551Y-83707816D01*
X134614057Y-83518412D01*
X134679746Y-83316243D01*
X134713000Y-83106287D01*
X134713000Y-82893713D01*
X134679746Y-82683757D01*
X134614057Y-82481588D01*
X134517551Y-82292184D01*
X134517549Y-82292181D01*
X134517548Y-82292179D01*
X134392609Y-82120213D01*
X134242286Y-81969890D01*
X134070320Y-81844951D01*
X133880914Y-81748444D01*
X133880913Y-81748443D01*
X133880912Y-81748443D01*
X133678743Y-81682754D01*
X133678741Y-81682753D01*
X133678740Y-81682753D01*
X133517457Y-81657208D01*
X133468787Y-81649500D01*
X133256213Y-81649500D01*
X133207542Y-81657208D01*
X133046260Y-81682753D01*
X132844085Y-81748444D01*
X132654679Y-81844951D01*
X132482713Y-81969890D01*
X132332390Y-82120213D01*
X132207451Y-82292179D01*
X132110944Y-82481585D01*
X132045253Y-82683760D01*
X132023806Y-82819174D01*
X132012000Y-82893713D01*
X131363000Y-82893713D01*
X131363000Y-81124500D01*
X131382685Y-81057461D01*
X131435489Y-81011706D01*
X131487000Y-81000500D01*
X145116270Y-81000500D01*
X145183309Y-81020185D01*
G37*
%TD.AperFunction*%
%TD*%
M02*
