%TF.GenerationSoftware,KiCad,Pcbnew,9.0.4*%
%TF.CreationDate,2025-10-24T23:27:24+02:00*%
%TF.ProjectId,Chessfield,43686573-7366-4696-956c-642e6b696361,rev?*%
%TF.SameCoordinates,Original*%
%TF.FileFunction,Legend,Top*%
%TF.FilePolarity,Positive*%
%FSLAX46Y46*%
G04 Gerber Fmt 4.6, Leading zero omitted, Abs format (unit mm)*
G04 Created by KiCad (PCBNEW 9.0.4) date 2025-10-24 23:27:24*
%MOMM*%
%LPD*%
G01*
G04 APERTURE LIST*
%ADD10C,0.100000*%
%ADD11C,0.150000*%
%ADD12C,0.120000*%
G04 APERTURE END LIST*
D10*
X147409133Y-85767544D02*
X146709133Y-85767544D01*
X146709133Y-85767544D02*
X146709133Y-85600877D01*
X146709133Y-85600877D02*
X146742466Y-85500877D01*
X146742466Y-85500877D02*
X146809133Y-85434211D01*
X146809133Y-85434211D02*
X146875800Y-85400877D01*
X146875800Y-85400877D02*
X147009133Y-85367544D01*
X147009133Y-85367544D02*
X147109133Y-85367544D01*
X147109133Y-85367544D02*
X147242466Y-85400877D01*
X147242466Y-85400877D02*
X147309133Y-85434211D01*
X147309133Y-85434211D02*
X147375800Y-85500877D01*
X147375800Y-85500877D02*
X147409133Y-85600877D01*
X147409133Y-85600877D02*
X147409133Y-85767544D01*
X146709133Y-84934211D02*
X146709133Y-84800877D01*
X146709133Y-84800877D02*
X146742466Y-84734211D01*
X146742466Y-84734211D02*
X146809133Y-84667544D01*
X146809133Y-84667544D02*
X146942466Y-84634211D01*
X146942466Y-84634211D02*
X147175800Y-84634211D01*
X147175800Y-84634211D02*
X147309133Y-84667544D01*
X147309133Y-84667544D02*
X147375800Y-84734211D01*
X147375800Y-84734211D02*
X147409133Y-84800877D01*
X147409133Y-84800877D02*
X147409133Y-84934211D01*
X147409133Y-84934211D02*
X147375800Y-85000877D01*
X147375800Y-85000877D02*
X147309133Y-85067544D01*
X147309133Y-85067544D02*
X147175800Y-85100877D01*
X147175800Y-85100877D02*
X146942466Y-85100877D01*
X146942466Y-85100877D02*
X146809133Y-85067544D01*
X146809133Y-85067544D02*
X146742466Y-85000877D01*
X146742466Y-85000877D02*
X146709133Y-84934211D01*
X147375800Y-84367544D02*
X147409133Y-84267544D01*
X147409133Y-84267544D02*
X147409133Y-84100878D01*
X147409133Y-84100878D02*
X147375800Y-84034211D01*
X147375800Y-84034211D02*
X147342466Y-84000878D01*
X147342466Y-84000878D02*
X147275800Y-83967544D01*
X147275800Y-83967544D02*
X147209133Y-83967544D01*
X147209133Y-83967544D02*
X147142466Y-84000878D01*
X147142466Y-84000878D02*
X147109133Y-84034211D01*
X147109133Y-84034211D02*
X147075800Y-84100878D01*
X147075800Y-84100878D02*
X147042466Y-84234211D01*
X147042466Y-84234211D02*
X147009133Y-84300878D01*
X147009133Y-84300878D02*
X146975800Y-84334211D01*
X146975800Y-84334211D02*
X146909133Y-84367544D01*
X146909133Y-84367544D02*
X146842466Y-84367544D01*
X146842466Y-84367544D02*
X146775800Y-84334211D01*
X146775800Y-84334211D02*
X146742466Y-84300878D01*
X146742466Y-84300878D02*
X146709133Y-84234211D01*
X146709133Y-84234211D02*
X146709133Y-84067544D01*
X146709133Y-84067544D02*
X146742466Y-83967544D01*
X132565789Y-89709133D02*
X132232455Y-89709133D01*
X132232455Y-89709133D02*
X132199122Y-90042466D01*
X132199122Y-90042466D02*
X132232455Y-90009133D01*
X132232455Y-90009133D02*
X132299122Y-89975800D01*
X132299122Y-89975800D02*
X132465789Y-89975800D01*
X132465789Y-89975800D02*
X132532455Y-90009133D01*
X132532455Y-90009133D02*
X132565789Y-90042466D01*
X132565789Y-90042466D02*
X132599122Y-90109133D01*
X132599122Y-90109133D02*
X132599122Y-90275800D01*
X132599122Y-90275800D02*
X132565789Y-90342466D01*
X132565789Y-90342466D02*
X132532455Y-90375800D01*
X132532455Y-90375800D02*
X132465789Y-90409133D01*
X132465789Y-90409133D02*
X132299122Y-90409133D01*
X132299122Y-90409133D02*
X132232455Y-90375800D01*
X132232455Y-90375800D02*
X132199122Y-90342466D01*
X132799122Y-89709133D02*
X133032456Y-90409133D01*
X133032456Y-90409133D02*
X133265789Y-89709133D01*
X147409133Y-106767544D02*
X146709133Y-106767544D01*
X146709133Y-106767544D02*
X146709133Y-106600877D01*
X146709133Y-106600877D02*
X146742466Y-106500877D01*
X146742466Y-106500877D02*
X146809133Y-106434211D01*
X146809133Y-106434211D02*
X146875800Y-106400877D01*
X146875800Y-106400877D02*
X147009133Y-106367544D01*
X147009133Y-106367544D02*
X147109133Y-106367544D01*
X147109133Y-106367544D02*
X147242466Y-106400877D01*
X147242466Y-106400877D02*
X147309133Y-106434211D01*
X147309133Y-106434211D02*
X147375800Y-106500877D01*
X147375800Y-106500877D02*
X147409133Y-106600877D01*
X147409133Y-106600877D02*
X147409133Y-106767544D01*
X146709133Y-105934211D02*
X146709133Y-105800877D01*
X146709133Y-105800877D02*
X146742466Y-105734211D01*
X146742466Y-105734211D02*
X146809133Y-105667544D01*
X146809133Y-105667544D02*
X146942466Y-105634211D01*
X146942466Y-105634211D02*
X147175800Y-105634211D01*
X147175800Y-105634211D02*
X147309133Y-105667544D01*
X147309133Y-105667544D02*
X147375800Y-105734211D01*
X147375800Y-105734211D02*
X147409133Y-105800877D01*
X147409133Y-105800877D02*
X147409133Y-105934211D01*
X147409133Y-105934211D02*
X147375800Y-106000877D01*
X147375800Y-106000877D02*
X147309133Y-106067544D01*
X147309133Y-106067544D02*
X147175800Y-106100877D01*
X147175800Y-106100877D02*
X146942466Y-106100877D01*
X146942466Y-106100877D02*
X146809133Y-106067544D01*
X146809133Y-106067544D02*
X146742466Y-106000877D01*
X146742466Y-106000877D02*
X146709133Y-105934211D01*
X147375800Y-105367544D02*
X147409133Y-105267544D01*
X147409133Y-105267544D02*
X147409133Y-105100878D01*
X147409133Y-105100878D02*
X147375800Y-105034211D01*
X147375800Y-105034211D02*
X147342466Y-105000878D01*
X147342466Y-105000878D02*
X147275800Y-104967544D01*
X147275800Y-104967544D02*
X147209133Y-104967544D01*
X147209133Y-104967544D02*
X147142466Y-105000878D01*
X147142466Y-105000878D02*
X147109133Y-105034211D01*
X147109133Y-105034211D02*
X147075800Y-105100878D01*
X147075800Y-105100878D02*
X147042466Y-105234211D01*
X147042466Y-105234211D02*
X147009133Y-105300878D01*
X147009133Y-105300878D02*
X146975800Y-105334211D01*
X146975800Y-105334211D02*
X146909133Y-105367544D01*
X146909133Y-105367544D02*
X146842466Y-105367544D01*
X146842466Y-105367544D02*
X146775800Y-105334211D01*
X146775800Y-105334211D02*
X146742466Y-105300878D01*
X146742466Y-105300878D02*
X146709133Y-105234211D01*
X146709133Y-105234211D02*
X146709133Y-105067544D01*
X146709133Y-105067544D02*
X146742466Y-104967544D01*
X159043289Y-89629133D02*
X158709955Y-89629133D01*
X158709955Y-89629133D02*
X158676622Y-89962466D01*
X158676622Y-89962466D02*
X158709955Y-89929133D01*
X158709955Y-89929133D02*
X158776622Y-89895800D01*
X158776622Y-89895800D02*
X158943289Y-89895800D01*
X158943289Y-89895800D02*
X159009955Y-89929133D01*
X159009955Y-89929133D02*
X159043289Y-89962466D01*
X159043289Y-89962466D02*
X159076622Y-90029133D01*
X159076622Y-90029133D02*
X159076622Y-90195800D01*
X159076622Y-90195800D02*
X159043289Y-90262466D01*
X159043289Y-90262466D02*
X159009955Y-90295800D01*
X159009955Y-90295800D02*
X158943289Y-90329133D01*
X158943289Y-90329133D02*
X158776622Y-90329133D01*
X158776622Y-90329133D02*
X158709955Y-90295800D01*
X158709955Y-90295800D02*
X158676622Y-90262466D01*
X159276622Y-89629133D02*
X159509956Y-90329133D01*
X159509956Y-90329133D02*
X159743289Y-89629133D01*
X132599122Y-100742466D02*
X132532455Y-100709133D01*
X132532455Y-100709133D02*
X132432455Y-100709133D01*
X132432455Y-100709133D02*
X132332455Y-100742466D01*
X132332455Y-100742466D02*
X132265789Y-100809133D01*
X132265789Y-100809133D02*
X132232455Y-100875800D01*
X132232455Y-100875800D02*
X132199122Y-101009133D01*
X132199122Y-101009133D02*
X132199122Y-101109133D01*
X132199122Y-101109133D02*
X132232455Y-101242466D01*
X132232455Y-101242466D02*
X132265789Y-101309133D01*
X132265789Y-101309133D02*
X132332455Y-101375800D01*
X132332455Y-101375800D02*
X132432455Y-101409133D01*
X132432455Y-101409133D02*
X132499122Y-101409133D01*
X132499122Y-101409133D02*
X132599122Y-101375800D01*
X132599122Y-101375800D02*
X132632455Y-101342466D01*
X132632455Y-101342466D02*
X132632455Y-101109133D01*
X132632455Y-101109133D02*
X132499122Y-101109133D01*
X132932455Y-101409133D02*
X132932455Y-100709133D01*
X132932455Y-100709133D02*
X133332455Y-101409133D01*
X133332455Y-101409133D02*
X133332455Y-100709133D01*
X133665788Y-101409133D02*
X133665788Y-100709133D01*
X133665788Y-100709133D02*
X133832455Y-100709133D01*
X133832455Y-100709133D02*
X133932455Y-100742466D01*
X133932455Y-100742466D02*
X133999122Y-100809133D01*
X133999122Y-100809133D02*
X134032455Y-100875800D01*
X134032455Y-100875800D02*
X134065788Y-101009133D01*
X134065788Y-101009133D02*
X134065788Y-101109133D01*
X134065788Y-101109133D02*
X134032455Y-101242466D01*
X134032455Y-101242466D02*
X133999122Y-101309133D01*
X133999122Y-101309133D02*
X133932455Y-101375800D01*
X133932455Y-101375800D02*
X133832455Y-101409133D01*
X133832455Y-101409133D02*
X133665788Y-101409133D01*
X144909133Y-106767544D02*
X144209133Y-106767544D01*
X144209133Y-106767544D02*
X144209133Y-106600877D01*
X144209133Y-106600877D02*
X144242466Y-106500877D01*
X144242466Y-106500877D02*
X144309133Y-106434211D01*
X144309133Y-106434211D02*
X144375800Y-106400877D01*
X144375800Y-106400877D02*
X144509133Y-106367544D01*
X144509133Y-106367544D02*
X144609133Y-106367544D01*
X144609133Y-106367544D02*
X144742466Y-106400877D01*
X144742466Y-106400877D02*
X144809133Y-106434211D01*
X144809133Y-106434211D02*
X144875800Y-106500877D01*
X144875800Y-106500877D02*
X144909133Y-106600877D01*
X144909133Y-106600877D02*
X144909133Y-106767544D01*
X144909133Y-106067544D02*
X144209133Y-106067544D01*
X144909133Y-105400878D02*
X144909133Y-105734211D01*
X144909133Y-105734211D02*
X144209133Y-105734211D01*
X151599122Y-82242466D02*
X151532455Y-82209133D01*
X151532455Y-82209133D02*
X151432455Y-82209133D01*
X151432455Y-82209133D02*
X151332455Y-82242466D01*
X151332455Y-82242466D02*
X151265789Y-82309133D01*
X151265789Y-82309133D02*
X151232455Y-82375800D01*
X151232455Y-82375800D02*
X151199122Y-82509133D01*
X151199122Y-82509133D02*
X151199122Y-82609133D01*
X151199122Y-82609133D02*
X151232455Y-82742466D01*
X151232455Y-82742466D02*
X151265789Y-82809133D01*
X151265789Y-82809133D02*
X151332455Y-82875800D01*
X151332455Y-82875800D02*
X151432455Y-82909133D01*
X151432455Y-82909133D02*
X151499122Y-82909133D01*
X151499122Y-82909133D02*
X151599122Y-82875800D01*
X151599122Y-82875800D02*
X151632455Y-82842466D01*
X151632455Y-82842466D02*
X151632455Y-82609133D01*
X151632455Y-82609133D02*
X151499122Y-82609133D01*
X151932455Y-82909133D02*
X151932455Y-82209133D01*
X151932455Y-82209133D02*
X152332455Y-82909133D01*
X152332455Y-82909133D02*
X152332455Y-82209133D01*
X152665788Y-82909133D02*
X152665788Y-82209133D01*
X152665788Y-82209133D02*
X152832455Y-82209133D01*
X152832455Y-82209133D02*
X152932455Y-82242466D01*
X152932455Y-82242466D02*
X152999122Y-82309133D01*
X152999122Y-82309133D02*
X153032455Y-82375800D01*
X153032455Y-82375800D02*
X153065788Y-82509133D01*
X153065788Y-82509133D02*
X153065788Y-82609133D01*
X153065788Y-82609133D02*
X153032455Y-82742466D01*
X153032455Y-82742466D02*
X152999122Y-82809133D01*
X152999122Y-82809133D02*
X152932455Y-82875800D01*
X152932455Y-82875800D02*
X152832455Y-82909133D01*
X152832455Y-82909133D02*
X152665788Y-82909133D01*
X134732455Y-94409133D02*
X134732455Y-93709133D01*
X134732455Y-93709133D02*
X134899122Y-93709133D01*
X134899122Y-93709133D02*
X134999122Y-93742466D01*
X134999122Y-93742466D02*
X135065789Y-93809133D01*
X135065789Y-93809133D02*
X135099122Y-93875800D01*
X135099122Y-93875800D02*
X135132455Y-94009133D01*
X135132455Y-94009133D02*
X135132455Y-94109133D01*
X135132455Y-94109133D02*
X135099122Y-94242466D01*
X135099122Y-94242466D02*
X135065789Y-94309133D01*
X135065789Y-94309133D02*
X134999122Y-94375800D01*
X134999122Y-94375800D02*
X134899122Y-94409133D01*
X134899122Y-94409133D02*
X134732455Y-94409133D01*
X135432455Y-94409133D02*
X135432455Y-93709133D01*
X136099122Y-94409133D02*
X135765788Y-94409133D01*
X135765788Y-94409133D02*
X135765788Y-93709133D01*
X134666384Y-106872419D02*
X134666384Y-105872419D01*
X134666384Y-105872419D02*
X134999717Y-106586704D01*
X134999717Y-106586704D02*
X135333050Y-105872419D01*
X135333050Y-105872419D02*
X135333050Y-106872419D01*
X136237812Y-106872419D02*
X136237812Y-106348609D01*
X136237812Y-106348609D02*
X136190193Y-106253371D01*
X136190193Y-106253371D02*
X136094955Y-106205752D01*
X136094955Y-106205752D02*
X135904479Y-106205752D01*
X135904479Y-106205752D02*
X135809241Y-106253371D01*
X136237812Y-106824800D02*
X136142574Y-106872419D01*
X136142574Y-106872419D02*
X135904479Y-106872419D01*
X135904479Y-106872419D02*
X135809241Y-106824800D01*
X135809241Y-106824800D02*
X135761622Y-106729561D01*
X135761622Y-106729561D02*
X135761622Y-106634323D01*
X135761622Y-106634323D02*
X135809241Y-106539085D01*
X135809241Y-106539085D02*
X135904479Y-106491466D01*
X135904479Y-106491466D02*
X136142574Y-106491466D01*
X136142574Y-106491466D02*
X136237812Y-106443847D01*
X136571146Y-106205752D02*
X136952098Y-106205752D01*
X136714003Y-105872419D02*
X136714003Y-106729561D01*
X136714003Y-106729561D02*
X136761622Y-106824800D01*
X136761622Y-106824800D02*
X136856860Y-106872419D01*
X136856860Y-106872419D02*
X136952098Y-106872419D01*
X137285432Y-106872419D02*
X137285432Y-105872419D01*
X137714003Y-106872419D02*
X137714003Y-106348609D01*
X137714003Y-106348609D02*
X137666384Y-106253371D01*
X137666384Y-106253371D02*
X137571146Y-106205752D01*
X137571146Y-106205752D02*
X137428289Y-106205752D01*
X137428289Y-106205752D02*
X137333051Y-106253371D01*
X137333051Y-106253371D02*
X137285432Y-106300990D01*
X138190194Y-106872419D02*
X138190194Y-106205752D01*
X138190194Y-105872419D02*
X138142575Y-105920038D01*
X138142575Y-105920038D02*
X138190194Y-105967657D01*
X138190194Y-105967657D02*
X138237813Y-105920038D01*
X138237813Y-105920038D02*
X138190194Y-105872419D01*
X138190194Y-105872419D02*
X138190194Y-105967657D01*
X139094955Y-106872419D02*
X139094955Y-106348609D01*
X139094955Y-106348609D02*
X139047336Y-106253371D01*
X139047336Y-106253371D02*
X138952098Y-106205752D01*
X138952098Y-106205752D02*
X138761622Y-106205752D01*
X138761622Y-106205752D02*
X138666384Y-106253371D01*
X139094955Y-106824800D02*
X138999717Y-106872419D01*
X138999717Y-106872419D02*
X138761622Y-106872419D01*
X138761622Y-106872419D02*
X138666384Y-106824800D01*
X138666384Y-106824800D02*
X138618765Y-106729561D01*
X138618765Y-106729561D02*
X138618765Y-106634323D01*
X138618765Y-106634323D02*
X138666384Y-106539085D01*
X138666384Y-106539085D02*
X138761622Y-106491466D01*
X138761622Y-106491466D02*
X138999717Y-106491466D01*
X138999717Y-106491466D02*
X139094955Y-106443847D01*
X139523527Y-106824800D02*
X139618765Y-106872419D01*
X139618765Y-106872419D02*
X139809241Y-106872419D01*
X139809241Y-106872419D02*
X139904479Y-106824800D01*
X139904479Y-106824800D02*
X139952098Y-106729561D01*
X139952098Y-106729561D02*
X139952098Y-106681942D01*
X139952098Y-106681942D02*
X139904479Y-106586704D01*
X139904479Y-106586704D02*
X139809241Y-106539085D01*
X139809241Y-106539085D02*
X139666384Y-106539085D01*
X139666384Y-106539085D02*
X139571146Y-106491466D01*
X139571146Y-106491466D02*
X139523527Y-106396228D01*
X139523527Y-106396228D02*
X139523527Y-106348609D01*
X139523527Y-106348609D02*
X139571146Y-106253371D01*
X139571146Y-106253371D02*
X139666384Y-106205752D01*
X139666384Y-106205752D02*
X139809241Y-106205752D01*
X139809241Y-106205752D02*
X139904479Y-106253371D01*
X141142575Y-106872419D02*
X141142575Y-105872419D01*
X141142575Y-106348609D02*
X141714003Y-106348609D01*
X141714003Y-106872419D02*
X141714003Y-105872419D01*
X142190194Y-106777180D02*
X142237813Y-106824800D01*
X142237813Y-106824800D02*
X142190194Y-106872419D01*
X142190194Y-106872419D02*
X142142575Y-106824800D01*
X142142575Y-106824800D02*
X142190194Y-106777180D01*
X142190194Y-106777180D02*
X142190194Y-106872419D01*
X134632455Y-96709133D02*
X134865789Y-97409133D01*
X134865789Y-97409133D02*
X135099122Y-96709133D01*
X135299122Y-97375800D02*
X135399122Y-97409133D01*
X135399122Y-97409133D02*
X135565789Y-97409133D01*
X135565789Y-97409133D02*
X135632455Y-97375800D01*
X135632455Y-97375800D02*
X135665789Y-97342466D01*
X135665789Y-97342466D02*
X135699122Y-97275800D01*
X135699122Y-97275800D02*
X135699122Y-97209133D01*
X135699122Y-97209133D02*
X135665789Y-97142466D01*
X135665789Y-97142466D02*
X135632455Y-97109133D01*
X135632455Y-97109133D02*
X135565789Y-97075800D01*
X135565789Y-97075800D02*
X135432455Y-97042466D01*
X135432455Y-97042466D02*
X135365789Y-97009133D01*
X135365789Y-97009133D02*
X135332455Y-96975800D01*
X135332455Y-96975800D02*
X135299122Y-96909133D01*
X135299122Y-96909133D02*
X135299122Y-96842466D01*
X135299122Y-96842466D02*
X135332455Y-96775800D01*
X135332455Y-96775800D02*
X135365789Y-96742466D01*
X135365789Y-96742466D02*
X135432455Y-96709133D01*
X135432455Y-96709133D02*
X135599122Y-96709133D01*
X135599122Y-96709133D02*
X135699122Y-96742466D01*
X144909133Y-85767544D02*
X144209133Y-85767544D01*
X144209133Y-85767544D02*
X144209133Y-85600877D01*
X144209133Y-85600877D02*
X144242466Y-85500877D01*
X144242466Y-85500877D02*
X144309133Y-85434211D01*
X144309133Y-85434211D02*
X144375800Y-85400877D01*
X144375800Y-85400877D02*
X144509133Y-85367544D01*
X144509133Y-85367544D02*
X144609133Y-85367544D01*
X144609133Y-85367544D02*
X144742466Y-85400877D01*
X144742466Y-85400877D02*
X144809133Y-85434211D01*
X144809133Y-85434211D02*
X144875800Y-85500877D01*
X144875800Y-85500877D02*
X144909133Y-85600877D01*
X144909133Y-85600877D02*
X144909133Y-85767544D01*
X144209133Y-84934211D02*
X144209133Y-84800877D01*
X144209133Y-84800877D02*
X144242466Y-84734211D01*
X144242466Y-84734211D02*
X144309133Y-84667544D01*
X144309133Y-84667544D02*
X144442466Y-84634211D01*
X144442466Y-84634211D02*
X144675800Y-84634211D01*
X144675800Y-84634211D02*
X144809133Y-84667544D01*
X144809133Y-84667544D02*
X144875800Y-84734211D01*
X144875800Y-84734211D02*
X144909133Y-84800877D01*
X144909133Y-84800877D02*
X144909133Y-84934211D01*
X144909133Y-84934211D02*
X144875800Y-85000877D01*
X144875800Y-85000877D02*
X144809133Y-85067544D01*
X144809133Y-85067544D02*
X144675800Y-85100877D01*
X144675800Y-85100877D02*
X144442466Y-85100877D01*
X144442466Y-85100877D02*
X144309133Y-85067544D01*
X144309133Y-85067544D02*
X144242466Y-85000877D01*
X144242466Y-85000877D02*
X144209133Y-84934211D01*
X144909133Y-84000878D02*
X144909133Y-84334211D01*
X144909133Y-84334211D02*
X144209133Y-84334211D01*
X155632455Y-96709133D02*
X155865789Y-97409133D01*
X155865789Y-97409133D02*
X156099122Y-96709133D01*
X156299122Y-97375800D02*
X156399122Y-97409133D01*
X156399122Y-97409133D02*
X156565789Y-97409133D01*
X156565789Y-97409133D02*
X156632455Y-97375800D01*
X156632455Y-97375800D02*
X156665789Y-97342466D01*
X156665789Y-97342466D02*
X156699122Y-97275800D01*
X156699122Y-97275800D02*
X156699122Y-97209133D01*
X156699122Y-97209133D02*
X156665789Y-97142466D01*
X156665789Y-97142466D02*
X156632455Y-97109133D01*
X156632455Y-97109133D02*
X156565789Y-97075800D01*
X156565789Y-97075800D02*
X156432455Y-97042466D01*
X156432455Y-97042466D02*
X156365789Y-97009133D01*
X156365789Y-97009133D02*
X156332455Y-96975800D01*
X156332455Y-96975800D02*
X156299122Y-96909133D01*
X156299122Y-96909133D02*
X156299122Y-96842466D01*
X156299122Y-96842466D02*
X156332455Y-96775800D01*
X156332455Y-96775800D02*
X156365789Y-96742466D01*
X156365789Y-96742466D02*
X156432455Y-96709133D01*
X156432455Y-96709133D02*
X156599122Y-96709133D01*
X156599122Y-96709133D02*
X156699122Y-96742466D01*
X158099122Y-100742466D02*
X158032455Y-100709133D01*
X158032455Y-100709133D02*
X157932455Y-100709133D01*
X157932455Y-100709133D02*
X157832455Y-100742466D01*
X157832455Y-100742466D02*
X157765789Y-100809133D01*
X157765789Y-100809133D02*
X157732455Y-100875800D01*
X157732455Y-100875800D02*
X157699122Y-101009133D01*
X157699122Y-101009133D02*
X157699122Y-101109133D01*
X157699122Y-101109133D02*
X157732455Y-101242466D01*
X157732455Y-101242466D02*
X157765789Y-101309133D01*
X157765789Y-101309133D02*
X157832455Y-101375800D01*
X157832455Y-101375800D02*
X157932455Y-101409133D01*
X157932455Y-101409133D02*
X157999122Y-101409133D01*
X157999122Y-101409133D02*
X158099122Y-101375800D01*
X158099122Y-101375800D02*
X158132455Y-101342466D01*
X158132455Y-101342466D02*
X158132455Y-101109133D01*
X158132455Y-101109133D02*
X157999122Y-101109133D01*
X158432455Y-101409133D02*
X158432455Y-100709133D01*
X158432455Y-100709133D02*
X158832455Y-101409133D01*
X158832455Y-101409133D02*
X158832455Y-100709133D01*
X159165788Y-101409133D02*
X159165788Y-100709133D01*
X159165788Y-100709133D02*
X159332455Y-100709133D01*
X159332455Y-100709133D02*
X159432455Y-100742466D01*
X159432455Y-100742466D02*
X159499122Y-100809133D01*
X159499122Y-100809133D02*
X159532455Y-100875800D01*
X159532455Y-100875800D02*
X159565788Y-101009133D01*
X159565788Y-101009133D02*
X159565788Y-101109133D01*
X159565788Y-101109133D02*
X159532455Y-101242466D01*
X159532455Y-101242466D02*
X159499122Y-101309133D01*
X159499122Y-101309133D02*
X159432455Y-101375800D01*
X159432455Y-101375800D02*
X159332455Y-101409133D01*
X159332455Y-101409133D02*
X159165788Y-101409133D01*
X152999717Y-84848609D02*
X152666384Y-84848609D01*
X152666384Y-85372419D02*
X152666384Y-84372419D01*
X152666384Y-84372419D02*
X153142574Y-84372419D01*
X153523527Y-85372419D02*
X153523527Y-84705752D01*
X153523527Y-84372419D02*
X153475908Y-84420038D01*
X153475908Y-84420038D02*
X153523527Y-84467657D01*
X153523527Y-84467657D02*
X153571146Y-84420038D01*
X153571146Y-84420038D02*
X153523527Y-84372419D01*
X153523527Y-84372419D02*
X153523527Y-84467657D01*
X154380669Y-85324800D02*
X154285431Y-85372419D01*
X154285431Y-85372419D02*
X154094955Y-85372419D01*
X154094955Y-85372419D02*
X153999717Y-85324800D01*
X153999717Y-85324800D02*
X153952098Y-85229561D01*
X153952098Y-85229561D02*
X153952098Y-84848609D01*
X153952098Y-84848609D02*
X153999717Y-84753371D01*
X153999717Y-84753371D02*
X154094955Y-84705752D01*
X154094955Y-84705752D02*
X154285431Y-84705752D01*
X154285431Y-84705752D02*
X154380669Y-84753371D01*
X154380669Y-84753371D02*
X154428288Y-84848609D01*
X154428288Y-84848609D02*
X154428288Y-84943847D01*
X154428288Y-84943847D02*
X153952098Y-85039085D01*
X154999717Y-85372419D02*
X154904479Y-85324800D01*
X154904479Y-85324800D02*
X154856860Y-85229561D01*
X154856860Y-85229561D02*
X154856860Y-84372419D01*
X155809241Y-85372419D02*
X155809241Y-84372419D01*
X155809241Y-85324800D02*
X155714003Y-85372419D01*
X155714003Y-85372419D02*
X155523527Y-85372419D01*
X155523527Y-85372419D02*
X155428289Y-85324800D01*
X155428289Y-85324800D02*
X155380670Y-85277180D01*
X155380670Y-85277180D02*
X155333051Y-85181942D01*
X155333051Y-85181942D02*
X155333051Y-84896228D01*
X155333051Y-84896228D02*
X155380670Y-84800990D01*
X155380670Y-84800990D02*
X155428289Y-84753371D01*
X155428289Y-84753371D02*
X155523527Y-84705752D01*
X155523527Y-84705752D02*
X155714003Y-84705752D01*
X155714003Y-84705752D02*
X155809241Y-84753371D01*
X156904480Y-84372419D02*
X157237813Y-85372419D01*
X157237813Y-85372419D02*
X157571146Y-84372419D01*
X158428289Y-85372419D02*
X157856861Y-85372419D01*
X158142575Y-85372419D02*
X158142575Y-84372419D01*
X158142575Y-84372419D02*
X158047337Y-84515276D01*
X158047337Y-84515276D02*
X157952099Y-84610514D01*
X157952099Y-84610514D02*
X157856861Y-84658133D01*
X158856861Y-85277180D02*
X158904480Y-85324800D01*
X158904480Y-85324800D02*
X158856861Y-85372419D01*
X158856861Y-85372419D02*
X158809242Y-85324800D01*
X158809242Y-85324800D02*
X158856861Y-85277180D01*
X158856861Y-85277180D02*
X158856861Y-85372419D01*
X159523527Y-84372419D02*
X159618765Y-84372419D01*
X159618765Y-84372419D02*
X159714003Y-84420038D01*
X159714003Y-84420038D02*
X159761622Y-84467657D01*
X159761622Y-84467657D02*
X159809241Y-84562895D01*
X159809241Y-84562895D02*
X159856860Y-84753371D01*
X159856860Y-84753371D02*
X159856860Y-84991466D01*
X159856860Y-84991466D02*
X159809241Y-85181942D01*
X159809241Y-85181942D02*
X159761622Y-85277180D01*
X159761622Y-85277180D02*
X159714003Y-85324800D01*
X159714003Y-85324800D02*
X159618765Y-85372419D01*
X159618765Y-85372419D02*
X159523527Y-85372419D01*
X159523527Y-85372419D02*
X159428289Y-85324800D01*
X159428289Y-85324800D02*
X159380670Y-85277180D01*
X159380670Y-85277180D02*
X159333051Y-85181942D01*
X159333051Y-85181942D02*
X159285432Y-84991466D01*
X159285432Y-84991466D02*
X159285432Y-84753371D01*
X159285432Y-84753371D02*
X159333051Y-84562895D01*
X159333051Y-84562895D02*
X159380670Y-84467657D01*
X159380670Y-84467657D02*
X159428289Y-84420038D01*
X159428289Y-84420038D02*
X159523527Y-84372419D01*
X155232455Y-94409133D02*
X155232455Y-93709133D01*
X155232455Y-93709133D02*
X155399122Y-93709133D01*
X155399122Y-93709133D02*
X155499122Y-93742466D01*
X155499122Y-93742466D02*
X155565789Y-93809133D01*
X155565789Y-93809133D02*
X155599122Y-93875800D01*
X155599122Y-93875800D02*
X155632455Y-94009133D01*
X155632455Y-94009133D02*
X155632455Y-94109133D01*
X155632455Y-94109133D02*
X155599122Y-94242466D01*
X155599122Y-94242466D02*
X155565789Y-94309133D01*
X155565789Y-94309133D02*
X155499122Y-94375800D01*
X155499122Y-94375800D02*
X155399122Y-94409133D01*
X155399122Y-94409133D02*
X155232455Y-94409133D01*
X156065789Y-93709133D02*
X156199122Y-93709133D01*
X156199122Y-93709133D02*
X156265789Y-93742466D01*
X156265789Y-93742466D02*
X156332455Y-93809133D01*
X156332455Y-93809133D02*
X156365789Y-93942466D01*
X156365789Y-93942466D02*
X156365789Y-94175800D01*
X156365789Y-94175800D02*
X156332455Y-94309133D01*
X156332455Y-94309133D02*
X156265789Y-94375800D01*
X156265789Y-94375800D02*
X156199122Y-94409133D01*
X156199122Y-94409133D02*
X156065789Y-94409133D01*
X156065789Y-94409133D02*
X155999122Y-94375800D01*
X155999122Y-94375800D02*
X155932455Y-94309133D01*
X155932455Y-94309133D02*
X155899122Y-94175800D01*
X155899122Y-94175800D02*
X155899122Y-93942466D01*
X155899122Y-93942466D02*
X155932455Y-93809133D01*
X155932455Y-93809133D02*
X155999122Y-93742466D01*
X155999122Y-93742466D02*
X156065789Y-93709133D01*
X156999122Y-94409133D02*
X156665788Y-94409133D01*
X156665788Y-94409133D02*
X156665788Y-93709133D01*
X139565789Y-82209133D02*
X139232455Y-82209133D01*
X139232455Y-82209133D02*
X139199122Y-82542466D01*
X139199122Y-82542466D02*
X139232455Y-82509133D01*
X139232455Y-82509133D02*
X139299122Y-82475800D01*
X139299122Y-82475800D02*
X139465789Y-82475800D01*
X139465789Y-82475800D02*
X139532455Y-82509133D01*
X139532455Y-82509133D02*
X139565789Y-82542466D01*
X139565789Y-82542466D02*
X139599122Y-82609133D01*
X139599122Y-82609133D02*
X139599122Y-82775800D01*
X139599122Y-82775800D02*
X139565789Y-82842466D01*
X139565789Y-82842466D02*
X139532455Y-82875800D01*
X139532455Y-82875800D02*
X139465789Y-82909133D01*
X139465789Y-82909133D02*
X139299122Y-82909133D01*
X139299122Y-82909133D02*
X139232455Y-82875800D01*
X139232455Y-82875800D02*
X139199122Y-82842466D01*
X139799122Y-82209133D02*
X140032456Y-82909133D01*
X140032456Y-82909133D02*
X140265789Y-82209133D01*
X151651622Y-108242466D02*
X151584955Y-108209133D01*
X151584955Y-108209133D02*
X151484955Y-108209133D01*
X151484955Y-108209133D02*
X151384955Y-108242466D01*
X151384955Y-108242466D02*
X151318289Y-108309133D01*
X151318289Y-108309133D02*
X151284955Y-108375800D01*
X151284955Y-108375800D02*
X151251622Y-108509133D01*
X151251622Y-108509133D02*
X151251622Y-108609133D01*
X151251622Y-108609133D02*
X151284955Y-108742466D01*
X151284955Y-108742466D02*
X151318289Y-108809133D01*
X151318289Y-108809133D02*
X151384955Y-108875800D01*
X151384955Y-108875800D02*
X151484955Y-108909133D01*
X151484955Y-108909133D02*
X151551622Y-108909133D01*
X151551622Y-108909133D02*
X151651622Y-108875800D01*
X151651622Y-108875800D02*
X151684955Y-108842466D01*
X151684955Y-108842466D02*
X151684955Y-108609133D01*
X151684955Y-108609133D02*
X151551622Y-108609133D01*
X151984955Y-108909133D02*
X151984955Y-108209133D01*
X151984955Y-108209133D02*
X152384955Y-108909133D01*
X152384955Y-108909133D02*
X152384955Y-108209133D01*
X152718288Y-108909133D02*
X152718288Y-108209133D01*
X152718288Y-108209133D02*
X152884955Y-108209133D01*
X152884955Y-108209133D02*
X152984955Y-108242466D01*
X152984955Y-108242466D02*
X153051622Y-108309133D01*
X153051622Y-108309133D02*
X153084955Y-108375800D01*
X153084955Y-108375800D02*
X153118288Y-108509133D01*
X153118288Y-108509133D02*
X153118288Y-108609133D01*
X153118288Y-108609133D02*
X153084955Y-108742466D01*
X153084955Y-108742466D02*
X153051622Y-108809133D01*
X153051622Y-108809133D02*
X152984955Y-108875800D01*
X152984955Y-108875800D02*
X152884955Y-108909133D01*
X152884955Y-108909133D02*
X152718288Y-108909133D01*
X140065789Y-108209133D02*
X139732455Y-108209133D01*
X139732455Y-108209133D02*
X139699122Y-108542466D01*
X139699122Y-108542466D02*
X139732455Y-108509133D01*
X139732455Y-108509133D02*
X139799122Y-108475800D01*
X139799122Y-108475800D02*
X139965789Y-108475800D01*
X139965789Y-108475800D02*
X140032455Y-108509133D01*
X140032455Y-108509133D02*
X140065789Y-108542466D01*
X140065789Y-108542466D02*
X140099122Y-108609133D01*
X140099122Y-108609133D02*
X140099122Y-108775800D01*
X140099122Y-108775800D02*
X140065789Y-108842466D01*
X140065789Y-108842466D02*
X140032455Y-108875800D01*
X140032455Y-108875800D02*
X139965789Y-108909133D01*
X139965789Y-108909133D02*
X139799122Y-108909133D01*
X139799122Y-108909133D02*
X139732455Y-108875800D01*
X139732455Y-108875800D02*
X139699122Y-108842466D01*
X140299122Y-108209133D02*
X140532456Y-108909133D01*
X140532456Y-108909133D02*
X140765789Y-108209133D01*
X132737812Y-85277180D02*
X132690193Y-85324800D01*
X132690193Y-85324800D02*
X132547336Y-85372419D01*
X132547336Y-85372419D02*
X132452098Y-85372419D01*
X132452098Y-85372419D02*
X132309241Y-85324800D01*
X132309241Y-85324800D02*
X132214003Y-85229561D01*
X132214003Y-85229561D02*
X132166384Y-85134323D01*
X132166384Y-85134323D02*
X132118765Y-84943847D01*
X132118765Y-84943847D02*
X132118765Y-84800990D01*
X132118765Y-84800990D02*
X132166384Y-84610514D01*
X132166384Y-84610514D02*
X132214003Y-84515276D01*
X132214003Y-84515276D02*
X132309241Y-84420038D01*
X132309241Y-84420038D02*
X132452098Y-84372419D01*
X132452098Y-84372419D02*
X132547336Y-84372419D01*
X132547336Y-84372419D02*
X132690193Y-84420038D01*
X132690193Y-84420038D02*
X132737812Y-84467657D01*
X133166384Y-85372419D02*
X133166384Y-84372419D01*
X133594955Y-85372419D02*
X133594955Y-84848609D01*
X133594955Y-84848609D02*
X133547336Y-84753371D01*
X133547336Y-84753371D02*
X133452098Y-84705752D01*
X133452098Y-84705752D02*
X133309241Y-84705752D01*
X133309241Y-84705752D02*
X133214003Y-84753371D01*
X133214003Y-84753371D02*
X133166384Y-84800990D01*
X134452098Y-85324800D02*
X134356860Y-85372419D01*
X134356860Y-85372419D02*
X134166384Y-85372419D01*
X134166384Y-85372419D02*
X134071146Y-85324800D01*
X134071146Y-85324800D02*
X134023527Y-85229561D01*
X134023527Y-85229561D02*
X134023527Y-84848609D01*
X134023527Y-84848609D02*
X134071146Y-84753371D01*
X134071146Y-84753371D02*
X134166384Y-84705752D01*
X134166384Y-84705752D02*
X134356860Y-84705752D01*
X134356860Y-84705752D02*
X134452098Y-84753371D01*
X134452098Y-84753371D02*
X134499717Y-84848609D01*
X134499717Y-84848609D02*
X134499717Y-84943847D01*
X134499717Y-84943847D02*
X134023527Y-85039085D01*
X134880670Y-85324800D02*
X134975908Y-85372419D01*
X134975908Y-85372419D02*
X135166384Y-85372419D01*
X135166384Y-85372419D02*
X135261622Y-85324800D01*
X135261622Y-85324800D02*
X135309241Y-85229561D01*
X135309241Y-85229561D02*
X135309241Y-85181942D01*
X135309241Y-85181942D02*
X135261622Y-85086704D01*
X135261622Y-85086704D02*
X135166384Y-85039085D01*
X135166384Y-85039085D02*
X135023527Y-85039085D01*
X135023527Y-85039085D02*
X134928289Y-84991466D01*
X134928289Y-84991466D02*
X134880670Y-84896228D01*
X134880670Y-84896228D02*
X134880670Y-84848609D01*
X134880670Y-84848609D02*
X134928289Y-84753371D01*
X134928289Y-84753371D02*
X135023527Y-84705752D01*
X135023527Y-84705752D02*
X135166384Y-84705752D01*
X135166384Y-84705752D02*
X135261622Y-84753371D01*
X135690194Y-85324800D02*
X135785432Y-85372419D01*
X135785432Y-85372419D02*
X135975908Y-85372419D01*
X135975908Y-85372419D02*
X136071146Y-85324800D01*
X136071146Y-85324800D02*
X136118765Y-85229561D01*
X136118765Y-85229561D02*
X136118765Y-85181942D01*
X136118765Y-85181942D02*
X136071146Y-85086704D01*
X136071146Y-85086704D02*
X135975908Y-85039085D01*
X135975908Y-85039085D02*
X135833051Y-85039085D01*
X135833051Y-85039085D02*
X135737813Y-84991466D01*
X135737813Y-84991466D02*
X135690194Y-84896228D01*
X135690194Y-84896228D02*
X135690194Y-84848609D01*
X135690194Y-84848609D02*
X135737813Y-84753371D01*
X135737813Y-84753371D02*
X135833051Y-84705752D01*
X135833051Y-84705752D02*
X135975908Y-84705752D01*
X135975908Y-84705752D02*
X136071146Y-84753371D01*
X136547337Y-85372419D02*
X136547337Y-84372419D01*
X136547337Y-84753371D02*
X136642575Y-84705752D01*
X136642575Y-84705752D02*
X136833051Y-84705752D01*
X136833051Y-84705752D02*
X136928289Y-84753371D01*
X136928289Y-84753371D02*
X136975908Y-84800990D01*
X136975908Y-84800990D02*
X137023527Y-84896228D01*
X137023527Y-84896228D02*
X137023527Y-85181942D01*
X137023527Y-85181942D02*
X136975908Y-85277180D01*
X136975908Y-85277180D02*
X136928289Y-85324800D01*
X136928289Y-85324800D02*
X136833051Y-85372419D01*
X136833051Y-85372419D02*
X136642575Y-85372419D01*
X136642575Y-85372419D02*
X136547337Y-85324800D01*
X137594956Y-85372419D02*
X137499718Y-85324800D01*
X137499718Y-85324800D02*
X137452099Y-85277180D01*
X137452099Y-85277180D02*
X137404480Y-85181942D01*
X137404480Y-85181942D02*
X137404480Y-84896228D01*
X137404480Y-84896228D02*
X137452099Y-84800990D01*
X137452099Y-84800990D02*
X137499718Y-84753371D01*
X137499718Y-84753371D02*
X137594956Y-84705752D01*
X137594956Y-84705752D02*
X137737813Y-84705752D01*
X137737813Y-84705752D02*
X137833051Y-84753371D01*
X137833051Y-84753371D02*
X137880670Y-84800990D01*
X137880670Y-84800990D02*
X137928289Y-84896228D01*
X137928289Y-84896228D02*
X137928289Y-85181942D01*
X137928289Y-85181942D02*
X137880670Y-85277180D01*
X137880670Y-85277180D02*
X137833051Y-85324800D01*
X137833051Y-85324800D02*
X137737813Y-85372419D01*
X137737813Y-85372419D02*
X137594956Y-85372419D01*
X138785432Y-85372419D02*
X138785432Y-84848609D01*
X138785432Y-84848609D02*
X138737813Y-84753371D01*
X138737813Y-84753371D02*
X138642575Y-84705752D01*
X138642575Y-84705752D02*
X138452099Y-84705752D01*
X138452099Y-84705752D02*
X138356861Y-84753371D01*
X138785432Y-85324800D02*
X138690194Y-85372419D01*
X138690194Y-85372419D02*
X138452099Y-85372419D01*
X138452099Y-85372419D02*
X138356861Y-85324800D01*
X138356861Y-85324800D02*
X138309242Y-85229561D01*
X138309242Y-85229561D02*
X138309242Y-85134323D01*
X138309242Y-85134323D02*
X138356861Y-85039085D01*
X138356861Y-85039085D02*
X138452099Y-84991466D01*
X138452099Y-84991466D02*
X138690194Y-84991466D01*
X138690194Y-84991466D02*
X138785432Y-84943847D01*
X139261623Y-85372419D02*
X139261623Y-84705752D01*
X139261623Y-84896228D02*
X139309242Y-84800990D01*
X139309242Y-84800990D02*
X139356861Y-84753371D01*
X139356861Y-84753371D02*
X139452099Y-84705752D01*
X139452099Y-84705752D02*
X139547337Y-84705752D01*
X140309242Y-85372419D02*
X140309242Y-84372419D01*
X140309242Y-85324800D02*
X140214004Y-85372419D01*
X140214004Y-85372419D02*
X140023528Y-85372419D01*
X140023528Y-85372419D02*
X139928290Y-85324800D01*
X139928290Y-85324800D02*
X139880671Y-85277180D01*
X139880671Y-85277180D02*
X139833052Y-85181942D01*
X139833052Y-85181942D02*
X139833052Y-84896228D01*
X139833052Y-84896228D02*
X139880671Y-84800990D01*
X139880671Y-84800990D02*
X139928290Y-84753371D01*
X139928290Y-84753371D02*
X140023528Y-84705752D01*
X140023528Y-84705752D02*
X140214004Y-84705752D01*
X140214004Y-84705752D02*
X140309242Y-84753371D01*
D11*
X138124405Y-88954819D02*
X138124405Y-87954819D01*
X138124405Y-87954819D02*
X138362500Y-87954819D01*
X138362500Y-87954819D02*
X138505357Y-88002438D01*
X138505357Y-88002438D02*
X138600595Y-88097676D01*
X138600595Y-88097676D02*
X138648214Y-88192914D01*
X138648214Y-88192914D02*
X138695833Y-88383390D01*
X138695833Y-88383390D02*
X138695833Y-88526247D01*
X138695833Y-88526247D02*
X138648214Y-88716723D01*
X138648214Y-88716723D02*
X138600595Y-88811961D01*
X138600595Y-88811961D02*
X138505357Y-88907200D01*
X138505357Y-88907200D02*
X138362500Y-88954819D01*
X138362500Y-88954819D02*
X138124405Y-88954819D01*
X139648214Y-88954819D02*
X139076786Y-88954819D01*
X139362500Y-88954819D02*
X139362500Y-87954819D01*
X139362500Y-87954819D02*
X139267262Y-88097676D01*
X139267262Y-88097676D02*
X139172024Y-88192914D01*
X139172024Y-88192914D02*
X139076786Y-88240533D01*
X135091071Y-87262295D02*
X134633928Y-87262295D01*
X134862500Y-87262295D02*
X134862500Y-86462295D01*
X134862500Y-86462295D02*
X134786309Y-86576580D01*
X134786309Y-86576580D02*
X134710119Y-86652771D01*
X134710119Y-86652771D02*
X134633928Y-86690866D01*
X137166666Y-81454819D02*
X137166666Y-82169104D01*
X137166666Y-82169104D02*
X137119047Y-82311961D01*
X137119047Y-82311961D02*
X137023809Y-82407200D01*
X137023809Y-82407200D02*
X136880952Y-82454819D01*
X136880952Y-82454819D02*
X136785714Y-82454819D01*
X138071428Y-81788152D02*
X138071428Y-82454819D01*
X137833333Y-81407200D02*
X137595238Y-82121485D01*
X137595238Y-82121485D02*
X138214285Y-82121485D01*
X138695833Y-94859580D02*
X138648214Y-94907200D01*
X138648214Y-94907200D02*
X138505357Y-94954819D01*
X138505357Y-94954819D02*
X138410119Y-94954819D01*
X138410119Y-94954819D02*
X138267262Y-94907200D01*
X138267262Y-94907200D02*
X138172024Y-94811961D01*
X138172024Y-94811961D02*
X138124405Y-94716723D01*
X138124405Y-94716723D02*
X138076786Y-94526247D01*
X138076786Y-94526247D02*
X138076786Y-94383390D01*
X138076786Y-94383390D02*
X138124405Y-94192914D01*
X138124405Y-94192914D02*
X138172024Y-94097676D01*
X138172024Y-94097676D02*
X138267262Y-94002438D01*
X138267262Y-94002438D02*
X138410119Y-93954819D01*
X138410119Y-93954819D02*
X138505357Y-93954819D01*
X138505357Y-93954819D02*
X138648214Y-94002438D01*
X138648214Y-94002438D02*
X138695833Y-94050057D01*
X139648214Y-94954819D02*
X139076786Y-94954819D01*
X139362500Y-94954819D02*
X139362500Y-93954819D01*
X139362500Y-93954819D02*
X139267262Y-94097676D01*
X139267262Y-94097676D02*
X139172024Y-94192914D01*
X139172024Y-94192914D02*
X139076786Y-94240533D01*
X151666666Y-106184819D02*
X151666666Y-106899104D01*
X151666666Y-106899104D02*
X151619047Y-107041961D01*
X151619047Y-107041961D02*
X151523809Y-107137200D01*
X151523809Y-107137200D02*
X151380952Y-107184819D01*
X151380952Y-107184819D02*
X151285714Y-107184819D01*
X152047619Y-106184819D02*
X152666666Y-106184819D01*
X152666666Y-106184819D02*
X152333333Y-106565771D01*
X152333333Y-106565771D02*
X152476190Y-106565771D01*
X152476190Y-106565771D02*
X152571428Y-106613390D01*
X152571428Y-106613390D02*
X152619047Y-106661009D01*
X152619047Y-106661009D02*
X152666666Y-106756247D01*
X152666666Y-106756247D02*
X152666666Y-106994342D01*
X152666666Y-106994342D02*
X152619047Y-107089580D01*
X152619047Y-107089580D02*
X152571428Y-107137200D01*
X152571428Y-107137200D02*
X152476190Y-107184819D01*
X152476190Y-107184819D02*
X152190476Y-107184819D01*
X152190476Y-107184819D02*
X152095238Y-107137200D01*
X152095238Y-107137200D02*
X152047619Y-107089580D01*
X145100595Y-98954819D02*
X145100595Y-97954819D01*
X145100595Y-98431009D02*
X145672023Y-98431009D01*
X145672023Y-98954819D02*
X145672023Y-97954819D01*
X146672023Y-98954819D02*
X146100595Y-98954819D01*
X146386309Y-98954819D02*
X146386309Y-97954819D01*
X146386309Y-97954819D02*
X146291071Y-98097676D01*
X146291071Y-98097676D02*
X146195833Y-98192914D01*
X146195833Y-98192914D02*
X146100595Y-98240533D01*
X152124405Y-102954819D02*
X152124405Y-101954819D01*
X152124405Y-101954819D02*
X152362500Y-101954819D01*
X152362500Y-101954819D02*
X152505357Y-102002438D01*
X152505357Y-102002438D02*
X152600595Y-102097676D01*
X152600595Y-102097676D02*
X152648214Y-102192914D01*
X152648214Y-102192914D02*
X152695833Y-102383390D01*
X152695833Y-102383390D02*
X152695833Y-102526247D01*
X152695833Y-102526247D02*
X152648214Y-102716723D01*
X152648214Y-102716723D02*
X152600595Y-102811961D01*
X152600595Y-102811961D02*
X152505357Y-102907200D01*
X152505357Y-102907200D02*
X152362500Y-102954819D01*
X152362500Y-102954819D02*
X152124405Y-102954819D01*
X153552976Y-102288152D02*
X153552976Y-102954819D01*
X153314881Y-101907200D02*
X153076786Y-102621485D01*
X153076786Y-102621485D02*
X153695833Y-102621485D01*
X156633928Y-103737704D02*
X157091071Y-103737704D01*
X156862499Y-103737704D02*
X156862499Y-104537704D01*
X156862499Y-104537704D02*
X156938690Y-104423419D01*
X156938690Y-104423419D02*
X157014880Y-104347228D01*
X157014880Y-104347228D02*
X157091071Y-104309133D01*
X152695833Y-96359580D02*
X152648214Y-96407200D01*
X152648214Y-96407200D02*
X152505357Y-96454819D01*
X152505357Y-96454819D02*
X152410119Y-96454819D01*
X152410119Y-96454819D02*
X152267262Y-96407200D01*
X152267262Y-96407200D02*
X152172024Y-96311961D01*
X152172024Y-96311961D02*
X152124405Y-96216723D01*
X152124405Y-96216723D02*
X152076786Y-96026247D01*
X152076786Y-96026247D02*
X152076786Y-95883390D01*
X152076786Y-95883390D02*
X152124405Y-95692914D01*
X152124405Y-95692914D02*
X152172024Y-95597676D01*
X152172024Y-95597676D02*
X152267262Y-95502438D01*
X152267262Y-95502438D02*
X152410119Y-95454819D01*
X152410119Y-95454819D02*
X152505357Y-95454819D01*
X152505357Y-95454819D02*
X152648214Y-95502438D01*
X152648214Y-95502438D02*
X152695833Y-95550057D01*
X153552976Y-95788152D02*
X153552976Y-96454819D01*
X153314881Y-95407200D02*
X153076786Y-96121485D01*
X153076786Y-96121485D02*
X153695833Y-96121485D01*
X158166666Y-87954819D02*
X158166666Y-88669104D01*
X158166666Y-88669104D02*
X158119047Y-88811961D01*
X158119047Y-88811961D02*
X158023809Y-88907200D01*
X158023809Y-88907200D02*
X157880952Y-88954819D01*
X157880952Y-88954819D02*
X157785714Y-88954819D01*
X158595238Y-88050057D02*
X158642857Y-88002438D01*
X158642857Y-88002438D02*
X158738095Y-87954819D01*
X158738095Y-87954819D02*
X158976190Y-87954819D01*
X158976190Y-87954819D02*
X159071428Y-88002438D01*
X159071428Y-88002438D02*
X159119047Y-88050057D01*
X159119047Y-88050057D02*
X159166666Y-88145295D01*
X159166666Y-88145295D02*
X159166666Y-88240533D01*
X159166666Y-88240533D02*
X159119047Y-88383390D01*
X159119047Y-88383390D02*
X158547619Y-88954819D01*
X158547619Y-88954819D02*
X159166666Y-88954819D01*
X152695833Y-94789580D02*
X152648214Y-94837200D01*
X152648214Y-94837200D02*
X152505357Y-94884819D01*
X152505357Y-94884819D02*
X152410119Y-94884819D01*
X152410119Y-94884819D02*
X152267262Y-94837200D01*
X152267262Y-94837200D02*
X152172024Y-94741961D01*
X152172024Y-94741961D02*
X152124405Y-94646723D01*
X152124405Y-94646723D02*
X152076786Y-94456247D01*
X152076786Y-94456247D02*
X152076786Y-94313390D01*
X152076786Y-94313390D02*
X152124405Y-94122914D01*
X152124405Y-94122914D02*
X152172024Y-94027676D01*
X152172024Y-94027676D02*
X152267262Y-93932438D01*
X152267262Y-93932438D02*
X152410119Y-93884819D01*
X152410119Y-93884819D02*
X152505357Y-93884819D01*
X152505357Y-93884819D02*
X152648214Y-93932438D01*
X152648214Y-93932438D02*
X152695833Y-93980057D01*
X153029167Y-93884819D02*
X153648214Y-93884819D01*
X153648214Y-93884819D02*
X153314881Y-94265771D01*
X153314881Y-94265771D02*
X153457738Y-94265771D01*
X153457738Y-94265771D02*
X153552976Y-94313390D01*
X153552976Y-94313390D02*
X153600595Y-94361009D01*
X153600595Y-94361009D02*
X153648214Y-94456247D01*
X153648214Y-94456247D02*
X153648214Y-94694342D01*
X153648214Y-94694342D02*
X153600595Y-94789580D01*
X153600595Y-94789580D02*
X153552976Y-94837200D01*
X153552976Y-94837200D02*
X153457738Y-94884819D01*
X153457738Y-94884819D02*
X153172024Y-94884819D01*
X153172024Y-94884819D02*
X153076786Y-94837200D01*
X153076786Y-94837200D02*
X153029167Y-94789580D01*
X138695833Y-96429580D02*
X138648214Y-96477200D01*
X138648214Y-96477200D02*
X138505357Y-96524819D01*
X138505357Y-96524819D02*
X138410119Y-96524819D01*
X138410119Y-96524819D02*
X138267262Y-96477200D01*
X138267262Y-96477200D02*
X138172024Y-96381961D01*
X138172024Y-96381961D02*
X138124405Y-96286723D01*
X138124405Y-96286723D02*
X138076786Y-96096247D01*
X138076786Y-96096247D02*
X138076786Y-95953390D01*
X138076786Y-95953390D02*
X138124405Y-95762914D01*
X138124405Y-95762914D02*
X138172024Y-95667676D01*
X138172024Y-95667676D02*
X138267262Y-95572438D01*
X138267262Y-95572438D02*
X138410119Y-95524819D01*
X138410119Y-95524819D02*
X138505357Y-95524819D01*
X138505357Y-95524819D02*
X138648214Y-95572438D01*
X138648214Y-95572438D02*
X138695833Y-95620057D01*
X139076786Y-95620057D02*
X139124405Y-95572438D01*
X139124405Y-95572438D02*
X139219643Y-95524819D01*
X139219643Y-95524819D02*
X139457738Y-95524819D01*
X139457738Y-95524819D02*
X139552976Y-95572438D01*
X139552976Y-95572438D02*
X139600595Y-95620057D01*
X139600595Y-95620057D02*
X139648214Y-95715295D01*
X139648214Y-95715295D02*
X139648214Y-95810533D01*
X139648214Y-95810533D02*
X139600595Y-95953390D01*
X139600595Y-95953390D02*
X139029167Y-96524819D01*
X139029167Y-96524819D02*
X139648214Y-96524819D01*
X138124405Y-102954819D02*
X138124405Y-101954819D01*
X138124405Y-101954819D02*
X138362500Y-101954819D01*
X138362500Y-101954819D02*
X138505357Y-102002438D01*
X138505357Y-102002438D02*
X138600595Y-102097676D01*
X138600595Y-102097676D02*
X138648214Y-102192914D01*
X138648214Y-102192914D02*
X138695833Y-102383390D01*
X138695833Y-102383390D02*
X138695833Y-102526247D01*
X138695833Y-102526247D02*
X138648214Y-102716723D01*
X138648214Y-102716723D02*
X138600595Y-102811961D01*
X138600595Y-102811961D02*
X138505357Y-102907200D01*
X138505357Y-102907200D02*
X138362500Y-102954819D01*
X138362500Y-102954819D02*
X138124405Y-102954819D01*
X139076786Y-102050057D02*
X139124405Y-102002438D01*
X139124405Y-102002438D02*
X139219643Y-101954819D01*
X139219643Y-101954819D02*
X139457738Y-101954819D01*
X139457738Y-101954819D02*
X139552976Y-102002438D01*
X139552976Y-102002438D02*
X139600595Y-102050057D01*
X139600595Y-102050057D02*
X139648214Y-102145295D01*
X139648214Y-102145295D02*
X139648214Y-102240533D01*
X139648214Y-102240533D02*
X139600595Y-102383390D01*
X139600595Y-102383390D02*
X139029167Y-102954819D01*
X139029167Y-102954819D02*
X139648214Y-102954819D01*
X142633928Y-103737704D02*
X143091071Y-103737704D01*
X142862499Y-103737704D02*
X142862499Y-104537704D01*
X142862499Y-104537704D02*
X142938690Y-104423419D01*
X142938690Y-104423419D02*
X143014880Y-104347228D01*
X143014880Y-104347228D02*
X143091071Y-104309133D01*
X132666666Y-87954819D02*
X132666666Y-88669104D01*
X132666666Y-88669104D02*
X132619047Y-88811961D01*
X132619047Y-88811961D02*
X132523809Y-88907200D01*
X132523809Y-88907200D02*
X132380952Y-88954819D01*
X132380952Y-88954819D02*
X132285714Y-88954819D01*
X133666666Y-88954819D02*
X133095238Y-88954819D01*
X133380952Y-88954819D02*
X133380952Y-87954819D01*
X133380952Y-87954819D02*
X133285714Y-88097676D01*
X133285714Y-88097676D02*
X133190476Y-88192914D01*
X133190476Y-88192914D02*
X133095238Y-88240533D01*
X152124405Y-88954819D02*
X152124405Y-87954819D01*
X152124405Y-87954819D02*
X152362500Y-87954819D01*
X152362500Y-87954819D02*
X152505357Y-88002438D01*
X152505357Y-88002438D02*
X152600595Y-88097676D01*
X152600595Y-88097676D02*
X152648214Y-88192914D01*
X152648214Y-88192914D02*
X152695833Y-88383390D01*
X152695833Y-88383390D02*
X152695833Y-88526247D01*
X152695833Y-88526247D02*
X152648214Y-88716723D01*
X152648214Y-88716723D02*
X152600595Y-88811961D01*
X152600595Y-88811961D02*
X152505357Y-88907200D01*
X152505357Y-88907200D02*
X152362500Y-88954819D01*
X152362500Y-88954819D02*
X152124405Y-88954819D01*
X153029167Y-87954819D02*
X153648214Y-87954819D01*
X153648214Y-87954819D02*
X153314881Y-88335771D01*
X153314881Y-88335771D02*
X153457738Y-88335771D01*
X153457738Y-88335771D02*
X153552976Y-88383390D01*
X153552976Y-88383390D02*
X153600595Y-88431009D01*
X153600595Y-88431009D02*
X153648214Y-88526247D01*
X153648214Y-88526247D02*
X153648214Y-88764342D01*
X153648214Y-88764342D02*
X153600595Y-88859580D01*
X153600595Y-88859580D02*
X153552976Y-88907200D01*
X153552976Y-88907200D02*
X153457738Y-88954819D01*
X153457738Y-88954819D02*
X153172024Y-88954819D01*
X153172024Y-88954819D02*
X153076786Y-88907200D01*
X153076786Y-88907200D02*
X153029167Y-88859580D01*
X156633928Y-89737704D02*
X157091071Y-89737704D01*
X156862499Y-89737704D02*
X156862499Y-90537704D01*
X156862499Y-90537704D02*
X156938690Y-90423419D01*
X156938690Y-90423419D02*
X157014880Y-90347228D01*
X157014880Y-90347228D02*
X157091071Y-90309133D01*
D12*
%TO.C,D1*%
X135362500Y-85750000D02*
X135362500Y-91250000D01*
X135362500Y-85750000D02*
X142362500Y-85750000D01*
X135362500Y-91250000D02*
X141912500Y-91250000D01*
X136162500Y-89400000D02*
X136162500Y-87600000D01*
X141562500Y-89400000D02*
X141562500Y-87600000D01*
X141912500Y-91250000D02*
X142362500Y-90800000D01*
X142362500Y-90800000D02*
X142362500Y-85750000D01*
%TO.C,J4*%
X140672500Y-78735000D02*
X140672500Y-81495000D01*
X140672500Y-81495000D02*
X151052500Y-81495000D01*
X140782500Y-84155000D02*
X140782500Y-82885000D01*
X141622500Y-81725000D02*
X141622500Y-81495000D01*
X142052500Y-84155000D02*
X140782500Y-84155000D01*
X142482500Y-81725000D02*
X142482500Y-81495000D01*
X143322500Y-81495000D02*
X143322500Y-78735000D01*
X144162500Y-72735000D02*
X145022500Y-72735000D01*
X144162500Y-78735000D02*
X144162500Y-72735000D01*
X144162500Y-81807642D02*
X144162500Y-81495000D01*
X145022500Y-72735000D02*
X145022500Y-78735000D01*
X145022500Y-81807642D02*
X145022500Y-81495000D01*
X145862500Y-81495000D02*
X145862500Y-78735000D01*
X146702500Y-72735000D02*
X147562500Y-72735000D01*
X146702500Y-78735000D02*
X146702500Y-72735000D01*
X146702500Y-81807642D02*
X146702500Y-81495000D01*
X147562500Y-72735000D02*
X147562500Y-78735000D01*
X147562500Y-81807642D02*
X147562500Y-81495000D01*
X148402500Y-81495000D02*
X148402500Y-78735000D01*
X149242500Y-72735000D02*
X150102500Y-72735000D01*
X149242500Y-78735000D02*
X149242500Y-72735000D01*
X149242500Y-81807642D02*
X149242500Y-81495000D01*
X150102500Y-72735000D02*
X150102500Y-78735000D01*
X150102500Y-81807642D02*
X150102500Y-81495000D01*
X151052500Y-78735000D02*
X140672500Y-78735000D01*
X151052500Y-81495000D02*
X151052500Y-78735000D01*
X141622500Y-78735000D02*
X142482500Y-78735000D01*
X142482500Y-72735000D01*
X141622500Y-72735000D01*
X141622500Y-78735000D01*
G36*
X141622500Y-78735000D02*
G01*
X142482500Y-78735000D01*
X142482500Y-72735000D01*
X141622500Y-72735000D01*
X141622500Y-78735000D01*
G37*
%TO.C,C1*%
X138716233Y-92490000D02*
X139008767Y-92490000D01*
X138716233Y-93510000D02*
X139008767Y-93510000D01*
%TO.C,J3*%
X140672500Y-109390000D02*
X140672500Y-112150000D01*
X140672500Y-112150000D02*
X151052500Y-112150000D01*
X141622500Y-109077358D02*
X141622500Y-109390000D01*
X141622500Y-118150000D02*
X141622500Y-112150000D01*
X142482500Y-109077358D02*
X142482500Y-109390000D01*
X142482500Y-112150000D02*
X142482500Y-118150000D01*
X142482500Y-118150000D02*
X141622500Y-118150000D01*
X143322500Y-109390000D02*
X143322500Y-112150000D01*
X144162500Y-109077358D02*
X144162500Y-109390000D01*
X144162500Y-118150000D02*
X144162500Y-112150000D01*
X145022500Y-109077358D02*
X145022500Y-109390000D01*
X145022500Y-112150000D02*
X145022500Y-118150000D01*
X145022500Y-118150000D02*
X144162500Y-118150000D01*
X145862500Y-109390000D02*
X145862500Y-112150000D01*
X146702500Y-109077358D02*
X146702500Y-109390000D01*
X146702500Y-118150000D02*
X146702500Y-112150000D01*
X147562500Y-109077358D02*
X147562500Y-109390000D01*
X147562500Y-112150000D02*
X147562500Y-118150000D01*
X147562500Y-118150000D02*
X146702500Y-118150000D01*
X148402500Y-109390000D02*
X148402500Y-112150000D01*
X149242500Y-109160000D02*
X149242500Y-109390000D01*
X149672500Y-106730000D02*
X150942500Y-106730000D01*
X150102500Y-109160000D02*
X150102500Y-109390000D01*
X150942500Y-106730000D02*
X150942500Y-108000000D01*
X151052500Y-109390000D02*
X140672500Y-109390000D01*
X151052500Y-112150000D02*
X151052500Y-109390000D01*
X150102500Y-112150000D02*
X149242500Y-112150000D01*
X149242500Y-118150000D01*
X150102500Y-118150000D01*
X150102500Y-112150000D01*
G36*
X150102500Y-112150000D02*
G01*
X149242500Y-112150000D01*
X149242500Y-118150000D01*
X150102500Y-118150000D01*
X150102500Y-112150000D01*
G37*
%TO.C,H1*%
X143462500Y-95810000D02*
X148262500Y-95810000D01*
X143462500Y-101000000D02*
X143462500Y-95810000D01*
X144592500Y-93020000D02*
X144592500Y-95810000D01*
X145862500Y-93020000D02*
X145862500Y-95810000D01*
X147132500Y-93020000D02*
X147132500Y-95810000D01*
X148262500Y-95810000D02*
X148262500Y-101000000D01*
X148262500Y-101000000D02*
X143462500Y-101000000D01*
%TO.C,D4*%
X149362500Y-100200000D02*
X149362500Y-105250000D01*
X149812500Y-99750000D02*
X149362500Y-100200000D01*
X150162500Y-101600000D02*
X150162500Y-103400000D01*
X155562500Y-101600000D02*
X155562500Y-103400000D01*
X156362500Y-99750000D02*
X149812500Y-99750000D01*
X156362500Y-105250000D02*
X149362500Y-105250000D01*
X156362500Y-105250000D02*
X156362500Y-99750000D01*
%TO.C,C4*%
X153008767Y-96990000D02*
X152716233Y-96990000D01*
X153008767Y-98010000D02*
X152716233Y-98010000D01*
%TO.C,J2*%
X157207500Y-90420000D02*
X158477500Y-90420000D01*
X157207500Y-91690000D02*
X157207500Y-90420000D01*
X159554858Y-93800000D02*
X159867500Y-93800000D01*
X159554858Y-94660000D02*
X159867500Y-94660000D01*
X159554858Y-96340000D02*
X159867500Y-96340000D01*
X159554858Y-97200000D02*
X159867500Y-97200000D01*
X159554858Y-98880000D02*
X159867500Y-98880000D01*
X159554858Y-99740000D02*
X159867500Y-99740000D01*
X159637500Y-91260000D02*
X159867500Y-91260000D01*
X159637500Y-92120000D02*
X159867500Y-92120000D01*
X159867500Y-90310000D02*
X159867500Y-100690000D01*
X159867500Y-92960000D02*
X162627500Y-92960000D01*
X159867500Y-95500000D02*
X162627500Y-95500000D01*
X159867500Y-98040000D02*
X162627500Y-98040000D01*
X159867500Y-100690000D02*
X162627500Y-100690000D01*
X162627500Y-90310000D02*
X159867500Y-90310000D01*
X162627500Y-93800000D02*
X168627500Y-93800000D01*
X162627500Y-96340000D02*
X168627500Y-96340000D01*
X162627500Y-98880000D02*
X168627500Y-98880000D01*
X162627500Y-100690000D02*
X162627500Y-90310000D01*
X168627500Y-93800000D02*
X168627500Y-94660000D01*
X168627500Y-94660000D02*
X162627500Y-94660000D01*
X168627500Y-96340000D02*
X168627500Y-97200000D01*
X168627500Y-97200000D02*
X162627500Y-97200000D01*
X168627500Y-98880000D02*
X168627500Y-99740000D01*
X168627500Y-99740000D02*
X162627500Y-99740000D01*
X162627500Y-91260000D02*
X168627500Y-91260000D01*
X168627500Y-92120000D01*
X162627500Y-92120000D01*
X162627500Y-91260000D01*
G36*
X162627500Y-91260000D02*
G01*
X168627500Y-91260000D01*
X168627500Y-92120000D01*
X162627500Y-92120000D01*
X162627500Y-91260000D01*
G37*
%TO.C,C3*%
X153008767Y-92490000D02*
X152716233Y-92490000D01*
X153008767Y-93510000D02*
X152716233Y-93510000D01*
%TO.C,C2*%
X138716233Y-96990000D02*
X139008767Y-96990000D01*
X138716233Y-98010000D02*
X139008767Y-98010000D01*
%TO.C,D2*%
X135362500Y-100200000D02*
X135362500Y-105250000D01*
X135812500Y-99750000D02*
X135362500Y-100200000D01*
X136162500Y-101600000D02*
X136162500Y-103400000D01*
X141562500Y-101600000D02*
X141562500Y-103400000D01*
X142362500Y-99750000D02*
X135812500Y-99750000D01*
X142362500Y-105250000D02*
X135362500Y-105250000D01*
X142362500Y-105250000D02*
X142362500Y-99750000D01*
%TO.C,J1*%
X123097500Y-91260000D02*
X129097500Y-91260000D01*
X123097500Y-92120000D02*
X123097500Y-91260000D01*
X123097500Y-93800000D02*
X129097500Y-93800000D01*
X123097500Y-94660000D02*
X123097500Y-93800000D01*
X123097500Y-96340000D02*
X129097500Y-96340000D01*
X123097500Y-97200000D02*
X123097500Y-96340000D01*
X129097500Y-90310000D02*
X129097500Y-100690000D01*
X129097500Y-92120000D02*
X123097500Y-92120000D01*
X129097500Y-94660000D02*
X123097500Y-94660000D01*
X129097500Y-97200000D02*
X123097500Y-97200000D01*
X129097500Y-100690000D02*
X131857500Y-100690000D01*
X131857500Y-90310000D02*
X129097500Y-90310000D01*
X131857500Y-92960000D02*
X129097500Y-92960000D01*
X131857500Y-95500000D02*
X129097500Y-95500000D01*
X131857500Y-98040000D02*
X129097500Y-98040000D01*
X131857500Y-100690000D02*
X131857500Y-90310000D01*
X132087500Y-98880000D02*
X131857500Y-98880000D01*
X132087500Y-99740000D02*
X131857500Y-99740000D01*
X132170142Y-91260000D02*
X131857500Y-91260000D01*
X132170142Y-92120000D02*
X131857500Y-92120000D01*
X132170142Y-93800000D02*
X131857500Y-93800000D01*
X132170142Y-94660000D02*
X131857500Y-94660000D01*
X132170142Y-96340000D02*
X131857500Y-96340000D01*
X132170142Y-97200000D02*
X131857500Y-97200000D01*
X134517500Y-99310000D02*
X134517500Y-100580000D01*
X134517500Y-100580000D02*
X133247500Y-100580000D01*
X129097500Y-99740000D02*
X123097500Y-99740000D01*
X123097500Y-98880000D01*
X129097500Y-98880000D01*
X129097500Y-99740000D01*
G36*
X129097500Y-99740000D02*
G01*
X123097500Y-99740000D01*
X123097500Y-98880000D01*
X129097500Y-98880000D01*
X129097500Y-99740000D01*
G37*
%TO.C,D3*%
X149362500Y-86200000D02*
X149362500Y-91250000D01*
X149812500Y-85750000D02*
X149362500Y-86200000D01*
X150162500Y-87600000D02*
X150162500Y-89400000D01*
X155562500Y-87600000D02*
X155562500Y-89400000D01*
X156362500Y-85750000D02*
X149812500Y-85750000D01*
X156362500Y-91250000D02*
X149362500Y-91250000D01*
X156362500Y-91250000D02*
X156362500Y-85750000D01*
%TD*%
M02*
