%TF.GenerationSoftware,KiCad,Pcbnew,9.0.4*%
%TF.CreationDate,2025-10-24T23:27:24+02:00*%
%TF.ProjectId,Chessfield,43686573-7366-4696-956c-642e6b696361,rev?*%
%TF.SameCoordinates,Original*%
%TF.FileFunction,Copper,L1,Top*%
%TF.FilePolarity,Positive*%
%FSLAX46Y46*%
G04 Gerber Fmt 4.6, Leading zero omitted, Abs format (unit mm)*
G04 Created by KiCad (PCBNEW 9.0.4) date 2025-10-24 23:27:24*
%MOMM*%
%LPD*%
G01*
G04 APERTURE LIST*
G04 Aperture macros list*
%AMRoundRect*
0 Rectangle with rounded corners*
0 $1 Rounding radius*
0 $2 $3 $4 $5 $6 $7 $8 $9 X,Y pos of 4 corners*
0 Add a 4 corners polygon primitive as box body*
4,1,4,$2,$3,$4,$5,$6,$7,$8,$9,$2,$3,0*
0 Add four circle primitives for the rounded corners*
1,1,$1+$1,$2,$3*
1,1,$1+$1,$4,$5*
1,1,$1+$1,$6,$7*
1,1,$1+$1,$8,$9*
0 Add four rect primitives between the rounded corners*
20,1,$1+$1,$2,$3,$4,$5,0*
20,1,$1+$1,$4,$5,$6,$7,0*
20,1,$1+$1,$6,$7,$8,$9,0*
20,1,$1+$1,$8,$9,$2,$3,0*%
G04 Aperture macros list end*
%TA.AperFunction,SMDPad,CuDef*%
%ADD10RoundRect,0.090000X-0.660000X-0.360000X0.660000X-0.360000X0.660000X0.360000X-0.660000X0.360000X0*%
%TD*%
%TA.AperFunction,ComponentPad*%
%ADD11R,1.700000X1.700000*%
%TD*%
%TA.AperFunction,ComponentPad*%
%ADD12C,1.700000*%
%TD*%
%TA.AperFunction,SMDPad,CuDef*%
%ADD13RoundRect,0.237500X-0.300000X-0.237500X0.300000X-0.237500X0.300000X0.237500X-0.300000X0.237500X0*%
%TD*%
%TA.AperFunction,ComponentPad*%
%ADD14R,1.050000X1.500000*%
%TD*%
%TA.AperFunction,ComponentPad*%
%ADD15O,1.050000X1.500000*%
%TD*%
%TA.AperFunction,SMDPad,CuDef*%
%ADD16RoundRect,0.090000X0.660000X0.360000X-0.660000X0.360000X-0.660000X-0.360000X0.660000X-0.360000X0*%
%TD*%
%TA.AperFunction,SMDPad,CuDef*%
%ADD17RoundRect,0.237500X0.300000X0.237500X-0.300000X0.237500X-0.300000X-0.237500X0.300000X-0.237500X0*%
%TD*%
%TA.AperFunction,Conductor*%
%ADD18C,0.500000*%
%TD*%
G04 APERTURE END LIST*
D10*
%TO.P,D1,1,VDD*%
%TO.N,+5V*%
X136412500Y-86850000D03*
%TO.P,D1,2,DOUT*%
%TO.N,Net-(D1-DOUT)*%
X136412500Y-90150000D03*
%TO.P,D1,3,VSS*%
%TO.N,GND*%
X141312500Y-90150000D03*
%TO.P,D1,4,DIN*%
%TO.N,DIL*%
X141312500Y-86850000D03*
%TD*%
D11*
%TO.P,J4,1,Pin_1*%
%TO.N,+5V*%
X142052500Y-82885000D03*
D12*
%TO.P,J4,2,Pin_2*%
%TO.N,DOL*%
X144592500Y-82885000D03*
%TO.P,J4,3,Pin_3*%
%TO.N,DOS*%
X147132500Y-82885000D03*
%TO.P,J4,4,Pin_4*%
%TO.N,GND*%
X149672500Y-82885000D03*
%TD*%
D13*
%TO.P,C1,1*%
%TO.N,+5V*%
X138000000Y-93000000D03*
%TO.P,C1,2*%
%TO.N,GND*%
X139725000Y-93000000D03*
%TD*%
D11*
%TO.P,J3,1,Pin_1*%
%TO.N,GND*%
X149672500Y-108000000D03*
D12*
%TO.P,J3,2,Pin_2*%
%TO.N,DOS*%
X147132500Y-108000000D03*
%TO.P,J3,3,Pin_3*%
%TO.N,DIL*%
X144592500Y-108000000D03*
%TO.P,J3,4,Pin_4*%
%TO.N,+5V*%
X142052500Y-108000000D03*
%TD*%
D14*
%TO.P,H1,1,VCC*%
%TO.N,VS*%
X144592500Y-92000000D03*
D15*
%TO.P,H1,2,GND*%
%TO.N,GND*%
X145862500Y-92000000D03*
%TO.P,H1,3,OUT*%
%TO.N,DOS*%
X147132500Y-92000000D03*
%TD*%
D16*
%TO.P,D4,1,VDD*%
%TO.N,+5V*%
X155312500Y-104150000D03*
%TO.P,D4,2,DOUT*%
%TO.N,DOL*%
X155312500Y-100850000D03*
%TO.P,D4,3,VSS*%
%TO.N,GND*%
X150412500Y-100850000D03*
%TO.P,D4,4,DIN*%
%TO.N,Net-(D3-DOUT)*%
X150412500Y-104150000D03*
%TD*%
D17*
%TO.P,C4,1*%
%TO.N,+5V*%
X153725000Y-97500000D03*
%TO.P,C4,2*%
%TO.N,GND*%
X152000000Y-97500000D03*
%TD*%
D11*
%TO.P,J2,1,Pin_1*%
%TO.N,+5V*%
X158477500Y-91690000D03*
D12*
%TO.P,J2,2,Pin_2*%
%TO.N,DOL*%
X158477500Y-94230000D03*
%TO.P,J2,3,Pin_3*%
%TO.N,VS*%
X158477500Y-96770000D03*
%TO.P,J2,4,Pin_4*%
%TO.N,GND*%
X158477500Y-99310000D03*
%TD*%
D17*
%TO.P,C3,1*%
%TO.N,+5V*%
X153725000Y-93000000D03*
%TO.P,C3,2*%
%TO.N,GND*%
X152000000Y-93000000D03*
%TD*%
D13*
%TO.P,C2,1*%
%TO.N,+5V*%
X138000000Y-97500000D03*
%TO.P,C2,2*%
%TO.N,GND*%
X139725000Y-97500000D03*
%TD*%
D16*
%TO.P,D2,1,VDD*%
%TO.N,+5V*%
X141312500Y-104150000D03*
%TO.P,D2,2,DOUT*%
%TO.N,Net-(D2-DOUT)*%
X141312500Y-100850000D03*
%TO.P,D2,3,VSS*%
%TO.N,GND*%
X136412500Y-100850000D03*
%TO.P,D2,4,DIN*%
%TO.N,Net-(D1-DOUT)*%
X136412500Y-104150000D03*
%TD*%
D11*
%TO.P,J1,1,Pin_1*%
%TO.N,GND*%
X133247500Y-99310000D03*
D12*
%TO.P,J1,2,Pin_2*%
%TO.N,VS*%
X133247500Y-96770000D03*
%TO.P,J1,3,Pin_3*%
%TO.N,DIL*%
X133247500Y-94230000D03*
%TO.P,J1,4,Pin_4*%
%TO.N,+5V*%
X133247500Y-91690000D03*
%TD*%
D16*
%TO.P,D3,1,VDD*%
%TO.N,+5V*%
X155312500Y-90150000D03*
%TO.P,D3,2,DOUT*%
%TO.N,Net-(D3-DOUT)*%
X155312500Y-86850000D03*
%TO.P,D3,3,VSS*%
%TO.N,GND*%
X150412500Y-86850000D03*
%TO.P,D3,4,DIN*%
%TO.N,Net-(D2-DOUT)*%
X150412500Y-90150000D03*
%TD*%
D18*
%TO.N,+5V*%
X139115000Y-82885000D02*
X142052500Y-82885000D01*
X136412500Y-85587500D02*
X139115000Y-82885000D01*
X136412500Y-86850000D02*
X136412500Y-85587500D01*
%TO.N,Net-(D3-DOUT)*%
X156061500Y-92828004D02*
X154011500Y-90778004D01*
X154011500Y-90778004D02*
X154011500Y-88151000D01*
X155264857Y-99764857D02*
X156061500Y-98968214D01*
X156061500Y-98968214D02*
X156061500Y-92828004D01*
X154011500Y-88151000D02*
X155312500Y-86850000D01*
X154468639Y-99764857D02*
X155264857Y-99764857D01*
X150412500Y-103820996D02*
X154468639Y-99764857D01*
X150412500Y-104150000D02*
X150412500Y-103820996D01*
%TO.N,+5V*%
X153210500Y-87022996D02*
X154384496Y-85849000D01*
X153210500Y-92485500D02*
X153210500Y-87022996D01*
X153725000Y-93000000D02*
X153210500Y-92485500D01*
X156445752Y-86054248D02*
X158477500Y-88085996D01*
X154384496Y-85849000D02*
X156240504Y-85849000D01*
X156240504Y-85849000D02*
X156445752Y-86054248D01*
X152350000Y-104150000D02*
X155312500Y-104150000D01*
X151349000Y-105151000D02*
X152350000Y-104150000D01*
X149484496Y-105151000D02*
X151349000Y-105151000D01*
X149111500Y-104778004D02*
X149484496Y-105151000D01*
X149111500Y-100221996D02*
X149111500Y-104778004D01*
X149484496Y-99849000D02*
X149111500Y-100221996D01*
X151376000Y-99849000D02*
X149484496Y-99849000D01*
X153725000Y-97500000D02*
X151376000Y-99849000D01*
X151073500Y-109401000D02*
X155312500Y-105162000D01*
X155312500Y-105162000D02*
X155312500Y-104150000D01*
X143453500Y-109401000D02*
X151073500Y-109401000D01*
X142052500Y-108000000D02*
X143453500Y-109401000D01*
X138000000Y-92888496D02*
X136801504Y-91690000D01*
X138000000Y-93000000D02*
X138000000Y-92888496D01*
%TO.N,DIL*%
X140011500Y-88151000D02*
X141312500Y-86850000D01*
X140011500Y-90778004D02*
X140011500Y-88151000D01*
X140813500Y-91580004D02*
X140011500Y-90778004D01*
X140813500Y-93570688D02*
X140813500Y-91580004D01*
X140154188Y-94230000D02*
X140813500Y-93570688D01*
X133247500Y-94230000D02*
X140154188Y-94230000D01*
%TO.N,+5V*%
X137713500Y-88151000D02*
X136412500Y-86850000D01*
X137713500Y-90778004D02*
X137713500Y-88151000D01*
X136801504Y-91690000D02*
X137713500Y-90778004D01*
X133247500Y-91690000D02*
X136801504Y-91690000D01*
X141312500Y-107260000D02*
X142052500Y-108000000D01*
X141312500Y-104150000D02*
X141312500Y-107260000D01*
X159878500Y-100333999D02*
X156062499Y-104150000D01*
X138000000Y-98500000D02*
X138000000Y-97500000D01*
X158477500Y-91690000D02*
X159878500Y-93091000D01*
X156062499Y-104150000D02*
X155312500Y-104150000D01*
X143453500Y-81484000D02*
X151875504Y-81484000D01*
X141312500Y-104150000D02*
X138000000Y-100837500D01*
X151875504Y-81484000D02*
X156445752Y-86054248D01*
X155312500Y-90150000D02*
X156937500Y-90150000D01*
X156937500Y-90150000D02*
X158477500Y-91690000D01*
X138000000Y-98500000D02*
X138000000Y-98000000D01*
X138000000Y-100837500D02*
X138000000Y-98500000D01*
X142052500Y-82885000D02*
X143453500Y-81484000D01*
X158477500Y-88085996D02*
X158477500Y-91690000D01*
X159878500Y-93091000D02*
X159878500Y-100333999D01*
%TO.N,DOL*%
X156862500Y-95845000D02*
X156862500Y-99300000D01*
X158477500Y-94230000D02*
X156862500Y-95845000D01*
X156862500Y-99300000D02*
X155312500Y-100850000D01*
%TO.N,DOS*%
X147132500Y-92000000D02*
X147132500Y-108000000D01*
%TO.N,Net-(D1-DOUT)*%
X135285500Y-104150000D02*
X131846500Y-100711000D01*
X136412500Y-104150000D02*
X135285500Y-104150000D01*
X131846500Y-100711000D02*
X131846500Y-91109686D01*
X131846500Y-91109686D02*
X132806186Y-90150000D01*
X132806186Y-90150000D02*
X136412500Y-90150000D01*
%TO.N,Net-(D2-DOUT)*%
X147911500Y-90150000D02*
X147362500Y-90699000D01*
X150412500Y-90150000D02*
X147911500Y-90150000D01*
X147362500Y-90699000D02*
X143516500Y-90699000D01*
X143362500Y-90853000D02*
X143362500Y-98800000D01*
X143516500Y-90699000D02*
X143362500Y-90853000D01*
X143362500Y-98800000D02*
X141312500Y-100850000D01*
%TD*%
%TA.AperFunction,Conductor*%
%TO.N,GND*%
G36*
X142576714Y-90924424D02*
G01*
X142609470Y-90986139D01*
X142612000Y-91011060D01*
X142612000Y-98437769D01*
X142592315Y-98504808D01*
X142575681Y-98525450D01*
X141237949Y-99863181D01*
X141176626Y-99896666D01*
X141150268Y-99899500D01*
X140613796Y-99899500D01*
X140498357Y-99914696D01*
X140498348Y-99914699D01*
X140354705Y-99974198D01*
X140231351Y-100068851D01*
X140136698Y-100192205D01*
X140077199Y-100335848D01*
X140077198Y-100335850D01*
X140062000Y-100451298D01*
X140062000Y-101248703D01*
X140077196Y-101364142D01*
X140077199Y-101364151D01*
X140136593Y-101507541D01*
X140136700Y-101507798D01*
X140231351Y-101631149D01*
X140354702Y-101725800D01*
X140498349Y-101785301D01*
X140613799Y-101800500D01*
X142011200Y-101800499D01*
X142011203Y-101800499D01*
X142126642Y-101785303D01*
X142126646Y-101785301D01*
X142126651Y-101785301D01*
X142270298Y-101725800D01*
X142393649Y-101631149D01*
X142488300Y-101507798D01*
X142547801Y-101364151D01*
X142563000Y-101248701D01*
X142562999Y-100712228D01*
X142582683Y-100645190D01*
X142599313Y-100624553D01*
X143945452Y-99278416D01*
X144006448Y-99187127D01*
X144027584Y-99155495D01*
X144084158Y-99018913D01*
X144093596Y-98971462D01*
X144113000Y-98873920D01*
X144113000Y-93374499D01*
X144132685Y-93307460D01*
X144185489Y-93261705D01*
X144237000Y-93250499D01*
X145165371Y-93250499D01*
X145165372Y-93250499D01*
X145224983Y-93244091D01*
X145359831Y-93193796D01*
X145361393Y-93192626D01*
X145363222Y-93191944D01*
X145367618Y-93189544D01*
X145367962Y-93190175D01*
X145426854Y-93168204D01*
X145483164Y-93177326D01*
X145563517Y-93210609D01*
X145563525Y-93210611D01*
X145612500Y-93220353D01*
X145612500Y-92855671D01*
X145613211Y-92842415D01*
X145617999Y-92797881D01*
X145618000Y-92797873D01*
X145617999Y-92285829D01*
X145632245Y-92300075D01*
X145717755Y-92349444D01*
X145813130Y-92375000D01*
X145911870Y-92375000D01*
X146007245Y-92349444D01*
X146092755Y-92300075D01*
X146107000Y-92285830D01*
X146107000Y-92326002D01*
X146110117Y-92341671D01*
X146112500Y-92365865D01*
X146112500Y-93220352D01*
X146161474Y-93210612D01*
X146161479Y-93210610D01*
X146210547Y-93190286D01*
X146280017Y-93182817D01*
X146342496Y-93214092D01*
X146378148Y-93274181D01*
X146382000Y-93304847D01*
X146382000Y-106812779D01*
X146362315Y-106879818D01*
X146330885Y-106913097D01*
X146252711Y-106969893D01*
X146252705Y-106969898D01*
X146102390Y-107120213D01*
X145977449Y-107292182D01*
X145972984Y-107300946D01*
X145925009Y-107351742D01*
X145857188Y-107368536D01*
X145791053Y-107345998D01*
X145752016Y-107300946D01*
X145747550Y-107292182D01*
X145622609Y-107120213D01*
X145472286Y-106969890D01*
X145300320Y-106844951D01*
X145110914Y-106748444D01*
X145110913Y-106748443D01*
X145110912Y-106748443D01*
X144908743Y-106682754D01*
X144908741Y-106682753D01*
X144908740Y-106682753D01*
X144747457Y-106657208D01*
X144698787Y-106649500D01*
X144486213Y-106649500D01*
X144437542Y-106657208D01*
X144276260Y-106682753D01*
X144074085Y-106748444D01*
X143884679Y-106844951D01*
X143712713Y-106969890D01*
X143562390Y-107120213D01*
X143437449Y-107292182D01*
X143432984Y-107300946D01*
X143385009Y-107351742D01*
X143317188Y-107368536D01*
X143251053Y-107345998D01*
X143212016Y-107300946D01*
X143207550Y-107292182D01*
X143082609Y-107120213D01*
X142932286Y-106969890D01*
X142760320Y-106844951D01*
X142570914Y-106748444D01*
X142570913Y-106748443D01*
X142570912Y-106748443D01*
X142368743Y-106682754D01*
X142368741Y-106682753D01*
X142368739Y-106682753D01*
X142167602Y-106650896D01*
X142104467Y-106620967D01*
X142067536Y-106561655D01*
X142063000Y-106528423D01*
X142063000Y-105194519D01*
X142082685Y-105127480D01*
X142135489Y-105081725D01*
X142139507Y-105079975D01*
X142270293Y-105025802D01*
X142270294Y-105025802D01*
X142270294Y-105025801D01*
X142270298Y-105025800D01*
X142393649Y-104931149D01*
X142488300Y-104807798D01*
X142547801Y-104664151D01*
X142563000Y-104548701D01*
X142562999Y-103751300D01*
X142562999Y-103751296D01*
X142547803Y-103635857D01*
X142547801Y-103635852D01*
X142547801Y-103635849D01*
X142488300Y-103492202D01*
X142393649Y-103368851D01*
X142270298Y-103274200D01*
X142270294Y-103274198D01*
X142126651Y-103214699D01*
X142126649Y-103214698D01*
X142011202Y-103199500D01*
X142011201Y-103199500D01*
X141474729Y-103199500D01*
X141407690Y-103179815D01*
X141387048Y-103163181D01*
X138786819Y-100562951D01*
X138753334Y-100501628D01*
X138750500Y-100475270D01*
X138750500Y-98405345D01*
X138770185Y-98338306D01*
X138822989Y-98292551D01*
X138892147Y-98282607D01*
X138955703Y-98311632D01*
X138962181Y-98317664D01*
X138964461Y-98319944D01*
X138964465Y-98319947D01*
X139111188Y-98410448D01*
X139111199Y-98410453D01*
X139274847Y-98464680D01*
X139375851Y-98474999D01*
X139975000Y-98474999D01*
X140074140Y-98474999D01*
X140074154Y-98474998D01*
X140175152Y-98464680D01*
X140338800Y-98410453D01*
X140338811Y-98410448D01*
X140485534Y-98319947D01*
X140485538Y-98319944D01*
X140607444Y-98198038D01*
X140607447Y-98198034D01*
X140697948Y-98051311D01*
X140697953Y-98051300D01*
X140752180Y-97887652D01*
X140762499Y-97786654D01*
X140762500Y-97786641D01*
X140762500Y-97750000D01*
X139975000Y-97750000D01*
X139975000Y-98474999D01*
X139375851Y-98474999D01*
X139475000Y-98474998D01*
X139475000Y-97250000D01*
X139975000Y-97250000D01*
X140762499Y-97250000D01*
X140762499Y-97213360D01*
X140762498Y-97213345D01*
X140752180Y-97112347D01*
X140697953Y-96948699D01*
X140697948Y-96948688D01*
X140607447Y-96801965D01*
X140607444Y-96801961D01*
X140485538Y-96680055D01*
X140485534Y-96680052D01*
X140338811Y-96589551D01*
X140338800Y-96589546D01*
X140175152Y-96535319D01*
X140074154Y-96525000D01*
X139975000Y-96525000D01*
X139975000Y-97250000D01*
X139475000Y-97250000D01*
X139475000Y-96524999D01*
X139375860Y-96525000D01*
X139375844Y-96525001D01*
X139274847Y-96535319D01*
X139111199Y-96589546D01*
X139111188Y-96589551D01*
X138964465Y-96680052D01*
X138950532Y-96693985D01*
X138889208Y-96727468D01*
X138819516Y-96722482D01*
X138775172Y-96693982D01*
X138760851Y-96679661D01*
X138760850Y-96679660D01*
X138669629Y-96623395D01*
X138614018Y-96589093D01*
X138614013Y-96589091D01*
X138612569Y-96588612D01*
X138450253Y-96534826D01*
X138450251Y-96534825D01*
X138349178Y-96524500D01*
X137650830Y-96524500D01*
X137650812Y-96524501D01*
X137549747Y-96534825D01*
X137385984Y-96589092D01*
X137385981Y-96589093D01*
X137239148Y-96679661D01*
X137117161Y-96801648D01*
X137026593Y-96948481D01*
X137026591Y-96948486D01*
X136999219Y-97031088D01*
X136972326Y-97112247D01*
X136972326Y-97112248D01*
X136972325Y-97112248D01*
X136962000Y-97213315D01*
X136962000Y-97786669D01*
X136962001Y-97786687D01*
X136972325Y-97887752D01*
X136984685Y-97925051D01*
X137026520Y-98051300D01*
X137026592Y-98051515D01*
X137026593Y-98051518D01*
X137117161Y-98198351D01*
X137213181Y-98294371D01*
X137246666Y-98355694D01*
X137249500Y-98382052D01*
X137249500Y-99776816D01*
X137229815Y-99843855D01*
X137177011Y-99889610D01*
X137115311Y-99898866D01*
X137115220Y-99900265D01*
X137111177Y-99900000D01*
X136662500Y-99900000D01*
X136662500Y-101800000D01*
X137111171Y-101800000D01*
X137226519Y-101784814D01*
X137226524Y-101784812D01*
X137370041Y-101725366D01*
X137370042Y-101725366D01*
X137493292Y-101630792D01*
X137510822Y-101607946D01*
X137567249Y-101566742D01*
X137636994Y-101562585D01*
X137696881Y-101595749D01*
X140025681Y-103924548D01*
X140059166Y-103985871D01*
X140062000Y-104012229D01*
X140062000Y-104548703D01*
X140077196Y-104664142D01*
X140077199Y-104664151D01*
X140107297Y-104736815D01*
X140136700Y-104807798D01*
X140231351Y-104931149D01*
X140354702Y-105025800D01*
X140354705Y-105025801D01*
X140354706Y-105025802D01*
X140377774Y-105035357D01*
X140485454Y-105079959D01*
X140539856Y-105123798D01*
X140561921Y-105190092D01*
X140562000Y-105194519D01*
X140562000Y-107333918D01*
X140562000Y-107333920D01*
X140561999Y-107333920D01*
X140590840Y-107478907D01*
X140590843Y-107478917D01*
X140647414Y-107615492D01*
X140647415Y-107615494D01*
X140647416Y-107615495D01*
X140680313Y-107664729D01*
X140690968Y-107680676D01*
X140700201Y-107694495D01*
X140711121Y-107729376D01*
X140721076Y-107761172D01*
X140719569Y-107782780D01*
X140702000Y-107893707D01*
X140702000Y-108106286D01*
X140735253Y-108316239D01*
X140800944Y-108518414D01*
X140897451Y-108707820D01*
X141022390Y-108879786D01*
X141172713Y-109030109D01*
X141344679Y-109155048D01*
X141344681Y-109155049D01*
X141344684Y-109155051D01*
X141534088Y-109251557D01*
X141736257Y-109317246D01*
X141946213Y-109350500D01*
X141946214Y-109350500D01*
X142158784Y-109350500D01*
X142158787Y-109350500D01*
X142254231Y-109335382D01*
X142323520Y-109344336D01*
X142361307Y-109370174D01*
X142778951Y-109787819D01*
X142812436Y-109849142D01*
X142807452Y-109918834D01*
X142765580Y-109974767D01*
X142700116Y-109999184D01*
X142691270Y-109999500D01*
X131487000Y-109999500D01*
X131419961Y-109979815D01*
X131374206Y-109927011D01*
X131363000Y-109875500D01*
X131363000Y-107893713D01*
X132012000Y-107893713D01*
X132012000Y-108106286D01*
X132045253Y-108316239D01*
X132110944Y-108518414D01*
X132207451Y-108707820D01*
X132332390Y-108879786D01*
X132482713Y-109030109D01*
X132654679Y-109155048D01*
X132654681Y-109155049D01*
X132654684Y-109155051D01*
X132844088Y-109251557D01*
X133046257Y-109317246D01*
X133256213Y-109350500D01*
X133256214Y-109350500D01*
X133468786Y-109350500D01*
X133468787Y-109350500D01*
X133678743Y-109317246D01*
X133880912Y-109251557D01*
X134070316Y-109155051D01*
X134092289Y-109139086D01*
X134242286Y-109030109D01*
X134242288Y-109030106D01*
X134242292Y-109030104D01*
X134392604Y-108879792D01*
X134392606Y-108879788D01*
X134392609Y-108879786D01*
X134517548Y-108707820D01*
X134517547Y-108707820D01*
X134517551Y-108707816D01*
X134614057Y-108518412D01*
X134679746Y-108316243D01*
X134713000Y-108106287D01*
X134713000Y-107893713D01*
X134679746Y-107683757D01*
X134614057Y-107481588D01*
X134517551Y-107292184D01*
X134517549Y-107292181D01*
X134517548Y-107292179D01*
X134392609Y-107120213D01*
X134242286Y-106969890D01*
X134070320Y-106844951D01*
X133880914Y-106748444D01*
X133880913Y-106748443D01*
X133880912Y-106748443D01*
X133678743Y-106682754D01*
X133678741Y-106682753D01*
X133678740Y-106682753D01*
X133517457Y-106657208D01*
X133468787Y-106649500D01*
X133256213Y-106649500D01*
X133207542Y-106657208D01*
X133046260Y-106682753D01*
X132844085Y-106748444D01*
X132654679Y-106844951D01*
X132482713Y-106969890D01*
X132332390Y-107120213D01*
X132207451Y-107292179D01*
X132110944Y-107481585D01*
X132045253Y-107683760D01*
X132012000Y-107893713D01*
X131363000Y-107893713D01*
X131363000Y-101588229D01*
X131382685Y-101521190D01*
X131435489Y-101475435D01*
X131504647Y-101465491D01*
X131568203Y-101494516D01*
X131574681Y-101500548D01*
X134702548Y-104628415D01*
X134702549Y-104628416D01*
X134807083Y-104732950D01*
X134807085Y-104732952D01*
X134929998Y-104815080D01*
X134930011Y-104815087D01*
X135066582Y-104871656D01*
X135066587Y-104871658D01*
X135066591Y-104871658D01*
X135066592Y-104871659D01*
X135211579Y-104900500D01*
X135211582Y-104900500D01*
X135249340Y-104900500D01*
X135316379Y-104920185D01*
X135324499Y-104926728D01*
X135324904Y-104926201D01*
X135331349Y-104931146D01*
X135331351Y-104931149D01*
X135454702Y-105025800D01*
X135598349Y-105085301D01*
X135713799Y-105100500D01*
X137111200Y-105100499D01*
X137111203Y-105100499D01*
X137226642Y-105085303D01*
X137226646Y-105085301D01*
X137226651Y-105085301D01*
X137370298Y-105025800D01*
X137493649Y-104931149D01*
X137588300Y-104807798D01*
X137647801Y-104664151D01*
X137663000Y-104548701D01*
X137662999Y-103751300D01*
X137662999Y-103751296D01*
X137647803Y-103635857D01*
X137647801Y-103635852D01*
X137647801Y-103635849D01*
X137588300Y-103492202D01*
X137493649Y-103368851D01*
X137370298Y-103274200D01*
X137370294Y-103274198D01*
X137226651Y-103214699D01*
X137226649Y-103214698D01*
X137111201Y-103199500D01*
X135713796Y-103199500D01*
X135598352Y-103214697D01*
X135598346Y-103214699D01*
X135542819Y-103237699D01*
X135473349Y-103245168D01*
X135410870Y-103213892D01*
X135407686Y-103210819D01*
X134053828Y-101856961D01*
X133445537Y-101248670D01*
X135162500Y-101248670D01*
X135177685Y-101364019D01*
X135177687Y-101364024D01*
X135237133Y-101507541D01*
X135237133Y-101507542D01*
X135331707Y-101630792D01*
X135454958Y-101725366D01*
X135598475Y-101784812D01*
X135598480Y-101784814D01*
X135713829Y-101800000D01*
X136162500Y-101800000D01*
X136162500Y-101100000D01*
X135162500Y-101100000D01*
X135162500Y-101248670D01*
X133445537Y-101248670D01*
X133014862Y-100817995D01*
X132981379Y-100756674D01*
X132986363Y-100686982D01*
X132997500Y-100669653D01*
X132997500Y-99743012D01*
X133054507Y-99775925D01*
X133181674Y-99810000D01*
X133313326Y-99810000D01*
X133440493Y-99775925D01*
X133497500Y-99743012D01*
X133497500Y-100660000D01*
X134145328Y-100660000D01*
X134145344Y-100659999D01*
X134204872Y-100653598D01*
X134204879Y-100653596D01*
X134339586Y-100603354D01*
X134339593Y-100603350D01*
X134454687Y-100517190D01*
X134454690Y-100517187D01*
X134503992Y-100451329D01*
X135162500Y-100451329D01*
X135162500Y-100600000D01*
X136162500Y-100600000D01*
X136162500Y-99900000D01*
X135713829Y-99900000D01*
X135598480Y-99915185D01*
X135598475Y-99915187D01*
X135454958Y-99974633D01*
X135454957Y-99974633D01*
X135331707Y-100069207D01*
X135237133Y-100192457D01*
X135237133Y-100192458D01*
X135177687Y-100335975D01*
X135177685Y-100335980D01*
X135162500Y-100451329D01*
X134503992Y-100451329D01*
X134540850Y-100402093D01*
X134540855Y-100402085D01*
X134591096Y-100267379D01*
X134591098Y-100267372D01*
X134597499Y-100207844D01*
X134597500Y-100207827D01*
X134597500Y-99560000D01*
X133680512Y-99560000D01*
X133713425Y-99502993D01*
X133747500Y-99375826D01*
X133747500Y-99244174D01*
X133713425Y-99117007D01*
X133680512Y-99060000D01*
X134597500Y-99060000D01*
X134597500Y-98412172D01*
X134597499Y-98412155D01*
X134591098Y-98352627D01*
X134591096Y-98352620D01*
X134540854Y-98217913D01*
X134540850Y-98217906D01*
X134454690Y-98102812D01*
X134454687Y-98102809D01*
X134339593Y-98016649D01*
X134339588Y-98016646D01*
X134208028Y-97967577D01*
X134152095Y-97925705D01*
X134127678Y-97860241D01*
X134142530Y-97791968D01*
X134163675Y-97763720D01*
X134277604Y-97649792D01*
X134402551Y-97477816D01*
X134499057Y-97288412D01*
X134564746Y-97086243D01*
X134598000Y-96876287D01*
X134598000Y-96663713D01*
X134564746Y-96453757D01*
X134499057Y-96251588D01*
X134402551Y-96062184D01*
X134402549Y-96062181D01*
X134402548Y-96062179D01*
X134277609Y-95890213D01*
X134127286Y-95739890D01*
X133955320Y-95614951D01*
X133954615Y-95614591D01*
X133946554Y-95610485D01*
X133895759Y-95562512D01*
X133878963Y-95494692D01*
X133901499Y-95428556D01*
X133946554Y-95389515D01*
X133955316Y-95385051D01*
X133977289Y-95369086D01*
X134127286Y-95260109D01*
X134127288Y-95260106D01*
X134127292Y-95260104D01*
X134277604Y-95109792D01*
X134277607Y-95109788D01*
X134334403Y-95031615D01*
X134389733Y-94988949D01*
X134434721Y-94980500D01*
X140228108Y-94980500D01*
X140325650Y-94961096D01*
X140373101Y-94951658D01*
X140509683Y-94895084D01*
X140558917Y-94862186D01*
X140632604Y-94812952D01*
X141396452Y-94049104D01*
X141452531Y-93965174D01*
X141478584Y-93926183D01*
X141535158Y-93789601D01*
X141553309Y-93698351D01*
X141564000Y-93644608D01*
X141564000Y-91506083D01*
X141535159Y-91361096D01*
X141535158Y-91361095D01*
X141535158Y-91361091D01*
X141535156Y-91361086D01*
X141498029Y-91271452D01*
X141490560Y-91201983D01*
X141521835Y-91139504D01*
X141581924Y-91103852D01*
X141612590Y-91100000D01*
X142011171Y-91100000D01*
X142126519Y-91084814D01*
X142126524Y-91084812D01*
X142270041Y-91025366D01*
X142270042Y-91025366D01*
X142393297Y-90930788D01*
X142399040Y-90925046D01*
X142401151Y-90927157D01*
X142446046Y-90894373D01*
X142515792Y-90890215D01*
X142576714Y-90924424D01*
G37*
%TD.AperFunction*%
%TA.AperFunction,Conductor*%
G36*
X151580313Y-82254185D02*
G01*
X151600955Y-82270819D01*
X154245009Y-84914873D01*
X154278494Y-84976196D01*
X154273510Y-85045888D01*
X154231638Y-85101821D01*
X154181523Y-85124171D01*
X154165584Y-85127341D01*
X154165582Y-85127342D01*
X154029004Y-85183914D01*
X154028992Y-85183921D01*
X153979765Y-85216813D01*
X153906084Y-85266044D01*
X153906076Y-85266050D01*
X152627550Y-86544576D01*
X152627544Y-86544584D01*
X152578312Y-86618264D01*
X152578313Y-86618265D01*
X152545421Y-86667492D01*
X152545414Y-86667504D01*
X152488842Y-86804082D01*
X152488840Y-86804088D01*
X152460000Y-86949075D01*
X152460000Y-91901000D01*
X152440315Y-91968039D01*
X152387511Y-92013794D01*
X152336000Y-92025000D01*
X152250000Y-92025000D01*
X152250000Y-93974999D01*
X152349140Y-93974999D01*
X152349154Y-93974998D01*
X152450152Y-93964680D01*
X152613800Y-93910453D01*
X152613811Y-93910448D01*
X152760535Y-93819947D01*
X152774460Y-93806021D01*
X152835782Y-93772533D01*
X152905473Y-93777514D01*
X152949827Y-93806017D01*
X152964150Y-93820340D01*
X153110984Y-93910908D01*
X153274747Y-93965174D01*
X153375823Y-93975500D01*
X154074176Y-93975499D01*
X154074184Y-93975498D01*
X154074187Y-93975498D01*
X154129530Y-93969844D01*
X154175253Y-93965174D01*
X154339016Y-93910908D01*
X154485850Y-93820340D01*
X154607840Y-93698350D01*
X154698408Y-93551516D01*
X154752674Y-93387753D01*
X154763000Y-93286677D01*
X154762999Y-92890231D01*
X154782683Y-92823194D01*
X154835487Y-92777439D01*
X154904646Y-92767495D01*
X154968201Y-92796520D01*
X154974680Y-92802552D01*
X155274681Y-93102553D01*
X155308166Y-93163876D01*
X155311000Y-93190234D01*
X155311000Y-98605984D01*
X155291315Y-98673023D01*
X155274681Y-98693665D01*
X154990308Y-98978038D01*
X154928985Y-99011523D01*
X154902627Y-99014357D01*
X154394719Y-99014357D01*
X154249731Y-99043197D01*
X154249721Y-99043200D01*
X154113150Y-99099769D01*
X154113137Y-99099776D01*
X154071885Y-99127341D01*
X154071884Y-99127341D01*
X153990224Y-99181903D01*
X153990217Y-99181909D01*
X151874181Y-101297946D01*
X151812858Y-101331431D01*
X151743166Y-101326447D01*
X151687233Y-101284575D01*
X151662816Y-101219111D01*
X151662500Y-101210265D01*
X151662500Y-101100000D01*
X150662500Y-101100000D01*
X150662500Y-101800000D01*
X151072765Y-101800000D01*
X151139804Y-101819685D01*
X151185559Y-101872489D01*
X151195503Y-101941647D01*
X151166478Y-102005203D01*
X151160446Y-102011681D01*
X150073681Y-103098446D01*
X150012358Y-103131931D01*
X149942666Y-103126947D01*
X149886733Y-103085075D01*
X149862316Y-103019611D01*
X149862000Y-103010765D01*
X149862000Y-101924000D01*
X149881685Y-101856961D01*
X149934489Y-101811206D01*
X149986000Y-101800000D01*
X150162500Y-101800000D01*
X150162500Y-100974000D01*
X150182185Y-100906961D01*
X150234989Y-100861206D01*
X150286500Y-100850000D01*
X150412500Y-100850000D01*
X150412500Y-100724000D01*
X150432185Y-100656961D01*
X150484989Y-100611206D01*
X150536500Y-100600000D01*
X151662500Y-100600000D01*
X151671403Y-100591096D01*
X151674659Y-100583874D01*
X151682185Y-100558246D01*
X151689551Y-100550843D01*
X151692395Y-100544537D01*
X151709436Y-100530861D01*
X151718956Y-100521295D01*
X151727527Y-100515727D01*
X151731495Y-100514084D01*
X151780729Y-100481186D01*
X151854416Y-100431952D01*
X153774548Y-98511817D01*
X153835871Y-98478333D01*
X153862229Y-98475499D01*
X154074170Y-98475499D01*
X154074176Y-98475499D01*
X154175253Y-98465174D01*
X154339016Y-98410908D01*
X154485850Y-98320340D01*
X154607840Y-98198350D01*
X154698408Y-98051516D01*
X154752674Y-97887753D01*
X154763000Y-97786677D01*
X154762999Y-97213324D01*
X154752674Y-97112247D01*
X154698408Y-96948484D01*
X154607840Y-96801650D01*
X154485850Y-96679660D01*
X154394629Y-96623395D01*
X154339018Y-96589093D01*
X154339013Y-96589091D01*
X154337569Y-96588612D01*
X154175253Y-96534826D01*
X154175251Y-96534825D01*
X154074178Y-96524500D01*
X153375830Y-96524500D01*
X153375812Y-96524501D01*
X153274747Y-96534825D01*
X153110984Y-96589092D01*
X153110981Y-96589093D01*
X152964148Y-96679661D01*
X152949825Y-96693984D01*
X152888501Y-96727468D01*
X152818809Y-96722482D01*
X152774465Y-96693982D01*
X152760538Y-96680055D01*
X152760534Y-96680052D01*
X152613811Y-96589551D01*
X152613800Y-96589546D01*
X152450152Y-96535319D01*
X152349154Y-96525000D01*
X152250000Y-96525000D01*
X152250000Y-97376000D01*
X152230315Y-97443039D01*
X152177511Y-97488794D01*
X152126000Y-97500000D01*
X152000000Y-97500000D01*
X152000000Y-97626000D01*
X151980315Y-97693039D01*
X151927511Y-97738794D01*
X151876000Y-97750000D01*
X150962501Y-97750000D01*
X150962501Y-97786654D01*
X150972819Y-97887652D01*
X151027046Y-98051300D01*
X151027051Y-98051311D01*
X151117552Y-98198034D01*
X151117555Y-98198038D01*
X151239461Y-98319944D01*
X151239465Y-98319947D01*
X151386188Y-98410448D01*
X151386201Y-98410454D01*
X151471009Y-98438556D01*
X151528454Y-98478328D01*
X151555278Y-98542843D01*
X151542963Y-98611619D01*
X151519687Y-98643943D01*
X151101451Y-99062181D01*
X151040128Y-99095666D01*
X151013770Y-99098500D01*
X149410576Y-99098500D01*
X149265588Y-99127340D01*
X149265582Y-99127342D01*
X149129004Y-99183914D01*
X149128992Y-99183921D01*
X149079765Y-99216813D01*
X149006084Y-99266044D01*
X149006076Y-99266050D01*
X148528549Y-99743578D01*
X148528549Y-99743579D01*
X148507499Y-99775083D01*
X148446413Y-99866504D01*
X148389843Y-100003078D01*
X148389840Y-100003088D01*
X148361000Y-100148075D01*
X148361000Y-100148078D01*
X148361000Y-104851922D01*
X148361000Y-104851924D01*
X148360999Y-104851924D01*
X148389840Y-104996911D01*
X148389843Y-104996921D01*
X148446414Y-105133496D01*
X148479312Y-105182731D01*
X148479313Y-105182734D01*
X148528546Y-105256418D01*
X148528552Y-105256425D01*
X149006080Y-105733952D01*
X149006082Y-105733954D01*
X149035554Y-105753645D01*
X149079766Y-105783186D01*
X149129001Y-105816084D01*
X149129002Y-105816084D01*
X149129003Y-105816085D01*
X149129005Y-105816086D01*
X149265578Y-105872656D01*
X149265583Y-105872658D01*
X149265587Y-105872658D01*
X149265588Y-105872659D01*
X149410575Y-105901500D01*
X149410578Y-105901500D01*
X151422920Y-105901500D01*
X151520462Y-105882096D01*
X151567913Y-105872658D01*
X151704495Y-105816084D01*
X151753729Y-105783186D01*
X151753734Y-105783183D01*
X151778071Y-105766921D01*
X151827416Y-105733952D01*
X152624549Y-104936819D01*
X152685872Y-104903334D01*
X152712230Y-104900500D01*
X154149340Y-104900500D01*
X154171287Y-104906944D01*
X154194088Y-104908855D01*
X154207463Y-104917567D01*
X154216379Y-104920185D01*
X154224856Y-104926147D01*
X154231322Y-104931112D01*
X154231351Y-104931149D01*
X154261020Y-104953915D01*
X154281205Y-104981575D01*
X154302192Y-105010316D01*
X154302193Y-105010336D01*
X154302205Y-105010353D01*
X154304324Y-105046107D01*
X154306347Y-105080062D01*
X154306337Y-105080078D01*
X154306339Y-105080100D01*
X154305446Y-105081687D01*
X154273184Y-105139947D01*
X151180497Y-108232635D01*
X151119174Y-108266120D01*
X151049482Y-108261136D01*
X151032155Y-108250000D01*
X150105512Y-108250000D01*
X150138425Y-108192993D01*
X150172500Y-108065826D01*
X150172500Y-107934174D01*
X150138425Y-107807007D01*
X150105512Y-107750000D01*
X151022500Y-107750000D01*
X151022500Y-107102172D01*
X151022499Y-107102155D01*
X151016098Y-107042627D01*
X151016096Y-107042620D01*
X150965854Y-106907913D01*
X150965850Y-106907906D01*
X150879690Y-106792812D01*
X150879687Y-106792809D01*
X150764593Y-106706649D01*
X150764586Y-106706645D01*
X150629879Y-106656403D01*
X150629872Y-106656401D01*
X150570344Y-106650000D01*
X149922500Y-106650000D01*
X149922500Y-107566988D01*
X149865493Y-107534075D01*
X149738326Y-107500000D01*
X149606674Y-107500000D01*
X149479507Y-107534075D01*
X149422500Y-107566988D01*
X149422500Y-106650000D01*
X148774655Y-106650000D01*
X148715127Y-106656401D01*
X148715120Y-106656403D01*
X148580413Y-106706645D01*
X148580406Y-106706649D01*
X148465312Y-106792809D01*
X148465309Y-106792812D01*
X148379149Y-106907906D01*
X148379146Y-106907912D01*
X148330077Y-107039471D01*
X148288205Y-107095404D01*
X148222741Y-107119821D01*
X148154468Y-107104969D01*
X148126214Y-107083818D01*
X148012294Y-106969898D01*
X148012288Y-106969893D01*
X147934115Y-106913097D01*
X147891449Y-106857767D01*
X147883000Y-106812779D01*
X147883000Y-97213345D01*
X150962500Y-97213345D01*
X150962500Y-97250000D01*
X151750000Y-97250000D01*
X151750000Y-96524999D01*
X151650860Y-96525000D01*
X151650844Y-96525001D01*
X151549847Y-96535319D01*
X151386199Y-96589546D01*
X151386188Y-96589551D01*
X151239465Y-96680052D01*
X151239461Y-96680055D01*
X151117555Y-96801961D01*
X151117552Y-96801965D01*
X151027051Y-96948688D01*
X151027046Y-96948699D01*
X150972819Y-97112347D01*
X150962500Y-97213345D01*
X147883000Y-97213345D01*
X147883000Y-93286654D01*
X150962501Y-93286654D01*
X150972819Y-93387652D01*
X151027046Y-93551300D01*
X151027051Y-93551311D01*
X151117552Y-93698034D01*
X151117555Y-93698038D01*
X151239461Y-93819944D01*
X151239465Y-93819947D01*
X151386188Y-93910448D01*
X151386199Y-93910453D01*
X151549847Y-93964680D01*
X151650851Y-93974999D01*
X151750000Y-93974998D01*
X151750000Y-93250000D01*
X150962501Y-93250000D01*
X150962501Y-93286654D01*
X147883000Y-93286654D01*
X147883000Y-92976138D01*
X147902685Y-92909099D01*
X147919322Y-92888454D01*
X147929058Y-92878718D01*
X148039556Y-92713345D01*
X150962500Y-92713345D01*
X150962500Y-92750000D01*
X151750000Y-92750000D01*
X151750000Y-92024999D01*
X151650860Y-92025000D01*
X151650844Y-92025001D01*
X151549847Y-92035319D01*
X151386199Y-92089546D01*
X151386188Y-92089551D01*
X151239465Y-92180052D01*
X151239461Y-92180055D01*
X151117555Y-92301961D01*
X151117552Y-92301965D01*
X151027051Y-92448688D01*
X151027046Y-92448699D01*
X150972819Y-92612347D01*
X150962500Y-92713345D01*
X148039556Y-92713345D01*
X148041282Y-92710762D01*
X148041282Y-92710761D01*
X148041286Y-92710756D01*
X148118591Y-92524127D01*
X148158000Y-92326003D01*
X148158000Y-91673997D01*
X148118591Y-91475873D01*
X148041286Y-91289244D01*
X148041284Y-91289241D01*
X148041282Y-91289237D01*
X148014645Y-91249372D01*
X148005158Y-91219074D01*
X147994063Y-91189327D01*
X147994793Y-91185970D01*
X147993767Y-91182694D01*
X148002165Y-91152079D01*
X148008915Y-91121054D01*
X148011696Y-91117337D01*
X148012252Y-91115314D01*
X148030058Y-91092808D01*
X148186050Y-90936816D01*
X148247371Y-90903334D01*
X148273729Y-90900500D01*
X149249340Y-90900500D01*
X149316379Y-90920185D01*
X149324499Y-90926728D01*
X149324904Y-90926201D01*
X149331349Y-90931146D01*
X149331351Y-90931149D01*
X149454702Y-91025800D01*
X149598349Y-91085301D01*
X149713799Y-91100500D01*
X151111200Y-91100499D01*
X151111203Y-91100499D01*
X151226642Y-91085303D01*
X151226646Y-91085301D01*
X151226651Y-91085301D01*
X151370298Y-91025800D01*
X151493649Y-90931149D01*
X151588300Y-90807798D01*
X151647801Y-90664151D01*
X151663000Y-90548701D01*
X151662999Y-89751300D01*
X151662999Y-89751296D01*
X151647803Y-89635857D01*
X151647801Y-89635852D01*
X151647801Y-89635849D01*
X151588300Y-89492202D01*
X151493649Y-89368851D01*
X151370298Y-89274200D01*
X151370294Y-89274198D01*
X151226651Y-89214699D01*
X151226649Y-89214698D01*
X151111201Y-89199500D01*
X149713796Y-89199500D01*
X149598357Y-89214696D01*
X149598348Y-89214699D01*
X149454705Y-89274198D01*
X149454702Y-89274199D01*
X149454702Y-89274200D01*
X149331351Y-89368851D01*
X149331349Y-89368853D01*
X149324904Y-89373799D01*
X149322740Y-89370978D01*
X149275698Y-89396666D01*
X149249340Y-89399500D01*
X147837580Y-89399500D01*
X147692592Y-89428340D01*
X147692582Y-89428343D01*
X147556011Y-89484912D01*
X147555998Y-89484919D01*
X147433084Y-89567048D01*
X147433080Y-89567051D01*
X147087951Y-89912181D01*
X147026628Y-89945666D01*
X147000270Y-89948500D01*
X143442580Y-89948500D01*
X143297592Y-89977340D01*
X143297582Y-89977343D01*
X143161008Y-90033914D01*
X143161005Y-90033915D01*
X143161005Y-90033916D01*
X143127436Y-90056346D01*
X143127435Y-90056345D01*
X143038085Y-90116046D01*
X143038078Y-90116052D01*
X142779547Y-90374584D01*
X142779542Y-90374590D01*
X142766372Y-90394301D01*
X142712759Y-90439106D01*
X142643434Y-90447812D01*
X142580407Y-90417656D01*
X142575590Y-90413090D01*
X142562500Y-90400000D01*
X141436500Y-90400000D01*
X141369461Y-90380315D01*
X141323706Y-90327511D01*
X141312500Y-90276000D01*
X141312500Y-90150000D01*
X141186500Y-90150000D01*
X141119461Y-90130315D01*
X141073706Y-90077511D01*
X141062500Y-90026000D01*
X141062500Y-89900000D01*
X141562500Y-89900000D01*
X142562500Y-89900000D01*
X142562500Y-89751329D01*
X142547314Y-89635980D01*
X142547312Y-89635975D01*
X142487866Y-89492458D01*
X142487866Y-89492457D01*
X142393292Y-89369207D01*
X142270041Y-89274633D01*
X142126524Y-89215187D01*
X142126519Y-89215185D01*
X142011171Y-89200000D01*
X141562500Y-89200000D01*
X141562500Y-89900000D01*
X141062500Y-89900000D01*
X141062500Y-89200000D01*
X140886000Y-89200000D01*
X140818961Y-89180315D01*
X140773206Y-89127511D01*
X140762000Y-89076000D01*
X140762000Y-88513229D01*
X140781685Y-88446190D01*
X140798315Y-88425552D01*
X141387049Y-87836817D01*
X141448372Y-87803333D01*
X141474730Y-87800499D01*
X142011203Y-87800499D01*
X142126642Y-87785303D01*
X142126646Y-87785301D01*
X142126651Y-87785301D01*
X142270298Y-87725800D01*
X142393649Y-87631149D01*
X142488300Y-87507798D01*
X142547801Y-87364151D01*
X142563000Y-87248701D01*
X142563000Y-87248670D01*
X149162500Y-87248670D01*
X149177685Y-87364019D01*
X149177687Y-87364024D01*
X149237133Y-87507541D01*
X149237133Y-87507542D01*
X149331707Y-87630792D01*
X149454958Y-87725366D01*
X149598475Y-87784812D01*
X149598480Y-87784814D01*
X149713829Y-87800000D01*
X150162500Y-87800000D01*
X150662500Y-87800000D01*
X151111171Y-87800000D01*
X151226519Y-87784814D01*
X151226524Y-87784812D01*
X151370041Y-87725366D01*
X151370042Y-87725366D01*
X151493292Y-87630792D01*
X151587866Y-87507542D01*
X151587866Y-87507541D01*
X151647312Y-87364024D01*
X151647314Y-87364019D01*
X151662500Y-87248670D01*
X151662500Y-87100000D01*
X150662500Y-87100000D01*
X150662500Y-87800000D01*
X150162500Y-87800000D01*
X150162500Y-87100000D01*
X149162500Y-87100000D01*
X149162500Y-87248670D01*
X142563000Y-87248670D01*
X142562999Y-86804088D01*
X142562999Y-86451329D01*
X149162500Y-86451329D01*
X149162500Y-86600000D01*
X150162500Y-86600000D01*
X150662500Y-86600000D01*
X151662500Y-86600000D01*
X151662500Y-86451329D01*
X151647314Y-86335980D01*
X151647312Y-86335975D01*
X151587866Y-86192458D01*
X151587866Y-86192457D01*
X151493292Y-86069207D01*
X151370041Y-85974633D01*
X151226524Y-85915187D01*
X151226519Y-85915185D01*
X151111171Y-85900000D01*
X150662500Y-85900000D01*
X150662500Y-86600000D01*
X150162500Y-86600000D01*
X150162500Y-85900000D01*
X149713829Y-85900000D01*
X149598480Y-85915185D01*
X149598475Y-85915187D01*
X149454958Y-85974633D01*
X149454957Y-85974633D01*
X149331707Y-86069207D01*
X149237133Y-86192457D01*
X149237133Y-86192458D01*
X149177687Y-86335975D01*
X149177685Y-86335980D01*
X149162500Y-86451329D01*
X142562999Y-86451329D01*
X142562999Y-86451296D01*
X142547803Y-86335857D01*
X142547801Y-86335850D01*
X142547801Y-86335849D01*
X142488300Y-86192202D01*
X142393649Y-86068851D01*
X142270298Y-85974200D01*
X142270294Y-85974198D01*
X142126651Y-85914699D01*
X142126649Y-85914698D01*
X142011201Y-85899500D01*
X140613796Y-85899500D01*
X140498357Y-85914696D01*
X140498348Y-85914699D01*
X140354705Y-85974198D01*
X140231351Y-86068851D01*
X140136698Y-86192205D01*
X140077199Y-86335848D01*
X140077198Y-86335850D01*
X140062000Y-86451298D01*
X140062000Y-86987769D01*
X140042315Y-87054808D01*
X140025681Y-87075450D01*
X139428552Y-87672578D01*
X139428549Y-87672581D01*
X139380392Y-87744653D01*
X139380393Y-87744654D01*
X139346418Y-87795501D01*
X139346414Y-87795508D01*
X139289842Y-87932086D01*
X139289840Y-87932092D01*
X139261000Y-88077079D01*
X139261000Y-88077082D01*
X139261000Y-90851922D01*
X139261000Y-90851924D01*
X139260999Y-90851924D01*
X139289840Y-90996911D01*
X139289843Y-90996921D01*
X139346412Y-91133494D01*
X139352439Y-91142512D01*
X139352440Y-91142517D01*
X139352442Y-91142517D01*
X139428551Y-91256424D01*
X139428552Y-91256425D01*
X139998383Y-91826254D01*
X140031868Y-91887577D01*
X140026884Y-91957268D01*
X139998384Y-92001616D01*
X139975000Y-92025000D01*
X139975000Y-92876000D01*
X139955315Y-92943039D01*
X139902511Y-92988794D01*
X139851000Y-93000000D01*
X139599000Y-93000000D01*
X139531961Y-92980315D01*
X139486206Y-92927511D01*
X139475000Y-92876000D01*
X139475000Y-92024999D01*
X139375860Y-92025000D01*
X139375844Y-92025001D01*
X139274847Y-92035319D01*
X139111199Y-92089546D01*
X139111188Y-92089551D01*
X138964465Y-92180052D01*
X138950532Y-92193985D01*
X138889208Y-92227468D01*
X138819516Y-92222482D01*
X138775172Y-92193982D01*
X138760851Y-92179661D01*
X138760850Y-92179660D01*
X138642001Y-92106353D01*
X138614018Y-92089093D01*
X138614013Y-92089091D01*
X138612569Y-92088612D01*
X138450253Y-92034826D01*
X138450251Y-92034825D01*
X138349184Y-92024500D01*
X138349177Y-92024500D01*
X138248733Y-92024500D01*
X138181694Y-92004815D01*
X138161052Y-91988181D01*
X137950552Y-91777680D01*
X137917067Y-91716357D01*
X137922051Y-91646665D01*
X137950552Y-91602318D01*
X138100641Y-91452230D01*
X138296451Y-91256420D01*
X138328474Y-91208494D01*
X138378584Y-91133499D01*
X138435158Y-90996917D01*
X138448664Y-90929021D01*
X138464000Y-90851924D01*
X138464000Y-88077079D01*
X138435159Y-87932092D01*
X138435158Y-87932088D01*
X138435158Y-87932087D01*
X138378584Y-87795505D01*
X138344607Y-87744654D01*
X138344607Y-87744653D01*
X138296450Y-87672581D01*
X137699318Y-87075449D01*
X137665833Y-87014126D01*
X137662999Y-86987768D01*
X137662999Y-86451296D01*
X137647803Y-86335857D01*
X137647801Y-86335850D01*
X137647801Y-86335849D01*
X137588300Y-86192202D01*
X137493649Y-86068851D01*
X137370298Y-85974200D01*
X137370294Y-85974198D01*
X137341546Y-85962290D01*
X137287142Y-85918449D01*
X137265078Y-85852154D01*
X137282358Y-85784455D01*
X137301314Y-85760052D01*
X139389548Y-83671819D01*
X139450871Y-83638334D01*
X139477229Y-83635500D01*
X140578001Y-83635500D01*
X140645040Y-83655185D01*
X140690795Y-83707989D01*
X140702001Y-83759500D01*
X140702001Y-83782876D01*
X140708408Y-83842483D01*
X140758702Y-83977328D01*
X140758706Y-83977335D01*
X140844952Y-84092544D01*
X140844955Y-84092547D01*
X140960164Y-84178793D01*
X140960171Y-84178797D01*
X141095017Y-84229091D01*
X141095016Y-84229091D01*
X141101944Y-84229835D01*
X141154627Y-84235500D01*
X142950372Y-84235499D01*
X143009983Y-84229091D01*
X143144831Y-84178796D01*
X143260046Y-84092546D01*
X143346296Y-83977331D01*
X143395310Y-83845916D01*
X143437181Y-83789984D01*
X143502645Y-83765566D01*
X143570918Y-83780417D01*
X143599173Y-83801569D01*
X143712713Y-83915109D01*
X143884679Y-84040048D01*
X143884681Y-84040049D01*
X143884684Y-84040051D01*
X144074088Y-84136557D01*
X144276257Y-84202246D01*
X144486213Y-84235500D01*
X144486214Y-84235500D01*
X144698786Y-84235500D01*
X144698787Y-84235500D01*
X144908743Y-84202246D01*
X145110912Y-84136557D01*
X145300316Y-84040051D01*
X145386638Y-83977335D01*
X145472286Y-83915109D01*
X145472288Y-83915106D01*
X145472292Y-83915104D01*
X145622604Y-83764792D01*
X145622606Y-83764788D01*
X145622609Y-83764786D01*
X145747548Y-83592820D01*
X145747547Y-83592820D01*
X145747551Y-83592816D01*
X145752014Y-83584054D01*
X145799988Y-83533259D01*
X145867808Y-83516463D01*
X145933944Y-83538999D01*
X145972986Y-83584056D01*
X145977451Y-83592820D01*
X146102390Y-83764786D01*
X146252713Y-83915109D01*
X146424679Y-84040048D01*
X146424681Y-84040049D01*
X146424684Y-84040051D01*
X146614088Y-84136557D01*
X146816257Y-84202246D01*
X147026213Y-84235500D01*
X147026214Y-84235500D01*
X147238786Y-84235500D01*
X147238787Y-84235500D01*
X147448743Y-84202246D01*
X147650912Y-84136557D01*
X147840316Y-84040051D01*
X147926638Y-83977335D01*
X148012286Y-83915109D01*
X148012288Y-83915106D01*
X148012292Y-83915104D01*
X148162604Y-83764792D01*
X148162606Y-83764788D01*
X148162609Y-83764786D01*
X148230152Y-83671819D01*
X148287551Y-83592816D01*
X148292293Y-83583508D01*
X148340263Y-83532711D01*
X148408083Y-83515911D01*
X148474219Y-83538445D01*
X148513263Y-83583500D01*
X148517873Y-83592547D01*
X148557228Y-83646716D01*
X149189536Y-83014407D01*
X149206575Y-83077993D01*
X149272401Y-83192007D01*
X149365493Y-83285099D01*
X149479507Y-83350925D01*
X149543090Y-83367962D01*
X148910782Y-84000269D01*
X148910782Y-84000270D01*
X148964949Y-84039624D01*
X149154282Y-84136095D01*
X149356370Y-84201757D01*
X149566254Y-84235000D01*
X149778746Y-84235000D01*
X149988627Y-84201757D01*
X149988630Y-84201757D01*
X150190717Y-84136095D01*
X150380054Y-84039622D01*
X150434216Y-84000270D01*
X150434217Y-84000270D01*
X149801908Y-83367962D01*
X149865493Y-83350925D01*
X149979507Y-83285099D01*
X150072599Y-83192007D01*
X150138425Y-83077993D01*
X150155462Y-83014409D01*
X150787770Y-83646717D01*
X150787770Y-83646716D01*
X150827122Y-83592554D01*
X150923595Y-83403217D01*
X150989257Y-83201130D01*
X150989257Y-83201127D01*
X151022500Y-82991246D01*
X151022500Y-82778753D01*
X150989257Y-82568872D01*
X150989257Y-82568869D01*
X150933354Y-82396818D01*
X150931359Y-82326977D01*
X150967439Y-82267144D01*
X151030140Y-82236316D01*
X151051285Y-82234500D01*
X151513274Y-82234500D01*
X151580313Y-82254185D01*
G37*
%TD.AperFunction*%
%TA.AperFunction,Conductor*%
G36*
X158011575Y-99502993D02*
G01*
X158077401Y-99617007D01*
X158170493Y-99710099D01*
X158284507Y-99775925D01*
X158348089Y-99792962D01*
X157715782Y-100425269D01*
X157715782Y-100425270D01*
X157769949Y-100464624D01*
X157959282Y-100561095D01*
X158161370Y-100626757D01*
X158234373Y-100638320D01*
X158297508Y-100668249D01*
X158334439Y-100727561D01*
X158333441Y-100797423D01*
X158302656Y-100848474D01*
X155987949Y-103163181D01*
X155926626Y-103196666D01*
X155900268Y-103199500D01*
X154613796Y-103199500D01*
X154498357Y-103214696D01*
X154498348Y-103214699D01*
X154354705Y-103274198D01*
X154354702Y-103274199D01*
X154354702Y-103274200D01*
X154231351Y-103368851D01*
X154231349Y-103368853D01*
X154224904Y-103373799D01*
X154222740Y-103370978D01*
X154175698Y-103396666D01*
X154149340Y-103399500D01*
X152276082Y-103399500D01*
X152255235Y-103403646D01*
X152201747Y-103414286D01*
X152132155Y-103408058D01*
X152076978Y-103365194D01*
X152053734Y-103299304D01*
X152069802Y-103231307D01*
X152089871Y-103204991D01*
X153903071Y-101391791D01*
X153964392Y-101358308D01*
X154034084Y-101363292D01*
X154090017Y-101405164D01*
X154105311Y-101432020D01*
X154136700Y-101507798D01*
X154231351Y-101631149D01*
X154354702Y-101725800D01*
X154498349Y-101785301D01*
X154613799Y-101800500D01*
X156011200Y-101800499D01*
X156011203Y-101800499D01*
X156126642Y-101785303D01*
X156126646Y-101785301D01*
X156126651Y-101785301D01*
X156270298Y-101725800D01*
X156393649Y-101631149D01*
X156488300Y-101507798D01*
X156547801Y-101364151D01*
X156563000Y-101248701D01*
X156562999Y-100712228D01*
X156582683Y-100645190D01*
X156599313Y-100624553D01*
X157171167Y-100052699D01*
X157232487Y-100019217D01*
X157302179Y-100024201D01*
X157358112Y-100066073D01*
X157359164Y-100067499D01*
X157362228Y-100071716D01*
X157994536Y-99439407D01*
X158011575Y-99502993D01*
G37*
%TD.AperFunction*%
%TD*%
M02*
